<svg version="1.1" baseProfile="full" width="2997.5" height="2133.0" viewbox="0 0 2997.5 2133" xmlns="http://www.w3.org/2000/svg" xmlns:xlink="http://www.w3.org/1999/xlink" xmlns:ev="http://www.w3.org/2001/xml-events">
	<desc >[Study
	  |
	  &lt;static&gt;+tableName: String;
	  &lt;static&gt;+baselineID: String;
	  +id: String;
	  +title: String?;
	  +description: String?;
	  +userId: String;
	  +participation: Participation;
	  +resultSharing: ResultSharing;
	  +contact: Contact;
	  +iconName: String;
	  +published: bool;
	  +questionnaire: StudyUQuestionnaire;
	  +eligibilityCriteria: List&lt;EligibilityCriterion&gt;;
	  +consent: List&lt;ConsentItem&gt;;
	  +interventions: List&lt;Intervention&gt;;
	  +observations: List&lt;Observation&gt;;
	  +schedule: StudySchedule;
	  +reportSpecification: ReportSpecification;
	  +results: List&lt;StudyResult&gt;;
	  +collaboratorEmails: List&lt;String&gt;;
	  +registryPublished: bool;
	  +participantCount: int;
	  +endedCount: int;
	  +activeSubjectCount: int;
	  +missedDays: List&lt;int&gt;;
	  +repo: Repo?;
	  +invites: List&lt;StudyInvite&gt;?;
	  +participants: List&lt;StudySubject&gt;?;
	  +participantsProgress: List&lt;SubjectProgress&gt;?;
	  +createdAt: DateTime?;
	  +primaryKeys: Map&lt;String, dynamic&gt;;
	  +hasEligibilityCheck: bool;
	  +hasConsentCheck: bool;
	  +totalMissedDays: int;
	  +percentageMissedDays: double;
	  +status: StudyStatus;
	  +isDraft: bool;
	  +isRunning: bool;
	  +isClosed: bool
	  |
	  +Map&lt;String, dynamic&gt; toJson();
	  &lt;static&gt;+dynamic getResearcherDashboardStudies();
	  &lt;static&gt;+dynamic publishedPublicStudies();
	  +bool isOwner();
	  +bool isEditor();
	  +bool canEdit();
	  &lt;static&gt;+dynamic fetchResultsCSVTable();
	  +bool isReadonly();
	  +String toString()
	]
	
	[Study]o-[Participation]
	[Study]o-[ResultSharing]
	[Study]o-[Contact]
	[Study]o-[StudyUQuestionnaire]
	[Study]o-[StudySchedule]
	[Study]o-[ReportSpecification]
	[Study]o-[Repo]
	[Study]o-[StudyStatus]
	[&lt;abstract&gt;SupabaseObjectFunctions]&lt;:-[Study]
	
	[StudyStatus
	  |
	  +index: int;
	  &lt;static&gt;+values: List&lt;StudyStatus&gt;;
	  &lt;static&gt;+draft: StudyStatus;
	  &lt;static&gt;+running: StudyStatus;
	  &lt;static&gt;+closed: StudyStatus
	]
	
	[StudyStatus]o-[StudyStatus]
	[Enum]&lt;:--[StudyStatus]
	
	[Participation
	  |
	  +index: int;
	  &lt;static&gt;+values: List&lt;Participation&gt;;
	  &lt;static&gt;+open: Participation;
	  &lt;static&gt;+invite: Participation
	]
	
	[Participation]o-[Participation]
	[Enum]&lt;:--[Participation]
	
	[ResultSharing
	  |
	  +index: int;
	  &lt;static&gt;+values: List&lt;ResultSharing&gt;;
	  &lt;static&gt;+public: ResultSharing;
	  &lt;static&gt;+private: ResultSharing;
	  &lt;static&gt;+organization: ResultSharing
	]
	
	[ResultSharing]o-[ResultSharing]
	[Enum]&lt;:--[ResultSharing]
	
	[AppConfig
	  |
	  &lt;static&gt;+tableName: String;
	  +id: String;
	  +contact: Contact;
	  +appPrivacy: Map&lt;String, String&gt;;
	  +appTerms: Map&lt;String, String&gt;;
	  +designerPrivacy: Map&lt;String, String&gt;;
	  +designerTerms: Map&lt;String, String&gt;;
	  +imprint: Map&lt;String, String&gt;;
	  +analytics: StudyUAnalytics;
	  +primaryKeys: Map&lt;String, dynamic&gt;
	  |
	  +Map&lt;String, dynamic&gt; toJson();
	  &lt;static&gt;+dynamic getAppConfig();
	  &lt;static&gt;+dynamic getAppContact()
	]
	
	[AppConfig]o-[Contact]
	[AppConfig]o-[StudyUAnalytics]
	[&lt;abstract&gt;SupabaseObjectFunctions]&lt;:-[AppConfig]
	
	[SubjectProgress
	  |
	  &lt;static&gt;+tableName: String;
	  +completedAt: DateTime?;
	  +subjectId: String;
	  +interventionId: String;
	  +taskId: String;
	  +resultType: String;
	  +result: Result&lt;dynamic&gt;;
	  +startedAt: DateTime?;
	  +primaryKeys: Map&lt;String, dynamic&gt;;
	  +hashCode: int
	  |
	  +Map&lt;String, dynamic&gt; toJson();
	  +SubjectProgress setStartDateBackBy();
	  +bool ==()
	]
	
	[SubjectProgress]o-[Result]
	[&lt;abstract&gt;SupabaseObjectFunctions]&lt;:-[SubjectProgress]
	
	[StudyInvite
	  |
	  &lt;static&gt;+tableName: String;
	  +code: String;
	  +studyId: String;
	  +preselectedInterventionIds: List&lt;String&gt;?;
	  +primaryKeys: Map&lt;String, dynamic&gt;
	  |
	  +Map&lt;String, dynamic&gt; toJson()
	]
	
	[&lt;abstract&gt;SupabaseObjectFunctions]&lt;:-[StudyInvite]
	
	[Repo
	  |
	  &lt;static&gt;+tableName: String;
	  +projectId: String;
	  +userId: String;
	  +studyId: String;
	  +provider: GitProvider;
	  +webUrl: String;
	  +gitUrl: String;
	  +primaryKeys: Map&lt;String, dynamic&gt;
	  |
	  +Map&lt;String, dynamic&gt; toJson()
	]
	
	[Repo]o-[GitProvider]
	[&lt;abstract&gt;SupabaseObjectFunctions]&lt;:-[Repo]
	
	[GitProvider
	  |
	  +index: int;
	  &lt;static&gt;+values: List&lt;GitProvider&gt;;
	  &lt;static&gt;+gitlab: GitProvider
	]
	
	[GitProvider]o-[GitProvider]
	[Enum]&lt;:--[GitProvider]
	
	[StudySubject
	  |
	  &lt;static&gt;+tableName: String;
	  -_controller: StreamController&lt;StudySubject&gt;;
	  +id: String;
	  +studyId: String;
	  +userId: String;
	  +startedAt: DateTime?;
	  +selectedInterventionIds: List&lt;String&gt;;
	  +inviteCode: String?;
	  +isDeleted: bool;
	  +study: Study;
	  +progress: List&lt;SubjectProgress&gt;;
	  +primaryKeys: Map&lt;String, dynamic&gt;;
	  +interventionOrder: List&lt;String&gt;;
	  +selectedInterventions: List&lt;Intervention&gt;;
	  +daysPerIntervention: int;
	  +minimumStudyLengthCompleted: bool;
	  +completedStudy: bool;
	  +onSave: Stream&lt;StudySubject&gt;;
	  +hashCode: int
	  |
	  +Map&lt;String, dynamic&gt; toJson();
	  +dynamic addResult();
	  +Map&lt;DateTime, List&lt;SubjectProgress&gt;&gt; getResultsByDate();
	  +DateTime endDate();
	  +int getDayOfStudyFor();
	  +int getInterventionIndexForDate();
	  +Intervention? getInterventionForDate();
	  +List&lt;Intervention&gt; getInterventionsInOrder();
	  +DateTime startOfPhase();
	  +DateTime dayAfterEndOfPhase();
	  +List&lt;SubjectProgress&gt; resultsFor();
	  +int completedForPhase();
	  +int daysLeftForPhase();
	  +double percentCompletedForPhase();
	  +double percentMissedForPhase();
	  +List&lt;SubjectProgress&gt; getTaskProgressForDay();
	  +bool completedTaskInstanceForDay();
	  +bool completedTaskForDay();
	  +int completedTasksFor();
	  +bool allTasksCompletedFor();
	  +int totalTaskCountFor();
	  +List&lt;TaskInstance&gt; scheduleFor();
	  +dynamic setStartDateBackBy();
	  +dynamic save();
	  +Map&lt;String, dynamic&gt; toFullJson();
	  +dynamic deleteProgress();
	  +dynamic delete();
	  +dynamic softDelete();
	  &lt;static&gt;+dynamic getStudyHistory();
	  +bool ==();
	  +String toString()
	]
	
	[StudySubject]o-[StreamController]
	[StudySubject]o-[Study]
	[StudySubject]o-[Stream]
	[&lt;abstract&gt;SupabaseObjectFunctions]&lt;:-[StudySubject]
	
	</desc>
	<g stroke-width="1.0" text-align="left" font="12pt Helvetica, Arial, sans-serif" font-size="12pt" font-family="Helvetica" font-weight="bold" font-style="normal">
		<g font-family="Helvetica" font-size="12pt" font-weight="bold" font-style="normal" stroke-width="3.0" stroke-linejoin="round" stroke-linecap="round" stroke="#33322E">
			<g stroke="transparent" fill="transparent">
				<rect x="0.0" y="0.0" height="2133.0" width="2997.5" stroke="none"></rect>
			</g>
			<g transform="translate(8, 8)" fill="#33322E">
				<g transform="translate(20, 20)" fill="#eee8d5" font-family="Helvetica" font-size="12pt" font-weight="normal" font-style="normal">
					<path d="M1093.2 1517.5 L853.5 1727 L666.25 1793.4660700969425 L666.3 1793.5 " fill="none"></path>
					<g fill="#eee8d5">
						<path d="M1103.7 1515.3 L1093.2 1517.5 L1096.7 1507.3 L1107.3 1505.2 Z"></path>
					</g>
					<path d="M1094.7 1568.4 L950.75 1727 L950.75 1785 L950.8 1785.0 " fill="none"></path>
					<g fill="#eee8d5">
						<path d="M1104.9 1565.1 L1094.7 1568.4 L1097.0 1557.9 L1107.3 1554.6 Z"></path>
					</g>
					<path d="M1106.4 1723.5 L1104.5 1727 L328.5 1840.3750767341928 L328.5 1840.4 " fill="none"></path>
					<g fill="#eee8d5">
						<path d="M1115.5 1717.7 L1106.4 1723.5 L1106.1 1712.7 L1115.2 1707.0 Z"></path>
					</g>
					<path d="M1164.8 1724.4 L1163.75 1727 L1604.2773109243697 1830.5 L1604.3 1830.5 " fill="none"></path>
					<g fill="#eee8d5">
						<path d="M1173.1 1717.6 L1164.8 1724.4 L1163.2 1713.8 L1171.6 1707.0 Z"></path>
					</g>
					<path d="M1283.6 1725.6 L1283.5 1727 L1840.5 1833.1377101681346 L1840.5 1833.1 " fill="none"></path>
					<g fill="#eee8d5">
						<path d="M1289.9 1716.8 L1283.6 1725.6 L1279.3 1715.8 L1285.5 1707.0 Z"></path>
					</g>
					<path d="M1399.4 1725.4 L1399.75 1727 L2015.5 1831.5654655726007 L2015.5 1831.6 " fill="none"></path>
					<g fill="#eee8d5">
						<path d="M1403.0 1715.2 L1399.4 1725.4 L1392.5 1717.1 L1396.1 1707.0 Z"></path>
					</g>
					<path d="M1439.2 1725.0 L1439.75 1727 L2245.5 1826.8014571948997 L2245.5 1826.8 " fill="none"></path>
					<g fill="#eee8d5">
						<path d="M1441.8 1714.5 L1439.2 1725.0 L1431.5 1717.4 L1434.1 1707.0 Z"></path>
					</g>
					<path d="M1478.8 1724.5 L1479.75 1727 L1412.4894957983192 1785 L1412.5 1785.0 " fill="none"></path>
					<g fill="#eee8d5">
						<path d="M1480.5 1713.8 L1478.8 1724.5 L1470.5 1717.6 L1472.2 1707.0 Z"></path>
					</g>
					<path d="M1353.4 22.5 L839.5 51 L839.5 477.5 L839.5 477.5 L839.5 904 L839.5 904 L1107.25 1131.2906137184116 L1107.3 1131.3 " fill="none"></path>
					<path d="M1353.7 27.8 L1353.4 22.5 L1353.1 17.1 L1366.8 21.7 Z"></path>
					<path d="M1505.9 1789.3 L1518.25 1785 L1525.75 1785 L1525.75 1785 L1533.25 1846 L1533.25 1846 L1525.75 1907 L1525.75 1907 L1518.25 1907 L1518.25 1907 L1488.25 1896.6317280453259 L1488.3 1896.6 " fill="none"></path>
					<g fill="#eee8d5">
						<path d="M1495.3 1787.3 L1505.9 1789.3 L1498.8 1797.4 L1488.3 1795.4 Z"></path>
					</g>
					<g stroke-dasharray="6 6">
						<path d="M505.6 1343.1 L329.75 1727 L1195.25 1828.7732213438735 L1195.3 1828.8 " fill="none"></path>
					</g>
					<path d="M510.4 1345.3 L505.6 1343.1 L500.7 1340.9 L511.1 1331.0 Z"></path>
					<path d="M684.1 1796.1 L696.25 1792.5 L703.75 1792.5 L703.75 1792.5 L711.25 1846 L711.25 1846 L703.75 1899.5 L703.75 1899.5 L696.25 1899.5 L696.25 1899.5 L666.25 1890.4831460674156 L666.3 1890.5 " fill="none"></path>
					<g fill="#eee8d5">
						<path d="M673.7 1793.7 L684.1 1796.1 L676.7 1803.9 L666.3 1801.5 Z"></path>
					</g>
					<g stroke-dasharray="6 6">
						<path d="M518.3 1344.3 L518.25 1727 L518.25 1792.5 L518.3 1792.5 " fill="none"></path>
					</g>
					<path d="M523.6 1344.3 L518.3 1344.3 L512.9 1344.3 L518.3 1331.0 Z"></path>
					<path d="M1123.0 1789.1 L1135.25 1785 L1142.75 1785 L1142.75 1785 L1150.25 1846 L1150.25 1846 L1142.75 1907 L1142.75 1907 L1135.25 1907 L1135.25 1907 L1105.25 1897.081300813008 L1105.3 1897.1 " fill="none"></path>
					<g fill="#eee8d5">
						<path d="M1112.4 1786.9 L1123.0 1789.1 L1115.8 1797.1 L1105.3 1794.9 Z"></path>
					</g>
					<g stroke-dasharray="6 6">
						<path d="M526.4 1343.8 L637.25 1727 L796.25 1787.3540669856459 L796.3 1787.4 " fill="none"></path>
					</g>
					<path d="M531.6 1342.3 L526.4 1343.8 L521.3 1345.3 L522.7 1331.0 Z"></path>
					<path d="M152.3 1463.1 L139.5 1727 L270.3970588235294 1830.5 L270.4 1830.5 " fill="none"></path>
					<g fill="#eee8d5">
						<path d="M158.1 1454.1 L152.3 1463.1 L147.5 1453.6 L153.2 1444.5 Z"></path>
					</g>
					<path d="M166.7 1463.1 L179.5 1727 L144.71008403361344 1830.5 L144.7 1830.5 " fill="none"></path>
					<g fill="#eee8d5">
						<path d="M171.5 1453.6 L166.7 1463.1 L160.9 1454.1 L165.8 1444.5 Z"></path>
					</g>
					<path d="M1353.4 22.9 L879.5 51 L879.5 477.5 L879.5 477.5 L879.5 904 L879.5 904 L319 1224.3413194444445 L319.0 1224.3 " fill="none"></path>
					<path d="M1353.8 28.2 L1353.4 22.9 L1353.1 17.6 L1366.8 22.1 Z"></path>
					<path d="M1242.3 625.2 L1242.25 904 L700.6971445929526 1300 L700.7 1300.0 " fill="none"></path>
					<g fill="#eee8d5">
						<path d="M1247.6 615.8 L1242.3 625.2 L1236.9 615.8 L1242.3 606.5 Z"></path>
					</g>
					<path d="M1362.3 33.0 L1242.25 51 L1242.25 348.5 L1242.3 348.5 " fill="none"></path>
					<path d="M1363.1 38.3 L1362.3 33.0 L1361.5 27.7 L1375.5 31.0 Z"></path>
					<path d="M1604.1 21.8 L2185 51 L2185 401 L2185.0 401.0 " fill="none"></path>
					<path d="M1604.3 16.5 L1604.1 21.8 L1603.8 27.1 L1590.8 21.1 Z"></path>
					<path d="M2400.5 1963.7 L2400.5 1965 L1730.5 2019.391143911439 L1730.5 2019.4 " fill="none"></path>
					<g fill="#eee8d5">
						<path d="M2405.8 1954.3 L2400.5 1963.7 L2395.2 1954.3 L2400.5 1945.0 Z"></path>
					</g>
					<path d="M1604.1 20.3 L2400.5 51 L2400.5 477.5 L2400.5 477.5 L2400.5 904 L2400.5 904 L2400.5 1315.5 L2400.5 1315.5 L2400.5 1727 L2400.5 1727 L2400.5 1747 L2400.5 1747.0 " fill="none"></path>
					<path d="M1604.3 15.0 L1604.1 20.3 L1603.9 25.7 L1590.8 19.8 Z"></path>
					<path d="M1748.5 1988.2 L1760.5 1985 L1768 1985 L1768 1985 L1775.5 2031 L1775.5 2031 L1768 2077 L1768 2077 L1760.5 2077 L1760.5 2077 L1730.5 2069.023121387283 L1730.5 2069.0 " fill="none"></path>
					<g fill="#eee8d5">
						<path d="M1738.1 1985.4 L1748.5 1988.2 L1740.9 1995.7 L1730.5 1993.0 Z"></path>
					</g>
					<g stroke-dasharray="6 6">
						<path d="M533.9 1342.5 L756.25 1727 L756.25 1846 L756.25 1846 L756.25 1965 L756.25 1965 L1444.5 2019.646015037594 L1444.5 2019.6 " fill="none"></path>
					</g>
					<path d="M538.5 1339.9 L533.9 1342.5 L529.3 1345.2 L527.2 1331.0 Z"></path>
					<path d="M2594.4 902.2 L2594 904 L2594 1300 L2594.0 1300.0 " fill="none"></path>
					<g fill="#eee8d5">
						<path d="M2601.7 894.3 L2594.4 902.2 L2591.3 891.9 L2598.5 884.0 Z"></path>
					</g>
					<path d="M2717.2 902.6 L2717.25 904 L1541.25 1251.3969849246232 L1541.3 1251.4 " fill="none"></path>
					<g fill="#eee8d5">
						<path d="M2721.9 893.0 L2717.2 902.6 L2711.3 893.6 L2716.0 884.0 Z"></path>
					</g>
					<path d="M2757.0 902.4 L2757.25 904 L2757.25 1300 L2757.3 1300.0 " fill="none"></path>
					<g fill="#eee8d5">
						<path d="M2760.8 892.4 L2757.0 902.4 L2750.3 894.0 L2754.1 884.0 Z"></path>
					</g>
					<path d="M1604.1 19.2 L2691 51 L2691 71 L2691.0 71.0 " fill="none"></path>
					<path d="M1604.2 13.8 L1604.1 19.2 L1603.9 24.5 L1590.8 18.8 Z"></path>
					<g data-name="Study">
						<g fill="#eee8d5" stroke="#33322E" data-name="Study">
							<rect x="1107.3" y="924.0" height="783.0" width="434.0" data-name="Study"></rect>
							<path d="M1107.3 955.0 L1541.3 955.0" fill="none" data-name="Study"></path>
							<path d="M1107.3 1556.0 L1541.3 1556.0" fill="none" data-name="Study"></path>
						</g>
						<g transform="translate(1107.25, 924)" font-family="Helvetica" font-size="12pt" font-weight="bold" font-style="normal" data-name="Study">
							<g transform="translate(8, 8)" fill="#33322E" text-align="center" data-name="Study">
								<text x="209.0" y="13.5" stroke="none" text-anchor="middle" data-name="Study">Study</text>
								
							</g>
						</g>
						<g transform="translate(1107.25, 955)" font-family="Helvetica" font-size="12pt" font-weight="normal" font-style="normal" data-name="Study">
							<g transform="translate(8, 8)" fill="#33322E" text-align="left" data-name="Study">
								<text x="0.0" y="13.5" stroke="none" data-name="Study">&lt;static&gt;+tableName: String</text>
								<text x="0.0" y="28.5" stroke="none" data-name="Study">&lt;static&gt;+baselineID: String</text>
								<text x="0.0" y="43.5" stroke="none" data-name="Study">+id: String</text>
								<text x="0.0" y="58.5" stroke="none" data-name="Study">+title: String?</text>
								<text x="0.0" y="73.5" stroke="none" data-name="Study">+description: String?</text>
								<text x="0.0" y="88.5" stroke="none" data-name="Study">+userId: String</text>
								<text x="0.0" y="103.5" stroke="none" data-name="Study">+participation: Participation</text>
								<text x="0.0" y="118.5" stroke="none" data-name="Study">+resultSharing: ResultSharing</text>
								<text x="0.0" y="133.5" stroke="none" data-name="Study">+contact: Contact</text>
								<text x="0.0" y="148.5" stroke="none" data-name="Study">+iconName: String</text>
								<text x="0.0" y="163.5" stroke="none" data-name="Study">+published: bool</text>
								<text x="0.0" y="178.5" stroke="none" data-name="Study">+questionnaire: StudyUQuestionnaire</text>
								<text x="0.0" y="193.5" stroke="none" data-name="Study">+eligibilityCriteria: List&lt;EligibilityCriterion&gt;</text>
								<text x="0.0" y="208.5" stroke="none" data-name="Study">+consent: List&lt;ConsentItem&gt;</text>
								<text x="0.0" y="223.5" stroke="none" data-name="Study">+interventions: List&lt;Intervention&gt;</text>
								<text x="0.0" y="238.5" stroke="none" data-name="Study">+observations: List&lt;Observation&gt;</text>
								<text x="0.0" y="253.5" stroke="none" data-name="Study">+schedule: StudySchedule</text>
								<text x="0.0" y="268.5" stroke="none" data-name="Study">+reportSpecification: ReportSpecification</text>
								<text x="0.0" y="283.5" stroke="none" data-name="Study">+results: List&lt;StudyResult&gt;</text>
								<text x="0.0" y="298.5" stroke="none" data-name="Study">+collaboratorEmails: List&lt;String&gt;</text>
								<text x="0.0" y="313.5" stroke="none" data-name="Study">+registryPublished: bool</text>
								<text x="0.0" y="328.5" stroke="none" data-name="Study">+participantCount: int</text>
								<text x="0.0" y="343.5" stroke="none" data-name="Study">+endedCount: int</text>
								<text x="0.0" y="358.5" stroke="none" data-name="Study">+activeSubjectCount: int</text>
								<text x="0.0" y="373.5" stroke="none" data-name="Study">+missedDays: List&lt;int&gt;</text>
								<text x="0.0" y="388.5" stroke="none" data-name="Study">+repo: Repo?</text>
								<text x="0.0" y="403.5" stroke="none" data-name="Study">+invites: List&lt;StudyInvite&gt;?</text>
								<text x="0.0" y="418.5" stroke="none" data-name="Study">+participants: List&lt;StudySubject&gt;?</text>
								<text x="0.0" y="433.5" stroke="none" data-name="Study">+participantsProgress: List&lt;SubjectProgress&gt;?</text>
								<text x="0.0" y="448.5" stroke="none" data-name="Study">+createdAt: DateTime?</text>
								<text x="0.0" y="463.5" stroke="none" data-name="Study">+primaryKeys: Map&lt;String, dynamic&gt;</text>
								<text x="0.0" y="478.5" stroke="none" data-name="Study">+hasEligibilityCheck: bool</text>
								<text x="0.0" y="493.5" stroke="none" data-name="Study">+hasConsentCheck: bool</text>
								<text x="0.0" y="508.5" stroke="none" data-name="Study">+totalMissedDays: int</text>
								<text x="0.0" y="523.5" stroke="none" data-name="Study">+percentageMissedDays: double</text>
								<text x="0.0" y="538.5" stroke="none" data-name="Study">+status: StudyStatus</text>
								<text x="0.0" y="553.5" stroke="none" data-name="Study">+isDraft: bool</text>
								<text x="0.0" y="568.5" stroke="none" data-name="Study">+isRunning: bool</text>
								<text x="0.0" y="583.5" stroke="none" data-name="Study">+isClosed: bool</text>
								
							</g>
						</g>
						<g transform="translate(1107.25, 1556)" font-family="Helvetica" font-size="12pt" font-weight="normal" font-style="normal" data-name="Study">
							<g transform="translate(8, 8)" fill="#33322E" text-align="left" data-name="Study">
								<text x="0.0" y="13.5" stroke="none" data-name="Study">+Map&lt;String, dynamic&gt; toJson()</text>
								<text x="0.0" y="28.5" stroke="none" data-name="Study">&lt;static&gt;+dynamic getResearcherDashboardStudies()</text>
								<text x="0.0" y="43.5" stroke="none" data-name="Study">&lt;static&gt;+dynamic publishedPublicStudies()</text>
								<text x="0.0" y="58.5" stroke="none" data-name="Study">+bool isOwner()</text>
								<text x="0.0" y="73.5" stroke="none" data-name="Study">+bool isEditor()</text>
								<text x="0.0" y="88.5" stroke="none" data-name="Study">+bool canEdit()</text>
								<text x="0.0" y="103.5" stroke="none" data-name="Study">&lt;static&gt;+dynamic fetchResultsCSVTable()</text>
								<text x="0.0" y="118.5" stroke="none" data-name="Study">+bool isReadonly()</text>
								<text x="0.0" y="133.5" stroke="none" data-name="Study">+String toString()</text>
								
							</g>
						</g>
					</g>
					<g data-name="Participation">
						<g fill="#eee8d5" stroke="#33322E" data-name="Participation">
							<rect x="370.3" y="1792.5" height="107.0" width="296.0" data-name="Participation"></rect>
							<path d="M370.3 1823.5 L666.3 1823.5" fill="none" data-name="Participation"></path>
						</g>
						<g transform="translate(370.25, 1792.5)" font-family="Helvetica" font-size="12pt" font-weight="bold" font-style="normal" data-name="Participation">
							<g transform="translate(8, 8)" fill="#33322E" text-align="center" data-name="Participation">
								<text x="140.0" y="13.5" stroke="none" text-anchor="middle" data-name="Participation">Participation</text>
								
							</g>
						</g>
						<g transform="translate(370.25, 1823.5)" font-family="Helvetica" font-size="12pt" font-weight="normal" font-style="normal" data-name="Participation">
							<g transform="translate(8, 8)" fill="#33322E" text-align="left" data-name="Participation">
								<text x="0.0" y="13.5" stroke="none" data-name="Participation">+index: int</text>
								<text x="0.0" y="28.5" stroke="none" data-name="Participation">&lt;static&gt;+values: List&lt;Participation&gt;</text>
								<text x="0.0" y="43.5" stroke="none" data-name="Participation">&lt;static&gt;+open: Participation</text>
								<text x="0.0" y="58.5" stroke="none" data-name="Participation">&lt;static&gt;+invite: Participation</text>
								
							</g>
						</g>
					</g>
					<g data-name="ResultSharing">
						<g fill="#eee8d5" stroke="#33322E" data-name="ResultSharing">
							<rect x="796.3" y="1785.0" height="122.0" width="309.0" data-name="ResultSharing"></rect>
							<path d="M796.3 1816.0 L1105.3 1816.0" fill="none" data-name="ResultSharing"></path>
						</g>
						<g transform="translate(796.25, 1785)" font-family="Helvetica" font-size="12pt" font-weight="bold" font-style="normal" data-name="ResultSharing">
							<g transform="translate(8, 8)" fill="#33322E" text-align="center" data-name="ResultSharing">
								<text x="146.5" y="13.5" stroke="none" text-anchor="middle" data-name="ResultSharing">ResultSharing</text>
								
							</g>
						</g>
						<g transform="translate(796.25, 1816)" font-family="Helvetica" font-size="12pt" font-weight="normal" font-style="normal" data-name="ResultSharing">
							<g transform="translate(8, 8)" fill="#33322E" text-align="left" data-name="ResultSharing">
								<text x="0.0" y="13.5" stroke="none" data-name="ResultSharing">+index: int</text>
								<text x="0.0" y="28.5" stroke="none" data-name="ResultSharing">&lt;static&gt;+values: List&lt;ResultSharing&gt;</text>
								<text x="0.0" y="43.5" stroke="none" data-name="ResultSharing">&lt;static&gt;+public: ResultSharing</text>
								<text x="0.0" y="58.5" stroke="none" data-name="ResultSharing">&lt;static&gt;+private: ResultSharing</text>
								<text x="0.0" y="73.5" stroke="none" data-name="ResultSharing">&lt;static&gt;+organization: ResultSharing</text>
								
							</g>
						</g>
					</g>
					<g data-name="Contact">
						<g fill="#eee8d5" stroke="#33322E" data-name="Contact">
							<rect x="251.5" y="1830.5" height="31.0" width="77.0" data-name="Contact"></rect>
						</g>
						<g transform="translate(251.5, 1830.5)" font-family="Helvetica" font-size="12pt" font-weight="bold" font-style="normal" data-name="Contact">
							<g transform="translate(8, 8)" fill="#33322E" text-align="center" data-name="Contact">
								<text x="30.5" y="13.5" stroke="none" text-anchor="middle" data-name="Contact">Contact</text>
								
							</g>
						</g>
					</g>
					<g data-name="StudyUQuestionnaire">
						<g fill="#eee8d5" stroke="#33322E" data-name="StudyUQuestionnaire">
							<rect x="1578.3" y="1830.5" height="31.0" width="184.0" data-name="StudyUQuestionnaire"></rect>
						</g>
						<g transform="translate(1578.25, 1830.5)" font-family="Helvetica" font-size="12pt" font-weight="bold" font-style="normal" data-name="StudyUQuestionnaire">
							<g transform="translate(8, 8)" fill="#33322E" text-align="center" data-name="StudyUQuestionnaire">
								<text x="84.0" y="13.5" stroke="none" text-anchor="middle" data-name="StudyUQuestionnaire">StudyUQuestionnaire</text>
								
							</g>
						</g>
					</g>
					<g data-name="StudySchedule">
						<g fill="#eee8d5" stroke="#33322E" data-name="StudySchedule">
							<rect x="1840.5" y="1830.5" height="31.0" width="135.0" data-name="StudySchedule"></rect>
						</g>
						<g transform="translate(1840.5, 1830.5)" font-family="Helvetica" font-size="12pt" font-weight="bold" font-style="normal" data-name="StudySchedule">
							<g transform="translate(8, 8)" fill="#33322E" text-align="center" data-name="StudySchedule">
								<text x="59.5" y="13.5" stroke="none" text-anchor="middle" data-name="StudySchedule">StudySchedule</text>
								
							</g>
						</g>
					</g>
					<g data-name="ReportSpecification">
						<g fill="#eee8d5" stroke="#33322E" data-name="ReportSpecification">
							<rect x="2015.5" y="1830.5" height="31.0" width="170.0" data-name="ReportSpecification"></rect>
						</g>
						<g transform="translate(2015.5, 1830.5)" font-family="Helvetica" font-size="12pt" font-weight="bold" font-style="normal" data-name="ReportSpecification">
							<g transform="translate(8, 8)" fill="#33322E" text-align="center" data-name="ReportSpecification">
								<text x="77.0" y="13.5" stroke="none" text-anchor="middle" data-name="ReportSpecification">ReportSpecification</text>
								
							</g>
						</g>
					</g>
					<g data-name="Repo">
						<g fill="#eee8d5" stroke="#33322E" data-name="Repo">
							<rect x="2245.5" y="1747.0" height="198.0" width="310.0" data-name="Repo"></rect>
							<path d="M2245.5 1778.0 L2555.5 1778.0" fill="none" data-name="Repo"></path>
							<path d="M2245.5 1914.0 L2555.5 1914.0" fill="none" data-name="Repo"></path>
						</g>
						<g transform="translate(2245.5, 1747)" font-family="Helvetica" font-size="12pt" font-weight="bold" font-style="normal" data-name="Repo">
							<g transform="translate(8, 8)" fill="#33322E" text-align="center" data-name="Repo">
								<text x="147.0" y="13.5" stroke="none" text-anchor="middle" data-name="Repo">Repo</text>
								
							</g>
						</g>
						<g transform="translate(2245.5, 1778)" font-family="Helvetica" font-size="12pt" font-weight="normal" font-style="normal" data-name="Repo">
							<g transform="translate(8, 8)" fill="#33322E" text-align="left" data-name="Repo">
								<text x="0.0" y="13.5" stroke="none" data-name="Repo">&lt;static&gt;+tableName: String</text>
								<text x="0.0" y="28.5" stroke="none" data-name="Repo">+projectId: String</text>
								<text x="0.0" y="43.5" stroke="none" data-name="Repo">+userId: String</text>
								<text x="0.0" y="58.5" stroke="none" data-name="Repo">+studyId: String</text>
								<text x="0.0" y="73.5" stroke="none" data-name="Repo">+provider: GitProvider</text>
								<text x="0.0" y="88.5" stroke="none" data-name="Repo">+webUrl: String</text>
								<text x="0.0" y="103.5" stroke="none" data-name="Repo">+gitUrl: String</text>
								<text x="0.0" y="118.5" stroke="none" data-name="Repo">+primaryKeys: Map&lt;String, dynamic&gt;</text>
								
							</g>
						</g>
						<g transform="translate(2245.5, 1914)" font-family="Helvetica" font-size="12pt" font-weight="normal" font-style="normal" data-name="Repo">
							<g transform="translate(8, 8)" fill="#33322E" text-align="left" data-name="Repo">
								<text x="0.0" y="13.5" stroke="none" data-name="Repo">+Map&lt;String, dynamic&gt; toJson()</text>
								
							</g>
						</g>
					</g>
					<g data-name="StudyStatus">
						<g fill="#eee8d5" stroke="#33322E" data-name="StudyStatus">
							<rect x="1195.3" y="1785.0" height="122.0" width="293.0" data-name="StudyStatus"></rect>
							<path d="M1195.3 1816.0 L1488.3 1816.0" fill="none" data-name="StudyStatus"></path>
						</g>
						<g transform="translate(1195.25, 1785)" font-family="Helvetica" font-size="12pt" font-weight="bold" font-style="normal" data-name="StudyStatus">
							<g transform="translate(8, 8)" fill="#33322E" text-align="center" data-name="StudyStatus">
								<text x="138.5" y="13.5" stroke="none" text-anchor="middle" data-name="StudyStatus">StudyStatus</text>
								
							</g>
						</g>
						<g transform="translate(1195.25, 1816)" font-family="Helvetica" font-size="12pt" font-weight="normal" font-style="normal" data-name="StudyStatus">
							<g transform="translate(8, 8)" fill="#33322E" text-align="left" data-name="StudyStatus">
								<text x="0.0" y="13.5" stroke="none" data-name="StudyStatus">+index: int</text>
								<text x="0.0" y="28.5" stroke="none" data-name="StudyStatus">&lt;static&gt;+values: List&lt;StudyStatus&gt;</text>
								<text x="0.0" y="43.5" stroke="none" data-name="StudyStatus">&lt;static&gt;+draft: StudyStatus</text>
								<text x="0.0" y="58.5" stroke="none" data-name="StudyStatus">&lt;static&gt;+running: StudyStatus</text>
								<text x="0.0" y="73.5" stroke="none" data-name="StudyStatus">&lt;static&gt;+closed: StudyStatus</text>
								
							</g>
						</g>
					</g>
					<g data-name="SupabaseObjectFunctions">
						<g fill="#eee8d5" stroke="#33322E" data-name="SupabaseObjectFunctions">
							<rect x="1366.8" y="0.0" height="31.0" width="224.0" data-name="SupabaseObjectFunctions"></rect>
						</g>
						<g transform="translate(1366.75, 0)" font-family="Helvetica" font-size="12pt" font-weight="normal" font-style="italic" data-name="SupabaseObjectFunctions">
							<g transform="translate(8, 8)" fill="#33322E" text-align="center" data-name="SupabaseObjectFunctions">
								<text x="104.0" y="13.5" stroke="none" text-anchor="middle" data-name="SupabaseObjectFunctions">SupabaseObjectFunctions</text>
								
							</g>
						</g>
					</g>
					<g data-name="Enum">
						<g fill="#eee8d5" stroke="#33322E" data-name="Enum">
							<rect x="487.8" y="1300.0" height="31.0" width="61.0" data-name="Enum"></rect>
						</g>
						<g transform="translate(487.75, 1300)" font-family="Helvetica" font-size="12pt" font-weight="bold" font-style="normal" data-name="Enum">
							<g transform="translate(8, 8)" fill="#33322E" text-align="center" data-name="Enum">
								<text x="22.5" y="13.5" stroke="none" text-anchor="middle" data-name="Enum">Enum</text>
								
							</g>
						</g>
					</g>
					<g data-name="AppConfig">
						<g fill="#eee8d5" stroke="#33322E" data-name="AppConfig">
							<rect x="0.0" y="1186.5" height="258.0" width="319.0" data-name="AppConfig"></rect>
							<path d="M0.0 1217.5 L319.0 1217.5" fill="none" data-name="AppConfig"></path>
							<path d="M0.0 1383.5 L319.0 1383.5" fill="none" data-name="AppConfig"></path>
						</g>
						<g transform="translate(0, 1186.5)" font-family="Helvetica" font-size="12pt" font-weight="bold" font-style="normal" data-name="AppConfig">
							<g transform="translate(8, 8)" fill="#33322E" text-align="center" data-name="AppConfig">
								<text x="151.5" y="13.5" stroke="none" text-anchor="middle" data-name="AppConfig">AppConfig</text>
								
							</g>
						</g>
						<g transform="translate(0, 1217.5)" font-family="Helvetica" font-size="12pt" font-weight="normal" font-style="normal" data-name="AppConfig">
							<g transform="translate(8, 8)" fill="#33322E" text-align="left" data-name="AppConfig">
								<text x="0.0" y="13.5" stroke="none" data-name="AppConfig">&lt;static&gt;+tableName: String</text>
								<text x="0.0" y="28.5" stroke="none" data-name="AppConfig">+id: String</text>
								<text x="0.0" y="43.5" stroke="none" data-name="AppConfig">+contact: Contact</text>
								<text x="0.0" y="58.5" stroke="none" data-name="AppConfig">+appPrivacy: Map&lt;String, String&gt;</text>
								<text x="0.0" y="73.5" stroke="none" data-name="AppConfig">+appTerms: Map&lt;String, String&gt;</text>
								<text x="0.0" y="88.5" stroke="none" data-name="AppConfig">+designerPrivacy: Map&lt;String, String&gt;</text>
								<text x="0.0" y="103.5" stroke="none" data-name="AppConfig">+designerTerms: Map&lt;String, String&gt;</text>
								<text x="0.0" y="118.5" stroke="none" data-name="AppConfig">+imprint: Map&lt;String, String&gt;</text>
								<text x="0.0" y="133.5" stroke="none" data-name="AppConfig">+analytics: StudyUAnalytics</text>
								<text x="0.0" y="148.5" stroke="none" data-name="AppConfig">+primaryKeys: Map&lt;String, dynamic&gt;</text>
								
							</g>
						</g>
						<g transform="translate(0, 1383.5)" font-family="Helvetica" font-size="12pt" font-weight="normal" font-style="normal" data-name="AppConfig">
							<g transform="translate(8, 8)" fill="#33322E" text-align="left" data-name="AppConfig">
								<text x="0.0" y="13.5" stroke="none" data-name="AppConfig">+Map&lt;String, dynamic&gt; toJson()</text>
								<text x="0.0" y="28.5" stroke="none" data-name="AppConfig">&lt;static&gt;+dynamic getAppConfig()</text>
								<text x="0.0" y="43.5" stroke="none" data-name="AppConfig">&lt;static&gt;+dynamic getAppContact()</text>
								
							</g>
						</g>
					</g>
					<g data-name="StudyUAnalytics">
						<g fill="#eee8d5" stroke="#33322E" data-name="StudyUAnalytics">
							<rect x="67.5" y="1830.5" height="31.0" width="144.0" data-name="StudyUAnalytics"></rect>
						</g>
						<g transform="translate(67.5, 1830.5)" font-family="Helvetica" font-size="12pt" font-weight="bold" font-style="normal" data-name="StudyUAnalytics">
							<g transform="translate(8, 8)" fill="#33322E" text-align="center" data-name="StudyUAnalytics">
								<text x="64.0" y="13.5" stroke="none" text-anchor="middle" data-name="StudyUAnalytics">StudyUAnalytics</text>
								
							</g>
						</g>
					</g>
					<g data-name="SubjectProgress">
						<g fill="#eee8d5" stroke="#33322E" data-name="SubjectProgress">
							<rect x="1077.3" y="348.5" height="258.0" width="330.0" data-name="SubjectProgress"></rect>
							<path d="M1077.3 379.5 L1407.3 379.5" fill="none" data-name="SubjectProgress"></path>
							<path d="M1077.3 545.5 L1407.3 545.5" fill="none" data-name="SubjectProgress"></path>
						</g>
						<g transform="translate(1077.25, 348.5)" font-family="Helvetica" font-size="12pt" font-weight="bold" font-style="normal" data-name="SubjectProgress">
							<g transform="translate(8, 8)" fill="#33322E" text-align="center" data-name="SubjectProgress">
								<text x="157.0" y="13.5" stroke="none" text-anchor="middle" data-name="SubjectProgress">SubjectProgress</text>
								
							</g>
						</g>
						<g transform="translate(1077.25, 379.5)" font-family="Helvetica" font-size="12pt" font-weight="normal" font-style="normal" data-name="SubjectProgress">
							<g transform="translate(8, 8)" fill="#33322E" text-align="left" data-name="SubjectProgress">
								<text x="0.0" y="13.5" stroke="none" data-name="SubjectProgress">&lt;static&gt;+tableName: String</text>
								<text x="0.0" y="28.5" stroke="none" data-name="SubjectProgress">+completedAt: DateTime?</text>
								<text x="0.0" y="43.5" stroke="none" data-name="SubjectProgress">+subjectId: String</text>
								<text x="0.0" y="58.5" stroke="none" data-name="SubjectProgress">+interventionId: String</text>
								<text x="0.0" y="73.5" stroke="none" data-name="SubjectProgress">+taskId: String</text>
								<text x="0.0" y="88.5" stroke="none" data-name="SubjectProgress">+resultType: String</text>
								<text x="0.0" y="103.5" stroke="none" data-name="SubjectProgress">+result: Result&lt;dynamic&gt;</text>
								<text x="0.0" y="118.5" stroke="none" data-name="SubjectProgress">+startedAt: DateTime?</text>
								<text x="0.0" y="133.5" stroke="none" data-name="SubjectProgress">+primaryKeys: Map&lt;String, dynamic&gt;</text>
								<text x="0.0" y="148.5" stroke="none" data-name="SubjectProgress">+hashCode: int</text>
								
							</g>
						</g>
						<g transform="translate(1077.25, 545.5)" font-family="Helvetica" font-size="12pt" font-weight="normal" font-style="normal" data-name="SubjectProgress">
							<g transform="translate(8, 8)" fill="#33322E" text-align="left" data-name="SubjectProgress">
								<text x="0.0" y="13.5" stroke="none" data-name="SubjectProgress">+Map&lt;String, dynamic&gt; toJson()</text>
								<text x="0.0" y="28.5" stroke="none" data-name="SubjectProgress">+SubjectProgress setStartDateBackBy()</text>
								<text x="0.0" y="43.5" stroke="none" data-name="SubjectProgress">+bool ==()</text>
								
							</g>
						</g>
					</g>
					<g data-name="Result">
						<g fill="#eee8d5" stroke="#33322E" data-name="Result">
							<rect x="646.5" y="1300.0" height="31.0" width="66.0" data-name="Result"></rect>
						</g>
						<g transform="translate(646.5, 1300)" font-family="Helvetica" font-size="12pt" font-weight="bold" font-style="normal" data-name="Result">
							<g transform="translate(8, 8)" fill="#33322E" text-align="center" data-name="Result">
								<text x="25.0" y="13.5" stroke="none" text-anchor="middle" data-name="Result">Result</text>
								
							</g>
						</g>
					</g>
					<g data-name="StudyInvite">
						<g fill="#eee8d5" stroke="#33322E" data-name="StudyInvite">
							<rect x="2009.5" y="401.0" height="153.0" width="351.0" data-name="StudyInvite"></rect>
							<path d="M2009.5 432.0 L2360.5 432.0" fill="none" data-name="StudyInvite"></path>
							<path d="M2009.5 523.0 L2360.5 523.0" fill="none" data-name="StudyInvite"></path>
						</g>
						<g transform="translate(2009.5, 401)" font-family="Helvetica" font-size="12pt" font-weight="bold" font-style="normal" data-name="StudyInvite">
							<g transform="translate(8, 8)" fill="#33322E" text-align="center" data-name="StudyInvite">
								<text x="167.5" y="13.5" stroke="none" text-anchor="middle" data-name="StudyInvite">StudyInvite</text>
								
							</g>
						</g>
						<g transform="translate(2009.5, 432)" font-family="Helvetica" font-size="12pt" font-weight="normal" font-style="normal" data-name="StudyInvite">
							<g transform="translate(8, 8)" fill="#33322E" text-align="left" data-name="StudyInvite">
								<text x="0.0" y="13.5" stroke="none" data-name="StudyInvite">&lt;static&gt;+tableName: String</text>
								<text x="0.0" y="28.5" stroke="none" data-name="StudyInvite">+code: String</text>
								<text x="0.0" y="43.5" stroke="none" data-name="StudyInvite">+studyId: String</text>
								<text x="0.0" y="58.5" stroke="none" data-name="StudyInvite">+preselectedInterventionIds: List&lt;String&gt;?</text>
								<text x="0.0" y="73.5" stroke="none" data-name="StudyInvite">+primaryKeys: Map&lt;String, dynamic&gt;</text>
								
							</g>
						</g>
						<g transform="translate(2009.5, 523)" font-family="Helvetica" font-size="12pt" font-weight="normal" font-style="normal" data-name="StudyInvite">
							<g transform="translate(8, 8)" fill="#33322E" text-align="left" data-name="StudyInvite">
								<text x="0.0" y="13.5" stroke="none" data-name="StudyInvite">+Map&lt;String, dynamic&gt; toJson()</text>
								
							</g>
						</g>
					</g>
					<g data-name="GitProvider">
						<g fill="#eee8d5" stroke="#33322E" data-name="GitProvider">
							<rect x="1444.5" y="1985.0" height="92.0" width="286.0" data-name="GitProvider"></rect>
							<path d="M1444.5 2016.0 L1730.5 2016.0" fill="none" data-name="GitProvider"></path>
						</g>
						<g transform="translate(1444.5, 1985)" font-family="Helvetica" font-size="12pt" font-weight="bold" font-style="normal" data-name="GitProvider">
							<g transform="translate(8, 8)" fill="#33322E" text-align="center" data-name="GitProvider">
								<text x="135.0" y="13.5" stroke="none" text-anchor="middle" data-name="GitProvider">GitProvider</text>
								
							</g>
						</g>
						<g transform="translate(1444.5, 2016)" font-family="Helvetica" font-size="12pt" font-weight="normal" font-style="normal" data-name="GitProvider">
							<g transform="translate(8, 8)" fill="#33322E" text-align="left" data-name="GitProvider">
								<text x="0.0" y="13.5" stroke="none" data-name="GitProvider">+index: int</text>
								<text x="0.0" y="28.5" stroke="none" data-name="GitProvider">&lt;static&gt;+values: List&lt;GitProvider&gt;</text>
								<text x="0.0" y="43.5" stroke="none" data-name="GitProvider">&lt;static&gt;+gitlab: GitProvider</text>
								
							</g>
						</g>
					</g>
					<g data-name="StudySubject">
						<g fill="#eee8d5" stroke="#33322E" data-name="StudySubject">
							<rect x="2440.5" y="71.0" height="813.0" width="501.0" data-name="StudySubject"></rect>
							<path d="M2440.5 102.0 L2941.5 102.0" fill="none" data-name="StudySubject"></path>
							<path d="M2440.5 403.0 L2941.5 403.0" fill="none" data-name="StudySubject"></path>
						</g>
						<g transform="translate(2440.5, 71)" font-family="Helvetica" font-size="12pt" font-weight="bold" font-style="normal" data-name="StudySubject">
							<g transform="translate(8, 8)" fill="#33322E" text-align="center" data-name="StudySubject">
								<text x="242.5" y="13.5" stroke="none" text-anchor="middle" data-name="StudySubject">StudySubject</text>
								
							</g>
						</g>
						<g transform="translate(2440.5, 102)" font-family="Helvetica" font-size="12pt" font-weight="normal" font-style="normal" data-name="StudySubject">
							<g transform="translate(8, 8)" fill="#33322E" text-align="left" data-name="StudySubject">
								<text x="0.0" y="13.5" stroke="none" data-name="StudySubject">&lt;static&gt;+tableName: String</text>
								<text x="0.0" y="28.5" stroke="none" data-name="StudySubject">-_controller: StreamController&lt;StudySubject&gt;</text>
								<text x="0.0" y="43.5" stroke="none" data-name="StudySubject">+id: String</text>
								<text x="0.0" y="58.5" stroke="none" data-name="StudySubject">+studyId: String</text>
								<text x="0.0" y="73.5" stroke="none" data-name="StudySubject">+userId: String</text>
								<text x="0.0" y="88.5" stroke="none" data-name="StudySubject">+startedAt: DateTime?</text>
								<text x="0.0" y="103.5" stroke="none" data-name="StudySubject">+selectedInterventionIds: List&lt;String&gt;</text>
								<text x="0.0" y="118.5" stroke="none" data-name="StudySubject">+inviteCode: String?</text>
								<text x="0.0" y="133.5" stroke="none" data-name="StudySubject">+isDeleted: bool</text>
								<text x="0.0" y="148.5" stroke="none" data-name="StudySubject">+study: Study</text>
								<text x="0.0" y="163.5" stroke="none" data-name="StudySubject">+progress: List&lt;SubjectProgress&gt;</text>
								<text x="0.0" y="178.5" stroke="none" data-name="StudySubject">+primaryKeys: Map&lt;String, dynamic&gt;</text>
								<text x="0.0" y="193.5" stroke="none" data-name="StudySubject">+interventionOrder: List&lt;String&gt;</text>
								<text x="0.0" y="208.5" stroke="none" data-name="StudySubject">+selectedInterventions: List&lt;Intervention&gt;</text>
								<text x="0.0" y="223.5" stroke="none" data-name="StudySubject">+daysPerIntervention: int</text>
								<text x="0.0" y="238.5" stroke="none" data-name="StudySubject">+minimumStudyLengthCompleted: bool</text>
								<text x="0.0" y="253.5" stroke="none" data-name="StudySubject">+completedStudy: bool</text>
								<text x="0.0" y="268.5" stroke="none" data-name="StudySubject">+onSave: Stream&lt;StudySubject&gt;</text>
								<text x="0.0" y="283.5" stroke="none" data-name="StudySubject">+hashCode: int</text>
								
							</g>
						</g>
						<g transform="translate(2440.5, 403)" font-family="Helvetica" font-size="12pt" font-weight="normal" font-style="normal" data-name="StudySubject">
							<g transform="translate(8, 8)" fill="#33322E" text-align="left" data-name="StudySubject">
								<text x="0.0" y="13.5" stroke="none" data-name="StudySubject">+Map&lt;String, dynamic&gt; toJson()</text>
								<text x="0.0" y="28.5" stroke="none" data-name="StudySubject">+dynamic addResult()</text>
								<text x="0.0" y="43.5" stroke="none" data-name="StudySubject">+Map&lt;DateTime, List&lt;SubjectProgress&gt;&gt; getResultsByDate()</text>
								<text x="0.0" y="58.5" stroke="none" data-name="StudySubject">+DateTime endDate()</text>
								<text x="0.0" y="73.5" stroke="none" data-name="StudySubject">+int getDayOfStudyFor()</text>
								<text x="0.0" y="88.5" stroke="none" data-name="StudySubject">+int getInterventionIndexForDate()</text>
								<text x="0.0" y="103.5" stroke="none" data-name="StudySubject">+Intervention? getInterventionForDate()</text>
								<text x="0.0" y="118.5" stroke="none" data-name="StudySubject">+List&lt;Intervention&gt; getInterventionsInOrder()</text>
								<text x="0.0" y="133.5" stroke="none" data-name="StudySubject">+DateTime startOfPhase()</text>
								<text x="0.0" y="148.5" stroke="none" data-name="StudySubject">+DateTime dayAfterEndOfPhase()</text>
								<text x="0.0" y="163.5" stroke="none" data-name="StudySubject">+List&lt;SubjectProgress&gt; resultsFor()</text>
								<text x="0.0" y="178.5" stroke="none" data-name="StudySubject">+int completedForPhase()</text>
								<text x="0.0" y="193.5" stroke="none" data-name="StudySubject">+int daysLeftForPhase()</text>
								<text x="0.0" y="208.5" stroke="none" data-name="StudySubject">+double percentCompletedForPhase()</text>
								<text x="0.0" y="223.5" stroke="none" data-name="StudySubject">+double percentMissedForPhase()</text>
								<text x="0.0" y="238.5" stroke="none" data-name="StudySubject">+List&lt;SubjectProgress&gt; getTaskProgressForDay()</text>
								<text x="0.0" y="253.5" stroke="none" data-name="StudySubject">+bool completedTaskInstanceForDay()</text>
								<text x="0.0" y="268.5" stroke="none" data-name="StudySubject">+bool completedTaskForDay()</text>
								<text x="0.0" y="283.5" stroke="none" data-name="StudySubject">+int completedTasksFor()</text>
								<text x="0.0" y="298.5" stroke="none" data-name="StudySubject">+bool allTasksCompletedFor()</text>
								<text x="0.0" y="313.5" stroke="none" data-name="StudySubject">+int totalTaskCountFor()</text>
								<text x="0.0" y="328.5" stroke="none" data-name="StudySubject">+List&lt;TaskInstance&gt; scheduleFor()</text>
								<text x="0.0" y="343.5" stroke="none" data-name="StudySubject">+dynamic setStartDateBackBy()</text>
								<text x="0.0" y="358.5" stroke="none" data-name="StudySubject">+dynamic save()</text>
								<text x="0.0" y="373.5" stroke="none" data-name="StudySubject">+Map&lt;String, dynamic&gt; toFullJson()</text>
								<text x="0.0" y="388.5" stroke="none" data-name="StudySubject">+dynamic deleteProgress()</text>
								<text x="0.0" y="403.5" stroke="none" data-name="StudySubject">+dynamic delete()</text>
								<text x="0.0" y="418.5" stroke="none" data-name="StudySubject">+dynamic softDelete()</text>
								<text x="0.0" y="433.5" stroke="none" data-name="StudySubject">&lt;static&gt;+dynamic getStudyHistory()</text>
								<text x="0.0" y="448.5" stroke="none" data-name="StudySubject">+bool ==()</text>
								<text x="0.0" y="463.5" stroke="none" data-name="StudySubject">+String toString()</text>
								
							</g>
						</g>
					</g>
					<g data-name="StreamController">
						<g fill="#eee8d5" stroke="#33322E" data-name="StreamController">
							<rect x="2519.5" y="1300.0" height="31.0" width="149.0" data-name="StreamController"></rect>
						</g>
						<g transform="translate(2519.5, 1300)" font-family="Helvetica" font-size="12pt" font-weight="bold" font-style="normal" data-name="StreamController">
							<g transform="translate(8, 8)" fill="#33322E" text-align="center" data-name="StreamController">
								<text x="66.5" y="13.5" stroke="none" text-anchor="middle" data-name="StreamController">StreamController</text>
								
							</g>
						</g>
					</g>
					<g data-name="Stream">
						<g fill="#eee8d5" stroke="#33322E" data-name="Stream">
							<rect x="2721.3" y="1300.0" height="31.0" width="72.0" data-name="Stream"></rect>
						</g>
						<g transform="translate(2721.25, 1300)" font-family="Helvetica" font-size="12pt" font-weight="bold" font-style="normal" data-name="Stream">
							<g transform="translate(8, 8)" fill="#33322E" text-align="center" data-name="Stream">
								<text x="28.0" y="13.5" stroke="none" text-anchor="middle" data-name="Stream">Stream</text>
								
							</g>
						</g>
					</g>
				</g>
			</g>
		</g>
	</g>
</svg>