<svg version="1.1" baseProfile="full" width="3606.5" height="2133.0" viewbox="0 0 3606.5 2133" xmlns="http://www.w3.org/2000/svg" xmlns:xlink="http://www.w3.org/1999/xlink" xmlns:ev="http://www.w3.org/2001/xml-events">
	<desc >[StudyInvite
	  |
	  &lt;static&gt;+tableName: String;
	  +code: String;
	  +studyId: String;
	  +preselectedInterventionIds: List&lt;String&gt;?;
	  +primaryKeys: Map&lt;String, dynamic&gt;
	  |
	  +Map&lt;String, dynamic&gt; toJson()
	]
	
	[&lt;abstract&gt;SupabaseObjectFunctions]&lt;:-[StudyInvite]
	
	[SubjectProgress
	  |
	  &lt;static&gt;+tableName: String;
	  +completedAt: DateTime?;
	  +subjectId: String;
	  +interventionId: String;
	  +taskId: String;
	  +resultType: String;
	  +result: Result&lt;dynamic&gt;;
	  +startedAt: DateTime?;
	  +primaryKeys: Map&lt;String, dynamic&gt;;
	  +hashCode: int
	  |
	  +Map&lt;String, dynamic&gt; toJson();
	  +SubjectProgress setStartDateBackBy();
	  +bool ==()
	]
	
	[SubjectProgress]o-[Result]
	[&lt;abstract&gt;SupabaseObjectFunctions]&lt;:-[SubjectProgress]
	
	[StudySubject
	  |
	  &lt;static&gt;+tableName: String;
	  -_controller: StreamController&lt;StudySubject&gt;;
	  +id: String;
	  +studyId: String;
	  +userId: String;
	  +startedAt: DateTime?;
	  +selectedInterventionIds: List&lt;String&gt;;
	  +inviteCode: String?;
	  +isDeleted: bool;
	  +study: Study;
	  +progress: List&lt;SubjectProgress&gt;;
	  +primaryKeys: Map&lt;String, dynamic&gt;;
	  +interventionOrder: List&lt;String&gt;;
	  +selectedInterventions: List&lt;Intervention&gt;;
	  +daysPerIntervention: int;
	  +minimumStudyLengthCompleted: bool;
	  +completedStudy: bool;
	  +onSave: Stream&lt;StudySubject&gt;;
	  +hashCode: int
	  |
	  +Map&lt;String, dynamic&gt; toJson();
	  +dynamic addResult();
	  +Map&lt;DateTime, List&lt;SubjectProgress&gt;&gt; getResultsByDate();
	  +DateTime endDate();
	  +int getDayOfStudyFor();
	  +int getInterventionIndexForDate();
	  +Intervention? getInterventionForDate();
	  +List&lt;Intervention&gt; getInterventionsInOrder();
	  +DateTime startOfPhase();
	  +DateTime dayAfterEndOfPhase();
	  +List&lt;SubjectProgress&gt; resultsFor();
	  +int completedForPhase();
	  +int daysLeftForPhase();
	  +double percentCompletedForPhase();
	  +double percentMissedForPhase();
	  +List&lt;SubjectProgress&gt; getTaskProgressForDay();
	  +bool completedTaskInstanceForDay();
	  +bool completedTaskForDay();
	  +int completedTasksFor();
	  +bool allTasksCompletedFor();
	  +int totalTaskCountFor();
	  +List&lt;TaskInstance&gt; scheduleFor();
	  +dynamic setStartDateBackBy();
	  +dynamic save();
	  +Map&lt;String, dynamic&gt; toFullJson();
	  +dynamic deleteProgress();
	  +dynamic delete();
	  +dynamic softDelete();
	  &lt;static&gt;+dynamic getStudyHistory();
	  +bool ==();
	  +String toString()
	]
	
	[StudySubject]o-[StreamController]
	[StudySubject]o-[Study]
	[StudySubject]o-[Stream]
	[&lt;abstract&gt;SupabaseObjectFunctions]&lt;:-[StudySubject]
	
	[AppConfig
	  |
	  &lt;static&gt;+tableName: String;
	  +id: String;
	  +contact: Contact;
	  +appPrivacy: Map&lt;String, String&gt;;
	  +appTerms: Map&lt;String, String&gt;;
	  +designerPrivacy: Map&lt;String, String&gt;;
	  +designerTerms: Map&lt;String, String&gt;;
	  +imprint: Map&lt;String, String&gt;;
	  +analytics: StudyUAnalytics?;
	  +primaryKeys: Map&lt;String, dynamic&gt;
	  |
	  +Map&lt;String, dynamic&gt; toJson();
	  &lt;static&gt;+dynamic getAppConfig();
	  &lt;static&gt;+dynamic getAppContact()
	]
	
	[AppConfig]o-[Contact]
	[AppConfig]o-[StudyUAnalytics]
	[&lt;abstract&gt;SupabaseObjectFunctions]&lt;:-[AppConfig]
	
	[Repo
	  |
	  &lt;static&gt;+tableName: String;
	  +projectId: String;
	  +userId: String;
	  +studyId: String;
	  +provider: GitProvider;
	  +webUrl: String;
	  +gitUrl: String;
	  +primaryKeys: Map&lt;String, dynamic&gt;
	  |
	  +Map&lt;String, dynamic&gt; toJson()
	]
	
	[Repo]o-[GitProvider]
	[&lt;abstract&gt;SupabaseObjectFunctions]&lt;:-[Repo]
	
	[GitProvider
	  |
	  +index: int;
	  &lt;static&gt;+values: List&lt;GitProvider&gt;;
	  &lt;static&gt;+gitlab: GitProvider
	]
	
	[GitProvider]o-[GitProvider]
	[Enum]&lt;:--[GitProvider]
	
	[Study
	  |
	  &lt;static&gt;+tableName: String;
	  &lt;static&gt;+baselineID: String;
	  +id: String;
	  +title: String?;
	  +description: String?;
	  +userId: String;
	  +participation: Participation;
	  +resultSharing: ResultSharing;
	  +contact: Contact;
	  +iconName: String;
	  +published: bool;
	  +questionnaire: StudyUQuestionnaire;
	  +eligibilityCriteria: List&lt;EligibilityCriterion&gt;;
	  +consent: List&lt;ConsentItem&gt;;
	  +interventions: List&lt;Intervention&gt;;
	  +observations: List&lt;Observation&gt;;
	  +schedule: StudySchedule;
	  +reportSpecification: ReportSpecification;
	  +results: List&lt;StudyResult&gt;;
	  +collaboratorEmails: List&lt;String&gt;;
	  +registryPublished: bool;
	  +participantCount: int;
	  +endedCount: int;
	  +activeSubjectCount: int;
	  +missedDays: List&lt;int&gt;;
	  +repo: Repo?;
	  +invites: List&lt;StudyInvite&gt;?;
	  +participants: List&lt;StudySubject&gt;?;
	  +participantsProgress: List&lt;SubjectProgress&gt;?;
	  +createdAt: DateTime?;
	  +primaryKeys: Map&lt;String, dynamic&gt;;
	  +hasEligibilityCheck: bool;
	  +hasConsentCheck: bool;
	  +totalMissedDays: int;
	  +percentageMissedDays: double;
	  +status: StudyStatus;
	  +isDraft: bool;
	  +isRunning: bool;
	  +isClosed: bool
	  |
	  +Map&lt;String, dynamic&gt; toJson();
	  &lt;static&gt;+dynamic getResearcherDashboardStudies();
	  &lt;static&gt;+dynamic publishedPublicStudies();
	  +bool isOwner();
	  +bool isEditor();
	  +bool canEdit();
	  &lt;static&gt;+dynamic fetchResultsCSVTable();
	  +bool isReadonly();
	  +String toString()
	]
	
	[Study]o-[Participation]
	[Study]o-[ResultSharing]
	[Study]o-[Contact]
	[Study]o-[StudyUQuestionnaire]
	[Study]o-[StudySchedule]
	[Study]o-[ReportSpecification]
	[Study]o-[Repo]
	[Study]o-[StudyStatus]
	[&lt;abstract&gt;SupabaseObjectFunctions]&lt;:-[Study]
	
	[StudyStatus
	  |
	  +index: int;
	  &lt;static&gt;+values: List&lt;StudyStatus&gt;;
	  &lt;static&gt;+draft: StudyStatus;
	  &lt;static&gt;+running: StudyStatus;
	  &lt;static&gt;+closed: StudyStatus
	]
	
	[StudyStatus]o-[StudyStatus]
	[Enum]&lt;:--[StudyStatus]
	
	[Participation
	  |
	  +index: int;
	  &lt;static&gt;+values: List&lt;Participation&gt;;
	  &lt;static&gt;+open: Participation;
	  &lt;static&gt;+invite: Participation
	]
	
	[Participation]o-[Participation]
	[Enum]&lt;:--[Participation]
	
	[ResultSharing
	  |
	  +index: int;
	  &lt;static&gt;+values: List&lt;ResultSharing&gt;;
	  &lt;static&gt;+public: ResultSharing;
	  &lt;static&gt;+private: ResultSharing;
	  &lt;static&gt;+organization: ResultSharing
	]
	
	[ResultSharing]o-[ResultSharing]
	[Enum]&lt;:--[ResultSharing]
	
	</desc>
	<g stroke-width="1.0" text-align="left" font="12pt Helvetica, Arial, sans-serif" font-size="12pt" font-family="Helvetica" font-weight="normal" font-style="normal">
		<g font-family="Helvetica" font-size="12pt" font-weight="bold" font-style="normal" stroke-width="3.0" stroke-linejoin="round" stroke-linecap="round" stroke="#33322E">
			<g stroke="transparent" fill="transparent">
				<rect x="0.0" y="0.0" height="2133.0" width="3606.5" stroke="none"></rect>
			</g>
			<g transform="translate(8, 8)" fill="#33322E">
				<g transform="translate(20, 20)" fill="#eee8d5" font-family="Helvetica" font-size="12pt" font-weight="normal" font-style="normal">
					<path d="M997.4 20.2 L175.5 51 L175.5 401 L175.5 401.0 " fill="none"></path>
					<path d="M997.6 25.5 L997.4 20.2 L997.2 14.9 L1010.8 19.7 Z"></path>
					<path d="M556.0 625.2 L556 904 L556 1300 L556.0 1300.0 " fill="none"></path>
					<g fill="#eee8d5">
						<path d="M561.3 615.8 L556.0 625.2 L550.7 615.8 L556.0 606.5 Z"></path>
					</g>
					<path d="M997.4 23.3 L556 51 L556 348.5 L556.0 348.5 " fill="none"></path>
					<path d="M997.8 28.7 L997.4 23.3 L997.1 18.0 L1010.8 22.5 Z"></path>
					<path d="M1002.6 678.0 L703.5 904 L703.5 1300 L703.5 1300.0 " fill="none"></path>
					<g fill="#eee8d5">
						<path d="M1013.3 676.6 L1002.6 678.0 L1006.8 668.1 L1017.5 666.8 Z"></path>
					</g>
					<path d="M1531.9 733.9 L1707 904 L2265.25 1200.3171557562077 L2265.3 1200.3 " fill="none"></path>
					<g fill="#eee8d5">
						<path d="M1528.9 723.5 L1531.9 733.9 L1521.5 731.2 L1518.5 720.9 Z"></path>
					</g>
					<path d="M1268.0 902.7 L1268 904 L1268 1300 L1268.0 1300.0 " fill="none"></path>
					<g fill="#eee8d5">
						<path d="M1273.3 893.3 L1268.0 902.7 L1262.7 893.3 L1268.0 884.0 Z"></path>
					</g>
					<path d="M1199.1 34.2 L1268 51 L1268 71 L1268.0 71.0 " fill="none"></path>
					<path d="M1200.4 29.0 L1199.1 34.2 L1197.9 39.3 L1186.2 31.0 Z"></path>
					<path d="M943.4 1462.7 L882.25 1727 L899.6449579831933 1830.5 L899.6 1830.5 " fill="none"></path>
					<g fill="#eee8d5">
						<path d="M950.7 1454.8 L943.4 1462.7 L940.3 1452.4 L947.6 1444.5 Z"></path>
					</g>
					<path d="M1033.4 1461.9 L1134.5 1727 L1134.5 1830.5 L1134.5 1830.5 " fill="none"></path>
					<g fill="#eee8d5">
						<path d="M1035.0 1451.3 L1033.4 1461.9 L1025.1 1455.1 L1026.7 1444.5 Z"></path>
					</g>
					<path d="M1046.4 34.2 L977.5 51 L977.5 477.5 L977.5 477.5 L977.5 904 L977.5 904 L977.5 1186.5 L977.5 1186.5 " fill="none"></path>
					<path d="M1047.6 39.3 L1046.4 34.2 L1045.1 29.0 L1059.3 31.0 Z"></path>
					<path d="M1578.5 1963.7 L1578.5 1965 L2421.5 2021.4279918864097 L2421.5 2021.4 " fill="none"></path>
					<g fill="#eee8d5">
						<path d="M1583.8 1954.3 L1578.5 1963.7 L1573.2 1954.3 L1578.5 1945.0 Z"></path>
					</g>
					<path d="M1248.0 25.7 L1558.5 51 L1558.5 477.5 L1558.5 477.5 L1558.5 904 L1558.5 904 L1558.5 1315.5 L1558.5 1315.5 L1558.5 1727 L1558.5 1727 L1561.861344537815 1747 L1561.9 1747.0 " fill="none"></path>
					<path d="M1248.5 20.4 L1248.0 25.7 L1247.6 31.0 L1234.8 24.6 Z"></path>
					<path d="M2725.5 1988.2 L2737.5 1985 L2745 1985 L2745 1985 L2752.5 2031 L2752.5 2031 L2745 2077 L2745 2077 L2737.5 2077 L2737.5 2077 L2707.5 2069.023121387283 L2707.5 2069.0 " fill="none"></path>
					<g fill="#eee8d5">
						<path d="M2715.1 1985.4 L2725.5 1988.2 L2717.9 1995.7 L2707.5 1993.0 Z"></path>
					</g>
					<g stroke-dasharray="6 6">
						<path d="M2995.3 1338.6 L3550.5 1727 L3550.5 1846 L3550.5 1846 L3550.5 1965 L3550.5 1965 L2707.5 2021.4279918864097 L2707.5 2021.4 " fill="none"></path>
					</g>
					<path d="M2998.4 1334.3 L2995.3 1338.6 L2992.3 1343.0 L2984.4 1331.0 Z"></path>
					<path d="M2249.1 1450.2 L1770 1727 L1853.388655462185 1792.5 L1853.4 1792.5 " fill="none"></path>
					<g fill="#eee8d5">
						<path d="M2259.8 1450.2 L2249.1 1450.2 L2254.5 1440.9 L2265.3 1440.9 Z"></path>
					</g>
					<path d="M2253.3 1589.0 L2137.75 1727 L2223.6533613445376 1785 L2223.7 1785.0 " fill="none"></path>
					<g fill="#eee8d5">
						<path d="M2263.3 1585.3 L2253.3 1589.0 L2255.2 1578.4 L2265.3 1574.7 Z"></path>
					</g>
					<path d="M2247.3 1382.5 L1039.25 1727 L920.094537815126 1830.5 L920.1 1830.5 " fill="none"></path>
					<g fill="#eee8d5">
						<path d="M2257.7 1385.1 L2247.3 1382.5 L2254.8 1374.8 L2265.3 1377.4 Z"></path>
					</g>
					<path d="M2649.4 1724.3 L2650.5 1727 L2650.5 1830.5 L2650.5 1830.5 " fill="none"></path>
					<g fill="#eee8d5">
						<path d="M2650.8 1713.6 L2649.4 1724.3 L2640.9 1717.7 L2642.3 1707.0 Z"></path>
					</g>
					<path d="M2711.7 1572.2 L2850 1727 L2850 1830.5 L2850.0 1830.5 " fill="none"></path>
					<g fill="#eee8d5">
						<path d="M2709.4 1561.7 L2711.7 1572.2 L2701.5 1568.8 L2699.3 1558.3 Z"></path>
					</g>
					<path d="M2714.3 1485.9 L3042.5 1727 L3042.5 1830.5 L3042.5 1830.5 " fill="none"></path>
					<g fill="#eee8d5">
						<path d="M2709.9 1476.1 L2714.3 1485.9 L2703.6 1484.7 L2699.3 1474.9 Z"></path>
					</g>
					<path d="M2248.8 1439.4 L1707 1727 L1685.4033613445379 1747 L1685.4 1747.0 " fill="none"></path>
					<g fill="#eee8d5">
						<path d="M2259.5 1439.8 L2248.8 1439.4 L2254.5 1430.3 L2265.3 1430.7 Z"></path>
					</g>
					<path d="M2715.4 1449.5 L3198.25 1727 L3254.665966386555 1785 L3254.7 1785.0 " fill="none"></path>
					<g fill="#eee8d5">
						<path d="M2710.0 1440.2 L2715.4 1449.5 L2704.7 1449.5 L2699.3 1440.2 Z"></path>
					</g>
					<path d="M1248.1 18.7 L2502.25 51 L2502.25 477.5 L2502.25 477.5 L2502.25 904 L2502.25 904 L2501.2779465370595 924 L2501.3 924.0 " fill="none"></path>
					<path d="M1248.2 13.4 L1248.1 18.7 L1247.9 24.1 L1234.8 18.4 Z"></path>
					<path d="M3478.1 1789.3 L3490.5 1785 L3498 1785 L3498 1785 L3505.5 1846 L3505.5 1846 L3498 1907 L3498 1907 L3490.5 1907 L3490.5 1907 L3460.5 1896.6317280453259 L3460.5 1896.6 " fill="none"></path>
					<g fill="#eee8d5">
						<path d="M3467.6 1787.3 L3478.1 1789.3 L3471.1 1797.4 L3460.5 1795.4 Z"></path>
					</g>
					<g stroke-dasharray="6 6">
						<path d="M2989.0 1340.0 L3412.25 1727 L3364.3634453781515 1785 L3364.4 1785.0 " fill="none"></path>
					</g>
					<path d="M2992.6 1336.1 L2989.0 1340.0 L2985.4 1343.9 L2979.2 1331.0 Z"></path>
					<path d="M2087.4 1796.1 L2099.5 1792.5 L2107 1792.5 L2107 1792.5 L2114.5 1846 L2114.5 1846 L2107 1899.5 L2107 1899.5 L2099.5 1899.5 L2099.5 1899.5 L2069.5 1890.4831460674156 L2069.5 1890.5 " fill="none"></path>
					<g fill="#eee8d5">
						<path d="M2076.9 1793.7 L2087.4 1796.1 L2080.0 1803.9 L2069.5 1801.5 Z"></path>
					</g>
					<g stroke-dasharray="6 6">
						<path d="M2919.7 1335.7 L2097.75 1727 L2000.7384453781513 1792.5 L2000.7 1792.5 " fill="none"></path>
					</g>
					<path d="M2922.0 1340.6 L2919.7 1335.7 L2917.4 1330.9 L2931.8 1330.0 Z"></path>
					<path d="M2486.2 1789.1 L2498.5 1785 L2506 1785 L2506 1785 L2513.5 1846 L2513.5 1846 L2506 1907 L2506 1907 L2498.5 1907 L2498.5 1907 L2468.5 1897.081300813008 L2468.5 1897.1 " fill="none"></path>
					<g fill="#eee8d5">
						<path d="M2475.7 1786.9 L2486.2 1789.1 L2479.0 1797.1 L2468.5 1794.9 Z"></path>
					</g>
					<g stroke-dasharray="6 6">
						<path d="M2933.1 1339.5 L2462.25 1727 L2389.9936974789916 1785 L2390.0 1785.0 " fill="none"></path>
					</g>
					<path d="M2936.5 1343.6 L2933.1 1339.5 L2929.7 1335.4 L2943.4 1331.0 Z"></path>
					<g data-name="StudyInvite">
						<g fill="#eee8d5" stroke="#33322E" data-name="StudyInvite">
							<rect x="0.0" y="401.0" height="153.0" width="351.0" data-name="StudyInvite"></rect>
							<path d="M0.0 432.0 L351.0 432.0" fill="none" data-name="StudyInvite"></path>
							<path d="M0.0 523.0 L351.0 523.0" fill="none" data-name="StudyInvite"></path>
						</g>
						<g transform="translate(0, 401)" font-family="Helvetica" font-size="12pt" font-weight="bold" font-style="normal" data-name="StudyInvite">
							<g transform="translate(8, 8)" fill="#33322E" text-align="center" data-name="StudyInvite">
								<text x="167.5" y="13.5" stroke="none" text-anchor="middle" data-name="StudyInvite">StudyInvite</text>
								
							</g>
						</g>
						<g transform="translate(0, 432)" font-family="Helvetica" font-size="12pt" font-weight="normal" font-style="normal" data-name="StudyInvite">
							<g transform="translate(8, 8)" fill="#33322E" text-align="left" data-name="StudyInvite">
								<text x="0.0" y="13.5" stroke="none" data-name="StudyInvite">&lt;static&gt;+tableName: String</text>
								<text x="0.0" y="28.5" stroke="none" data-name="StudyInvite">+code: String</text>
								<text x="0.0" y="43.5" stroke="none" data-name="StudyInvite">+studyId: String</text>
								<text x="0.0" y="58.5" stroke="none" data-name="StudyInvite">+preselectedInterventionIds: List&lt;String&gt;?</text>
								<text x="0.0" y="73.5" stroke="none" data-name="StudyInvite">+primaryKeys: Map&lt;String, dynamic&gt;</text>
								
							</g>
						</g>
						<g transform="translate(0, 523)" font-family="Helvetica" font-size="12pt" font-weight="normal" font-style="normal" data-name="StudyInvite">
							<g transform="translate(8, 8)" fill="#33322E" text-align="left" data-name="StudyInvite">
								<text x="0.0" y="13.5" stroke="none" data-name="StudyInvite">+Map&lt;String, dynamic&gt; toJson()</text>
								
							</g>
						</g>
					</g>
					<g data-name="SupabaseObjectFunctions">
						<g fill="#eee8d5" stroke="#33322E" data-name="SupabaseObjectFunctions">
							<rect x="1010.8" y="0.0" height="31.0" width="224.0" data-name="SupabaseObjectFunctions"></rect>
						</g>
						<g transform="translate(1010.75, 0)" font-family="Helvetica" font-size="12pt" font-weight="normal" font-style="italic" data-name="SupabaseObjectFunctions">
							<g transform="translate(8, 8)" fill="#33322E" text-align="center" data-name="SupabaseObjectFunctions">
								<text x="104.0" y="13.5" stroke="none" text-anchor="middle" data-name="SupabaseObjectFunctions">SupabaseObjectFunctions</text>
								
							</g>
						</g>
					</g>
					<g data-name="SubjectProgress">
						<g fill="#eee8d5" stroke="#33322E" data-name="SubjectProgress">
							<rect x="391.0" y="348.5" height="258.0" width="330.0" data-name="SubjectProgress"></rect>
							<path d="M391.0 379.5 L721.0 379.5" fill="none" data-name="SubjectProgress"></path>
							<path d="M391.0 545.5 L721.0 545.5" fill="none" data-name="SubjectProgress"></path>
						</g>
						<g transform="translate(391, 348.5)" font-family="Helvetica" font-size="12pt" font-weight="bold" font-style="normal" data-name="SubjectProgress">
							<g transform="translate(8, 8)" fill="#33322E" text-align="center" data-name="SubjectProgress">
								<text x="157.0" y="13.5" stroke="none" text-anchor="middle" data-name="SubjectProgress">SubjectProgress</text>
								
							</g>
						</g>
						<g transform="translate(391, 379.5)" font-family="Helvetica" font-size="12pt" font-weight="normal" font-style="normal" data-name="SubjectProgress">
							<g transform="translate(8, 8)" fill="#33322E" text-align="left" data-name="SubjectProgress">
								<text x="0.0" y="13.5" stroke="none" data-name="SubjectProgress">&lt;static&gt;+tableName: String</text>
								<text x="0.0" y="28.5" stroke="none" data-name="SubjectProgress">+completedAt: DateTime?</text>
								<text x="0.0" y="43.5" stroke="none" data-name="SubjectProgress">+subjectId: String</text>
								<text x="0.0" y="58.5" stroke="none" data-name="SubjectProgress">+interventionId: String</text>
								<text x="0.0" y="73.5" stroke="none" data-name="SubjectProgress">+taskId: String</text>
								<text x="0.0" y="88.5" stroke="none" data-name="SubjectProgress">+resultType: String</text>
								<text x="0.0" y="103.5" stroke="none" data-name="SubjectProgress">+result: Result&lt;dynamic&gt;</text>
								<text x="0.0" y="118.5" stroke="none" data-name="SubjectProgress">+startedAt: DateTime?</text>
								<text x="0.0" y="133.5" stroke="none" data-name="SubjectProgress">+primaryKeys: Map&lt;String, dynamic&gt;</text>
								<text x="0.0" y="148.5" stroke="none" data-name="SubjectProgress">+hashCode: int</text>
								
							</g>
						</g>
						<g transform="translate(391, 545.5)" font-family="Helvetica" font-size="12pt" font-weight="normal" font-style="normal" data-name="SubjectProgress">
							<g transform="translate(8, 8)" fill="#33322E" text-align="left" data-name="SubjectProgress">
								<text x="0.0" y="13.5" stroke="none" data-name="SubjectProgress">+Map&lt;String, dynamic&gt; toJson()</text>
								<text x="0.0" y="28.5" stroke="none" data-name="SubjectProgress">+SubjectProgress setStartDateBackBy()</text>
								<text x="0.0" y="43.5" stroke="none" data-name="SubjectProgress">+bool ==()</text>
								
							</g>
						</g>
					</g>
					<g data-name="Result">
						<g fill="#eee8d5" stroke="#33322E" data-name="Result">
							<rect x="523.0" y="1300.0" height="31.0" width="66.0" data-name="Result"></rect>
						</g>
						<g transform="translate(523, 1300)" font-family="Helvetica" font-size="12pt" font-weight="bold" font-style="normal" data-name="Result">
							<g transform="translate(8, 8)" fill="#33322E" text-align="center" data-name="Result">
								<text x="25.0" y="13.5" stroke="none" text-anchor="middle" data-name="Result">Result</text>
								
							</g>
						</g>
					</g>
					<g data-name="StudySubject">
						<g fill="#eee8d5" stroke="#33322E" data-name="StudySubject">
							<rect x="1017.5" y="71.0" height="813.0" width="501.0" data-name="StudySubject"></rect>
							<path d="M1017.5 102.0 L1518.5 102.0" fill="none" data-name="StudySubject"></path>
							<path d="M1017.5 403.0 L1518.5 403.0" fill="none" data-name="StudySubject"></path>
						</g>
						<g transform="translate(1017.5, 71)" font-family="Helvetica" font-size="12pt" font-weight="bold" font-style="normal" data-name="StudySubject">
							<g transform="translate(8, 8)" fill="#33322E" text-align="center" data-name="StudySubject">
								<text x="242.5" y="13.5" stroke="none" text-anchor="middle" data-name="StudySubject">StudySubject</text>
								
							</g>
						</g>
						<g transform="translate(1017.5, 102)" font-family="Helvetica" font-size="12pt" font-weight="normal" font-style="normal" data-name="StudySubject">
							<g transform="translate(8, 8)" fill="#33322E" text-align="left" data-name="StudySubject">
								<text x="0.0" y="13.5" stroke="none" data-name="StudySubject">&lt;static&gt;+tableName: String</text>
								<text x="0.0" y="28.5" stroke="none" data-name="StudySubject">-_controller: StreamController&lt;StudySubject&gt;</text>
								<text x="0.0" y="43.5" stroke="none" data-name="StudySubject">+id: String</text>
								<text x="0.0" y="58.5" stroke="none" data-name="StudySubject">+studyId: String</text>
								<text x="0.0" y="73.5" stroke="none" data-name="StudySubject">+userId: String</text>
								<text x="0.0" y="88.5" stroke="none" data-name="StudySubject">+startedAt: DateTime?</text>
								<text x="0.0" y="103.5" stroke="none" data-name="StudySubject">+selectedInterventionIds: List&lt;String&gt;</text>
								<text x="0.0" y="118.5" stroke="none" data-name="StudySubject">+inviteCode: String?</text>
								<text x="0.0" y="133.5" stroke="none" data-name="StudySubject">+isDeleted: bool</text>
								<text x="0.0" y="148.5" stroke="none" data-name="StudySubject">+study: Study</text>
								<text x="0.0" y="163.5" stroke="none" data-name="StudySubject">+progress: List&lt;SubjectProgress&gt;</text>
								<text x="0.0" y="178.5" stroke="none" data-name="StudySubject">+primaryKeys: Map&lt;String, dynamic&gt;</text>
								<text x="0.0" y="193.5" stroke="none" data-name="StudySubject">+interventionOrder: List&lt;String&gt;</text>
								<text x="0.0" y="208.5" stroke="none" data-name="StudySubject">+selectedInterventions: List&lt;Intervention&gt;</text>
								<text x="0.0" y="223.5" stroke="none" data-name="StudySubject">+daysPerIntervention: int</text>
								<text x="0.0" y="238.5" stroke="none" data-name="StudySubject">+minimumStudyLengthCompleted: bool</text>
								<text x="0.0" y="253.5" stroke="none" data-name="StudySubject">+completedStudy: bool</text>
								<text x="0.0" y="268.5" stroke="none" data-name="StudySubject">+onSave: Stream&lt;StudySubject&gt;</text>
								<text x="0.0" y="283.5" stroke="none" data-name="StudySubject">+hashCode: int</text>
								
							</g>
						</g>
						<g transform="translate(1017.5, 403)" font-family="Helvetica" font-size="12pt" font-weight="normal" font-style="normal" data-name="StudySubject">
							<g transform="translate(8, 8)" fill="#33322E" text-align="left" data-name="StudySubject">
								<text x="0.0" y="13.5" stroke="none" data-name="StudySubject">+Map&lt;String, dynamic&gt; toJson()</text>
								<text x="0.0" y="28.5" stroke="none" data-name="StudySubject">+dynamic addResult()</text>
								<text x="0.0" y="43.5" stroke="none" data-name="StudySubject">+Map&lt;DateTime, List&lt;SubjectProgress&gt;&gt; getResultsByDate()</text>
								<text x="0.0" y="58.5" stroke="none" data-name="StudySubject">+DateTime endDate()</text>
								<text x="0.0" y="73.5" stroke="none" data-name="StudySubject">+int getDayOfStudyFor()</text>
								<text x="0.0" y="88.5" stroke="none" data-name="StudySubject">+int getInterventionIndexForDate()</text>
								<text x="0.0" y="103.5" stroke="none" data-name="StudySubject">+Intervention? getInterventionForDate()</text>
								<text x="0.0" y="118.5" stroke="none" data-name="StudySubject">+List&lt;Intervention&gt; getInterventionsInOrder()</text>
								<text x="0.0" y="133.5" stroke="none" data-name="StudySubject">+DateTime startOfPhase()</text>
								<text x="0.0" y="148.5" stroke="none" data-name="StudySubject">+DateTime dayAfterEndOfPhase()</text>
								<text x="0.0" y="163.5" stroke="none" data-name="StudySubject">+List&lt;SubjectProgress&gt; resultsFor()</text>
								<text x="0.0" y="178.5" stroke="none" data-name="StudySubject">+int completedForPhase()</text>
								<text x="0.0" y="193.5" stroke="none" data-name="StudySubject">+int daysLeftForPhase()</text>
								<text x="0.0" y="208.5" stroke="none" data-name="StudySubject">+double percentCompletedForPhase()</text>
								<text x="0.0" y="223.5" stroke="none" data-name="StudySubject">+double percentMissedForPhase()</text>
								<text x="0.0" y="238.5" stroke="none" data-name="StudySubject">+List&lt;SubjectProgress&gt; getTaskProgressForDay()</text>
								<text x="0.0" y="253.5" stroke="none" data-name="StudySubject">+bool completedTaskInstanceForDay()</text>
								<text x="0.0" y="268.5" stroke="none" data-name="StudySubject">+bool completedTaskForDay()</text>
								<text x="0.0" y="283.5" stroke="none" data-name="StudySubject">+int completedTasksFor()</text>
								<text x="0.0" y="298.5" stroke="none" data-name="StudySubject">+bool allTasksCompletedFor()</text>
								<text x="0.0" y="313.5" stroke="none" data-name="StudySubject">+int totalTaskCountFor()</text>
								<text x="0.0" y="328.5" stroke="none" data-name="StudySubject">+List&lt;TaskInstance&gt; scheduleFor()</text>
								<text x="0.0" y="343.5" stroke="none" data-name="StudySubject">+dynamic setStartDateBackBy()</text>
								<text x="0.0" y="358.5" stroke="none" data-name="StudySubject">+dynamic save()</text>
								<text x="0.0" y="373.5" stroke="none" data-name="StudySubject">+Map&lt;String, dynamic&gt; toFullJson()</text>
								<text x="0.0" y="388.5" stroke="none" data-name="StudySubject">+dynamic deleteProgress()</text>
								<text x="0.0" y="403.5" stroke="none" data-name="StudySubject">+dynamic delete()</text>
								<text x="0.0" y="418.5" stroke="none" data-name="StudySubject">+dynamic softDelete()</text>
								<text x="0.0" y="433.5" stroke="none" data-name="StudySubject">&lt;static&gt;+dynamic getStudyHistory()</text>
								<text x="0.0" y="448.5" stroke="none" data-name="StudySubject">+bool ==()</text>
								<text x="0.0" y="463.5" stroke="none" data-name="StudySubject">+String toString()</text>
								
							</g>
						</g>
					</g>
					<g data-name="StreamController">
						<g fill="#eee8d5" stroke="#33322E" data-name="StreamController">
							<rect x="629.0" y="1300.0" height="31.0" width="149.0" data-name="StreamController"></rect>
						</g>
						<g transform="translate(629, 1300)" font-family="Helvetica" font-size="12pt" font-weight="bold" font-style="normal" data-name="StreamController">
							<g transform="translate(8, 8)" fill="#33322E" text-align="center" data-name="StreamController">
								<text x="66.5" y="13.5" stroke="none" text-anchor="middle" data-name="StreamController">StreamController</text>
								
							</g>
						</g>
					</g>
					<g data-name="Study">
						<g fill="#eee8d5" stroke="#33322E" data-name="Study">
							<rect x="2265.3" y="924.0" height="783.0" width="434.0" data-name="Study"></rect>
							<path d="M2265.3 955.0 L2699.3 955.0" fill="none" data-name="Study"></path>
							<path d="M2265.3 1556.0 L2699.3 1556.0" fill="none" data-name="Study"></path>
						</g>
						<g transform="translate(2265.25, 924)" font-family="Helvetica" font-size="12pt" font-weight="bold" font-style="normal" data-name="Study">
							<g transform="translate(8, 8)" fill="#33322E" text-align="center" data-name="Study">
								<text x="209.0" y="13.5" stroke="none" text-anchor="middle" data-name="Study">Study</text>
								
							</g>
						</g>
						<g transform="translate(2265.25, 955)" font-family="Helvetica" font-size="12pt" font-weight="normal" font-style="normal" data-name="Study">
							<g transform="translate(8, 8)" fill="#33322E" text-align="left" data-name="Study">
								<text x="0.0" y="13.5" stroke="none" data-name="Study">&lt;static&gt;+tableName: String</text>
								<text x="0.0" y="28.5" stroke="none" data-name="Study">&lt;static&gt;+baselineID: String</text>
								<text x="0.0" y="43.5" stroke="none" data-name="Study">+id: String</text>
								<text x="0.0" y="58.5" stroke="none" data-name="Study">+title: String?</text>
								<text x="0.0" y="73.5" stroke="none" data-name="Study">+description: String?</text>
								<text x="0.0" y="88.5" stroke="none" data-name="Study">+userId: String</text>
								<text x="0.0" y="103.5" stroke="none" data-name="Study">+participation: Participation</text>
								<text x="0.0" y="118.5" stroke="none" data-name="Study">+resultSharing: ResultSharing</text>
								<text x="0.0" y="133.5" stroke="none" data-name="Study">+contact: Contact</text>
								<text x="0.0" y="148.5" stroke="none" data-name="Study">+iconName: String</text>
								<text x="0.0" y="163.5" stroke="none" data-name="Study">+published: bool</text>
								<text x="0.0" y="178.5" stroke="none" data-name="Study">+questionnaire: StudyUQuestionnaire</text>
								<text x="0.0" y="193.5" stroke="none" data-name="Study">+eligibilityCriteria: List&lt;EligibilityCriterion&gt;</text>
								<text x="0.0" y="208.5" stroke="none" data-name="Study">+consent: List&lt;ConsentItem&gt;</text>
								<text x="0.0" y="223.5" stroke="none" data-name="Study">+interventions: List&lt;Intervention&gt;</text>
								<text x="0.0" y="238.5" stroke="none" data-name="Study">+observations: List&lt;Observation&gt;</text>
								<text x="0.0" y="253.5" stroke="none" data-name="Study">+schedule: StudySchedule</text>
								<text x="0.0" y="268.5" stroke="none" data-name="Study">+reportSpecification: ReportSpecification</text>
								<text x="0.0" y="283.5" stroke="none" data-name="Study">+results: List&lt;StudyResult&gt;</text>
								<text x="0.0" y="298.5" stroke="none" data-name="Study">+collaboratorEmails: List&lt;String&gt;</text>
								<text x="0.0" y="313.5" stroke="none" data-name="Study">+registryPublished: bool</text>
								<text x="0.0" y="328.5" stroke="none" data-name="Study">+participantCount: int</text>
								<text x="0.0" y="343.5" stroke="none" data-name="Study">+endedCount: int</text>
								<text x="0.0" y="358.5" stroke="none" data-name="Study">+activeSubjectCount: int</text>
								<text x="0.0" y="373.5" stroke="none" data-name="Study">+missedDays: List&lt;int&gt;</text>
								<text x="0.0" y="388.5" stroke="none" data-name="Study">+repo: Repo?</text>
								<text x="0.0" y="403.5" stroke="none" data-name="Study">+invites: List&lt;StudyInvite&gt;?</text>
								<text x="0.0" y="418.5" stroke="none" data-name="Study">+participants: List&lt;StudySubject&gt;?</text>
								<text x="0.0" y="433.5" stroke="none" data-name="Study">+participantsProgress: List&lt;SubjectProgress&gt;?</text>
								<text x="0.0" y="448.5" stroke="none" data-name="Study">+createdAt: DateTime?</text>
								<text x="0.0" y="463.5" stroke="none" data-name="Study">+primaryKeys: Map&lt;String, dynamic&gt;</text>
								<text x="0.0" y="478.5" stroke="none" data-name="Study">+hasEligibilityCheck: bool</text>
								<text x="0.0" y="493.5" stroke="none" data-name="Study">+hasConsentCheck: bool</text>
								<text x="0.0" y="508.5" stroke="none" data-name="Study">+totalMissedDays: int</text>
								<text x="0.0" y="523.5" stroke="none" data-name="Study">+percentageMissedDays: double</text>
								<text x="0.0" y="538.5" stroke="none" data-name="Study">+status: StudyStatus</text>
								<text x="0.0" y="553.5" stroke="none" data-name="Study">+isDraft: bool</text>
								<text x="0.0" y="568.5" stroke="none" data-name="Study">+isRunning: bool</text>
								<text x="0.0" y="583.5" stroke="none" data-name="Study">+isClosed: bool</text>
								
							</g>
						</g>
						<g transform="translate(2265.25, 1556)" font-family="Helvetica" font-size="12pt" font-weight="normal" font-style="normal" data-name="Study">
							<g transform="translate(8, 8)" fill="#33322E" text-align="left" data-name="Study">
								<text x="0.0" y="13.5" stroke="none" data-name="Study">+Map&lt;String, dynamic&gt; toJson()</text>
								<text x="0.0" y="28.5" stroke="none" data-name="Study">&lt;static&gt;+dynamic getResearcherDashboardStudies()</text>
								<text x="0.0" y="43.5" stroke="none" data-name="Study">&lt;static&gt;+dynamic publishedPublicStudies()</text>
								<text x="0.0" y="58.5" stroke="none" data-name="Study">+bool isOwner()</text>
								<text x="0.0" y="73.5" stroke="none" data-name="Study">+bool isEditor()</text>
								<text x="0.0" y="88.5" stroke="none" data-name="Study">+bool canEdit()</text>
								<text x="0.0" y="103.5" stroke="none" data-name="Study">&lt;static&gt;+dynamic fetchResultsCSVTable()</text>
								<text x="0.0" y="118.5" stroke="none" data-name="Study">+bool isReadonly()</text>
								<text x="0.0" y="133.5" stroke="none" data-name="Study">+String toString()</text>
								
							</g>
						</g>
					</g>
					<g data-name="Stream">
						<g fill="#eee8d5" stroke="#33322E" data-name="Stream">
							<rect x="1232.0" y="1300.0" height="31.0" width="72.0" data-name="Stream"></rect>
						</g>
						<g transform="translate(1232, 1300)" font-family="Helvetica" font-size="12pt" font-weight="bold" font-style="normal" data-name="Stream">
							<g transform="translate(8, 8)" fill="#33322E" text-align="center" data-name="Stream">
								<text x="28.0" y="13.5" stroke="none" text-anchor="middle" data-name="Stream">Stream</text>
								
							</g>
						</g>
					</g>
					<g data-name="AppConfig">
						<g fill="#eee8d5" stroke="#33322E" data-name="AppConfig">
							<rect x="818.0" y="1186.5" height="258.0" width="319.0" data-name="AppConfig"></rect>
							<path d="M818.0 1217.5 L1137.0 1217.5" fill="none" data-name="AppConfig"></path>
							<path d="M818.0 1383.5 L1137.0 1383.5" fill="none" data-name="AppConfig"></path>
						</g>
						<g transform="translate(818, 1186.5)" font-family="Helvetica" font-size="12pt" font-weight="bold" font-style="normal" data-name="AppConfig">
							<g transform="translate(8, 8)" fill="#33322E" text-align="center" data-name="AppConfig">
								<text x="151.5" y="13.5" stroke="none" text-anchor="middle" data-name="AppConfig">AppConfig</text>
								
							</g>
						</g>
						<g transform="translate(818, 1217.5)" font-family="Helvetica" font-size="12pt" font-weight="normal" font-style="normal" data-name="AppConfig">
							<g transform="translate(8, 8)" fill="#33322E" text-align="left" data-name="AppConfig">
								<text x="0.0" y="13.5" stroke="none" data-name="AppConfig">&lt;static&gt;+tableName: String</text>
								<text x="0.0" y="28.5" stroke="none" data-name="AppConfig">+id: String</text>
								<text x="0.0" y="43.5" stroke="none" data-name="AppConfig">+contact: Contact</text>
								<text x="0.0" y="58.5" stroke="none" data-name="AppConfig">+appPrivacy: Map&lt;String, String&gt;</text>
								<text x="0.0" y="73.5" stroke="none" data-name="AppConfig">+appTerms: Map&lt;String, String&gt;</text>
								<text x="0.0" y="88.5" stroke="none" data-name="AppConfig">+designerPrivacy: Map&lt;String, String&gt;</text>
								<text x="0.0" y="103.5" stroke="none" data-name="AppConfig">+designerTerms: Map&lt;String, String&gt;</text>
								<text x="0.0" y="118.5" stroke="none" data-name="AppConfig">+imprint: Map&lt;String, String&gt;</text>
								<text x="0.0" y="133.5" stroke="none" data-name="AppConfig">+analytics: StudyUAnalytics?</text>
								<text x="0.0" y="148.5" stroke="none" data-name="AppConfig">+primaryKeys: Map&lt;String, dynamic&gt;</text>
								
							</g>
						</g>
						<g transform="translate(818, 1383.5)" font-family="Helvetica" font-size="12pt" font-weight="normal" font-style="normal" data-name="AppConfig">
							<g transform="translate(8, 8)" fill="#33322E" text-align="left" data-name="AppConfig">
								<text x="0.0" y="13.5" stroke="none" data-name="AppConfig">+Map&lt;String, dynamic&gt; toJson()</text>
								<text x="0.0" y="28.5" stroke="none" data-name="AppConfig">&lt;static&gt;+dynamic getAppConfig()</text>
								<text x="0.0" y="43.5" stroke="none" data-name="AppConfig">&lt;static&gt;+dynamic getAppContact()</text>
								
							</g>
						</g>
					</g>
					<g data-name="Contact">
						<g fill="#eee8d5" stroke="#33322E" data-name="Contact">
							<rect x="863.8" y="1830.5" height="31.0" width="77.0" data-name="Contact"></rect>
						</g>
						<g transform="translate(863.75, 1830.5)" font-family="Helvetica" font-size="12pt" font-weight="bold" font-style="normal" data-name="Contact">
							<g transform="translate(8, 8)" fill="#33322E" text-align="center" data-name="Contact">
								<text x="30.5" y="13.5" stroke="none" text-anchor="middle" data-name="Contact">Contact</text>
								
							</g>
						</g>
					</g>
					<g data-name="StudyUAnalytics">
						<g fill="#eee8d5" stroke="#33322E" data-name="StudyUAnalytics">
							<rect x="1062.5" y="1830.5" height="31.0" width="144.0" data-name="StudyUAnalytics"></rect>
						</g>
						<g transform="translate(1062.5, 1830.5)" font-family="Helvetica" font-size="12pt" font-weight="bold" font-style="normal" data-name="StudyUAnalytics">
							<g transform="translate(8, 8)" fill="#33322E" text-align="center" data-name="StudyUAnalytics">
								<text x="64.0" y="13.5" stroke="none" text-anchor="middle" data-name="StudyUAnalytics">StudyUAnalytics</text>
								
							</g>
						</g>
					</g>
					<g data-name="Repo">
						<g fill="#eee8d5" stroke="#33322E" data-name="Repo">
							<rect x="1423.5" y="1747.0" height="198.0" width="310.0" data-name="Repo"></rect>
							<path d="M1423.5 1778.0 L1733.5 1778.0" fill="none" data-name="Repo"></path>
							<path d="M1423.5 1914.0 L1733.5 1914.0" fill="none" data-name="Repo"></path>
						</g>
						<g transform="translate(1423.5, 1747)" font-family="Helvetica" font-size="12pt" font-weight="bold" font-style="normal" data-name="Repo">
							<g transform="translate(8, 8)" fill="#33322E" text-align="center" data-name="Repo">
								<text x="147.0" y="13.5" stroke="none" text-anchor="middle" data-name="Repo">Repo</text>
								
							</g>
						</g>
						<g transform="translate(1423.5, 1778)" font-family="Helvetica" font-size="12pt" font-weight="normal" font-style="normal" data-name="Repo">
							<g transform="translate(8, 8)" fill="#33322E" text-align="left" data-name="Repo">
								<text x="0.0" y="13.5" stroke="none" data-name="Repo">&lt;static&gt;+tableName: String</text>
								<text x="0.0" y="28.5" stroke="none" data-name="Repo">+projectId: String</text>
								<text x="0.0" y="43.5" stroke="none" data-name="Repo">+userId: String</text>
								<text x="0.0" y="58.5" stroke="none" data-name="Repo">+studyId: String</text>
								<text x="0.0" y="73.5" stroke="none" data-name="Repo">+provider: GitProvider</text>
								<text x="0.0" y="88.5" stroke="none" data-name="Repo">+webUrl: String</text>
								<text x="0.0" y="103.5" stroke="none" data-name="Repo">+gitUrl: String</text>
								<text x="0.0" y="118.5" stroke="none" data-name="Repo">+primaryKeys: Map&lt;String, dynamic&gt;</text>
								
							</g>
						</g>
						<g transform="translate(1423.5, 1914)" font-family="Helvetica" font-size="12pt" font-weight="normal" font-style="normal" data-name="Repo">
							<g transform="translate(8, 8)" fill="#33322E" text-align="left" data-name="Repo">
								<text x="0.0" y="13.5" stroke="none" data-name="Repo">+Map&lt;String, dynamic&gt; toJson()</text>
								
							</g>
						</g>
					</g>
					<g data-name="GitProvider">
						<g fill="#eee8d5" stroke="#33322E" data-name="GitProvider">
							<rect x="2421.5" y="1985.0" height="92.0" width="286.0" data-name="GitProvider"></rect>
							<path d="M2421.5 2016.0 L2707.5 2016.0" fill="none" data-name="GitProvider"></path>
						</g>
						<g transform="translate(2421.5, 1985)" font-family="Helvetica" font-size="12pt" font-weight="bold" font-style="normal" data-name="GitProvider">
							<g transform="translate(8, 8)" fill="#33322E" text-align="center" data-name="GitProvider">
								<text x="135.0" y="13.5" stroke="none" text-anchor="middle" data-name="GitProvider">GitProvider</text>
								
							</g>
						</g>
						<g transform="translate(2421.5, 2016)" font-family="Helvetica" font-size="12pt" font-weight="normal" font-style="normal" data-name="GitProvider">
							<g transform="translate(8, 8)" fill="#33322E" text-align="left" data-name="GitProvider">
								<text x="0.0" y="13.5" stroke="none" data-name="GitProvider">+index: int</text>
								<text x="0.0" y="28.5" stroke="none" data-name="GitProvider">&lt;static&gt;+values: List&lt;GitProvider&gt;</text>
								<text x="0.0" y="43.5" stroke="none" data-name="GitProvider">&lt;static&gt;+gitlab: GitProvider</text>
								
							</g>
						</g>
					</g>
					<g data-name="Enum">
						<g fill="#eee8d5" stroke="#33322E" data-name="Enum">
							<rect x="2931.8" y="1300.0" height="31.0" width="61.0" data-name="Enum"></rect>
						</g>
						<g transform="translate(2931.75, 1300)" font-family="Helvetica" font-size="12pt" font-weight="bold" font-style="normal" data-name="Enum">
							<g transform="translate(8, 8)" fill="#33322E" text-align="center" data-name="Enum">
								<text x="22.5" y="13.5" stroke="none" text-anchor="middle" data-name="Enum">Enum</text>
								
							</g>
						</g>
					</g>
					<g data-name="Participation">
						<g fill="#eee8d5" stroke="#33322E" data-name="Participation">
							<rect x="1773.5" y="1792.5" height="107.0" width="296.0" data-name="Participation"></rect>
							<path d="M1773.5 1823.5 L2069.5 1823.5" fill="none" data-name="Participation"></path>
						</g>
						<g transform="translate(1773.5, 1792.5)" font-family="Helvetica" font-size="12pt" font-weight="bold" font-style="normal" data-name="Participation">
							<g transform="translate(8, 8)" fill="#33322E" text-align="center" data-name="Participation">
								<text x="140.0" y="13.5" stroke="none" text-anchor="middle" data-name="Participation">Participation</text>
								
							</g>
						</g>
						<g transform="translate(1773.5, 1823.5)" font-family="Helvetica" font-size="12pt" font-weight="normal" font-style="normal" data-name="Participation">
							<g transform="translate(8, 8)" fill="#33322E" text-align="left" data-name="Participation">
								<text x="0.0" y="13.5" stroke="none" data-name="Participation">+index: int</text>
								<text x="0.0" y="28.5" stroke="none" data-name="Participation">&lt;static&gt;+values: List&lt;Participation&gt;</text>
								<text x="0.0" y="43.5" stroke="none" data-name="Participation">&lt;static&gt;+open: Participation</text>
								<text x="0.0" y="58.5" stroke="none" data-name="Participation">&lt;static&gt;+invite: Participation</text>
								
							</g>
						</g>
					</g>
					<g data-name="ResultSharing">
						<g fill="#eee8d5" stroke="#33322E" data-name="ResultSharing">
							<rect x="2159.5" y="1785.0" height="122.0" width="309.0" data-name="ResultSharing"></rect>
							<path d="M2159.5 1816.0 L2468.5 1816.0" fill="none" data-name="ResultSharing"></path>
						</g>
						<g transform="translate(2159.5, 1785)" font-family="Helvetica" font-size="12pt" font-weight="bold" font-style="normal" data-name="ResultSharing">
							<g transform="translate(8, 8)" fill="#33322E" text-align="center" data-name="ResultSharing">
								<text x="146.5" y="13.5" stroke="none" text-anchor="middle" data-name="ResultSharing">ResultSharing</text>
								
							</g>
						</g>
						<g transform="translate(2159.5, 1816)" font-family="Helvetica" font-size="12pt" font-weight="normal" font-style="normal" data-name="ResultSharing">
							<g transform="translate(8, 8)" fill="#33322E" text-align="left" data-name="ResultSharing">
								<text x="0.0" y="13.5" stroke="none" data-name="ResultSharing">+index: int</text>
								<text x="0.0" y="28.5" stroke="none" data-name="ResultSharing">&lt;static&gt;+values: List&lt;ResultSharing&gt;</text>
								<text x="0.0" y="43.5" stroke="none" data-name="ResultSharing">&lt;static&gt;+public: ResultSharing</text>
								<text x="0.0" y="58.5" stroke="none" data-name="ResultSharing">&lt;static&gt;+private: ResultSharing</text>
								<text x="0.0" y="73.5" stroke="none" data-name="ResultSharing">&lt;static&gt;+organization: ResultSharing</text>
								
							</g>
						</g>
					</g>
					<g data-name="StudyUQuestionnaire">
						<g fill="#eee8d5" stroke="#33322E" data-name="StudyUQuestionnaire">
							<rect x="2558.5" y="1830.5" height="31.0" width="184.0" data-name="StudyUQuestionnaire"></rect>
						</g>
						<g transform="translate(2558.5, 1830.5)" font-family="Helvetica" font-size="12pt" font-weight="bold" font-style="normal" data-name="StudyUQuestionnaire">
							<g transform="translate(8, 8)" fill="#33322E" text-align="center" data-name="StudyUQuestionnaire">
								<text x="84.0" y="13.5" stroke="none" text-anchor="middle" data-name="StudyUQuestionnaire">StudyUQuestionnaire</text>
								
							</g>
						</g>
					</g>
					<g data-name="StudySchedule">
						<g fill="#eee8d5" stroke="#33322E" data-name="StudySchedule">
							<rect x="2782.5" y="1830.5" height="31.0" width="135.0" data-name="StudySchedule"></rect>
						</g>
						<g transform="translate(2782.5, 1830.5)" font-family="Helvetica" font-size="12pt" font-weight="bold" font-style="normal" data-name="StudySchedule">
							<g transform="translate(8, 8)" fill="#33322E" text-align="center" data-name="StudySchedule">
								<text x="59.5" y="13.5" stroke="none" text-anchor="middle" data-name="StudySchedule">StudySchedule</text>
								
							</g>
						</g>
					</g>
					<g data-name="ReportSpecification">
						<g fill="#eee8d5" stroke="#33322E" data-name="ReportSpecification">
							<rect x="2957.5" y="1830.5" height="31.0" width="170.0" data-name="ReportSpecification"></rect>
						</g>
						<g transform="translate(2957.5, 1830.5)" font-family="Helvetica" font-size="12pt" font-weight="bold" font-style="normal" data-name="ReportSpecification">
							<g transform="translate(8, 8)" fill="#33322E" text-align="center" data-name="ReportSpecification">
								<text x="77.0" y="13.5" stroke="none" text-anchor="middle" data-name="ReportSpecification">ReportSpecification</text>
								
							</g>
						</g>
					</g>
					<g data-name="StudyStatus">
						<g fill="#eee8d5" stroke="#33322E" data-name="StudyStatus">
							<rect x="3167.5" y="1785.0" height="122.0" width="293.0" data-name="StudyStatus"></rect>
							<path d="M3167.5 1816.0 L3460.5 1816.0" fill="none" data-name="StudyStatus"></path>
						</g>
						<g transform="translate(3167.5, 1785)" font-family="Helvetica" font-size="12pt" font-weight="bold" font-style="normal" data-name="StudyStatus">
							<g transform="translate(8, 8)" fill="#33322E" text-align="center" data-name="StudyStatus">
								<text x="138.5" y="13.5" stroke="none" text-anchor="middle" data-name="StudyStatus">StudyStatus</text>
								
							</g>
						</g>
						<g transform="translate(3167.5, 1816)" font-family="Helvetica" font-size="12pt" font-weight="normal" font-style="normal" data-name="StudyStatus">
							<g transform="translate(8, 8)" fill="#33322E" text-align="left" data-name="StudyStatus">
								<text x="0.0" y="13.5" stroke="none" data-name="StudyStatus">+index: int</text>
								<text x="0.0" y="28.5" stroke="none" data-name="StudyStatus">&lt;static&gt;+values: List&lt;StudyStatus&gt;</text>
								<text x="0.0" y="43.5" stroke="none" data-name="StudyStatus">&lt;static&gt;+draft: StudyStatus</text>
								<text x="0.0" y="58.5" stroke="none" data-name="StudyStatus">&lt;static&gt;+running: StudyStatus</text>
								<text x="0.0" y="73.5" stroke="none" data-name="StudyStatus">&lt;static&gt;+closed: StudyStatus</text>
								
							</g>
						</g>
					</g>
				</g>
			</g>
		</g>
	</g>
</svg>