<svg version="1.1" baseProfile="full" width="3017.5" height="336.0" viewbox="0 0 3017.5 336" xmlns="http://www.w3.org/2000/svg" xmlns:xlink="http://www.w3.org/1999/xlink" xmlns:ev="http://www.w3.org/2001/xml-events">
	<desc >[AnnotatedScaleQuestionWidget
	  |
	  +question: AnnotatedScaleQuestion;
	  +onDone: dynamic Function(Answer&lt;dynamic&gt;)?
	]
	
	[AnnotatedScaleQuestionWidget]o-[AnnotatedScaleQuestion]
	[AnnotatedScaleQuestionWidget]o-[dynamic Function(Answer&lt;dynamic&gt;)?]
	[&lt;abstract&gt;QuestionWidget]&lt;:-[AnnotatedScaleQuestionWidget]
	
	[VisualAnalogueQuestionWidget
	  |
	  +question: VisualAnalogueQuestion;
	  +onDone: dynamic Function(Answer&lt;dynamic&gt;)?
	]
	
	[VisualAnalogueQuestionWidget]o-[VisualAnalogueQuestion]
	[VisualAnalogueQuestionWidget]o-[dynamic Function(Answer&lt;dynamic&gt;)?]
	[&lt;abstract&gt;QuestionWidget]&lt;:-[VisualAnalogueQuestionWidget]
	
	[ScaleQuestionWidget
	  |
	  +question: ScaleQuestion;
	  +onDone: dynamic Function(Answer&lt;dynamic&gt;)?
	]
	
	[ScaleQuestionWidget]o-[ScaleQuestion]
	[ScaleQuestionWidget]o-[dynamic Function(Answer&lt;dynamic&gt;)?]
	[&lt;abstract&gt;QuestionWidget]&lt;:-[ScaleQuestionWidget]
	
	[FreeTextQuestionWidget
	  |
	  +question: FreeTextQuestion;
	  +onDone: dynamic Function(Answer&lt;dynamic&gt;)?
	]
	
	[FreeTextQuestionWidget]o-[FreeTextQuestion]
	[FreeTextQuestionWidget]o-[dynamic Function(Answer&lt;dynamic&gt;)?]
	[&lt;abstract&gt;QuestionWidget]&lt;:-[FreeTextQuestionWidget]
	
	[BooleanQuestionWidget
	  |
	  +question: BooleanQuestion;
	  +onDone: dynamic Function(Answer&lt;dynamic&gt;)?
	]
	
	[BooleanQuestionWidget]o-[BooleanQuestion]
	[BooleanQuestionWidget]o-[dynamic Function(Answer&lt;dynamic&gt;)?]
	[&lt;abstract&gt;QuestionWidget]&lt;:-[BooleanQuestionWidget]
	
	[&lt;abstract&gt;QuestionWidget
	  |
	  +subtitle: String?
	]
	
	[ChoiceQuestionWidget
	  |
	  +question: ChoiceQuestion;
	  +onDone: dynamic Function(Answer&lt;dynamic&gt;);
	  +multiSelectionText: String;
	  +subtitle: String?
	]
	
	[ChoiceQuestionWidget]o-[ChoiceQuestion]
	[ChoiceQuestionWidget]o-[dynamic Function(Answer&lt;dynamic&gt;)]
	[&lt;abstract&gt;QuestionWidget]&lt;:-[ChoiceQuestionWidget]
	
	</desc>
	<g stroke-width="1.0" text-align="left" font="12pt Helvetica, Arial, sans-serif" font-size="12pt" font-family="Helvetica" font-weight="bold" font-style="normal">
		<g font-family="Helvetica" font-size="12pt" font-weight="bold" font-style="normal" stroke-width="3.0" stroke-linejoin="round" stroke-linecap="round" stroke="#33322E">
			<g stroke="transparent" fill="transparent">
				<rect x="0.0" y="0.0" height="336.0" width="3017.5" stroke="none"></rect>
			</g>
			<g transform="translate(8, 8)" fill="#33322E">
				<g transform="translate(20, 20)" fill="#eee8d5" font-family="Helvetica" font-size="12pt" font-weight="normal" font-style="normal">
					<path d="M186.1 212.0 L181.5 229 L181.5 249 L181.5 249.0 " fill="none"></path>
					<g fill="#eee8d5">
						<path d="M193.7 204.4 L186.1 212.0 L183.4 201.6 L191.0 194.0 Z"></path>
					</g>
					<path d="M324.6 200.4 L403 229 L478.07042253521126 249 L478.1 249.0 " fill="none"></path>
					<g fill="#eee8d5">
						<path d="M317.6 192.2 L324.6 200.4 L314.0 202.2 L307.0 194.0 Z"></path>
					</g>
					<path d="M1285.7 34.8 L201.5 82 L201.5 117 L201.5 117.0 " fill="none"></path>
					<path d="M1285.9 40.1 L1285.7 34.8 L1285.4 29.5 L1299.0 34.2 Z"></path>
					<path d="M929.1 179.1 L1393.5 229 L1393.5 249 L1393.5 249.0 " fill="none"></path>
					<g fill="#eee8d5">
						<path d="M920.3 172.8 L929.1 179.1 L919.2 183.4 L910.5 177.1 Z"></path>
					</g>
					<path d="M551.7 199.0 L443 229 L495.53521126760563 249 L495.5 249.0 " fill="none"></path>
					<g fill="#eee8d5">
						<path d="M562.1 201.6 L551.7 199.0 L559.2 191.3 L569.7 194.0 Z"></path>
					</g>
					<path d="M1285.7 37.7 L709 82 L709 117 L709.0 117.0 " fill="none"></path>
					<path d="M1286.1 43.1 L1285.7 37.7 L1285.3 32.4 L1299.0 36.7 Z"></path>
					<path d="M1372.0 184.0 L1720.25 229 L1720.25 249 L1720.3 249.0 " fill="none"></path>
					<g fill="#eee8d5">
						<path d="M1363.4 177.5 L1372.0 184.0 L1362.1 188.0 L1353.5 181.6 Z"></path>
					</g>
					<path d="M937.6 197.6 L777.75 229 L641.693661971831 249 L641.7 249.0 " fill="none"></path>
					<g fill="#eee8d5">
						<path d="M947.8 201.0 L937.6 197.6 L945.8 190.6 L956.0 194.0 Z"></path>
					</g>
					<path d="M1286.0 51.1 L1152 82 L1152 117 L1152.0 117.0 " fill="none"></path>
					<path d="M1287.2 56.3 L1286.0 51.1 L1284.8 45.9 L1299.0 48.2 Z"></path>
					<path d="M1814.9 192.3 L2033.75 229 L2033.75 249 L2033.8 249.0 " fill="none"></path>
					<g fill="#eee8d5">
						<path d="M1806.6 185.5 L1814.9 192.3 L1804.8 196.1 L1796.5 189.3 Z"></path>
					</g>
					<path d="M1375.0 183.6 L1019.25 229 L696.75 252.70341614906832 L696.8 252.7 " fill="none"></path>
					<g fill="#eee8d5">
						<path d="M1384.9 187.7 L1375.0 183.6 L1383.6 177.1 L1393.5 181.2 Z"></path>
					</g>
					<path d="M1461.0 51.1 L1595 82 L1595 117 L1595.0 117.0 " fill="none"></path>
					<path d="M1462.2 45.9 L1461.0 51.1 L1459.8 56.3 L1448.0 48.2 Z"></path>
					<path d="M2220.9 198.2 L2352.5 229 L2352.5 249 L2352.5 249.0 " fill="none"></path>
					<g fill="#eee8d5">
						<path d="M2213.0 190.9 L2220.9 198.2 L2210.6 201.3 L2202.7 194.0 Z"></path>
					</g>
					<path d="M1817.9 176.3 L1260.75 229 L696.75 256.63561076604555 L696.8 256.6 " fill="none"></path>
					<g fill="#eee8d5">
						<path d="M1827.7 180.7 L1817.9 176.3 L1826.7 170.1 L1836.5 174.6 Z"></path>
					</g>
					<path d="M1461.3 37.7 L2038 82 L2038 117 L2038.0 117.0 " fill="none"></path>
					<path d="M1461.7 32.4 L1461.3 37.7 L1460.9 43.1 L1448.0 36.7 Z"></path>
					<path d="M2559.4 218.0 L2539.5 229 L2539.5 249 L2539.5 249.0 " fill="none"></path>
					<g fill="#eee8d5">
						<path d="M2570.2 218.2 L2559.4 218.0 L2565.0 208.8 L2575.8 209.0 Z"></path>
					</g>
					<path d="M2786.1 218.0 L2806 229 L2806 249 L2806.0 249.0 " fill="none"></path>
					<g fill="#eee8d5">
						<path d="M2780.5 208.8 L2786.1 218.0 L2775.3 218.2 L2769.7 209.0 Z"></path>
					</g>
					<path d="M1461.3 34.4 L2672.75 82 L2672.75 102 L2672.8 102.0 " fill="none"></path>
					<path d="M1461.5 29.1 L1461.3 34.4 L1461.1 39.8 L1448.0 33.9 Z"></path>
					<g data-name="AnnotatedScaleQuestionWidget">
						<g fill="#eee8d5" stroke="#33322E" data-name="AnnotatedScaleQuestionWidget">
							<rect x="0.0" y="117.0" height="77.0" width="403.0" data-name="AnnotatedScaleQuestionWidget"></rect>
							<path d="M0.0 148.0 L403.0 148.0" fill="none" data-name="AnnotatedScaleQuestionWidget"></path>
						</g>
						<g transform="translate(0, 117)" font-family="Helvetica" font-size="12pt" font-weight="bold" font-style="normal" data-name="AnnotatedScaleQuestionWidget">
							<g transform="translate(8, 8)" fill="#33322E" text-align="center" data-name="AnnotatedScaleQuestionWidget">
								<text x="193.5" y="13.5" stroke="none" text-anchor="middle" data-name="AnnotatedScaleQuestionWidget">AnnotatedScaleQuestionWidget</text>
								
							</g>
						</g>
						<g transform="translate(0, 148)" font-family="Helvetica" font-size="12pt" font-weight="normal" font-style="normal" data-name="AnnotatedScaleQuestionWidget">
							<g transform="translate(8, 8)" fill="#33322E" text-align="left" data-name="AnnotatedScaleQuestionWidget">
								<text x="0.0" y="13.5" stroke="none" data-name="AnnotatedScaleQuestionWidget">+question: AnnotatedScaleQuestion</text>
								<text x="0.0" y="28.5" stroke="none" data-name="AnnotatedScaleQuestionWidget">+onDone: dynamic Function(Answer&lt;dynamic&gt;)?</text>
								
							</g>
						</g>
					</g>
					<g data-name="AnnotatedScaleQuestion">
						<g fill="#eee8d5" stroke="#33322E" data-name="AnnotatedScaleQuestion">
							<rect x="75.5" y="249.0" height="31.0" width="212.0" data-name="AnnotatedScaleQuestion"></rect>
						</g>
						<g transform="translate(75.5, 249)" font-family="Helvetica" font-size="12pt" font-weight="bold" font-style="normal" data-name="AnnotatedScaleQuestion">
							<g transform="translate(8, 8)" fill="#33322E" text-align="center" data-name="AnnotatedScaleQuestion">
								<text x="98.0" y="13.5" stroke="none" text-anchor="middle" data-name="AnnotatedScaleQuestion">AnnotatedScaleQuestion</text>
								
							</g>
						</g>
					</g>
					<g data-name="dynamic Function(Answer&lt;dynamic&gt;)?">
						<g fill="#eee8d5" stroke="#33322E" data-name="dynamic Function(Answer&lt;dynamic&gt;)?">
							<rect x="375.8" y="249.0" height="31.0" width="321.0" data-name="dynamic Function(Answer&lt;dynamic&gt;)?"></rect>
						</g>
						<g transform="translate(375.75, 249)" font-family="Helvetica" font-size="12pt" font-weight="bold" font-style="normal" data-name="dynamic Function(Answer&lt;dynamic&gt;)?">
							<g transform="translate(8, 8)" fill="#33322E" text-align="center" data-name="dynamic Function(Answer&lt;dynamic&gt;)?">
								<text x="152.5" y="13.5" stroke="none" text-anchor="middle" data-name="dynamic Function(Answer&lt;dynamic&gt;)?">dynamic Function(Answer&lt;dynamic&gt;)?</text>
								
							</g>
						</g>
					</g>
					<g data-name="QuestionWidget">
						<g fill="#eee8d5" stroke="#33322E" data-name="QuestionWidget">
							<rect x="1299.0" y="0.0" height="62.0" width="149.0" data-name="QuestionWidget"></rect>
							<path d="M1299.0 31.0 L1448.0 31.0" fill="none" data-name="QuestionWidget"></path>
						</g>
						<g transform="translate(1299, 0)" font-family="Helvetica" font-size="12pt" font-weight="normal" font-style="italic" data-name="QuestionWidget">
							<g transform="translate(8, 8)" fill="#33322E" text-align="center" data-name="QuestionWidget">
								<text x="66.5" y="13.5" stroke="none" text-anchor="middle" data-name="QuestionWidget">QuestionWidget</text>
								
							</g>
						</g>
						<g transform="translate(1299, 31)" font-family="Helvetica" font-size="12pt" font-weight="normal" font-style="normal" data-name="QuestionWidget">
							<g transform="translate(8, 8)" fill="#33322E" text-align="left" data-name="QuestionWidget">
								<text x="0.0" y="13.5" stroke="none" data-name="QuestionWidget">+subtitle: String?</text>
								
							</g>
						</g>
					</g>
					<g data-name="VisualAnalogueQuestionWidget">
						<g fill="#eee8d5" stroke="#33322E" data-name="VisualAnalogueQuestionWidget">
							<rect x="507.5" y="117.0" height="77.0" width="403.0" data-name="VisualAnalogueQuestionWidget"></rect>
							<path d="M507.5 148.0 L910.5 148.0" fill="none" data-name="VisualAnalogueQuestionWidget"></path>
						</g>
						<g transform="translate(507.5, 117)" font-family="Helvetica" font-size="12pt" font-weight="bold" font-style="normal" data-name="VisualAnalogueQuestionWidget">
							<g transform="translate(8, 8)" fill="#33322E" text-align="center" data-name="VisualAnalogueQuestionWidget">
								<text x="193.5" y="13.5" stroke="none" text-anchor="middle" data-name="VisualAnalogueQuestionWidget">VisualAnalogueQuestionWidget</text>
								
							</g>
						</g>
						<g transform="translate(507.5, 148)" font-family="Helvetica" font-size="12pt" font-weight="normal" font-style="normal" data-name="VisualAnalogueQuestionWidget">
							<g transform="translate(8, 8)" fill="#33322E" text-align="left" data-name="VisualAnalogueQuestionWidget">
								<text x="0.0" y="13.5" stroke="none" data-name="VisualAnalogueQuestionWidget">+question: VisualAnalogueQuestion</text>
								<text x="0.0" y="28.5" stroke="none" data-name="VisualAnalogueQuestionWidget">+onDone: dynamic Function(Answer&lt;dynamic&gt;)?</text>
								
							</g>
						</g>
					</g>
					<g data-name="VisualAnalogueQuestion">
						<g fill="#eee8d5" stroke="#33322E" data-name="VisualAnalogueQuestion">
							<rect x="1288.5" y="249.0" height="31.0" width="210.0" data-name="VisualAnalogueQuestion"></rect>
						</g>
						<g transform="translate(1288.5, 249)" font-family="Helvetica" font-size="12pt" font-weight="bold" font-style="normal" data-name="VisualAnalogueQuestion">
							<g transform="translate(8, 8)" fill="#33322E" text-align="center" data-name="VisualAnalogueQuestion">
								<text x="97.0" y="13.5" stroke="none" text-anchor="middle" data-name="VisualAnalogueQuestion">VisualAnalogueQuestion</text>
								
							</g>
						</g>
					</g>
					<g data-name="ScaleQuestionWidget">
						<g fill="#eee8d5" stroke="#33322E" data-name="ScaleQuestionWidget">
							<rect x="950.5" y="117.0" height="77.0" width="403.0" data-name="ScaleQuestionWidget"></rect>
							<path d="M950.5 148.0 L1353.5 148.0" fill="none" data-name="ScaleQuestionWidget"></path>
						</g>
						<g transform="translate(950.5, 117)" font-family="Helvetica" font-size="12pt" font-weight="bold" font-style="normal" data-name="ScaleQuestionWidget">
							<g transform="translate(8, 8)" fill="#33322E" text-align="center" data-name="ScaleQuestionWidget">
								<text x="193.5" y="13.5" stroke="none" text-anchor="middle" data-name="ScaleQuestionWidget">ScaleQuestionWidget</text>
								
							</g>
						</g>
						<g transform="translate(950.5, 148)" font-family="Helvetica" font-size="12pt" font-weight="normal" font-style="normal" data-name="ScaleQuestionWidget">
							<g transform="translate(8, 8)" fill="#33322E" text-align="left" data-name="ScaleQuestionWidget">
								<text x="0.0" y="13.5" stroke="none" data-name="ScaleQuestionWidget">+question: ScaleQuestion</text>
								<text x="0.0" y="28.5" stroke="none" data-name="ScaleQuestionWidget">+onDone: dynamic Function(Answer&lt;dynamic&gt;)?</text>
								
							</g>
						</g>
					</g>
					<g data-name="ScaleQuestion">
						<g fill="#eee8d5" stroke="#33322E" data-name="ScaleQuestion">
							<rect x="1654.8" y="249.0" height="31.0" width="131.0" data-name="ScaleQuestion"></rect>
						</g>
						<g transform="translate(1654.75, 249)" font-family="Helvetica" font-size="12pt" font-weight="bold" font-style="normal" data-name="ScaleQuestion">
							<g transform="translate(8, 8)" fill="#33322E" text-align="center" data-name="ScaleQuestion">
								<text x="57.5" y="13.5" stroke="none" text-anchor="middle" data-name="ScaleQuestion">ScaleQuestion</text>
								
							</g>
						</g>
					</g>
					<g data-name="FreeTextQuestionWidget">
						<g fill="#eee8d5" stroke="#33322E" data-name="FreeTextQuestionWidget">
							<rect x="1393.5" y="117.0" height="77.0" width="403.0" data-name="FreeTextQuestionWidget"></rect>
							<path d="M1393.5 148.0 L1796.5 148.0" fill="none" data-name="FreeTextQuestionWidget"></path>
						</g>
						<g transform="translate(1393.5, 117)" font-family="Helvetica" font-size="12pt" font-weight="bold" font-style="normal" data-name="FreeTextQuestionWidget">
							<g transform="translate(8, 8)" fill="#33322E" text-align="center" data-name="FreeTextQuestionWidget">
								<text x="193.5" y="13.5" stroke="none" text-anchor="middle" data-name="FreeTextQuestionWidget">FreeTextQuestionWidget</text>
								
							</g>
						</g>
						<g transform="translate(1393.5, 148)" font-family="Helvetica" font-size="12pt" font-weight="normal" font-style="normal" data-name="FreeTextQuestionWidget">
							<g transform="translate(8, 8)" fill="#33322E" text-align="left" data-name="FreeTextQuestionWidget">
								<text x="0.0" y="13.5" stroke="none" data-name="FreeTextQuestionWidget">+question: FreeTextQuestion</text>
								<text x="0.0" y="28.5" stroke="none" data-name="FreeTextQuestionWidget">+onDone: dynamic Function(Answer&lt;dynamic&gt;)?</text>
								
							</g>
						</g>
					</g>
					<g data-name="FreeTextQuestion">
						<g fill="#eee8d5" stroke="#33322E" data-name="FreeTextQuestion">
							<rect x="1955.3" y="249.0" height="31.0" width="157.0" data-name="FreeTextQuestion"></rect>
						</g>
						<g transform="translate(1955.25, 249)" font-family="Helvetica" font-size="12pt" font-weight="bold" font-style="normal" data-name="FreeTextQuestion">
							<g transform="translate(8, 8)" fill="#33322E" text-align="center" data-name="FreeTextQuestion">
								<text x="70.5" y="13.5" stroke="none" text-anchor="middle" data-name="FreeTextQuestion">FreeTextQuestion</text>
								
							</g>
						</g>
					</g>
					<g data-name="BooleanQuestionWidget">
						<g fill="#eee8d5" stroke="#33322E" data-name="BooleanQuestionWidget">
							<rect x="1836.5" y="117.0" height="77.0" width="403.0" data-name="BooleanQuestionWidget"></rect>
							<path d="M1836.5 148.0 L2239.5 148.0" fill="none" data-name="BooleanQuestionWidget"></path>
						</g>
						<g transform="translate(1836.5, 117)" font-family="Helvetica" font-size="12pt" font-weight="bold" font-style="normal" data-name="BooleanQuestionWidget">
							<g transform="translate(8, 8)" fill="#33322E" text-align="center" data-name="BooleanQuestionWidget">
								<text x="193.5" y="13.5" stroke="none" text-anchor="middle" data-name="BooleanQuestionWidget">BooleanQuestionWidget</text>
								
							</g>
						</g>
						<g transform="translate(1836.5, 148)" font-family="Helvetica" font-size="12pt" font-weight="normal" font-style="normal" data-name="BooleanQuestionWidget">
							<g transform="translate(8, 8)" fill="#33322E" text-align="left" data-name="BooleanQuestionWidget">
								<text x="0.0" y="13.5" stroke="none" data-name="BooleanQuestionWidget">+question: BooleanQuestion</text>
								<text x="0.0" y="28.5" stroke="none" data-name="BooleanQuestionWidget">+onDone: dynamic Function(Answer&lt;dynamic&gt;)?</text>
								
							</g>
						</g>
					</g>
					<g data-name="BooleanQuestion">
						<g fill="#eee8d5" stroke="#33322E" data-name="BooleanQuestion">
							<rect x="2276.5" y="249.0" height="31.0" width="152.0" data-name="BooleanQuestion"></rect>
						</g>
						<g transform="translate(2276.5, 249)" font-family="Helvetica" font-size="12pt" font-weight="bold" font-style="normal" data-name="BooleanQuestion">
							<g transform="translate(8, 8)" fill="#33322E" text-align="center" data-name="BooleanQuestion">
								<text x="68.0" y="13.5" stroke="none" text-anchor="middle" data-name="BooleanQuestion">BooleanQuestion</text>
								
							</g>
						</g>
					</g>
					<g data-name="ChoiceQuestionWidget">
						<g fill="#eee8d5" stroke="#33322E" data-name="ChoiceQuestionWidget">
							<rect x="2476.3" y="102.0" height="107.0" width="393.0" data-name="ChoiceQuestionWidget"></rect>
							<path d="M2476.3 133.0 L2869.3 133.0" fill="none" data-name="ChoiceQuestionWidget"></path>
						</g>
						<g transform="translate(2476.25, 102)" font-family="Helvetica" font-size="12pt" font-weight="bold" font-style="normal" data-name="ChoiceQuestionWidget">
							<g transform="translate(8, 8)" fill="#33322E" text-align="center" data-name="ChoiceQuestionWidget">
								<text x="188.5" y="13.5" stroke="none" text-anchor="middle" data-name="ChoiceQuestionWidget">ChoiceQuestionWidget</text>
								
							</g>
						</g>
						<g transform="translate(2476.25, 133)" font-family="Helvetica" font-size="12pt" font-weight="normal" font-style="normal" data-name="ChoiceQuestionWidget">
							<g transform="translate(8, 8)" fill="#33322E" text-align="left" data-name="ChoiceQuestionWidget">
								<text x="0.0" y="13.5" stroke="none" data-name="ChoiceQuestionWidget">+question: ChoiceQuestion</text>
								<text x="0.0" y="28.5" stroke="none" data-name="ChoiceQuestionWidget">+onDone: dynamic Function(Answer&lt;dynamic&gt;)</text>
								<text x="0.0" y="43.5" stroke="none" data-name="ChoiceQuestionWidget">+multiSelectionText: String</text>
								<text x="0.0" y="58.5" stroke="none" data-name="ChoiceQuestionWidget">+subtitle: String?</text>
								
							</g>
						</g>
					</g>
					<g data-name="ChoiceQuestion">
						<g fill="#eee8d5" stroke="#33322E" data-name="ChoiceQuestion">
							<rect x="2468.5" y="249.0" height="31.0" width="142.0" data-name="ChoiceQuestion"></rect>
						</g>
						<g transform="translate(2468.5, 249)" font-family="Helvetica" font-size="12pt" font-weight="bold" font-style="normal" data-name="ChoiceQuestion">
							<g transform="translate(8, 8)" fill="#33322E" text-align="center" data-name="ChoiceQuestion">
								<text x="63.0" y="13.5" stroke="none" text-anchor="middle" data-name="ChoiceQuestion">ChoiceQuestion</text>
								
							</g>
						</g>
					</g>
					<g data-name="dynamic Function(Answer&lt;dynamic&gt;)">
						<g fill="#eee8d5" stroke="#33322E" data-name="dynamic Function(Answer&lt;dynamic&gt;)">
							<rect x="2650.5" y="249.0" height="31.0" width="311.0" data-name="dynamic Function(Answer&lt;dynamic&gt;)"></rect>
						</g>
						<g transform="translate(2650.5, 249)" font-family="Helvetica" font-size="12pt" font-weight="bold" font-style="normal" data-name="dynamic Function(Answer&lt;dynamic&gt;)">
							<g transform="translate(8, 8)" fill="#33322E" text-align="center" data-name="dynamic Function(Answer&lt;dynamic&gt;)">
								<text x="147.5" y="13.5" stroke="none" text-anchor="middle" data-name="dynamic Function(Answer&lt;dynamic&gt;)">dynamic Function(Answer&lt;dynamic&gt;)</text>
								
							</g>
						</g>
					</g>
				</g>
			</g>
		</g>
	</g>
</svg>