<svg version="1.1" baseProfile="full" width="1094.0" height="412.0" viewbox="0 0 1094 412" xmlns="http://www.w3.org/2000/svg" xmlns:xlink="http://www.w3.org/1999/xlink" xmlns:ev="http://www.w3.org/2001/xml-events">
	<desc >[LinearRegressionSection
	  |
	  &lt;static&gt;+sectionType: String;
	  +resultProperty: DataReference&lt;num&gt;?;
	  +alpha: double;
	  +improvement: ImprovementDirection?
	  |
	  +Map&lt;String, dynamic&gt; toJson()
	]
	
	[LinearRegressionSection]o-[DataReference]
	[LinearRegressionSection]o-[ImprovementDirection]
	[&lt;abstract&gt;ReportSection]&lt;:-[LinearRegressionSection]
	
	[ImprovementDirection
	  |
	  +index: int;
	  &lt;static&gt;+values: List&lt;ImprovementDirection&gt;;
	  &lt;static&gt;+positive: ImprovementDirection;
	  &lt;static&gt;+negative: ImprovementDirection
	]
	
	[ImprovementDirection]o-[ImprovementDirection]
	[Enum]&lt;:--[ImprovementDirection]
	
	[AverageSection
	  |
	  &lt;static&gt;+sectionType: String;
	  +aggregate: TemporalAggregation?;
	  +resultProperty: DataReference&lt;num&gt;?
	  |
	  +Map&lt;String, dynamic&gt; toJson()
	]
	
	[AverageSection]o-[TemporalAggregation]
	[AverageSection]o-[DataReference]
	[&lt;abstract&gt;ReportSection]&lt;:-[AverageSection]
	
	</desc>
	<g stroke-width="1.0" text-align="left" font="12pt Helvetica, Arial, sans-serif" font-size="12pt" font-family="Helvetica" font-weight="bold" font-style="normal">
		<g font-family="Helvetica" font-size="12pt" font-weight="bold" font-style="normal" stroke-width="3.0" stroke-linejoin="round" stroke-linecap="round" stroke="#33322E">
			<g stroke="transparent" fill="transparent">
				<rect x="0.0" y="0.0" height="412.0" width="1094.0" stroke="none"></rect>
			</g>
			<g transform="translate(8, 8)" fill="#33322E">
				<g transform="translate(20, 20)" fill="#eee8d5" font-family="Helvetica" font-size="12pt" font-weight="normal" font-style="normal">
					<path d="M657.4 201.3 L740 229 L676.6734693877551 287 L676.7 287.0 " fill="none"></path>
					<g fill="#eee8d5">
						<path d="M650.3 193.3 L657.4 201.3 L646.9 203.4 L639.8 195.4 Z"></path>
					</g>
					<path d="M325.2 217.6 L303.25 229 L271.2091836734694 249 L271.2 249.0 " fill="none"></path>
					<g fill="#eee8d5">
						<path d="M336.0 218.0 L325.2 217.6 L331.0 208.6 L341.8 209.0 Z"></path>
					</g>
					<path d="M582.7 30.3 L474.75 51 L474.75 71 L474.8 71.0 " fill="none"></path>
					<path d="M583.7 35.5 L582.7 30.3 L581.7 25.1 L595.8 27.8 Z"></path>
					<path d="M389.4 266.5 L488.5 249 L517.875 249 L517.875 249 L547.25 302.5 L547.25 302.5 L517.875 356 L517.875 356 L488.5 356 L488.5 356 L371 335.253300330033 L371.0 335.3 " fill="none"></path>
					<g fill="#eee8d5">
						<path d="M379.3 262.9 L389.4 266.5 L381.1 273.4 L371.0 269.7 Z"></path>
					</g>
					<g stroke-dasharray="6 6">
						<path d="M165.5 168.8 L165.5 229 L170.9421768707483 249 L170.9 249.0 " fill="none"></path>
					</g>
					<path d="M170.8 168.8 L165.5 168.8 L160.2 168.8 L165.5 155.5 Z"></path>
					<path d="M928.0 213.9 L945 229 L945 287 L945.0 287.0 " fill="none"></path>
					<g fill="#eee8d5">
						<path d="M924.5 203.7 L928.0 213.9 L917.5 211.7 L914.0 201.5 Z"></path>
					</g>
					<path d="M661.7 188.4 L508.25 229 L627.8010204081633 287 L627.8 287.0 " fill="none"></path>
					<g fill="#eee8d5">
						<path d="M672.1 191.2 L661.7 188.4 L669.4 180.9 L679.8 183.6 Z"></path>
					</g>
					<path d="M736.8 30.3 L844.75 51 L844.75 78.5 L844.8 78.5 " fill="none"></path>
					<path d="M737.8 25.1 L736.8 30.3 L735.8 35.5 L723.8 27.8 Z"></path>
					<g data-name="LinearRegressionSection">
						<g fill="#eee8d5" stroke="#33322E" data-name="LinearRegressionSection">
							<rect x="309.8" y="71.0" height="138.0" width="330.0" data-name="LinearRegressionSection"></rect>
							<path d="M309.8 102.0 L639.8 102.0" fill="none" data-name="LinearRegressionSection"></path>
							<path d="M309.8 178.0 L639.8 178.0" fill="none" data-name="LinearRegressionSection"></path>
						</g>
						<g transform="translate(309.75, 71)" font-family="Helvetica" font-size="12pt" font-weight="bold" font-style="normal" data-name="LinearRegressionSection">
							<g transform="translate(8, 8)" fill="#33322E" text-align="center" data-name="LinearRegressionSection">
								<text x="157.0" y="13.5" stroke="none" text-anchor="middle" data-name="LinearRegressionSection">LinearRegressionSection</text>
								
							</g>
						</g>
						<g transform="translate(309.75, 102)" font-family="Helvetica" font-size="12pt" font-weight="normal" font-style="normal" data-name="LinearRegressionSection">
							<g transform="translate(8, 8)" fill="#33322E" text-align="left" data-name="LinearRegressionSection">
								<text x="0.0" y="13.5" stroke="none" data-name="LinearRegressionSection">&lt;static&gt;+sectionType: String</text>
								<text x="0.0" y="28.5" stroke="none" data-name="LinearRegressionSection">+resultProperty: DataReference&lt;num&gt;?</text>
								<text x="0.0" y="43.5" stroke="none" data-name="LinearRegressionSection">+alpha: double</text>
								<text x="0.0" y="58.5" stroke="none" data-name="LinearRegressionSection">+improvement: ImprovementDirection?</text>
								
							</g>
						</g>
						<g transform="translate(309.75, 178)" font-family="Helvetica" font-size="12pt" font-weight="normal" font-style="normal" data-name="LinearRegressionSection">
							<g transform="translate(8, 8)" fill="#33322E" text-align="left" data-name="LinearRegressionSection">
								<text x="0.0" y="13.5" stroke="none" data-name="LinearRegressionSection">+Map&lt;String, dynamic&gt; toJson()</text>
								
							</g>
						</g>
					</g>
					<g data-name="DataReference">
						<g fill="#eee8d5" stroke="#33322E" data-name="DataReference">
							<rect x="592.3" y="287.0" height="31.0" width="135.0" data-name="DataReference"></rect>
						</g>
						<g transform="translate(592.25, 287)" font-family="Helvetica" font-size="12pt" font-weight="bold" font-style="normal" data-name="DataReference">
							<g transform="translate(8, 8)" fill="#33322E" text-align="center" data-name="DataReference">
								<text x="59.5" y="13.5" stroke="none" text-anchor="middle" data-name="DataReference">DataReference</text>
								
							</g>
						</g>
					</g>
					<g data-name="ImprovementDirection">
						<g fill="#eee8d5" stroke="#33322E" data-name="ImprovementDirection">
							<rect x="0.0" y="249.0" height="107.0" width="371.0" data-name="ImprovementDirection"></rect>
							<path d="M0.0 280.0 L371.0 280.0" fill="none" data-name="ImprovementDirection"></path>
						</g>
						<g transform="translate(0, 249)" font-family="Helvetica" font-size="12pt" font-weight="bold" font-style="normal" data-name="ImprovementDirection">
							<g transform="translate(8, 8)" fill="#33322E" text-align="center" data-name="ImprovementDirection">
								<text x="177.5" y="13.5" stroke="none" text-anchor="middle" data-name="ImprovementDirection">ImprovementDirection</text>
								
							</g>
						</g>
						<g transform="translate(0, 280)" font-family="Helvetica" font-size="12pt" font-weight="normal" font-style="normal" data-name="ImprovementDirection">
							<g transform="translate(8, 8)" fill="#33322E" text-align="left" data-name="ImprovementDirection">
								<text x="0.0" y="13.5" stroke="none" data-name="ImprovementDirection">+index: int</text>
								<text x="0.0" y="28.5" stroke="none" data-name="ImprovementDirection">&lt;static&gt;+values: List&lt;ImprovementDirection&gt;</text>
								<text x="0.0" y="43.5" stroke="none" data-name="ImprovementDirection">&lt;static&gt;+positive: ImprovementDirection</text>
								<text x="0.0" y="58.5" stroke="none" data-name="ImprovementDirection">&lt;static&gt;+negative: ImprovementDirection</text>
								
							</g>
						</g>
					</g>
					<g data-name="ReportSection">
						<g fill="#eee8d5" stroke="#33322E" data-name="ReportSection">
							<rect x="595.8" y="0.0" height="31.0" width="128.0" data-name="ReportSection"></rect>
						</g>
						<g transform="translate(595.75, 0)" font-family="Helvetica" font-size="12pt" font-weight="normal" font-style="italic" data-name="ReportSection">
							<g transform="translate(8, 8)" fill="#33322E" text-align="center" data-name="ReportSection">
								<text x="56.0" y="13.5" stroke="none" text-anchor="middle" data-name="ReportSection">ReportSection</text>
								
							</g>
						</g>
					</g>
					<g data-name="Enum">
						<g fill="#eee8d5" stroke="#33322E" data-name="Enum">
							<rect x="135.0" y="124.5" height="31.0" width="61.0" data-name="Enum"></rect>
						</g>
						<g transform="translate(135, 124.5)" font-family="Helvetica" font-size="12pt" font-weight="bold" font-style="normal" data-name="Enum">
							<g transform="translate(8, 8)" fill="#33322E" text-align="center" data-name="Enum">
								<text x="22.5" y="13.5" stroke="none" text-anchor="middle" data-name="Enum">Enum</text>
								
							</g>
						</g>
					</g>
					<g data-name="AverageSection">
						<g fill="#eee8d5" stroke="#33322E" data-name="AverageSection">
							<rect x="679.8" y="78.5" height="123.0" width="330.0" data-name="AverageSection"></rect>
							<path d="M679.8 109.5 L1009.8 109.5" fill="none" data-name="AverageSection"></path>
							<path d="M679.8 170.5 L1009.8 170.5" fill="none" data-name="AverageSection"></path>
						</g>
						<g transform="translate(679.75, 78.5)" font-family="Helvetica" font-size="12pt" font-weight="bold" font-style="normal" data-name="AverageSection">
							<g transform="translate(8, 8)" fill="#33322E" text-align="center" data-name="AverageSection">
								<text x="157.0" y="13.5" stroke="none" text-anchor="middle" data-name="AverageSection">AverageSection</text>
								
							</g>
						</g>
						<g transform="translate(679.75, 109.5)" font-family="Helvetica" font-size="12pt" font-weight="normal" font-style="normal" data-name="AverageSection">
							<g transform="translate(8, 8)" fill="#33322E" text-align="left" data-name="AverageSection">
								<text x="0.0" y="13.5" stroke="none" data-name="AverageSection">&lt;static&gt;+sectionType: String</text>
								<text x="0.0" y="28.5" stroke="none" data-name="AverageSection">+aggregate: TemporalAggregation?</text>
								<text x="0.0" y="43.5" stroke="none" data-name="AverageSection">+resultProperty: DataReference&lt;num&gt;?</text>
								
							</g>
						</g>
						<g transform="translate(679.75, 170.5)" font-family="Helvetica" font-size="12pt" font-weight="normal" font-style="normal" data-name="AverageSection">
							<g transform="translate(8, 8)" fill="#33322E" text-align="left" data-name="AverageSection">
								<text x="0.0" y="13.5" stroke="none" data-name="AverageSection">+Map&lt;String, dynamic&gt; toJson()</text>
								
							</g>
						</g>
					</g>
					<g data-name="TemporalAggregation">
						<g fill="#eee8d5" stroke="#33322E" data-name="TemporalAggregation">
							<rect x="852.0" y="287.0" height="31.0" width="186.0" data-name="TemporalAggregation"></rect>
						</g>
						<g transform="translate(852, 287)" font-family="Helvetica" font-size="12pt" font-weight="bold" font-style="normal" data-name="TemporalAggregation">
							<g transform="translate(8, 8)" fill="#33322E" text-align="center" data-name="TemporalAggregation">
								<text x="85.0" y="13.5" stroke="none" text-anchor="middle" data-name="TemporalAggregation">TemporalAggregation</text>
								
							</g>
						</g>
					</g>
				</g>
			</g>
		</g>
	</g>
</svg>