<svg version="1.1" baseProfile="full" width="1011.0" height="412.0" viewbox="0 0 1011 412" xmlns="http://www.w3.org/2000/svg" xmlns:xlink="http://www.w3.org/1999/xlink" xmlns:ev="http://www.w3.org/2001/xml-events">
	<desc >[AverageSection
	  |
	  &lt;static&gt;+sectionType: String;
	  +aggregate: TemporalAggregation?;
	  +resultProperty: DataReference&lt;num&gt;?
	  |
	  +Map&lt;String, dynamic&gt; toJson()
	]
	
	[AverageSection]o-[TemporalAggregation]
	[AverageSection]o-[DataReference]
	[&lt;abstract&gt;ReportSection]&lt;:-[AverageSection]
	
	[LinearRegressionSection
	  |
	  &lt;static&gt;+sectionType: String;
	  +resultProperty: DataReference&lt;num&gt;?;
	  +alpha: double;
	  +improvement: ImprovementDirection?
	  |
	  +Map&lt;String, dynamic&gt; toJson()
	]
	
	[LinearRegressionSection]o-[DataReference]
	[LinearRegressionSection]o-[ImprovementDirection]
	[&lt;abstract&gt;ReportSection]&lt;:-[LinearRegressionSection]
	
	[ImprovementDirection
	  |
	  +index: int;
	  &lt;static&gt;+values: List&lt;ImprovementDirection&gt;;
	  &lt;static&gt;+positive: ImprovementDirection;
	  &lt;static&gt;+negative: ImprovementDirection
	]
	
	[ImprovementDirection]o-[ImprovementDirection]
	[Enum]&lt;:--[ImprovementDirection]
	
	</desc>
	<g stroke-width="1.0" text-align="left" font="12pt Helvetica, Arial, sans-serif" font-size="12pt" font-family="Helvetica" font-weight="bold" font-style="normal">
		<g font-family="Helvetica" font-size="12pt" font-weight="bold" font-style="normal" stroke-width="3.0" stroke-linejoin="round" stroke-linecap="round" stroke="#33322E">
			<g stroke="transparent" fill="transparent">
				<rect x="0.0" y="0.0" height="412.0" width="1011.0" stroke="none"></rect>
			</g>
			<g transform="translate(8, 8)" fill="#33322E">
				<g transform="translate(20, 20)" fill="#eee8d5" font-family="Helvetica" font-size="12pt" font-weight="normal" font-style="normal">
					<path d="M147.1 219.7 L145 229 L145 287 L145.0 287.0 " fill="none"></path>
					<g fill="#eee8d5">
						<path d="M154.3 211.8 L147.1 219.7 L143.9 209.4 L151.2 201.5 Z"></path>
					</g>
					<path d="M248.2 213.9 L265.25 229 L328.5765306122449 287 L328.6 287.0 " fill="none"></path>
					<g fill="#eee8d5">
						<path d="M244.8 203.7 L248.2 213.9 L237.7 211.7 L234.3 201.5 Z"></path>
					</g>
					<path d="M272.9 30.3 L165 51 L165 78.5 L165.0 78.5 " fill="none"></path>
					<path d="M273.9 35.5 L272.9 30.3 L271.9 25.1 L286.0 27.8 Z"></path>
					<path d="M439.6 221.1 L430.25 229 L363.3724489795918 287 L363.4 287.0 " fill="none"></path>
					<g fill="#eee8d5">
						<path d="M450.1 219.1 L439.6 221.1 L443.2 211.0 L453.8 209.0 Z"></path>
					</g>
					<path d="M593.5 224.3 L596.75 229 L628.7908163265306 249 L628.8 249.0 " fill="none"></path>
					<g fill="#eee8d5">
						<path d="M592.6 213.6 L593.5 224.3 L583.8 219.7 L582.9 209.0 Z"></path>
					</g>
					<path d="M427.1 30.3 L535 51 L535 71 L535.0 71.0 " fill="none"></path>
					<path d="M428.1 25.1 L427.1 30.3 L426.1 35.5 L414.0 27.8 Z"></path>
					<path d="M918.1 252.0 L930 249 L937.5 249 L937.5 249 L945 302.5 L945 302.5 L937.5 356 L937.5 356 L930 356 L930 356 L900 348.5522041763341 L900.0 348.6 " fill="none"></path>
					<g fill="#eee8d5">
						<path d="M907.8 249.0 L918.1 252.0 L910.3 259.4 L900.0 256.4 Z"></path>
					</g>
					<g stroke-dasharray="6 6">
						<path d="M770.5 168.8 L770.5 229 L755.2619047619048 249 L755.3 249.0 " fill="none"></path>
					</g>
					<path d="M775.8 168.8 L770.5 168.8 L765.2 168.8 L770.5 155.5 Z"></path>
					<g data-name="AverageSection">
						<g fill="#eee8d5" stroke="#33322E" data-name="AverageSection">
							<rect x="0.0" y="78.5" height="123.0" width="330.0" data-name="AverageSection"></rect>
							<path d="M0.0 109.5 L330.0 109.5" fill="none" data-name="AverageSection"></path>
							<path d="M0.0 170.5 L330.0 170.5" fill="none" data-name="AverageSection"></path>
						</g>
						<g transform="translate(0, 78.5)" font-family="Helvetica" font-size="12pt" font-weight="bold" font-style="normal" data-name="AverageSection">
							<g transform="translate(8, 8)" fill="#33322E" text-align="center" data-name="AverageSection">
								<text x="157.0" y="13.5" stroke="none" text-anchor="middle" data-name="AverageSection">AverageSection</text>
								
							</g>
						</g>
						<g transform="translate(0, 109.5)" font-family="Helvetica" font-size="12pt" font-weight="normal" font-style="normal" data-name="AverageSection">
							<g transform="translate(8, 8)" fill="#33322E" text-align="left" data-name="AverageSection">
								<text x="0.0" y="13.5" stroke="none" data-name="AverageSection">&lt;static&gt;+sectionType: String</text>
								<text x="0.0" y="28.5" stroke="none" data-name="AverageSection">+aggregate: TemporalAggregation?</text>
								<text x="0.0" y="43.5" stroke="none" data-name="AverageSection">+resultProperty: DataReference&lt;num&gt;?</text>
								
							</g>
						</g>
						<g transform="translate(0, 170.5)" font-family="Helvetica" font-size="12pt" font-weight="normal" font-style="normal" data-name="AverageSection">
							<g transform="translate(8, 8)" fill="#33322E" text-align="left" data-name="AverageSection">
								<text x="0.0" y="13.5" stroke="none" data-name="AverageSection">+Map&lt;String, dynamic&gt; toJson()</text>
								
							</g>
						</g>
					</g>
					<g data-name="TemporalAggregation">
						<g fill="#eee8d5" stroke="#33322E" data-name="TemporalAggregation">
							<rect x="52.0" y="287.0" height="31.0" width="186.0" data-name="TemporalAggregation"></rect>
						</g>
						<g transform="translate(52, 287)" font-family="Helvetica" font-size="12pt" font-weight="bold" font-style="normal" data-name="TemporalAggregation">
							<g transform="translate(8, 8)" fill="#33322E" text-align="center" data-name="TemporalAggregation">
								<text x="85.0" y="13.5" stroke="none" text-anchor="middle" data-name="TemporalAggregation">TemporalAggregation</text>
								
							</g>
						</g>
					</g>
					<g data-name="DataReference">
						<g fill="#eee8d5" stroke="#33322E" data-name="DataReference">
							<rect x="278.0" y="287.0" height="31.0" width="135.0" data-name="DataReference"></rect>
						</g>
						<g transform="translate(278, 287)" font-family="Helvetica" font-size="12pt" font-weight="bold" font-style="normal" data-name="DataReference">
							<g transform="translate(8, 8)" fill="#33322E" text-align="center" data-name="DataReference">
								<text x="59.5" y="13.5" stroke="none" text-anchor="middle" data-name="DataReference">DataReference</text>
								
							</g>
						</g>
					</g>
					<g data-name="ReportSection">
						<g fill="#eee8d5" stroke="#33322E" data-name="ReportSection">
							<rect x="286.0" y="0.0" height="31.0" width="128.0" data-name="ReportSection"></rect>
						</g>
						<g transform="translate(286, 0)" font-family="Helvetica" font-size="12pt" font-weight="normal" font-style="italic" data-name="ReportSection">
							<g transform="translate(8, 8)" fill="#33322E" text-align="center" data-name="ReportSection">
								<text x="56.0" y="13.5" stroke="none" text-anchor="middle" data-name="ReportSection">ReportSection</text>
								
							</g>
						</g>
					</g>
					<g data-name="LinearRegressionSection">
						<g fill="#eee8d5" stroke="#33322E" data-name="LinearRegressionSection">
							<rect x="370.0" y="71.0" height="138.0" width="330.0" data-name="LinearRegressionSection"></rect>
							<path d="M370.0 102.0 L700.0 102.0" fill="none" data-name="LinearRegressionSection"></path>
							<path d="M370.0 178.0 L700.0 178.0" fill="none" data-name="LinearRegressionSection"></path>
						</g>
						<g transform="translate(370, 71)" font-family="Helvetica" font-size="12pt" font-weight="bold" font-style="normal" data-name="LinearRegressionSection">
							<g transform="translate(8, 8)" fill="#33322E" text-align="center" data-name="LinearRegressionSection">
								<text x="157.0" y="13.5" stroke="none" text-anchor="middle" data-name="LinearRegressionSection">LinearRegressionSection</text>
								
							</g>
						</g>
						<g transform="translate(370, 102)" font-family="Helvetica" font-size="12pt" font-weight="normal" font-style="normal" data-name="LinearRegressionSection">
							<g transform="translate(8, 8)" fill="#33322E" text-align="left" data-name="LinearRegressionSection">
								<text x="0.0" y="13.5" stroke="none" data-name="LinearRegressionSection">&lt;static&gt;+sectionType: String</text>
								<text x="0.0" y="28.5" stroke="none" data-name="LinearRegressionSection">+resultProperty: DataReference&lt;num&gt;?</text>
								<text x="0.0" y="43.5" stroke="none" data-name="LinearRegressionSection">+alpha: double</text>
								<text x="0.0" y="58.5" stroke="none" data-name="LinearRegressionSection">+improvement: ImprovementDirection?</text>
								
							</g>
						</g>
						<g transform="translate(370, 178)" font-family="Helvetica" font-size="12pt" font-weight="normal" font-style="normal" data-name="LinearRegressionSection">
							<g transform="translate(8, 8)" fill="#33322E" text-align="left" data-name="LinearRegressionSection">
								<text x="0.0" y="13.5" stroke="none" data-name="LinearRegressionSection">+Map&lt;String, dynamic&gt; toJson()</text>
								
							</g>
						</g>
					</g>
					<g data-name="ImprovementDirection">
						<g fill="#eee8d5" stroke="#33322E" data-name="ImprovementDirection">
							<rect x="529.0" y="249.0" height="107.0" width="371.0" data-name="ImprovementDirection"></rect>
							<path d="M529.0 280.0 L900.0 280.0" fill="none" data-name="ImprovementDirection"></path>
						</g>
						<g transform="translate(529, 249)" font-family="Helvetica" font-size="12pt" font-weight="bold" font-style="normal" data-name="ImprovementDirection">
							<g transform="translate(8, 8)" fill="#33322E" text-align="center" data-name="ImprovementDirection">
								<text x="177.5" y="13.5" stroke="none" text-anchor="middle" data-name="ImprovementDirection">ImprovementDirection</text>
								
							</g>
						</g>
						<g transform="translate(529, 280)" font-family="Helvetica" font-size="12pt" font-weight="normal" font-style="normal" data-name="ImprovementDirection">
							<g transform="translate(8, 8)" fill="#33322E" text-align="left" data-name="ImprovementDirection">
								<text x="0.0" y="13.5" stroke="none" data-name="ImprovementDirection">+index: int</text>
								<text x="0.0" y="28.5" stroke="none" data-name="ImprovementDirection">&lt;static&gt;+values: List&lt;ImprovementDirection&gt;</text>
								<text x="0.0" y="43.5" stroke="none" data-name="ImprovementDirection">&lt;static&gt;+positive: ImprovementDirection</text>
								<text x="0.0" y="58.5" stroke="none" data-name="ImprovementDirection">&lt;static&gt;+negative: ImprovementDirection</text>
								
							</g>
						</g>
					</g>
					<g data-name="Enum">
						<g fill="#eee8d5" stroke="#33322E" data-name="Enum">
							<rect x="740.0" y="124.5" height="31.0" width="61.0" data-name="Enum"></rect>
						</g>
						<g transform="translate(740, 124.5)" font-family="Helvetica" font-size="12pt" font-weight="bold" font-style="normal" data-name="Enum">
							<g transform="translate(8, 8)" fill="#33322E" text-align="center" data-name="Enum">
								<text x="22.5" y="13.5" stroke="none" text-anchor="middle" data-name="Enum">Enum</text>
								
							</g>
						</g>
					</g>
				</g>
			</g>
		</g>
	</g>
</svg>