<?xml version="1.0" encoding="UTF-8" standalone="no"?>
<!DOCTYPE svg PUBLIC "-//W3C//DTD SVG 1.1//EN"
 "http://www.w3.org/Graphics/SVG/1.1/DTD/svg11.dtd">
<!-- Generated by graphviz version 2.40.1 (20161225.0304)
 -->
<!-- Title: auth.audit_log_entries Pages: 1 -->
<svg width="418pt" height="255pt"
 viewBox="0.00 0.00 418.00 255.00" xmlns="http://www.w3.org/2000/svg" xmlns:xlink="http://www.w3.org/1999/xlink">
<g id="graph0" class="graph" transform="scale(1 1) rotate(0) translate(4 251)">
<title>auth.audit_log_entries</title>
<polygon fill="#ffffff" stroke="transparent" points="-4,4 -4,-251 414,-251 414,4 -4,4"/>
<!-- auth.audit_log_entries -->
<g id="node1" class="node">
<title>auth.audit_log_entries</title>
<polygon fill="#efefef" stroke="transparent" points="46,-165.5 46,-200.5 364,-200.5 364,-165.5 46,-165.5"/>
<polygon fill="none" stroke="#000000" points="46,-165.5 46,-200.5 364,-200.5 364,-165.5 46,-165.5"/>
<text text-anchor="start" x="52.6839" y="-178.3" font-family="Arial Bold" font-size="18.00" fill="#000000">auth.audit_log_entries</text>
<text text-anchor="start" x="229.7481" y="-178.3" font-family="Arial" font-size="14.00" fill="#000000">    </text>
<text text-anchor="start" x="263.9529" y="-178.3" font-family="Arial" font-size="14.00" fill="#666666">[BASE TABLE]</text>
<polygon fill="none" stroke="#000000" points="46,-135.5 46,-165.5 364,-165.5 364,-135.5 46,-135.5"/>
<text text-anchor="start" x="53" y="-146.9" font-family="Arial" font-size="14.00" fill="#000000">instance_id </text>
<text text-anchor="start" x="127.69" y="-146.9" font-family="Arial" font-size="14.00" fill="#666666">[uuid]</text>
<polygon fill="none" stroke="#000000" points="46,-105.5 46,-135.5 364,-135.5 364,-105.5 46,-105.5"/>
<text text-anchor="start" x="53" y="-116.9" font-family="Arial" font-size="14.00" fill="#000000">id </text>
<text text-anchor="start" x="67.7798" y="-116.9" font-family="Arial" font-size="14.00" fill="#666666">[uuid]</text>
<polygon fill="none" stroke="#000000" points="46,-75.5 46,-105.5 364,-105.5 364,-75.5 46,-75.5"/>
<text text-anchor="start" x="53" y="-86.9" font-family="Arial" font-size="14.00" fill="#000000">payload </text>
<text text-anchor="start" x="105.9102" y="-86.9" font-family="Arial" font-size="14.00" fill="#666666">[json]</text>
<polygon fill="none" stroke="#000000" points="46,-45.5 46,-75.5 364,-75.5 364,-45.5 46,-45.5"/>
<text text-anchor="start" x="53" y="-56.9" font-family="Arial" font-size="14.00" fill="#000000">created_at </text>
<text text-anchor="start" x="123.028" y="-56.9" font-family="Arial" font-size="14.00" fill="#666666">[timestamp with time zone]</text>
<polygon fill="none" stroke="#000000" stroke-width="3" points="44.5,-44.5 44.5,-202.5 365.5,-202.5 365.5,-44.5 44.5,-44.5"/>
</g>
</g>
</svg>
