<?xml version="1.0" encoding="UTF-8" standalone="no"?>
<!DOCTYPE svg PUBLIC "-//W3C//DTD SVG 1.1//EN"
 "http://www.w3.org/Graphics/SVG/1.1/DTD/svg11.dtd">
<!-- Generated by graphviz version 2.40.1 (20161225.0304)
 -->
<!-- Title: auth.users Pages: 1 -->
<svg width="804pt" height="1162pt"
 viewBox="0.00 0.00 803.50 1162.00" xmlns="http://www.w3.org/2000/svg" xmlns:xlink="http://www.w3.org/1999/xlink">
<g id="graph0" class="graph" transform="scale(1 1) rotate(0) translate(4 1158)">
<title>auth.users</title>
<polygon fill="#ffffff" stroke="transparent" points="-4,4 -4,-1158 799.5,-1158 799.5,4 -4,4"/>
<!-- auth.users -->
<g id="node1" class="node">
<title>auth.users</title>
<polygon fill="#efefef" stroke="transparent" points="226.5,-675.5 226.5,-710.5 550.5,-710.5 550.5,-675.5 226.5,-675.5"/>
<polygon fill="none" stroke="#000000" points="226.5,-675.5 226.5,-710.5 550.5,-710.5 550.5,-675.5 226.5,-675.5"/>
<text text-anchor="start" x="282.7022" y="-688.3" font-family="Arial Bold" font-size="18.00" fill="#000000">auth.users</text>
<text text-anchor="start" x="366.7298" y="-688.3" font-family="Arial" font-size="14.00" fill="#000000">    </text>
<text text-anchor="start" x="400.9346" y="-688.3" font-family="Arial" font-size="14.00" fill="#666666">[BASE TABLE]</text>
<polygon fill="none" stroke="#000000" points="226.5,-645.5 226.5,-675.5 550.5,-675.5 550.5,-645.5 226.5,-645.5"/>
<text text-anchor="start" x="233.5" y="-656.9" font-family="Arial" font-size="14.00" fill="#000000">instance_id </text>
<text text-anchor="start" x="308.19" y="-656.9" font-family="Arial" font-size="14.00" fill="#666666">[uuid]</text>
<polygon fill="none" stroke="#000000" points="226.5,-615.5 226.5,-645.5 550.5,-645.5 550.5,-615.5 226.5,-615.5"/>
<text text-anchor="start" x="233.5" y="-626.9" font-family="Arial" font-size="14.00" fill="#000000">id </text>
<text text-anchor="start" x="248.2798" y="-626.9" font-family="Arial" font-size="14.00" fill="#666666">[uuid]</text>
<polygon fill="none" stroke="#000000" points="226.5,-585.5 226.5,-615.5 550.5,-615.5 550.5,-585.5 226.5,-585.5"/>
<text text-anchor="start" x="233.5" y="-596.9" font-family="Arial" font-size="14.00" fill="#000000">aud </text>
<text text-anchor="start" x="260.7384" y="-596.9" font-family="Arial" font-size="14.00" fill="#666666">[varchar(255)]</text>
<polygon fill="none" stroke="#000000" points="226.5,-555.5 226.5,-585.5 550.5,-585.5 550.5,-555.5 226.5,-555.5"/>
<text text-anchor="start" x="233.5" y="-566.9" font-family="Arial" font-size="14.00" fill="#000000">role </text>
<text text-anchor="start" x="260.723" y="-566.9" font-family="Arial" font-size="14.00" fill="#666666">[varchar(255)]</text>
<polygon fill="none" stroke="#000000" points="226.5,-525.5 226.5,-555.5 550.5,-555.5 550.5,-525.5 226.5,-525.5"/>
<text text-anchor="start" x="233.5" y="-536.9" font-family="Arial" font-size="14.00" fill="#000000">email </text>
<text text-anchor="start" x="270.8296" y="-536.9" font-family="Arial" font-size="14.00" fill="#666666">[varchar(255)]</text>
<polygon fill="none" stroke="#000000" points="226.5,-495.5 226.5,-525.5 550.5,-525.5 550.5,-495.5 226.5,-495.5"/>
<text text-anchor="start" x="233.5" y="-506.9" font-family="Arial" font-size="14.00" fill="#000000">encrypted_password </text>
<text text-anchor="start" x="366.535" y="-506.9" font-family="Arial" font-size="14.00" fill="#666666">[varchar(255)]</text>
<polygon fill="none" stroke="#000000" points="226.5,-465.5 226.5,-495.5 550.5,-495.5 550.5,-465.5 226.5,-465.5"/>
<text text-anchor="start" x="233.5" y="-476.9" font-family="Arial" font-size="14.00" fill="#000000">confirmed_at </text>
<text text-anchor="start" x="318.2952" y="-476.9" font-family="Arial" font-size="14.00" fill="#666666">[timestamp with time zone]</text>
<polygon fill="none" stroke="#000000" points="226.5,-435.5 226.5,-465.5 550.5,-465.5 550.5,-435.5 226.5,-435.5"/>
<text text-anchor="start" x="233.5" y="-446.9" font-family="Arial" font-size="14.00" fill="#000000">invited_at </text>
<text text-anchor="start" x="297.298" y="-446.9" font-family="Arial" font-size="14.00" fill="#666666">[timestamp with time zone]</text>
<polygon fill="none" stroke="#000000" points="226.5,-405.5 226.5,-435.5 550.5,-435.5 550.5,-405.5 226.5,-405.5"/>
<text text-anchor="start" x="233.5" y="-416.9" font-family="Arial" font-size="14.00" fill="#000000">confirmation_token </text>
<text text-anchor="start" x="355.6402" y="-416.9" font-family="Arial" font-size="14.00" fill="#666666">[varchar(255)]</text>
<polygon fill="none" stroke="#000000" points="226.5,-375.5 226.5,-405.5 550.5,-405.5 550.5,-375.5 226.5,-375.5"/>
<text text-anchor="start" x="233.5" y="-386.9" font-family="Arial" font-size="14.00" fill="#000000">confirmation_sent_at </text>
<text text-anchor="start" x="367.3134" y="-386.9" font-family="Arial" font-size="14.00" fill="#666666">[timestamp with time zone]</text>
<polygon fill="none" stroke="#000000" points="226.5,-345.5 226.5,-375.5 550.5,-375.5 550.5,-345.5 226.5,-345.5"/>
<text text-anchor="start" x="233.5" y="-356.9" font-family="Arial" font-size="14.00" fill="#000000">recovery_token </text>
<text text-anchor="start" x="333.0806" y="-356.9" font-family="Arial" font-size="14.00" fill="#666666">[varchar(255)]</text>
<polygon fill="none" stroke="#000000" points="226.5,-315.5 226.5,-345.5 550.5,-345.5 550.5,-315.5 226.5,-315.5"/>
<text text-anchor="start" x="233.5" y="-326.9" font-family="Arial" font-size="14.00" fill="#000000">recovery_sent_at </text>
<text text-anchor="start" x="344.7538" y="-326.9" font-family="Arial" font-size="14.00" fill="#666666">[timestamp with time zone]</text>
<polygon fill="none" stroke="#000000" points="226.5,-285.5 226.5,-315.5 550.5,-315.5 550.5,-285.5 226.5,-285.5"/>
<text text-anchor="start" x="233.5" y="-296.9" font-family="Arial" font-size="14.00" fill="#000000">email_change_token </text>
<text text-anchor="start" x="366.5462" y="-296.9" font-family="Arial" font-size="14.00" fill="#666666">[varchar(255)]</text>
<polygon fill="none" stroke="#000000" points="226.5,-255.5 226.5,-285.5 550.5,-285.5 550.5,-255.5 226.5,-255.5"/>
<text text-anchor="start" x="233.5" y="-266.9" font-family="Arial" font-size="14.00" fill="#000000">email_change </text>
<text text-anchor="start" x="324.5252" y="-266.9" font-family="Arial" font-size="14.00" fill="#666666">[varchar(255)]</text>
<polygon fill="none" stroke="#000000" points="226.5,-225.5 226.5,-255.5 550.5,-255.5 550.5,-225.5 226.5,-225.5"/>
<text text-anchor="start" x="233.2981" y="-236.9" font-family="Arial" font-size="14.00" fill="#000000">email_change_sent_at </text>
<text text-anchor="start" x="378.0175" y="-236.9" font-family="Arial" font-size="14.00" fill="#666666">[timestamp with time zone]</text>
<polygon fill="none" stroke="#000000" points="226.5,-195.5 226.5,-225.5 550.5,-225.5 550.5,-195.5 226.5,-195.5"/>
<text text-anchor="start" x="233.5" y="-206.9" font-family="Arial" font-size="14.00" fill="#000000">last_sign_in_at </text>
<text text-anchor="start" x="330.7524" y="-206.9" font-family="Arial" font-size="14.00" fill="#666666">[timestamp with time zone]</text>
<polygon fill="none" stroke="#000000" points="226.5,-165.5 226.5,-195.5 550.5,-195.5 550.5,-165.5 226.5,-165.5"/>
<text text-anchor="start" x="233.5" y="-176.9" font-family="Arial" font-size="14.00" fill="#000000">raw_app_meta_data </text>
<text text-anchor="start" x="364.9908" y="-176.9" font-family="Arial" font-size="14.00" fill="#666666">[jsonb]</text>
<polygon fill="none" stroke="#000000" points="226.5,-135.5 226.5,-165.5 550.5,-165.5 550.5,-135.5 226.5,-135.5"/>
<text text-anchor="start" x="233.5" y="-146.9" font-family="Arial" font-size="14.00" fill="#000000">raw_user_meta_data </text>
<text text-anchor="start" x="368.8688" y="-146.9" font-family="Arial" font-size="14.00" fill="#666666">[jsonb]</text>
<polygon fill="none" stroke="#000000" points="226.5,-105.5 226.5,-135.5 550.5,-135.5 550.5,-105.5 226.5,-105.5"/>
<text text-anchor="start" x="233.5" y="-116.9" font-family="Arial" font-size="14.00" fill="#000000">is_super_admin </text>
<text text-anchor="start" x="336.1858" y="-116.9" font-family="Arial" font-size="14.00" fill="#666666">[boolean]</text>
<polygon fill="none" stroke="#000000" points="226.5,-75.5 226.5,-105.5 550.5,-105.5 550.5,-75.5 226.5,-75.5"/>
<text text-anchor="start" x="233.5" y="-86.9" font-family="Arial" font-size="14.00" fill="#000000">created_at </text>
<text text-anchor="start" x="303.528" y="-86.9" font-family="Arial" font-size="14.00" fill="#666666">[timestamp with time zone]</text>
<polygon fill="none" stroke="#000000" points="226.5,-45.5 226.5,-75.5 550.5,-75.5 550.5,-45.5 226.5,-45.5"/>
<text text-anchor="start" x="233.5" y="-56.9" font-family="Arial" font-size="14.00" fill="#000000">updated_at </text>
<text text-anchor="start" x="307.4326" y="-56.9" font-family="Arial" font-size="14.00" fill="#666666">[timestamp with time zone]</text>
<polygon fill="none" stroke="#000000" stroke-width="3" points="225,-44.5 225,-712.5 552,-712.5 552,-44.5 225,-44.5"/>
</g>
<!-- storage.buckets -->
<g id="node2" class="node">
<title>storage.buckets</title>
<polygon fill="#efefef" stroke="transparent" points="43.5,-1030.5 43.5,-1065.5 326.5,-1065.5 326.5,-1030.5 43.5,-1030.5"/>
<polygon fill="none" stroke="#000000" points="43.5,-1030.5 43.5,-1065.5 326.5,-1065.5 326.5,-1030.5 43.5,-1030.5"/>
<text text-anchor="start" x="57.6949" y="-1043.3" font-family="Arial Bold" font-size="18.00" fill="#000000">storage.buckets</text>
<text text-anchor="start" x="184.7371" y="-1043.3" font-family="Arial" font-size="14.00" fill="#000000">    </text>
<text text-anchor="start" x="218.9419" y="-1043.3" font-family="Arial" font-size="14.00" fill="#666666">[BASE TABLE]</text>
<polygon fill="none" stroke="#000000" points="43.5,-1000.5 43.5,-1030.5 326.5,-1030.5 326.5,-1000.5 43.5,-1000.5"/>
<text text-anchor="start" x="50.5" y="-1011.9" font-family="Arial" font-size="14.00" fill="#000000">id    </text>
<text text-anchor="start" x="95.594" y="-1011.9" font-family="Arial" font-size="14.00" fill="#666666">[text]</text>
<polygon fill="none" stroke="#000000" points="43.5,-970.5 43.5,-1000.5 326.5,-1000.5 326.5,-970.5 43.5,-970.5"/>
<text text-anchor="start" x="50.5" y="-981.9" font-family="Arial" font-size="14.00" fill="#000000">name    </text>
<text text-anchor="start" x="119.7132" y="-981.9" font-family="Arial" font-size="14.00" fill="#666666">[text]</text>
<polygon fill="none" stroke="#000000" points="43.5,-940.5 43.5,-970.5 326.5,-970.5 326.5,-940.5 43.5,-940.5"/>
<text text-anchor="start" x="50.5" y="-951.9" font-family="Arial" font-size="14.00" fill="#000000">owner    </text>
<text text-anchor="start" x="122.8198" y="-951.9" font-family="Arial" font-size="14.00" fill="#666666">[uuid]</text>
<polygon fill="none" stroke="#000000" points="43.5,-910.5 43.5,-940.5 326.5,-940.5 326.5,-910.5 43.5,-910.5"/>
<text text-anchor="start" x="50.5" y="-921.9" font-family="Arial" font-size="14.00" fill="#000000">created_at    </text>
<text text-anchor="start" x="150.8422" y="-921.9" font-family="Arial" font-size="14.00" fill="#666666">[timestamp with time zone]</text>
<polygon fill="none" stroke="#000000" points="43.5,-880.5 43.5,-910.5 326.5,-910.5 326.5,-880.5 43.5,-880.5"/>
<text text-anchor="start" x="50.0344" y="-891.9" font-family="Arial" font-size="14.00" fill="#000000">updated_at    </text>
<text text-anchor="start" x="154.2812" y="-891.9" font-family="Arial" font-size="14.00" fill="#666666">[timestamp with time zone]</text>
</g>
<!-- storage.buckets&#45;&gt;auth.users -->
<g id="edge1" class="edge">
<title>storage.buckets:owner&#45;&gt;auth.users:id</title>
<path fill="none" stroke="#000000" d="M336.8096,-954.3755C374.3473,-945.1834 347.3108,-881.6381 326.5,-838 301.8801,-786.3747 251.1199,-808.6253 226.5,-757 202.299,-706.2531 170.2778,-630.5 226.5,-630.5"/>
<polygon fill="#000000" stroke="#000000" points="336.441,-954.4156 326.012,-951.0265 331.4705,-954.9578 326.5,-955.5 326.5,-955.5 326.5,-955.5 331.4705,-954.9578 326.988,-959.9735 336.441,-954.4156 336.441,-954.4156"/>
<text text-anchor="start" x="333.4965" y="-965.5" font-family="Arial" font-size="10.00" fill="#000000">FOREIGN KEY (owner) REFERENCES auth.users(id)</text>
</g>
<!-- storage.objects -->
<g id="node3" class="node">
<title>storage.objects</title>
<polygon fill="#efefef" stroke="transparent" points="430.5,-1075.5 430.5,-1110.5 752.5,-1110.5 752.5,-1075.5 430.5,-1075.5"/>
<polygon fill="none" stroke="#000000" points="430.5,-1075.5 430.5,-1110.5 752.5,-1110.5 752.5,-1075.5 430.5,-1075.5"/>
<text text-anchor="start" x="466.6978" y="-1088.3" font-family="Arial Bold" font-size="18.00" fill="#000000">storage.objects</text>
<text text-anchor="start" x="588.7342" y="-1088.3" font-family="Arial" font-size="14.00" fill="#000000">    </text>
<text text-anchor="start" x="622.939" y="-1088.3" font-family="Arial" font-size="14.00" fill="#666666">[BASE TABLE]</text>
<polygon fill="none" stroke="#000000" points="430.5,-1045.5 430.5,-1075.5 752.5,-1075.5 752.5,-1045.5 430.5,-1045.5"/>
<text text-anchor="start" x="437.5" y="-1056.9" font-family="Arial" font-size="14.00" fill="#000000">id    </text>
<text text-anchor="start" x="482.594" y="-1056.9" font-family="Arial" font-size="14.00" fill="#666666">[uuid]</text>
<polygon fill="none" stroke="#000000" points="430.5,-1015.5 430.5,-1045.5 752.5,-1045.5 752.5,-1015.5 430.5,-1015.5"/>
<text text-anchor="start" x="437.5" y="-1026.9" font-family="Arial" font-size="14.00" fill="#000000">bucket_id    </text>
<text text-anchor="start" x="531.615" y="-1026.9" font-family="Arial" font-size="14.00" fill="#666666">[text]</text>
<polygon fill="none" stroke="#000000" points="430.5,-985.5 430.5,-1015.5 752.5,-1015.5 752.5,-985.5 430.5,-985.5"/>
<text text-anchor="start" x="437.5" y="-996.9" font-family="Arial" font-size="14.00" fill="#000000">name    </text>
<text text-anchor="start" x="506.7132" y="-996.9" font-family="Arial" font-size="14.00" fill="#666666">[text]</text>
<polygon fill="none" stroke="#000000" points="430.5,-955.5 430.5,-985.5 752.5,-985.5 752.5,-955.5 430.5,-955.5"/>
<text text-anchor="start" x="437.5" y="-966.9" font-family="Arial" font-size="14.00" fill="#000000">owner    </text>
<text text-anchor="start" x="509.8198" y="-966.9" font-family="Arial" font-size="14.00" fill="#666666">[uuid]</text>
<polygon fill="none" stroke="#000000" points="430.5,-925.5 430.5,-955.5 752.5,-955.5 752.5,-925.5 430.5,-925.5"/>
<text text-anchor="start" x="437.5" y="-936.9" font-family="Arial" font-size="14.00" fill="#000000">created_at    </text>
<text text-anchor="start" x="537.8422" y="-936.9" font-family="Arial" font-size="14.00" fill="#666666">[timestamp with time zone]</text>
<polygon fill="none" stroke="#000000" points="430.5,-895.5 430.5,-925.5 752.5,-925.5 752.5,-895.5 430.5,-895.5"/>
<text text-anchor="start" x="437.5" y="-906.9" font-family="Arial" font-size="14.00" fill="#000000">updated_at    </text>
<text text-anchor="start" x="541.7468" y="-906.9" font-family="Arial" font-size="14.00" fill="#666666">[timestamp with time zone]</text>
<polygon fill="none" stroke="#000000" points="430.5,-865.5 430.5,-895.5 752.5,-895.5 752.5,-865.5 430.5,-865.5"/>
<text text-anchor="start" x="437.4811" y="-876.9" font-family="Arial" font-size="14.00" fill="#000000">last_accessed_at    </text>
<text text-anchor="start" x="579.8345" y="-876.9" font-family="Arial" font-size="14.00" fill="#666666">[timestamp with time zone]</text>
<polygon fill="none" stroke="#000000" points="430.5,-835.5 430.5,-865.5 752.5,-865.5 752.5,-835.5 430.5,-835.5"/>
<text text-anchor="start" x="437.5" y="-846.9" font-family="Arial" font-size="14.00" fill="#000000">metadata    </text>
<text text-anchor="start" x="530.0596" y="-846.9" font-family="Arial" font-size="14.00" fill="#666666">[jsonb]</text>
</g>
<!-- storage.objects&#45;&gt;auth.users -->
<g id="edge2" class="edge">
<title>storage.objects:owner&#45;&gt;auth.users:id</title>
<path fill="none" stroke="#000000" d="M420.126,-969.7642C354.6257,-959.9049 385.6162,-853.3252 430.5,-793 463.7381,-748.327 517.2619,-801.673 550.5,-757 584.0608,-711.8933 606.7222,-630.5 550.5,-630.5"/>
<polygon fill="#000000" stroke="#000000" points="420.5251,-969.7924 430.1816,-974.9887 425.5125,-970.1462 430.5,-970.5 430.5,-970.5 430.5,-970.5 425.5125,-970.1462 430.8184,-966.0113 420.5251,-969.7924 420.5251,-969.7924"/>
<text text-anchor="start" x="437.4965" y="-980.5" font-family="Arial" font-size="10.00" fill="#000000">FOREIGN KEY (owner) REFERENCES auth.users(id)</text>
</g>
</g>
</svg>
