<?xml version="1.0" encoding="UTF-8" standalone="no"?>
<!DOCTYPE svg PUBLIC "-//W3C//DTD SVG 1.1//EN"
 "http://www.w3.org/Graphics/SVG/1.1/DTD/svg11.dtd">
<!-- Generated by graphviz version 2.40.1 (20161225.0304)
 -->
<!-- Title: extensions.pg_stat_statements_info Pages: 1 -->
<svg width="478pt" height="195pt"
 viewBox="0.00 0.00 478.00 195.00" xmlns="http://www.w3.org/2000/svg" xmlns:xlink="http://www.w3.org/1999/xlink">
<g id="graph0" class="graph" transform="scale(1 1) rotate(0) translate(4 191)">
<title>extensions.pg_stat_statements_info</title>
<polygon fill="#ffffff" stroke="transparent" points="-4,4 -4,-191 474,-191 474,4 -4,4"/>
<!-- extensions.pg_stat_statements_info -->
<g id="node1" class="node">
<title>extensions.pg_stat_statements_info</title>
<polygon fill="#efefef" stroke="transparent" points="46,-105.5 46,-140.5 424,-140.5 424,-105.5 46,-105.5"/>
<polygon fill="none" stroke="#000000" points="46,-105.5 46,-140.5 424,-140.5 424,-105.5 46,-105.5"/>
<text text-anchor="start" x="52.566" y="-118.3" font-family="Arial Bold" font-size="18.00" fill="#000000">extensions.pg_stat_statements_info</text>
<text text-anchor="start" x="339.6696" y="-118.3" font-family="Arial" font-size="14.00" fill="#000000">    </text>
<text text-anchor="start" x="373.8744" y="-118.3" font-family="Arial" font-size="14.00" fill="#666666">[VIEW]</text>
<polygon fill="none" stroke="#000000" points="46,-75.5 46,-105.5 424,-105.5 424,-75.5 46,-75.5"/>
<text text-anchor="start" x="53" y="-86.9" font-family="Arial" font-size="14.00" fill="#000000">dealloc </text>
<text text-anchor="start" x="101.2342" y="-86.9" font-family="Arial" font-size="14.00" fill="#666666">[bigint]</text>
<polygon fill="none" stroke="#000000" points="46,-45.5 46,-75.5 424,-75.5 424,-45.5 46,-45.5"/>
<text text-anchor="start" x="53" y="-56.9" font-family="Arial" font-size="14.00" fill="#000000">stats_reset </text>
<text text-anchor="start" x="125.3534" y="-56.9" font-family="Arial" font-size="14.00" fill="#666666">[timestamp with time zone]</text>
<polygon fill="none" stroke="#000000" stroke-width="3" points="44.5,-44.5 44.5,-142.5 425.5,-142.5 425.5,-44.5 44.5,-44.5"/>
</g>
</g>
</svg>
