<?xml version="1.0" encoding="UTF-8" standalone="no"?>
<!DOCTYPE svg PUBLIC "-//W3C//DTD SVG 1.1//EN"
 "http://www.w3.org/Graphics/SVG/1.1/DTD/svg11.dtd">
<!-- Generated by graphviz version 2.40.1 (20161225.0304)
 -->
<!-- Title: pgsodium.key Pages: 1 -->
<svg width="709pt" height="952pt"
 viewBox="0.00 0.00 709.27 952.00" xmlns="http://www.w3.org/2000/svg" xmlns:xlink="http://www.w3.org/1999/xlink">
<g id="graph0" class="graph" transform="scale(1 1) rotate(0) translate(4 948)">
<title>pgsodium.key</title>
<polygon fill="#ffffff" stroke="transparent" points="-4,4 -4,-948 705.2694,-948 705.2694,4 -4,4"/>
<!-- pgsodium.key -->
<g id="node1" class="node">
<title>pgsodium.key</title>
<polygon fill="#efefef" stroke="transparent" points="164.2694,-465.5 164.2694,-500.5 416.2694,-500.5 416.2694,-465.5 164.2694,-465.5"/>
<polygon fill="none" stroke="#000000" points="164.2694,-465.5 164.2694,-500.5 416.2694,-500.5 416.2694,-465.5 164.2694,-465.5"/>
<text text-anchor="start" x="170.9725" y="-478.3" font-family="Arial Bold" font-size="18.00" fill="#000000">pgsodium.key</text>
<text text-anchor="start" x="281.9983" y="-478.3" font-family="Arial" font-size="14.00" fill="#000000">    </text>
<text text-anchor="start" x="316.2031" y="-478.3" font-family="Arial" font-size="14.00" fill="#666666">[BASE TABLE]</text>
<polygon fill="none" stroke="#000000" points="164.2694,-435.5 164.2694,-465.5 416.2694,-465.5 416.2694,-435.5 164.2694,-435.5"/>
<text text-anchor="start" x="171.2694" y="-446.9" font-family="Arial" font-size="14.00" fill="#000000">id </text>
<text text-anchor="start" x="186.0492" y="-446.9" font-family="Arial" font-size="14.00" fill="#666666">[uuid]</text>
<polygon fill="none" stroke="#000000" points="164.2694,-405.5 164.2694,-435.5 416.2694,-435.5 416.2694,-405.5 164.2694,-405.5"/>
<text text-anchor="start" x="171.2694" y="-416.9" font-family="Arial" font-size="14.00" fill="#000000">status </text>
<text text-anchor="start" x="212.5064" y="-416.9" font-family="Arial" font-size="14.00" fill="#666666">[pgsodium.key_status]</text>
<polygon fill="none" stroke="#000000" points="164.2694,-375.5 164.2694,-405.5 416.2694,-405.5 416.2694,-375.5 164.2694,-375.5"/>
<text text-anchor="start" x="171.2694" y="-386.9" font-family="Arial" font-size="14.00" fill="#000000">created </text>
<text text-anchor="start" x="221.8416" y="-386.9" font-family="Arial" font-size="14.00" fill="#666666">[timestamp with time zone]</text>
<polygon fill="none" stroke="#000000" points="164.2694,-345.5 164.2694,-375.5 416.2694,-375.5 416.2694,-345.5 164.2694,-345.5"/>
<text text-anchor="start" x="171.2694" y="-356.9" font-family="Arial" font-size="14.00" fill="#000000">expires </text>
<text text-anchor="start" x="220.275" y="-356.9" font-family="Arial" font-size="14.00" fill="#666666">[timestamp with time zone]</text>
<polygon fill="none" stroke="#000000" points="164.2694,-315.5 164.2694,-345.5 416.2694,-345.5 416.2694,-315.5 164.2694,-315.5"/>
<text text-anchor="start" x="171.2694" y="-326.9" font-family="Arial" font-size="14.00" fill="#000000">key_type </text>
<text text-anchor="start" x="231.181" y="-326.9" font-family="Arial" font-size="14.00" fill="#666666">[pgsodium.key_type]</text>
<polygon fill="none" stroke="#000000" points="164.2694,-285.5 164.2694,-315.5 416.2694,-315.5 416.2694,-285.5 164.2694,-285.5"/>
<text text-anchor="start" x="171.2694" y="-296.9" font-family="Arial" font-size="14.00" fill="#000000">key_id </text>
<text text-anchor="start" x="215.6144" y="-296.9" font-family="Arial" font-size="14.00" fill="#666666">[bigint]</text>
<polygon fill="none" stroke="#000000" points="164.2694,-255.5 164.2694,-285.5 416.2694,-285.5 416.2694,-255.5 164.2694,-255.5"/>
<text text-anchor="start" x="171.2694" y="-266.9" font-family="Arial" font-size="14.00" fill="#000000">key_context </text>
<text text-anchor="start" x="249.8542" y="-266.9" font-family="Arial" font-size="14.00" fill="#666666">[bytea]</text>
<polygon fill="none" stroke="#000000" points="164.2694,-225.5 164.2694,-255.5 416.2694,-255.5 416.2694,-225.5 164.2694,-225.5"/>
<text text-anchor="start" x="171.2694" y="-236.9" font-family="Arial" font-size="14.00" fill="#000000">name </text>
<text text-anchor="start" x="210.1684" y="-236.9" font-family="Arial" font-size="14.00" fill="#666666">[text]</text>
<polygon fill="none" stroke="#000000" points="164.2694,-195.5 164.2694,-225.5 416.2694,-225.5 416.2694,-195.5 164.2694,-195.5"/>
<text text-anchor="start" x="171.2694" y="-206.9" font-family="Arial" font-size="14.00" fill="#000000">associated_data </text>
<text text-anchor="start" x="277.0912" y="-206.9" font-family="Arial" font-size="14.00" fill="#666666">[text]</text>
<polygon fill="none" stroke="#000000" points="164.2694,-165.5 164.2694,-195.5 416.2694,-195.5 416.2694,-165.5 164.2694,-165.5"/>
<text text-anchor="start" x="171.2694" y="-176.9" font-family="Arial" font-size="14.00" fill="#000000">raw_key </text>
<text text-anchor="start" x="227.275" y="-176.9" font-family="Arial" font-size="14.00" fill="#666666">[bytea]</text>
<polygon fill="none" stroke="#000000" points="164.2694,-135.5 164.2694,-165.5 416.2694,-165.5 416.2694,-135.5 164.2694,-135.5"/>
<text text-anchor="start" x="171.2694" y="-146.9" font-family="Arial" font-size="14.00" fill="#000000">raw_key_nonce </text>
<text text-anchor="start" x="273.188" y="-146.9" font-family="Arial" font-size="14.00" fill="#666666">[bytea]</text>
<polygon fill="none" stroke="#000000" points="164.2694,-105.5 164.2694,-135.5 416.2694,-135.5 416.2694,-105.5 164.2694,-105.5"/>
<text text-anchor="start" x="171.2694" y="-116.9" font-family="Arial" font-size="14.00" fill="#000000">parent_key </text>
<text text-anchor="start" x="244.4068" y="-116.9" font-family="Arial" font-size="14.00" fill="#666666">[uuid]</text>
<polygon fill="none" stroke="#000000" points="164.2694,-75.5 164.2694,-105.5 416.2694,-105.5 416.2694,-75.5 164.2694,-75.5"/>
<text text-anchor="start" x="171.2694" y="-86.9" font-family="Arial" font-size="14.00" fill="#000000">comment </text>
<text text-anchor="start" x="232.7196" y="-86.9" font-family="Arial" font-size="14.00" fill="#666666">[text]</text>
<polygon fill="none" stroke="#000000" points="164.2694,-45.5 164.2694,-75.5 416.2694,-75.5 416.2694,-45.5 164.2694,-45.5"/>
<text text-anchor="start" x="171.2694" y="-56.9" font-family="Arial" font-size="14.00" fill="#000000">user_data </text>
<text text-anchor="start" x="237.4068" y="-56.9" font-family="Arial" font-size="14.00" fill="#666666">[text]</text>
<polygon fill="none" stroke="#000000" stroke-width="3" points="162.7694,-44.5 162.7694,-502.5 417.7694,-502.5 417.7694,-44.5 162.7694,-44.5"/>
</g>
<!-- pgsodium.key&#45;&gt;pgsodium.key -->
<g id="edge1" class="edge">
<title>pgsodium.key:parent_key&#45;&gt;pgsodium.key:id</title>
<path fill="none" stroke="#000000" d="M291.4278,-145.6892C299.2513,-337.1282 298.8652,-792 290.2694,-792 281.5331,-792 281.2772,-633.0714 289.5016,-465.6756"/>
<polygon fill="#000000" stroke="#000000" points="291.4267,-145.6612 295.4959,-135.4783 291.2134,-140.6658 291,-135.6703 291,-135.6703 291,-135.6703 291.2134,-140.6658 286.5041,-135.8624 291.4267,-145.6612 291.4267,-145.6612"/>
<text text-anchor="start" x="7.3785" y="-145.6703" font-family="Arial" font-size="10.00" fill="#000000">FOREIGN KEY (parent_key) REFERENCES pgsodium.key(id)</text>
</g>
<!-- vault.secrets -->
<g id="node2" class="node">
<title>vault.secrets</title>
<polygon fill="#efefef" stroke="transparent" points="148.2694,-865.5 148.2694,-900.5 431.2694,-900.5 431.2694,-865.5 148.2694,-865.5"/>
<polygon fill="none" stroke="#000000" points="148.2694,-865.5 148.2694,-900.5 431.2694,-900.5 431.2694,-865.5 148.2694,-865.5"/>
<text text-anchor="start" x="175.4765" y="-878.3" font-family="Arial Bold" font-size="18.00" fill="#000000">vault.secrets</text>
<text text-anchor="start" x="276.4943" y="-878.3" font-family="Arial" font-size="14.00" fill="#000000">    </text>
<text text-anchor="start" x="310.6991" y="-878.3" font-family="Arial" font-size="14.00" fill="#666666">[BASE TABLE]</text>
<polygon fill="none" stroke="#000000" points="148.2694,-835.5 148.2694,-865.5 431.2694,-865.5 431.2694,-835.5 148.2694,-835.5"/>
<text text-anchor="start" x="155.2694" y="-846.9" font-family="Arial" font-size="14.00" fill="#000000">id    </text>
<text text-anchor="start" x="200.3634" y="-846.9" font-family="Arial" font-size="14.00" fill="#666666">[uuid]</text>
<polygon fill="none" stroke="#000000" points="148.2694,-805.5 148.2694,-835.5 431.2694,-835.5 431.2694,-805.5 148.2694,-805.5"/>
<text text-anchor="start" x="155.2694" y="-816.9" font-family="Arial" font-size="14.00" fill="#000000">name    </text>
<text text-anchor="start" x="224.4826" y="-816.9" font-family="Arial" font-size="14.00" fill="#666666">[text]</text>
<polygon fill="none" stroke="#000000" points="148.2694,-775.5 148.2694,-805.5 431.2694,-805.5 431.2694,-775.5 148.2694,-775.5"/>
<text text-anchor="start" x="155.2694" y="-786.9" font-family="Arial" font-size="14.00" fill="#000000">description    </text>
<text text-anchor="start" x="257.1516" y="-786.9" font-family="Arial" font-size="14.00" fill="#666666">[text]</text>
<polygon fill="none" stroke="#000000" points="148.2694,-745.5 148.2694,-775.5 431.2694,-775.5 431.2694,-745.5 148.2694,-745.5"/>
<text text-anchor="start" x="155.2694" y="-756.9" font-family="Arial" font-size="14.00" fill="#000000">secret    </text>
<text text-anchor="start" x="227.5906" y="-756.9" font-family="Arial" font-size="14.00" fill="#666666">[text]</text>
<polygon fill="none" stroke="#000000" points="148.2694,-715.5 148.2694,-745.5 431.2694,-745.5 431.2694,-715.5 148.2694,-715.5"/>
<text text-anchor="start" x="155.2694" y="-726.9" font-family="Arial" font-size="14.00" fill="#000000">key_id    </text>
<text text-anchor="start" x="229.9286" y="-726.9" font-family="Arial" font-size="14.00" fill="#666666">[uuid]</text>
<polygon fill="none" stroke="#000000" points="148.2694,-685.5 148.2694,-715.5 431.2694,-715.5 431.2694,-685.5 148.2694,-685.5"/>
<text text-anchor="start" x="155.2694" y="-696.9" font-family="Arial" font-size="14.00" fill="#000000">nonce    </text>
<text text-anchor="start" x="227.6046" y="-696.9" font-family="Arial" font-size="14.00" fill="#666666">[bytea]</text>
<polygon fill="none" stroke="#000000" points="148.2694,-655.5 148.2694,-685.5 431.2694,-685.5 431.2694,-655.5 148.2694,-655.5"/>
<text text-anchor="start" x="155.2694" y="-666.9" font-family="Arial" font-size="14.00" fill="#000000">created_at    </text>
<text text-anchor="start" x="255.6116" y="-666.9" font-family="Arial" font-size="14.00" fill="#666666">[timestamp with time zone]</text>
<polygon fill="none" stroke="#000000" points="148.2694,-625.5 148.2694,-655.5 431.2694,-655.5 431.2694,-625.5 148.2694,-625.5"/>
<text text-anchor="start" x="154.8038" y="-636.9" font-family="Arial" font-size="14.00" fill="#000000">updated_at    </text>
<text text-anchor="start" x="259.0506" y="-636.9" font-family="Arial" font-size="14.00" fill="#666666">[timestamp with time zone]</text>
</g>
<!-- vault.secrets&#45;&gt;pgsodium.key -->
<g id="edge2" class="edge">
<title>vault.secrets:key_id&#45;&gt;pgsodium.key:id</title>
<path fill="none" stroke="#000000" d="M441.2464,-729.6435C494.312,-719.9113 472.0566,-629.6556 431.2694,-583 352.4598,-492.8512 243.0791,-637.1488 164.2694,-547 136.0412,-514.7103 121.3806,-450.5 164.2694,-450.5"/>
<polygon fill="#000000" stroke="#000000" points="441.2328,-729.6445 430.8845,-726.0165 436.2511,-730.0723 431.2694,-730.5 431.2694,-730.5 431.2694,-730.5 436.2511,-730.0723 431.6544,-734.9835 441.2328,-729.6445 441.2328,-729.6445"/>
<text text-anchor="start" x="437.9309" y="-740.5" font-family="Arial" font-size="10.00" fill="#000000">FOREIGN KEY (key_id) REFERENCES pgsodium.key(id)</text>
</g>
</g>
</svg>
