<?xml version="1.0" encoding="UTF-8" standalone="no"?>
<!DOCTYPE svg PUBLIC "-//W3C//DTD SVG 1.1//EN"
 "http://www.w3.org/Graphics/SVG/1.1/DTD/svg11.dtd">
<!-- Generated by graphviz version 2.40.1 (20161225.0304)
 -->
<!-- Title: pgsodium.masking_rule Pages: 1 -->
<svg width="381pt" height="555pt"
 viewBox="0.00 0.00 381.00 555.00" xmlns="http://www.w3.org/2000/svg" xmlns:xlink="http://www.w3.org/1999/xlink">
<g id="graph0" class="graph" transform="scale(1 1) rotate(0) translate(4 551)">
<title>pgsodium.masking_rule</title>
<polygon fill="#ffffff" stroke="transparent" points="-4,4 -4,-551 377,-551 377,4 -4,4"/>
<!-- pgsodium.masking_rule -->
<g id="node1" class="node">
<title>pgsodium.masking_rule</title>
<polygon fill="#efefef" stroke="transparent" points="46.5,-465.5 46.5,-500.5 327.5,-500.5 327.5,-465.5 46.5,-465.5"/>
<polygon fill="none" stroke="#000000" points="46.5,-465.5 46.5,-500.5 327.5,-500.5 327.5,-465.5 46.5,-465.5"/>
<text text-anchor="start" x="53.103" y="-478.3" font-family="Arial Bold" font-size="18.00" fill="#000000">pgsodium.masking_rule</text>
<text text-anchor="start" x="243.1326" y="-478.3" font-family="Arial" font-size="14.00" fill="#000000">    </text>
<text text-anchor="start" x="277.3374" y="-478.3" font-family="Arial" font-size="14.00" fill="#666666">[VIEW]</text>
<polygon fill="none" stroke="#000000" points="46.5,-435.5 46.5,-465.5 327.5,-465.5 327.5,-435.5 46.5,-435.5"/>
<text text-anchor="start" x="53.5" y="-446.9" font-family="Arial" font-size="14.00" fill="#000000">attrelid </text>
<text text-anchor="start" x="99.3934" y="-446.9" font-family="Arial" font-size="14.00" fill="#666666">[oid]</text>
<polygon fill="none" stroke="#000000" points="46.5,-405.5 46.5,-435.5 327.5,-435.5 327.5,-405.5 46.5,-405.5"/>
<text text-anchor="start" x="53.5" y="-416.9" font-family="Arial" font-size="14.00" fill="#000000">attnum </text>
<text text-anchor="start" x="100.1802" y="-416.9" font-family="Arial" font-size="14.00" fill="#666666">[integer]</text>
<polygon fill="none" stroke="#000000" points="46.5,-375.5 46.5,-405.5 327.5,-405.5 327.5,-375.5 46.5,-375.5"/>
<text text-anchor="start" x="53.5" y="-386.9" font-family="Arial" font-size="14.00" fill="#000000">relnamespace </text>
<text text-anchor="start" x="145.2966" y="-386.9" font-family="Arial" font-size="14.00" fill="#666666">[regnamespace]</text>
<polygon fill="none" stroke="#000000" points="46.5,-345.5 46.5,-375.5 327.5,-375.5 327.5,-345.5 46.5,-345.5"/>
<text text-anchor="start" x="53.5" y="-356.9" font-family="Arial" font-size="14.00" fill="#000000">relname </text>
<text text-anchor="start" x="107.9488" y="-356.9" font-family="Arial" font-size="14.00" fill="#666666">[name]</text>
<polygon fill="none" stroke="#000000" points="46.5,-315.5 46.5,-345.5 327.5,-345.5 327.5,-315.5 46.5,-315.5"/>
<text text-anchor="start" x="53.5" y="-326.9" font-family="Arial" font-size="14.00" fill="#000000">attname </text>
<text text-anchor="start" x="107.9628" y="-326.9" font-family="Arial" font-size="14.00" fill="#666666">[name]</text>
<polygon fill="none" stroke="#000000" points="46.5,-285.5 46.5,-315.5 327.5,-315.5 327.5,-285.5 46.5,-285.5"/>
<text text-anchor="start" x="53.5" y="-296.9" font-family="Arial" font-size="14.00" fill="#000000">format_type </text>
<text text-anchor="start" x="131.2966" y="-296.9" font-family="Arial" font-size="14.00" fill="#666666">[text]</text>
<polygon fill="none" stroke="#000000" points="46.5,-255.5 46.5,-285.5 327.5,-285.5 327.5,-255.5 46.5,-255.5"/>
<text text-anchor="start" x="53.5" y="-266.9" font-family="Arial" font-size="14.00" fill="#000000">col_description </text>
<text text-anchor="start" x="150.7398" y="-266.9" font-family="Arial" font-size="14.00" fill="#666666">[text]</text>
<polygon fill="none" stroke="#000000" points="46.5,-225.5 46.5,-255.5 327.5,-255.5 327.5,-225.5 46.5,-225.5"/>
<text text-anchor="start" x="53.5" y="-236.9" font-family="Arial" font-size="14.00" fill="#000000">key_id_column </text>
<text text-anchor="start" x="150.7426" y="-236.9" font-family="Arial" font-size="14.00" fill="#666666">[text]</text>
<polygon fill="none" stroke="#000000" points="46.5,-195.5 46.5,-225.5 327.5,-225.5 327.5,-195.5 46.5,-195.5"/>
<text text-anchor="start" x="53.5" y="-206.9" font-family="Arial" font-size="14.00" fill="#000000">key_id </text>
<text text-anchor="start" x="97.845" y="-206.9" font-family="Arial" font-size="14.00" fill="#666666">[text]</text>
<polygon fill="none" stroke="#000000" points="46.5,-165.5 46.5,-195.5 327.5,-195.5 327.5,-165.5 46.5,-165.5"/>
<text text-anchor="start" x="53.5" y="-176.9" font-family="Arial" font-size="14.00" fill="#000000">associated_columns </text>
<text text-anchor="start" x="184.1984" y="-176.9" font-family="Arial" font-size="14.00" fill="#666666">[text]</text>
<polygon fill="none" stroke="#000000" points="46.5,-135.5 46.5,-165.5 327.5,-165.5 327.5,-135.5 46.5,-135.5"/>
<text text-anchor="start" x="53.5" y="-146.9" font-family="Arial" font-size="14.00" fill="#000000">nonce_column </text>
<text text-anchor="start" x="148.4186" y="-146.9" font-family="Arial" font-size="14.00" fill="#666666">[text]</text>
<polygon fill="none" stroke="#000000" points="46.5,-105.5 46.5,-135.5 327.5,-135.5 327.5,-105.5 46.5,-105.5"/>
<text text-anchor="start" x="53.5" y="-116.9" font-family="Arial" font-size="14.00" fill="#000000">view_name </text>
<text text-anchor="start" x="128.1774" y="-116.9" font-family="Arial" font-size="14.00" fill="#666666">[text]</text>
<polygon fill="none" stroke="#000000" points="46.5,-75.5 46.5,-105.5 327.5,-105.5 327.5,-75.5 46.5,-75.5"/>
<text text-anchor="start" x="53.5" y="-86.9" font-family="Arial" font-size="14.00" fill="#000000">priority </text>
<text text-anchor="start" x="99.3808" y="-86.9" font-family="Arial" font-size="14.00" fill="#666666">[integer]</text>
<polygon fill="none" stroke="#000000" points="46.5,-45.5 46.5,-75.5 327.5,-75.5 327.5,-45.5 46.5,-45.5"/>
<text text-anchor="start" x="53.5" y="-56.9" font-family="Arial" font-size="14.00" fill="#000000">security_invoker </text>
<text text-anchor="start" x="158.5112" y="-56.9" font-family="Arial" font-size="14.00" fill="#666666">[boolean]</text>
<polygon fill="none" stroke="#000000" stroke-width="3" points="44.5,-44.5 44.5,-502.5 328.5,-502.5 328.5,-44.5 44.5,-44.5"/>
</g>
</g>
</svg>
