<?xml version="1.0" encoding="UTF-8" standalone="no"?>
<!DOCTYPE svg PUBLIC "-//W3C//DTD SVG 1.1//EN"
 "http://www.w3.org/Graphics/SVG/1.1/DTD/svg11.dtd">
<!-- Generated by graphviz version 2.40.1 (20161225.0304)
 -->
<!-- Title: pgsodium.mask_columns Pages: 1 -->
<svg width="394pt" height="345pt"
 viewBox="0.00 0.00 394.00 345.00" xmlns="http://www.w3.org/2000/svg" xmlns:xlink="http://www.w3.org/1999/xlink">
<g id="graph0" class="graph" transform="scale(1 1) rotate(0) translate(4 341)">
<title>pgsodium.mask_columns</title>
<polygon fill="#ffffff" stroke="transparent" points="-4,4 -4,-341 390,-341 390,4 -4,4"/>
<!-- pgsodium.mask_columns -->
<g id="node1" class="node">
<title>pgsodium.mask_columns</title>
<polygon fill="#efefef" stroke="transparent" points="46,-255.5 46,-290.5 340,-290.5 340,-255.5 46,-255.5"/>
<polygon fill="none" stroke="#000000" points="46,-255.5 46,-290.5 340,-290.5 340,-255.5 46,-255.5"/>
<text text-anchor="start" x="52.6032" y="-268.3" font-family="Arial Bold" font-size="18.00" fill="#000000">pgsodium.mask_columns</text>
<text text-anchor="start" x="255.6324" y="-268.3" font-family="Arial" font-size="14.00" fill="#000000">    </text>
<text text-anchor="start" x="289.8372" y="-268.3" font-family="Arial" font-size="14.00" fill="#666666">[VIEW]</text>
<polygon fill="none" stroke="#000000" points="46,-225.5 46,-255.5 340,-255.5 340,-225.5 46,-225.5"/>
<text text-anchor="start" x="53" y="-236.9" font-family="Arial" font-size="14.00" fill="#000000">attname </text>
<text text-anchor="start" x="107.4628" y="-236.9" font-family="Arial" font-size="14.00" fill="#666666">[name]</text>
<polygon fill="none" stroke="#000000" points="46,-195.5 46,-225.5 340,-225.5 340,-195.5 46,-195.5"/>
<text text-anchor="start" x="53" y="-206.9" font-family="Arial" font-size="14.00" fill="#000000">attrelid </text>
<text text-anchor="start" x="98.8934" y="-206.9" font-family="Arial" font-size="14.00" fill="#666666">[oid]</text>
<polygon fill="none" stroke="#000000" points="46,-165.5 46,-195.5 340,-195.5 340,-165.5 46,-165.5"/>
<text text-anchor="start" x="53" y="-176.9" font-family="Arial" font-size="14.00" fill="#000000">key_id </text>
<text text-anchor="start" x="97.345" y="-176.9" font-family="Arial" font-size="14.00" fill="#666666">[text]</text>
<polygon fill="none" stroke="#000000" points="46,-135.5 46,-165.5 340,-165.5 340,-135.5 46,-135.5"/>
<text text-anchor="start" x="53" y="-146.9" font-family="Arial" font-size="14.00" fill="#000000">key_id_column </text>
<text text-anchor="start" x="150.2426" y="-146.9" font-family="Arial" font-size="14.00" fill="#666666">[text]</text>
<polygon fill="none" stroke="#000000" points="46,-105.5 46,-135.5 340,-135.5 340,-105.5 46,-105.5"/>
<text text-anchor="start" x="53" y="-116.9" font-family="Arial" font-size="14.00" fill="#000000">associated_columns </text>
<text text-anchor="start" x="183.6984" y="-116.9" font-family="Arial" font-size="14.00" fill="#666666">[text]</text>
<polygon fill="none" stroke="#000000" points="46,-75.5 46,-105.5 340,-105.5 340,-75.5 46,-75.5"/>
<text text-anchor="start" x="53" y="-86.9" font-family="Arial" font-size="14.00" fill="#000000">nonce_column </text>
<text text-anchor="start" x="147.9186" y="-86.9" font-family="Arial" font-size="14.00" fill="#666666">[text]</text>
<polygon fill="none" stroke="#000000" points="46,-45.5 46,-75.5 340,-75.5 340,-45.5 46,-45.5"/>
<text text-anchor="start" x="53" y="-56.9" font-family="Arial" font-size="14.00" fill="#000000">format_type </text>
<text text-anchor="start" x="130.7966" y="-56.9" font-family="Arial" font-size="14.00" fill="#666666">[text]</text>
<polygon fill="none" stroke="#000000" stroke-width="3" points="44.5,-44.5 44.5,-292.5 341.5,-292.5 341.5,-44.5 44.5,-44.5"/>
</g>
</g>
</svg>
