<?xml version="1.0" encoding="UTF-8" standalone="no"?>
<!DOCTYPE svg PUBLIC "-//W3C//DTD SVG 1.1//EN"
 "http://www.w3.org/Graphics/SVG/1.1/DTD/svg11.dtd">
<!-- Generated by graphviz version 2.40.1 (20161225.0304)
 -->
<!-- Title: public.study Pages: 1 -->
<svg width="1518pt" height="1409pt"
 viewBox="0.00 0.00 1517.50 1409.00" xmlns="http://www.w3.org/2000/svg" xmlns:xlink="http://www.w3.org/1999/xlink">
<g id="graph0" class="graph" transform="scale(1 1) rotate(0) translate(4 1405)">
<title>public.study</title>
<polygon fill="#ffffff" stroke="transparent" points="-4,4 -4,-1405 1513.5,-1405 1513.5,4 -4,4"/>
<!-- public.study -->
<g id="node1" class="node">
<title>public.study</title>
<polygon fill="#efefef" stroke="transparent" points="636.5,-952.5 636.5,-987.5 889.5,-987.5 889.5,-952.5 636.5,-952.5"/>
<polygon fill="none" stroke="#000000" points="636.5,-952.5 636.5,-987.5 889.5,-987.5 889.5,-952.5 636.5,-952.5"/>
<text text-anchor="start" x="651.7041" y="-965.3" font-family="Arial Bold" font-size="18.00" fill="#000000">public.study</text>
<text text-anchor="start" x="746.7279" y="-965.3" font-family="Arial" font-size="14.00" fill="#000000">    </text>
<text text-anchor="start" x="780.9327" y="-965.3" font-family="Arial" font-size="14.00" fill="#666666">[BASE TABLE]</text>
<polygon fill="none" stroke="#000000" points="636.5,-922.5 636.5,-952.5 889.5,-952.5 889.5,-922.5 636.5,-922.5"/>
<text text-anchor="start" x="643.5" y="-933.9" font-family="Arial" font-size="14.00" fill="#000000">id </text>
<text text-anchor="start" x="658.2798" y="-933.9" font-family="Arial" font-size="14.00" fill="#666666">[uuid]</text>
<polygon fill="none" stroke="#000000" points="636.5,-892.5 636.5,-922.5 889.5,-922.5 889.5,-892.5 636.5,-892.5"/>
<text text-anchor="start" x="643.5" y="-903.9" font-family="Arial" font-size="14.00" fill="#000000">contact </text>
<text text-anchor="start" x="692.5196" y="-903.9" font-family="Arial" font-size="14.00" fill="#666666">[jsonb]</text>
<polygon fill="none" stroke="#000000" points="636.5,-862.5 636.5,-892.5 889.5,-892.5 889.5,-862.5 636.5,-862.5"/>
<text text-anchor="start" x="643.5" y="-873.9" font-family="Arial" font-size="14.00" fill="#000000">title </text>
<text text-anchor="start" x="669.1676" y="-873.9" font-family="Arial" font-size="14.00" fill="#666666">[text]</text>
<polygon fill="none" stroke="#000000" points="636.5,-832.5 636.5,-862.5 889.5,-862.5 889.5,-832.5 636.5,-832.5"/>
<text text-anchor="start" x="643.5" y="-843.9" font-family="Arial" font-size="14.00" fill="#000000">description </text>
<text text-anchor="start" x="715.068" y="-843.9" font-family="Arial" font-size="14.00" fill="#666666">[text]</text>
<polygon fill="none" stroke="#000000" points="636.5,-802.5 636.5,-832.5 889.5,-832.5 889.5,-802.5 636.5,-802.5"/>
<text text-anchor="start" x="643.5" y="-813.9" font-family="Arial" font-size="14.00" fill="#000000">icon_name </text>
<text text-anchor="start" x="715.8534" y="-813.9" font-family="Arial" font-size="14.00" fill="#666666">[text]</text>
<polygon fill="none" stroke="#000000" points="636.5,-772.5 636.5,-802.5 889.5,-802.5 889.5,-772.5 636.5,-772.5"/>
<text text-anchor="start" x="643.5" y="-783.9" font-family="Arial" font-size="14.00" fill="#000000">published </text>
<text text-anchor="start" x="707.2994" y="-783.9" font-family="Arial" font-size="14.00" fill="#666666">[boolean]</text>
<polygon fill="none" stroke="#000000" points="636.5,-742.5 636.5,-772.5 889.5,-772.5 889.5,-742.5 636.5,-742.5"/>
<text text-anchor="start" x="643.5" y="-753.9" font-family="Arial" font-size="14.00" fill="#000000">registry_published </text>
<text text-anchor="start" x="760.9656" y="-753.9" font-family="Arial" font-size="14.00" fill="#666666">[boolean]</text>
<polygon fill="none" stroke="#000000" points="636.5,-712.5 636.5,-742.5 889.5,-742.5 889.5,-712.5 636.5,-712.5"/>
<text text-anchor="start" x="643.5" y="-723.9" font-family="Arial" font-size="14.00" fill="#000000">questionnaire </text>
<text text-anchor="start" x="731.4158" y="-723.9" font-family="Arial" font-size="14.00" fill="#666666">[jsonb]</text>
<polygon fill="none" stroke="#000000" points="636.5,-682.5 636.5,-712.5 889.5,-712.5 889.5,-682.5 636.5,-682.5"/>
<text text-anchor="start" x="643.5" y="-693.9" font-family="Arial" font-size="14.00" fill="#000000">eligibility_criteria </text>
<text text-anchor="start" x="750.0414" y="-693.9" font-family="Arial" font-size="14.00" fill="#666666">[jsonb]</text>
<polygon fill="none" stroke="#000000" points="636.5,-652.5 636.5,-682.5 889.5,-682.5 889.5,-652.5 636.5,-652.5"/>
<text text-anchor="start" x="643.5" y="-663.9" font-family="Arial" font-size="14.00" fill="#000000">observations </text>
<text text-anchor="start" x="726.744" y="-663.9" font-family="Arial" font-size="14.00" fill="#666666">[jsonb]</text>
<polygon fill="none" stroke="#000000" points="636.5,-622.5 636.5,-652.5 889.5,-652.5 889.5,-622.5 636.5,-622.5"/>
<text text-anchor="start" x="643.5" y="-633.9" font-family="Arial" font-size="14.00" fill="#000000">interventions </text>
<text text-anchor="start" x="726.7412" y="-633.9" font-family="Arial" font-size="14.00" fill="#666666">[jsonb]</text>
<polygon fill="none" stroke="#000000" points="636.5,-592.5 636.5,-622.5 889.5,-622.5 889.5,-592.5 636.5,-592.5"/>
<text text-anchor="start" x="643.5" y="-603.9" font-family="Arial" font-size="14.00" fill="#000000">consent </text>
<text text-anchor="start" x="696.4116" y="-603.9" font-family="Arial" font-size="14.00" fill="#666666">[jsonb]</text>
<polygon fill="none" stroke="#000000" points="636.5,-562.5 636.5,-592.5 889.5,-592.5 889.5,-562.5 636.5,-562.5"/>
<text text-anchor="start" x="643.5" y="-573.9" font-family="Arial" font-size="14.00" fill="#000000">schedule </text>
<text text-anchor="start" x="703.4102" y="-573.9" font-family="Arial" font-size="14.00" fill="#666666">[jsonb]</text>
<polygon fill="none" stroke="#000000" points="636.5,-532.5 636.5,-562.5 889.5,-562.5 889.5,-532.5 636.5,-532.5"/>
<text text-anchor="start" x="643.5" y="-543.9" font-family="Arial" font-size="14.00" fill="#000000">report_specification </text>
<text text-anchor="start" x="768.7468" y="-543.9" font-family="Arial" font-size="14.00" fill="#666666">[jsonb]</text>
<polygon fill="none" stroke="#000000" points="636.5,-502.5 636.5,-532.5 889.5,-532.5 889.5,-502.5 636.5,-502.5"/>
<text text-anchor="start" x="643.5" y="-513.9" font-family="Arial" font-size="14.00" fill="#000000">results </text>
<text text-anchor="start" x="688.6136" y="-513.9" font-family="Arial" font-size="14.00" fill="#666666">[jsonb]</text>
<polygon fill="none" stroke="#000000" points="636.5,-472.5 636.5,-502.5 889.5,-502.5 889.5,-472.5 636.5,-472.5"/>
<text text-anchor="start" x="643.5" y="-483.9" font-family="Arial" font-size="14.00" fill="#000000">fhir_questionnaire </text>
<text text-anchor="start" x="758.6388" y="-483.9" font-family="Arial" font-size="14.00" fill="#666666">[jsonb]</text>
<polygon fill="none" stroke="#000000" points="636.5,-442.5 636.5,-472.5 889.5,-472.5 889.5,-442.5 636.5,-442.5"/>
<text text-anchor="start" x="643.5" y="-453.9" font-family="Arial" font-size="14.00" fill="#000000">created_at </text>
<text text-anchor="start" x="713.528" y="-453.9" font-family="Arial" font-size="14.00" fill="#666666">[timestamp with time zone]</text>
<polygon fill="none" stroke="#000000" points="636.5,-412.5 636.5,-442.5 889.5,-442.5 889.5,-412.5 636.5,-412.5"/>
<text text-anchor="start" x="643.1915" y="-423.9" font-family="Arial" font-size="14.00" fill="#000000">updated_at </text>
<text text-anchor="start" x="717.1241" y="-423.9" font-family="Arial" font-size="14.00" fill="#666666">[timestamp with time zone]</text>
<polygon fill="none" stroke="#000000" points="636.5,-382.5 636.5,-412.5 889.5,-412.5 889.5,-382.5 636.5,-382.5"/>
<text text-anchor="start" x="643.5" y="-393.9" font-family="Arial" font-size="14.00" fill="#000000">user_id </text>
<text text-anchor="start" x="693.2882" y="-393.9" font-family="Arial" font-size="14.00" fill="#666666">[uuid]</text>
<polygon fill="none" stroke="#000000" points="636.5,-352.5 636.5,-382.5 889.5,-382.5 889.5,-352.5 636.5,-352.5"/>
<text text-anchor="start" x="643.5" y="-363.9" font-family="Arial" font-size="14.00" fill="#000000">participation </text>
<text text-anchor="start" x="722.8478" y="-363.9" font-family="Arial" font-size="14.00" fill="#666666">[participation]</text>
<polygon fill="none" stroke="#000000" points="636.5,-322.5 636.5,-352.5 889.5,-352.5 889.5,-322.5 636.5,-322.5"/>
<text text-anchor="start" x="643.5" y="-333.9" font-family="Arial" font-size="14.00" fill="#000000">result_sharing </text>
<text text-anchor="start" x="735.2938" y="-333.9" font-family="Arial" font-size="14.00" fill="#666666">[result_sharing]</text>
<polygon fill="none" stroke="#000000" points="636.5,-292.5 636.5,-322.5 889.5,-322.5 889.5,-292.5 636.5,-292.5"/>
<text text-anchor="start" x="643.5" y="-303.9" font-family="Arial" font-size="14.00" fill="#000000">collaborator_emails </text>
<text text-anchor="start" x="768.7328" y="-303.9" font-family="Arial" font-size="14.00" fill="#666666">[text[]]</text>
<polygon fill="none" stroke="#000000" stroke-width="3" points="634.5,-291.5 634.5,-989.5 890.5,-989.5 890.5,-291.5 634.5,-291.5"/>
</g>
<!-- public.user -->
<g id="node6" class="node">
<title>public.user</title>
<polygon fill="#efefef" stroke="transparent" points="649.5,-132.5 649.5,-167.5 877.5,-167.5 877.5,-132.5 649.5,-132.5"/>
<polygon fill="none" stroke="#000000" points="649.5,-132.5 649.5,-167.5 877.5,-167.5 877.5,-132.5 649.5,-132.5"/>
<text text-anchor="start" x="656.2091" y="-145.3" font-family="Arial Bold" font-size="18.00" fill="#000000">public.user</text>
<text text-anchor="start" x="743.2229" y="-145.3" font-family="Arial" font-size="14.00" fill="#000000">    </text>
<text text-anchor="start" x="777.4277" y="-145.3" font-family="Arial" font-size="14.00" fill="#666666">[BASE TABLE]</text>
<polygon fill="none" stroke="#000000" points="649.5,-102.5 649.5,-132.5 877.5,-132.5 877.5,-102.5 649.5,-102.5"/>
<text text-anchor="start" x="656.5" y="-113.9" font-family="Arial" font-size="14.00" fill="#000000">id    </text>
<text text-anchor="start" x="701.594" y="-113.9" font-family="Arial" font-size="14.00" fill="#666666">[uuid]</text>
<polygon fill="none" stroke="#000000" points="649.5,-72.5 649.5,-102.5 877.5,-102.5 877.5,-72.5 649.5,-72.5"/>
<text text-anchor="start" x="656.5" y="-83.9" font-family="Arial" font-size="14.00" fill="#000000">email    </text>
<text text-anchor="start" x="724.1438" y="-83.9" font-family="Arial" font-size="14.00" fill="#666666">[text]</text>
<polygon fill="none" stroke="#000000" points="649.5,-42.5 649.5,-72.5 877.5,-72.5 877.5,-42.5 649.5,-42.5"/>
<text text-anchor="start" x="656.5" y="-53.9" font-family="Arial" font-size="14.00" fill="#000000">preferences    </text>
<text text-anchor="start" x="764.6122" y="-53.9" font-family="Arial" font-size="14.00" fill="#666666">[jsonb]</text>
</g>
<!-- public.study&#45;&gt;public.user -->
<g id="edge5" class="edge">
<title>public.study:user_id&#45;&gt;public.user:id</title>
<path fill="none" stroke="#000000" d="M899.6767,-396.6288C953.786,-386.7296 930.7617,-294.9126 889.5,-247 819.1153,-165.2701 719.8847,-292.7299 649.5,-211 622.3827,-179.5117 607.9444,-117.5 649.5,-117.5"/>
<polygon fill="#000000" stroke="#000000" points="899.4636,-396.647 889.1161,-393.0164 894.4818,-397.0735 889.5,-397.5 889.5,-397.5 889.5,-397.5 894.4818,-397.0735 889.8839,-401.9836 899.4636,-396.647 899.4636,-396.647"/>
<text text-anchor="start" x="896.7855" y="-407.5" font-family="Arial" font-size="10.00" fill="#000000">FOREIGN KEY (user_id) REFERENCES &quot;user&quot;(id)</text>
</g>
<!-- public.study_subject -->
<g id="node2" class="node">
<title>public.study_subject</title>
<polygon fill="#efefef" stroke="transparent" points="43.5,-1322.5 43.5,-1357.5 346.5,-1357.5 346.5,-1322.5 43.5,-1322.5"/>
<polygon fill="none" stroke="#000000" points="43.5,-1322.5 43.5,-1357.5 346.5,-1357.5 346.5,-1322.5 43.5,-1322.5"/>
<text text-anchor="start" x="50.1935" y="-1335.3" font-family="Arial Bold" font-size="18.00" fill="#000000">public.study_subject</text>
<text text-anchor="start" x="212.2385" y="-1335.3" font-family="Arial" font-size="14.00" fill="#000000">    </text>
<text text-anchor="start" x="246.4433" y="-1335.3" font-family="Arial" font-size="14.00" fill="#666666">[BASE TABLE]</text>
<polygon fill="none" stroke="#000000" points="43.5,-1292.5 43.5,-1322.5 346.5,-1322.5 346.5,-1292.5 43.5,-1292.5"/>
<text text-anchor="start" x="50.5" y="-1303.9" font-family="Arial" font-size="14.00" fill="#000000">id    </text>
<text text-anchor="start" x="95.594" y="-1303.9" font-family="Arial" font-size="14.00" fill="#666666">[uuid]</text>
<polygon fill="none" stroke="#000000" points="43.5,-1262.5 43.5,-1292.5 346.5,-1292.5 346.5,-1262.5 43.5,-1262.5"/>
<text text-anchor="start" x="50.5" y="-1273.9" font-family="Arial" font-size="14.00" fill="#000000">study_id    </text>
<text text-anchor="start" x="136.8324" y="-1273.9" font-family="Arial" font-size="14.00" fill="#666666">[uuid]</text>
<polygon fill="none" stroke="#000000" points="43.5,-1232.5 43.5,-1262.5 346.5,-1262.5 346.5,-1232.5 43.5,-1232.5"/>
<text text-anchor="start" x="50.5" y="-1243.9" font-family="Arial" font-size="14.00" fill="#000000">user_id    </text>
<text text-anchor="start" x="130.6024" y="-1243.9" font-family="Arial" font-size="14.00" fill="#666666">[uuid]</text>
<polygon fill="none" stroke="#000000" points="43.5,-1202.5 43.5,-1232.5 346.5,-1232.5 346.5,-1202.5 43.5,-1202.5"/>
<text text-anchor="start" x="50.5" y="-1213.9" font-family="Arial" font-size="14.00" fill="#000000">started_at    </text>
<text text-anchor="start" x="146.9502" y="-1213.9" font-family="Arial" font-size="14.00" fill="#666666">[timestamp with time zone]</text>
<polygon fill="none" stroke="#000000" points="43.5,-1172.5 43.5,-1202.5 346.5,-1202.5 346.5,-1172.5 43.5,-1172.5"/>
<text text-anchor="start" x="50.5" y="-1183.9" font-family="Arial" font-size="14.00" fill="#000000">selected_intervention_ids    </text>
<text text-anchor="start" x="242.6374" y="-1183.9" font-family="Arial" font-size="14.00" fill="#666666">[text[]]</text>
<polygon fill="none" stroke="#000000" points="43.5,-1142.5 43.5,-1172.5 346.5,-1172.5 346.5,-1142.5 43.5,-1142.5"/>
<text text-anchor="start" x="50.5" y="-1153.9" font-family="Arial" font-size="14.00" fill="#000000">invite_code    </text>
<text text-anchor="start" x="155.5042" y="-1153.9" font-family="Arial" font-size="14.00" fill="#666666">[text]</text>
<polygon fill="none" stroke="#000000" points="43.5,-1112.5 43.5,-1142.5 346.5,-1142.5 346.5,-1112.5 43.5,-1112.5"/>
<text text-anchor="start" x="50.5" y="-1123.9" font-family="Arial" font-size="14.00" fill="#000000">is_deleted    </text>
<text text-anchor="start" x="148.5042" y="-1123.9" font-family="Arial" font-size="14.00" fill="#666666">[boolean]</text>
</g>
<!-- public.study_subject&#45;&gt;public.study -->
<g id="edge1" class="edge">
<title>public.study_subject:study_id&#45;&gt;public.study:id</title>
<path fill="none" stroke="#000000" d="M356.7501,-1276.9067C433.7686,-1267.2693 342.0694,-1142.4937 397.5,-1070 471.2723,-973.5184 515.0461,-937.5 636.5,-937.5"/>
<polygon fill="#000000" stroke="#000000" points="356.4833,-1276.9221 346.2399,-1273.0075 351.4916,-1277.211 346.5,-1277.5 346.5,-1277.5 346.5,-1277.5 351.4916,-1277.211 346.7601,-1281.9925 356.4833,-1276.9221 356.4833,-1276.9221"/>
<text text-anchor="start" x="178.1035" y="-1261.5" font-family="Arial" font-size="10.00" fill="#000000">FOREIGN KEY (study_id) REFERENCES study(id) ON DELETE CASCADE</text>
</g>
<!-- public.study_tag -->
<g id="node3" class="node">
<title>public.study_tag</title>
<polygon fill="#efefef" stroke="transparent" points="450.5,-1247.5 450.5,-1282.5 721.5,-1282.5 721.5,-1247.5 450.5,-1247.5"/>
<polygon fill="none" stroke="#000000" points="450.5,-1247.5 450.5,-1282.5 721.5,-1282.5 721.5,-1247.5 450.5,-1247.5"/>
<text text-anchor="start" x="457.1937" y="-1260.3" font-family="Arial Bold" font-size="18.00" fill="#000000">public.study_tag</text>
<text text-anchor="start" x="587.2383" y="-1260.3" font-family="Arial" font-size="14.00" fill="#000000">    </text>
<text text-anchor="start" x="621.4431" y="-1260.3" font-family="Arial" font-size="14.00" fill="#666666">[BASE TABLE]</text>
<polygon fill="none" stroke="#000000" points="450.5,-1217.5 450.5,-1247.5 721.5,-1247.5 721.5,-1217.5 450.5,-1217.5"/>
<text text-anchor="start" x="457.5" y="-1228.9" font-family="Arial" font-size="14.00" fill="#000000">study_id    </text>
<text text-anchor="start" x="543.8324" y="-1228.9" font-family="Arial" font-size="14.00" fill="#666666">[uuid]</text>
<polygon fill="none" stroke="#000000" points="450.5,-1187.5 450.5,-1217.5 721.5,-1217.5 721.5,-1187.5 450.5,-1187.5"/>
<text text-anchor="start" x="457.5" y="-1198.9" font-family="Arial" font-size="14.00" fill="#000000">tag_id    </text>
<text text-anchor="start" x="529.8324" y="-1198.9" font-family="Arial" font-size="14.00" fill="#666666">[uuid]</text>
</g>
<!-- public.study_tag&#45;&gt;public.study -->
<g id="edge2" class="edge">
<title>public.study_tag:study_id&#45;&gt;public.study:id</title>
<path fill="none" stroke="#000000" d="M731.4114,-1230.9996C755.1687,-1222.3506 732.7146,-1178.0905 721.5,-1145 701.5558,-1086.1513 656.4442,-1092.8487 636.5,-1034 622.7338,-993.3804 593.6111,-937.5 636.5,-937.5"/>
<polygon fill="#000000" stroke="#000000" points="731.3874,-1231.0032 720.8264,-1228.0507 726.4437,-1231.7516 721.5,-1232.5 721.5,-1232.5 721.5,-1232.5 726.4437,-1231.7516 722.1736,-1236.9493 731.3874,-1231.0032 731.3874,-1231.0032"/>
<text text-anchor="start" x="728.6035" y="-1242.5" font-family="Arial" font-size="10.00" fill="#000000">FOREIGN KEY (study_id) REFERENCES study(id) ON DELETE CASCADE</text>
</g>
<!-- public.repo -->
<g id="node4" class="node">
<title>public.repo</title>
<polygon fill="#efefef" stroke="transparent" points="825.5,-1277.5 825.5,-1312.5 1054.5,-1312.5 1054.5,-1277.5 825.5,-1277.5"/>
<polygon fill="none" stroke="#000000" points="825.5,-1277.5 825.5,-1312.5 1054.5,-1312.5 1054.5,-1277.5 825.5,-1277.5"/>
<text text-anchor="start" x="832.206" y="-1290.3" font-family="Arial Bold" font-size="18.00" fill="#000000">public.repo</text>
<text text-anchor="start" x="920.226" y="-1290.3" font-family="Arial" font-size="14.00" fill="#000000">    </text>
<text text-anchor="start" x="954.4308" y="-1290.3" font-family="Arial" font-size="14.00" fill="#666666">[BASE TABLE]</text>
<polygon fill="none" stroke="#000000" points="825.5,-1247.5 825.5,-1277.5 1054.5,-1277.5 1054.5,-1247.5 825.5,-1247.5"/>
<text text-anchor="start" x="832.5" y="-1258.9" font-family="Arial" font-size="14.00" fill="#000000">project_id    </text>
<text text-anchor="start" x="927.3822" y="-1258.9" font-family="Arial" font-size="14.00" fill="#666666">[text]</text>
<polygon fill="none" stroke="#000000" points="825.5,-1217.5 825.5,-1247.5 1054.5,-1247.5 1054.5,-1217.5 825.5,-1217.5"/>
<text text-anchor="start" x="832.5" y="-1228.9" font-family="Arial" font-size="14.00" fill="#000000">user_id    </text>
<text text-anchor="start" x="912.6024" y="-1228.9" font-family="Arial" font-size="14.00" fill="#666666">[uuid]</text>
<polygon fill="none" stroke="#000000" points="825.5,-1187.5 825.5,-1217.5 1054.5,-1217.5 1054.5,-1187.5 825.5,-1187.5"/>
<text text-anchor="start" x="832.5" y="-1198.9" font-family="Arial" font-size="14.00" fill="#000000">study_id    </text>
<text text-anchor="start" x="918.8324" y="-1198.9" font-family="Arial" font-size="14.00" fill="#666666">[uuid]</text>
<polygon fill="none" stroke="#000000" points="825.5,-1157.5 825.5,-1187.5 1054.5,-1187.5 1054.5,-1157.5 825.5,-1157.5"/>
<text text-anchor="start" x="832.5" y="-1168.9" font-family="Arial" font-size="14.00" fill="#000000">provider    </text>
<text text-anchor="start" x="917.263" y="-1168.9" font-family="Arial" font-size="14.00" fill="#666666">[git_provider]</text>
</g>
<!-- public.repo&#45;&gt;public.study -->
<g id="edge3" class="edge">
<title>public.repo:study_id&#45;&gt;public.study:id</title>
<path fill="none" stroke="#000000" d="M815.5808,-1200.997C791.7804,-1192.3332 814.0347,-1148.0045 825.5,-1115 840.5559,-1071.6594 874.4441,-1077.3406 889.5,-1034 903.574,-993.4861 932.3889,-937.5 889.5,-937.5"/>
<polygon fill="#000000" stroke="#000000" points="815.6129,-1201.0017 824.8258,-1206.9492 820.5564,-1201.7509 825.5,-1202.5 825.5,-1202.5 825.5,-1202.5 820.5564,-1201.7509 826.1742,-1198.0508 815.6129,-1201.0017 815.6129,-1201.0017"/>
<text text-anchor="start" x="772.6345" y="-1186.5" font-family="Arial" font-size="10.00" fill="#000000">FOREIGN KEY (study_id) REFERENCES study(id)</text>
</g>
<!-- public.study_invite -->
<g id="node5" class="node">
<title>public.study_invite</title>
<polygon fill="#efefef" stroke="transparent" points="1158.5,-1262.5 1158.5,-1297.5 1446.5,-1297.5 1446.5,-1262.5 1158.5,-1262.5"/>
<polygon fill="none" stroke="#000000" points="1158.5,-1262.5 1158.5,-1297.5 1446.5,-1297.5 1446.5,-1262.5 1158.5,-1262.5"/>
<text text-anchor="start" x="1165.1995" y="-1275.3" font-family="Arial Bold" font-size="18.00" fill="#000000">public.study_invite</text>
<text text-anchor="start" x="1312.2325" y="-1275.3" font-family="Arial" font-size="14.00" fill="#000000">    </text>
<text text-anchor="start" x="1346.4373" y="-1275.3" font-family="Arial" font-size="14.00" fill="#666666">[BASE TABLE]</text>
<polygon fill="none" stroke="#000000" points="1158.5,-1232.5 1158.5,-1262.5 1446.5,-1262.5 1446.5,-1232.5 1158.5,-1232.5"/>
<text text-anchor="start" x="1165.5" y="-1243.9" font-family="Arial" font-size="14.00" fill="#000000">code    </text>
<text text-anchor="start" x="1230.0526" y="-1243.9" font-family="Arial" font-size="14.00" fill="#666666">[text]</text>
<polygon fill="none" stroke="#000000" points="1158.5,-1202.5 1158.5,-1232.5 1446.5,-1232.5 1446.5,-1202.5 1158.5,-1202.5"/>
<text text-anchor="start" x="1165.5" y="-1213.9" font-family="Arial" font-size="14.00" fill="#000000">study_id    </text>
<text text-anchor="start" x="1251.8324" y="-1213.9" font-family="Arial" font-size="14.00" fill="#666666">[uuid]</text>
<polygon fill="none" stroke="#000000" points="1158.5,-1172.5 1158.5,-1202.5 1446.5,-1202.5 1446.5,-1172.5 1158.5,-1172.5"/>
<text text-anchor="start" x="1165.5" y="-1183.9" font-family="Arial" font-size="14.00" fill="#000000">preselected_intervention_ids    </text>
<text text-anchor="start" x="1377.8632" y="-1183.9" font-family="Arial" font-size="14.00" fill="#666666">[text[]]</text>
</g>
<!-- public.study_invite&#45;&gt;public.study -->
<g id="edge4" class="edge">
<title>public.study_invite:study_id&#45;&gt;public.study:id</title>
<path fill="none" stroke="#000000" d="M1148.2307,-1216.683C1095.3761,-1207.3931 1147.857,-1121.0611 1106.5,-1070 1035.3768,-982.1882 1002.5019,-937.5 889.5,-937.5"/>
<polygon fill="#000000" stroke="#000000" points="1148.5315,-1216.7068 1158.1431,-1221.9858 1153.5157,-1217.1034 1158.5,-1217.5 1158.5,-1217.5 1158.5,-1217.5 1153.5157,-1217.1034 1158.8569,-1213.0142 1148.5315,-1216.7068 1148.5315,-1216.7068"/>
<text text-anchor="start" x="1165.6035" y="-1227.5" font-family="Arial" font-size="10.00" fill="#000000">FOREIGN KEY (study_id) REFERENCES study(id) ON DELETE CASCADE</text>
</g>
</g>
</svg>
