<?xml version="1.0" encoding="UTF-8" standalone="no"?>
<!DOCTYPE svg PUBLIC "-//W3C//DTD SVG 1.1//EN"
 "http://www.w3.org/Graphics/SVG/1.1/DTD/svg11.dtd">
<!-- Generated by graphviz version 2.40.1 (20161225.0304)
 -->
<!-- Title: public.study_tag Pages: 1 -->
<svg width="961pt" height="1012pt"
 viewBox="0.00 0.00 961.00 1012.00" xmlns="http://www.w3.org/2000/svg" xmlns:xlink="http://www.w3.org/1999/xlink">
<g id="graph0" class="graph" transform="scale(1 1) rotate(0) translate(4 1008)">
<title>public.study_tag</title>
<polygon fill="#ffffff" stroke="transparent" points="-4,4 -4,-1008 957,-1008 957,4 -4,4"/>
<!-- public.study_tag -->
<g id="node1" class="node">
<title>public.study_tag</title>
<polygon fill="#efefef" stroke="transparent" points="351,-922.5 351,-957.5 622,-957.5 622,-922.5 351,-922.5"/>
<polygon fill="none" stroke="#000000" points="351,-922.5 351,-957.5 622,-957.5 622,-922.5 351,-922.5"/>
<text text-anchor="start" x="357.6937" y="-935.3" font-family="Arial Bold" font-size="18.00" fill="#000000">public.study_tag</text>
<text text-anchor="start" x="487.7383" y="-935.3" font-family="Arial" font-size="14.00" fill="#000000">    </text>
<text text-anchor="start" x="521.9431" y="-935.3" font-family="Arial" font-size="14.00" fill="#666666">[BASE TABLE]</text>
<polygon fill="none" stroke="#000000" points="351,-892.5 351,-922.5 622,-922.5 622,-892.5 351,-892.5"/>
<text text-anchor="start" x="358" y="-903.9" font-family="Arial" font-size="14.00" fill="#000000">study_id </text>
<text text-anchor="start" x="414.0182" y="-903.9" font-family="Arial" font-size="14.00" fill="#666666">[uuid]</text>
<polygon fill="none" stroke="#000000" points="351,-862.5 351,-892.5 622,-892.5 622,-862.5 351,-862.5"/>
<text text-anchor="start" x="358" y="-873.9" font-family="Arial" font-size="14.00" fill="#000000">tag_id </text>
<text text-anchor="start" x="400.0182" y="-873.9" font-family="Arial" font-size="14.00" fill="#666666">[uuid]</text>
<polygon fill="none" stroke="#000000" stroke-width="3" points="349,-861.5 349,-959.5 623,-959.5 623,-861.5 349,-861.5"/>
</g>
<!-- public.study -->
<g id="node2" class="node">
<title>public.study</title>
<polygon fill="#efefef" stroke="transparent" points="168,-702.5 168,-737.5 451,-737.5 451,-702.5 168,-702.5"/>
<polygon fill="none" stroke="#000000" points="168,-702.5 168,-737.5 451,-737.5 451,-702.5 168,-702.5"/>
<text text-anchor="start" x="198.2041" y="-715.3" font-family="Arial Bold" font-size="18.00" fill="#000000">public.study</text>
<text text-anchor="start" x="293.2279" y="-715.3" font-family="Arial" font-size="14.00" fill="#000000">    </text>
<text text-anchor="start" x="327.4327" y="-715.3" font-family="Arial" font-size="14.00" fill="#666666">[BASE TABLE]</text>
<polygon fill="none" stroke="#000000" points="168,-672.5 168,-702.5 451,-702.5 451,-672.5 168,-672.5"/>
<text text-anchor="start" x="175" y="-683.9" font-family="Arial" font-size="14.00" fill="#000000">id    </text>
<text text-anchor="start" x="220.094" y="-683.9" font-family="Arial" font-size="14.00" fill="#666666">[uuid]</text>
<polygon fill="none" stroke="#000000" points="168,-642.5 168,-672.5 451,-672.5 451,-642.5 168,-642.5"/>
<text text-anchor="start" x="175" y="-653.9" font-family="Arial" font-size="14.00" fill="#000000">contact    </text>
<text text-anchor="start" x="254.3338" y="-653.9" font-family="Arial" font-size="14.00" fill="#666666">[jsonb]</text>
<polygon fill="none" stroke="#000000" points="168,-612.5 168,-642.5 451,-642.5 451,-612.5 168,-612.5"/>
<text text-anchor="start" x="175" y="-623.9" font-family="Arial" font-size="14.00" fill="#000000">title    </text>
<text text-anchor="start" x="230.9818" y="-623.9" font-family="Arial" font-size="14.00" fill="#666666">[text]</text>
<polygon fill="none" stroke="#000000" points="168,-582.5 168,-612.5 451,-612.5 451,-582.5 168,-582.5"/>
<text text-anchor="start" x="175" y="-593.9" font-family="Arial" font-size="14.00" fill="#000000">description    </text>
<text text-anchor="start" x="276.8822" y="-593.9" font-family="Arial" font-size="14.00" fill="#666666">[text]</text>
<polygon fill="none" stroke="#000000" points="168,-552.5 168,-582.5 451,-582.5 451,-552.5 168,-552.5"/>
<text text-anchor="start" x="175" y="-563.9" font-family="Arial" font-size="14.00" fill="#000000">icon_name    </text>
<text text-anchor="start" x="277.6676" y="-563.9" font-family="Arial" font-size="14.00" fill="#666666">[text]</text>
<polygon fill="none" stroke="#000000" points="168,-522.5 168,-552.5 451,-552.5 451,-522.5 168,-522.5"/>
<text text-anchor="start" x="175" y="-533.9" font-family="Arial" font-size="14.00" fill="#000000">published    </text>
<text text-anchor="start" x="269.1136" y="-533.9" font-family="Arial" font-size="14.00" fill="#666666">[boolean]</text>
<polygon fill="none" stroke="#000000" points="168,-492.5 168,-522.5 451,-522.5 451,-492.5 168,-492.5"/>
<text text-anchor="start" x="175" y="-503.9" font-family="Arial" font-size="14.00" fill="#000000">registry_published    </text>
<text text-anchor="start" x="322.7798" y="-503.9" font-family="Arial" font-size="14.00" fill="#666666">[boolean]</text>
<polygon fill="none" stroke="#000000" points="168,-462.5 168,-492.5 451,-492.5 451,-462.5 168,-462.5"/>
<text text-anchor="start" x="175" y="-473.9" font-family="Arial" font-size="14.00" fill="#000000">questionnaire    </text>
<text text-anchor="start" x="293.23" y="-473.9" font-family="Arial" font-size="14.00" fill="#666666">[jsonb]</text>
<polygon fill="none" stroke="#000000" points="168,-432.5 168,-462.5 451,-462.5 451,-432.5 168,-432.5"/>
<text text-anchor="start" x="175" y="-443.9" font-family="Arial" font-size="14.00" fill="#000000">eligibility_criteria    </text>
<text text-anchor="start" x="311.8556" y="-443.9" font-family="Arial" font-size="14.00" fill="#666666">[jsonb]</text>
<polygon fill="none" stroke="#000000" points="168,-402.5 168,-432.5 451,-432.5 451,-402.5 168,-402.5"/>
<text text-anchor="start" x="175" y="-413.9" font-family="Arial" font-size="14.00" fill="#000000">observations    </text>
<text text-anchor="start" x="288.5582" y="-413.9" font-family="Arial" font-size="14.00" fill="#666666">[jsonb]</text>
<polygon fill="none" stroke="#000000" points="168,-372.5 168,-402.5 451,-402.5 451,-372.5 168,-372.5"/>
<text text-anchor="start" x="175" y="-383.9" font-family="Arial" font-size="14.00" fill="#000000">interventions    </text>
<text text-anchor="start" x="288.5554" y="-383.9" font-family="Arial" font-size="14.00" fill="#666666">[jsonb]</text>
<polygon fill="none" stroke="#000000" points="168,-342.5 168,-372.5 451,-372.5 451,-342.5 168,-342.5"/>
<text text-anchor="start" x="175" y="-353.9" font-family="Arial" font-size="14.00" fill="#000000">consent    </text>
<text text-anchor="start" x="258.2258" y="-353.9" font-family="Arial" font-size="14.00" fill="#666666">[jsonb]</text>
<polygon fill="none" stroke="#000000" points="168,-312.5 168,-342.5 451,-342.5 451,-312.5 168,-312.5"/>
<text text-anchor="start" x="175" y="-323.9" font-family="Arial" font-size="14.00" fill="#000000">schedule    </text>
<text text-anchor="start" x="265.2244" y="-323.9" font-family="Arial" font-size="14.00" fill="#666666">[jsonb]</text>
<polygon fill="none" stroke="#000000" points="168,-282.5 168,-312.5 451,-312.5 451,-282.5 168,-282.5"/>
<text text-anchor="start" x="175" y="-293.9" font-family="Arial" font-size="14.00" fill="#000000">report_specification    </text>
<text text-anchor="start" x="330.561" y="-293.9" font-family="Arial" font-size="14.00" fill="#666666">[jsonb]</text>
<polygon fill="none" stroke="#000000" points="168,-252.5 168,-282.5 451,-282.5 451,-252.5 168,-252.5"/>
<text text-anchor="start" x="175" y="-263.9" font-family="Arial" font-size="14.00" fill="#000000">results    </text>
<text text-anchor="start" x="250.4278" y="-263.9" font-family="Arial" font-size="14.00" fill="#666666">[jsonb]</text>
<polygon fill="none" stroke="#000000" points="168,-222.5 168,-252.5 451,-252.5 451,-222.5 168,-222.5"/>
<text text-anchor="start" x="175" y="-233.9" font-family="Arial" font-size="14.00" fill="#000000">fhir_questionnaire    </text>
<text text-anchor="start" x="320.453" y="-233.9" font-family="Arial" font-size="14.00" fill="#666666">[jsonb]</text>
<polygon fill="none" stroke="#000000" points="168,-192.5 168,-222.5 451,-222.5 451,-192.5 168,-192.5"/>
<text text-anchor="start" x="175" y="-203.9" font-family="Arial" font-size="14.00" fill="#000000">created_at    </text>
<text text-anchor="start" x="275.3422" y="-203.9" font-family="Arial" font-size="14.00" fill="#666666">[timestamp with time zone]</text>
<polygon fill="none" stroke="#000000" points="168,-162.5 168,-192.5 451,-192.5 451,-162.5 168,-162.5"/>
<text text-anchor="start" x="174.5344" y="-173.9" font-family="Arial" font-size="14.00" fill="#000000">updated_at    </text>
<text text-anchor="start" x="278.7812" y="-173.9" font-family="Arial" font-size="14.00" fill="#666666">[timestamp with time zone]</text>
<polygon fill="none" stroke="#000000" points="168,-132.5 168,-162.5 451,-162.5 451,-132.5 168,-132.5"/>
<text text-anchor="start" x="175" y="-143.9" font-family="Arial" font-size="14.00" fill="#000000">user_id    </text>
<text text-anchor="start" x="255.1024" y="-143.9" font-family="Arial" font-size="14.00" fill="#666666">[uuid]</text>
<polygon fill="none" stroke="#000000" points="168,-102.5 168,-132.5 451,-132.5 451,-102.5 168,-102.5"/>
<text text-anchor="start" x="175" y="-113.9" font-family="Arial" font-size="14.00" fill="#000000">participation    </text>
<text text-anchor="start" x="284.662" y="-113.9" font-family="Arial" font-size="14.00" fill="#666666">[participation]</text>
<polygon fill="none" stroke="#000000" points="168,-72.5 168,-102.5 451,-102.5 451,-72.5 168,-72.5"/>
<text text-anchor="start" x="175" y="-83.9" font-family="Arial" font-size="14.00" fill="#000000">result_sharing    </text>
<text text-anchor="start" x="297.108" y="-83.9" font-family="Arial" font-size="14.00" fill="#666666">[result_sharing]</text>
<polygon fill="none" stroke="#000000" points="168,-42.5 168,-72.5 451,-72.5 451,-42.5 168,-42.5"/>
<text text-anchor="start" x="175" y="-53.9" font-family="Arial" font-size="14.00" fill="#000000">collaborator_emails    </text>
<text text-anchor="start" x="330.547" y="-53.9" font-family="Arial" font-size="14.00" fill="#666666">[text[]]</text>
</g>
<!-- public.study_tag&#45;&gt;public.study -->
<g id="edge1" class="edge">
<title>public.study_tag:study_id&#45;&gt;public.study:id</title>
<path fill="none" stroke="#000000" d="M340.8082,-905.9289C314.174,-896.4869 330.1303,-846.6939 351,-817 378.1617,-778.3535 423.8383,-819.6465 451,-781 474.895,-747.0016 492.5556,-687.5 451,-687.5"/>
<polygon fill="#000000" stroke="#000000" points="341.1167,-905.9764 350.3144,-911.9475 346.0584,-906.7382 351,-907.5 351,-907.5 351,-907.5 346.0584,-906.7382 351.6856,-903.0525 341.1167,-905.9764 341.1167,-905.9764"/>
<text text-anchor="start" x="7.1035" y="-917.5" font-family="Arial" font-size="10.00" fill="#000000">FOREIGN KEY (study_id) REFERENCES study(id) ON DELETE CASCADE</text>
</g>
<!-- public.tag -->
<g id="node3" class="node">
<title>public.tag</title>
<polygon fill="#efefef" stroke="transparent" points="555,-432.5 555,-467.5 773,-467.5 773,-432.5 555,-432.5"/>
<polygon fill="none" stroke="#000000" points="555,-432.5 555,-467.5 773,-467.5 773,-432.5 555,-432.5"/>
<text text-anchor="start" x="561.7041" y="-445.3" font-family="Arial Bold" font-size="18.00" fill="#000000">public.tag</text>
<text text-anchor="start" x="638.7279" y="-445.3" font-family="Arial" font-size="14.00" fill="#000000">    </text>
<text text-anchor="start" x="672.9327" y="-445.3" font-family="Arial" font-size="14.00" fill="#666666">[BASE TABLE]</text>
<polygon fill="none" stroke="#000000" points="555,-402.5 555,-432.5 773,-432.5 773,-402.5 555,-402.5"/>
<text text-anchor="start" x="562" y="-413.9" font-family="Arial" font-size="14.00" fill="#000000">id    </text>
<text text-anchor="start" x="607.094" y="-413.9" font-family="Arial" font-size="14.00" fill="#666666">[uuid]</text>
<polygon fill="none" stroke="#000000" points="555,-372.5 555,-402.5 773,-402.5 773,-372.5 555,-372.5"/>
<text text-anchor="start" x="562" y="-383.9" font-family="Arial" font-size="14.00" fill="#000000">name    </text>
<text text-anchor="start" x="631.2132" y="-383.9" font-family="Arial" font-size="14.00" fill="#666666">[text]</text>
<polygon fill="none" stroke="#000000" points="555,-342.5 555,-372.5 773,-372.5 773,-342.5 555,-342.5"/>
<text text-anchor="start" x="562" y="-353.9" font-family="Arial" font-size="14.00" fill="#000000">color    </text>
<text text-anchor="start" x="626.5372" y="-353.9" font-family="Arial" font-size="14.00" fill="#666666">[integer]</text>
<polygon fill="none" stroke="#000000" points="555,-312.5 555,-342.5 773,-342.5 773,-312.5 555,-312.5"/>
<text text-anchor="start" x="562" y="-323.9" font-family="Arial" font-size="14.00" fill="#000000">parent_id    </text>
<text text-anchor="start" x="654.5582" y="-323.9" font-family="Arial" font-size="14.00" fill="#666666">[uuid]</text>
</g>
<!-- public.study_tag&#45;&gt;public.tag -->
<g id="edge2" class="edge">
<title>public.study_tag:tag_id&#45;&gt;public.tag:id</title>
<path fill="none" stroke="#000000" d="M631.9817,-875.6466C705.5135,-843.9928 455.5326,-417.5 555,-417.5"/>
<polygon fill="#000000" stroke="#000000" points="631.832,-875.6743 621.1785,-873.0756 626.916,-876.5872 622,-877.5 622,-877.5 622,-877.5 626.916,-876.5872 622.8215,-881.9244 631.832,-875.6743 631.832,-875.6743"/>
<text text-anchor="start" x="629.1035" y="-887.5" font-family="Arial" font-size="10.00" fill="#000000">FOREIGN KEY (tag_id) REFERENCES tag(id) ON DELETE CASCADE</text>
</g>
</g>
</svg>
