<?xml version="1.0" encoding="UTF-8" standalone="no"?>
<!DOCTYPE svg PUBLIC "-//W3C//DTD SVG 1.1//EN"
 "http://www.w3.org/Graphics/SVG/1.1/DTD/svg11.dtd">
<!-- Generated by graphviz version 2.40.1 (20161225.0304)
 -->
<!-- Title: public.study_invite Pages: 1 -->
<svg width="1061pt" height="1439pt"
 viewBox="0.00 0.00 1061.00 1439.00" xmlns="http://www.w3.org/2000/svg" xmlns:xlink="http://www.w3.org/1999/xlink">
<g id="graph0" class="graph" transform="scale(1 1) rotate(0) translate(4 1435)">
<title>public.study_invite</title>
<polygon fill="#ffffff" stroke="transparent" points="-4,4 -4,-1435 1057,-1435 1057,4 -4,4"/>
<!-- public.study_invite -->
<g id="node1" class="node">
<title>public.study_invite</title>
<polygon fill="#efefef" stroke="transparent" points="351,-982.5 351,-1017.5 639,-1017.5 639,-982.5 351,-982.5"/>
<polygon fill="none" stroke="#000000" points="351,-982.5 351,-1017.5 639,-1017.5 639,-982.5 351,-982.5"/>
<text text-anchor="start" x="357.6995" y="-995.3" font-family="Arial Bold" font-size="18.00" fill="#000000">public.study_invite</text>
<text text-anchor="start" x="504.7325" y="-995.3" font-family="Arial" font-size="14.00" fill="#000000">    </text>
<text text-anchor="start" x="538.9373" y="-995.3" font-family="Arial" font-size="14.00" fill="#666666">[BASE TABLE]</text>
<polygon fill="none" stroke="#000000" points="351,-952.5 351,-982.5 639,-982.5 639,-952.5 351,-952.5"/>
<text text-anchor="start" x="358" y="-963.9" font-family="Arial" font-size="14.00" fill="#000000">code </text>
<text text-anchor="start" x="392.2384" y="-963.9" font-family="Arial" font-size="14.00" fill="#666666">[text]</text>
<polygon fill="none" stroke="#000000" points="351,-922.5 351,-952.5 639,-952.5 639,-922.5 351,-922.5"/>
<text text-anchor="start" x="358" y="-933.9" font-family="Arial" font-size="14.00" fill="#000000">study_id </text>
<text text-anchor="start" x="414.0182" y="-933.9" font-family="Arial" font-size="14.00" fill="#666666">[uuid]</text>
<polygon fill="none" stroke="#000000" points="351,-892.5 351,-922.5 639,-922.5 639,-892.5 351,-892.5"/>
<text text-anchor="start" x="358" y="-903.9" font-family="Arial" font-size="14.00" fill="#000000">preselected_intervention_ids </text>
<text text-anchor="start" x="540.049" y="-903.9" font-family="Arial" font-size="14.00" fill="#666666">[text[]]</text>
<polygon fill="none" stroke="#000000" stroke-width="3" points="349.5,-891.5 349.5,-1019.5 640.5,-1019.5 640.5,-891.5 349.5,-891.5"/>
</g>
<!-- public.study -->
<g id="node3" class="node">
<title>public.study</title>
<polygon fill="#efefef" stroke="transparent" points="353,-732.5 353,-767.5 636,-767.5 636,-732.5 353,-732.5"/>
<polygon fill="none" stroke="#000000" points="353,-732.5 353,-767.5 636,-767.5 636,-732.5 353,-732.5"/>
<text text-anchor="start" x="383.2041" y="-745.3" font-family="Arial Bold" font-size="18.00" fill="#000000">public.study</text>
<text text-anchor="start" x="478.2279" y="-745.3" font-family="Arial" font-size="14.00" fill="#000000">    </text>
<text text-anchor="start" x="512.4327" y="-745.3" font-family="Arial" font-size="14.00" fill="#666666">[BASE TABLE]</text>
<polygon fill="none" stroke="#000000" points="353,-702.5 353,-732.5 636,-732.5 636,-702.5 353,-702.5"/>
<text text-anchor="start" x="360" y="-713.9" font-family="Arial" font-size="14.00" fill="#000000">id    </text>
<text text-anchor="start" x="405.094" y="-713.9" font-family="Arial" font-size="14.00" fill="#666666">[uuid]</text>
<polygon fill="none" stroke="#000000" points="353,-672.5 353,-702.5 636,-702.5 636,-672.5 353,-672.5"/>
<text text-anchor="start" x="360" y="-683.9" font-family="Arial" font-size="14.00" fill="#000000">parent_template_id    </text>
<text text-anchor="start" x="514.0196" y="-683.9" font-family="Arial" font-size="14.00" fill="#666666">[uuid]</text>
<polygon fill="none" stroke="#000000" points="353,-642.5 353,-672.5 636,-672.5 636,-642.5 353,-642.5"/>
<text text-anchor="start" x="360" y="-653.9" font-family="Arial" font-size="14.00" fill="#000000">template_configuration    </text>
<text text-anchor="start" x="535.7994" y="-653.9" font-family="Arial" font-size="14.00" fill="#666666">[jsonb]</text>
<polygon fill="none" stroke="#000000" points="353,-612.5 353,-642.5 636,-642.5 636,-612.5 353,-612.5"/>
<text text-anchor="start" x="360" y="-623.9" font-family="Arial" font-size="14.00" fill="#000000">contact    </text>
<text text-anchor="start" x="439.3338" y="-623.9" font-family="Arial" font-size="14.00" fill="#666666">[jsonb]</text>
<polygon fill="none" stroke="#000000" points="353,-582.5 353,-612.5 636,-612.5 636,-582.5 353,-582.5"/>
<text text-anchor="start" x="360" y="-593.9" font-family="Arial" font-size="14.00" fill="#000000">title    </text>
<text text-anchor="start" x="415.9818" y="-593.9" font-family="Arial" font-size="14.00" fill="#666666">[text]</text>
<polygon fill="none" stroke="#000000" points="353,-552.5 353,-582.5 636,-582.5 636,-552.5 353,-552.5"/>
<text text-anchor="start" x="360" y="-563.9" font-family="Arial" font-size="14.00" fill="#000000">description    </text>
<text text-anchor="start" x="461.8822" y="-563.9" font-family="Arial" font-size="14.00" fill="#666666">[text]</text>
<polygon fill="none" stroke="#000000" points="353,-522.5 353,-552.5 636,-552.5 636,-522.5 353,-522.5"/>
<text text-anchor="start" x="360" y="-533.9" font-family="Arial" font-size="14.00" fill="#000000">icon_name    </text>
<text text-anchor="start" x="462.6676" y="-533.9" font-family="Arial" font-size="14.00" fill="#666666">[text]</text>
<polygon fill="none" stroke="#000000" points="353,-492.5 353,-522.5 636,-522.5 636,-492.5 353,-492.5"/>
<text text-anchor="start" x="360" y="-503.9" font-family="Arial" font-size="14.00" fill="#000000">published    </text>
<text text-anchor="start" x="454.1136" y="-503.9" font-family="Arial" font-size="14.00" fill="#666666">[boolean]</text>
<polygon fill="none" stroke="#000000" points="353,-462.5 353,-492.5 636,-492.5 636,-462.5 353,-462.5"/>
<text text-anchor="start" x="360" y="-473.9" font-family="Arial" font-size="14.00" fill="#000000">registry_published    </text>
<text text-anchor="start" x="507.7798" y="-473.9" font-family="Arial" font-size="14.00" fill="#666666">[boolean]</text>
<polygon fill="none" stroke="#000000" points="353,-432.5 353,-462.5 636,-462.5 636,-432.5 353,-432.5"/>
<text text-anchor="start" x="360" y="-443.9" font-family="Arial" font-size="14.00" fill="#000000">questionnaire    </text>
<text text-anchor="start" x="478.23" y="-443.9" font-family="Arial" font-size="14.00" fill="#666666">[jsonb]</text>
<polygon fill="none" stroke="#000000" points="353,-402.5 353,-432.5 636,-432.5 636,-402.5 353,-402.5"/>
<text text-anchor="start" x="360" y="-413.9" font-family="Arial" font-size="14.00" fill="#000000">eligibility_criteria    </text>
<text text-anchor="start" x="496.8556" y="-413.9" font-family="Arial" font-size="14.00" fill="#666666">[jsonb]</text>
<polygon fill="none" stroke="#000000" points="353,-372.5 353,-402.5 636,-402.5 636,-372.5 353,-372.5"/>
<text text-anchor="start" x="360" y="-383.9" font-family="Arial" font-size="14.00" fill="#000000">observations    </text>
<text text-anchor="start" x="473.5582" y="-383.9" font-family="Arial" font-size="14.00" fill="#666666">[jsonb]</text>
<polygon fill="none" stroke="#000000" points="353,-342.5 353,-372.5 636,-372.5 636,-342.5 353,-342.5"/>
<text text-anchor="start" x="360" y="-353.9" font-family="Arial" font-size="14.00" fill="#000000">interventions    </text>
<text text-anchor="start" x="473.5554" y="-353.9" font-family="Arial" font-size="14.00" fill="#666666">[jsonb]</text>
<polygon fill="none" stroke="#000000" points="353,-312.5 353,-342.5 636,-342.5 636,-312.5 353,-312.5"/>
<text text-anchor="start" x="360" y="-323.9" font-family="Arial" font-size="14.00" fill="#000000">consent    </text>
<text text-anchor="start" x="443.2258" y="-323.9" font-family="Arial" font-size="14.00" fill="#666666">[jsonb]</text>
<polygon fill="none" stroke="#000000" points="353,-282.5 353,-312.5 636,-312.5 636,-282.5 353,-282.5"/>
<text text-anchor="start" x="360" y="-293.9" font-family="Arial" font-size="14.00" fill="#000000">schedule    </text>
<text text-anchor="start" x="450.2244" y="-293.9" font-family="Arial" font-size="14.00" fill="#666666">[jsonb]</text>
<polygon fill="none" stroke="#000000" points="353,-252.5 353,-282.5 636,-282.5 636,-252.5 353,-252.5"/>
<text text-anchor="start" x="360" y="-263.9" font-family="Arial" font-size="14.00" fill="#000000">report_specification    </text>
<text text-anchor="start" x="515.561" y="-263.9" font-family="Arial" font-size="14.00" fill="#666666">[jsonb]</text>
<polygon fill="none" stroke="#000000" points="353,-222.5 353,-252.5 636,-252.5 636,-222.5 353,-222.5"/>
<text text-anchor="start" x="360" y="-233.9" font-family="Arial" font-size="14.00" fill="#000000">results    </text>
<text text-anchor="start" x="435.4278" y="-233.9" font-family="Arial" font-size="14.00" fill="#666666">[jsonb]</text>
<polygon fill="none" stroke="#000000" points="353,-192.5 353,-222.5 636,-222.5 636,-192.5 353,-192.5"/>
<text text-anchor="start" x="360" y="-203.9" font-family="Arial" font-size="14.00" fill="#000000">created_at    </text>
<text text-anchor="start" x="460.3422" y="-203.9" font-family="Arial" font-size="14.00" fill="#666666">[timestamp with time zone]</text>
<polygon fill="none" stroke="#000000" points="353,-162.5 353,-192.5 636,-192.5 636,-162.5 353,-162.5"/>
<text text-anchor="start" x="359.5344" y="-173.9" font-family="Arial" font-size="14.00" fill="#000000">updated_at    </text>
<text text-anchor="start" x="463.7812" y="-173.9" font-family="Arial" font-size="14.00" fill="#666666">[timestamp with time zone]</text>
<polygon fill="none" stroke="#000000" points="353,-132.5 353,-162.5 636,-162.5 636,-132.5 353,-132.5"/>
<text text-anchor="start" x="360" y="-143.9" font-family="Arial" font-size="14.00" fill="#000000">user_id    </text>
<text text-anchor="start" x="440.1024" y="-143.9" font-family="Arial" font-size="14.00" fill="#666666">[uuid]</text>
<polygon fill="none" stroke="#000000" points="353,-102.5 353,-132.5 636,-132.5 636,-102.5 353,-102.5"/>
<text text-anchor="start" x="360" y="-113.9" font-family="Arial" font-size="14.00" fill="#000000">participation    </text>
<text text-anchor="start" x="469.662" y="-113.9" font-family="Arial" font-size="14.00" fill="#666666">[participation]</text>
<polygon fill="none" stroke="#000000" points="353,-72.5 353,-102.5 636,-102.5 636,-72.5 353,-72.5"/>
<text text-anchor="start" x="360" y="-83.9" font-family="Arial" font-size="14.00" fill="#000000">result_sharing    </text>
<text text-anchor="start" x="482.108" y="-83.9" font-family="Arial" font-size="14.00" fill="#666666">[result_sharing]</text>
<polygon fill="none" stroke="#000000" points="353,-42.5 353,-72.5 636,-72.5 636,-42.5 353,-42.5"/>
<text text-anchor="start" x="360" y="-53.9" font-family="Arial" font-size="14.00" fill="#000000">collaborator_emails    </text>
<text text-anchor="start" x="515.547" y="-53.9" font-family="Arial" font-size="14.00" fill="#666666">[text[]]</text>
</g>
<!-- public.study_invite&#45;&gt;public.study -->
<g id="edge2" class="edge">
<title>public.study_invite:study_id&#45;&gt;public.study:id</title>
<path fill="none" stroke="#000000" d="M341.0736,-935.9839C313.4461,-926.4534 326.8941,-874.3424 351,-847 435.4324,-751.2315 551.5676,-906.7685 636,-811 663.4814,-779.8289 677.5556,-717.5 636,-717.5"/>
<polygon fill="#000000" stroke="#000000" points="341.1146,-935.99 350.3205,-941.9484 346.0573,-936.745 351,-937.5 351,-937.5 351,-937.5 346.0573,-936.745 351.6795,-933.0516 341.1146,-935.99 341.1146,-935.99"/>
<text text-anchor="start" x="7.1035" y="-947.5" font-family="Arial" font-size="10.00" fill="#000000">FOREIGN KEY (study_id) REFERENCES study(id) ON DELETE CASCADE</text>
</g>
<!-- public.study_subject -->
<g id="node2" class="node">
<title>public.study_subject</title>
<polygon fill="#efefef" stroke="transparent" points="343,-1352.5 343,-1387.5 646,-1387.5 646,-1352.5 343,-1352.5"/>
<polygon fill="none" stroke="#000000" points="343,-1352.5 343,-1387.5 646,-1387.5 646,-1352.5 343,-1352.5"/>
<text text-anchor="start" x="349.6935" y="-1365.3" font-family="Arial Bold" font-size="18.00" fill="#000000">public.study_subject</text>
<text text-anchor="start" x="511.7385" y="-1365.3" font-family="Arial" font-size="14.00" fill="#000000">    </text>
<text text-anchor="start" x="545.9433" y="-1365.3" font-family="Arial" font-size="14.00" fill="#666666">[BASE TABLE]</text>
<polygon fill="none" stroke="#000000" points="343,-1322.5 343,-1352.5 646,-1352.5 646,-1322.5 343,-1322.5"/>
<text text-anchor="start" x="350" y="-1333.9" font-family="Arial" font-size="14.00" fill="#000000">id    </text>
<text text-anchor="start" x="395.094" y="-1333.9" font-family="Arial" font-size="14.00" fill="#666666">[uuid]</text>
<polygon fill="none" stroke="#000000" points="343,-1292.5 343,-1322.5 646,-1322.5 646,-1292.5 343,-1292.5"/>
<text text-anchor="start" x="350" y="-1303.9" font-family="Arial" font-size="14.00" fill="#000000">study_id    </text>
<text text-anchor="start" x="436.3324" y="-1303.9" font-family="Arial" font-size="14.00" fill="#666666">[uuid]</text>
<polygon fill="none" stroke="#000000" points="343,-1262.5 343,-1292.5 646,-1292.5 646,-1262.5 343,-1262.5"/>
<text text-anchor="start" x="350" y="-1273.9" font-family="Arial" font-size="14.00" fill="#000000">user_id    </text>
<text text-anchor="start" x="430.1024" y="-1273.9" font-family="Arial" font-size="14.00" fill="#666666">[uuid]</text>
<polygon fill="none" stroke="#000000" points="343,-1232.5 343,-1262.5 646,-1262.5 646,-1232.5 343,-1232.5"/>
<text text-anchor="start" x="350" y="-1243.9" font-family="Arial" font-size="14.00" fill="#000000">started_at    </text>
<text text-anchor="start" x="446.4502" y="-1243.9" font-family="Arial" font-size="14.00" fill="#666666">[timestamp with time zone]</text>
<polygon fill="none" stroke="#000000" points="343,-1202.5 343,-1232.5 646,-1232.5 646,-1202.5 343,-1202.5"/>
<text text-anchor="start" x="350" y="-1213.9" font-family="Arial" font-size="14.00" fill="#000000">selected_intervention_ids    </text>
<text text-anchor="start" x="542.1374" y="-1213.9" font-family="Arial" font-size="14.00" fill="#666666">[text[]]</text>
<polygon fill="none" stroke="#000000" points="343,-1172.5 343,-1202.5 646,-1202.5 646,-1172.5 343,-1172.5"/>
<text text-anchor="start" x="350" y="-1183.9" font-family="Arial" font-size="14.00" fill="#000000">invite_code    </text>
<text text-anchor="start" x="455.0042" y="-1183.9" font-family="Arial" font-size="14.00" fill="#666666">[text]</text>
<polygon fill="none" stroke="#000000" points="343,-1142.5 343,-1172.5 646,-1172.5 646,-1142.5 343,-1142.5"/>
<text text-anchor="start" x="350" y="-1153.9" font-family="Arial" font-size="14.00" fill="#000000">is_deleted    </text>
<text text-anchor="start" x="448.0042" y="-1153.9" font-family="Arial" font-size="14.00" fill="#666666">[boolean]</text>
</g>
<!-- public.study_subject&#45;&gt;public.study_invite -->
<g id="edge1" class="edge">
<title>public.study_subject:invite_code&#45;&gt;public.study_invite:code</title>
<path fill="none" stroke="#000000" d="M655.9422,-1185.9113C682.2076,-1176.3761 669.2618,-1126.2731 646,-1100 558.4421,-1001.1075 438.5579,-1162.8925 351,-1064 322.5691,-1031.8886 308.1111,-967.5 351,-967.5"/>
<polygon fill="#000000" stroke="#000000" points="655.8747,-1185.922 645.2899,-1183.0564 650.9374,-1186.711 646,-1187.5 646,-1187.5 646,-1187.5 650.9374,-1186.711 646.7101,-1191.9436 655.8747,-1185.922 655.8747,-1185.922"/>
<text text-anchor="start" x="653.0385" y="-1197.5" font-family="Arial" font-size="10.00" fill="#000000">FOREIGN KEY (invite_code) REFERENCES study_invite(code) ON DELETE CASCADE</text>
</g>
</g>
</svg>
