<?xml version="1.0" encoding="UTF-8" standalone="no"?>
<!DOCTYPE svg PUBLIC "-//W3C//DTD SVG 1.1//EN"
 "http://www.w3.org/Graphics/SVG/1.1/DTD/svg11.dtd">
<!-- Generated by graphviz version 2.40.1 (20161225.0304)
 -->
<!-- Title: public.tag Pages: 1 -->
<svg width="535pt" height="472pt"
 viewBox="0.00 0.00 534.92 472.00" xmlns="http://www.w3.org/2000/svg" xmlns:xlink="http://www.w3.org/1999/xlink">
<g id="graph0" class="graph" transform="scale(1 1) rotate(0) translate(4 468)">
<title>public.tag</title>
<polygon fill="#ffffff" stroke="transparent" points="-4,4 -4,-468 530.9193,-468 530.9193,4 -4,4"/>
<!-- public.tag -->
<g id="node1" class="node">
<title>public.tag</title>
<polygon fill="#efefef" stroke="transparent" points="70.5,-165.5 70.5,-200.5 288.5,-200.5 288.5,-165.5 70.5,-165.5"/>
<polygon fill="none" stroke="#000000" points="70.5,-165.5 70.5,-200.5 288.5,-200.5 288.5,-165.5 70.5,-165.5"/>
<text text-anchor="start" x="77.2041" y="-178.3" font-family="Arial Bold" font-size="18.00" fill="#000000">public.tag</text>
<text text-anchor="start" x="154.2279" y="-178.3" font-family="Arial" font-size="14.00" fill="#000000">    </text>
<text text-anchor="start" x="188.4327" y="-178.3" font-family="Arial" font-size="14.00" fill="#666666">[BASE TABLE]</text>
<polygon fill="none" stroke="#000000" points="70.5,-135.5 70.5,-165.5 288.5,-165.5 288.5,-135.5 70.5,-135.5"/>
<text text-anchor="start" x="77.5" y="-146.9" font-family="Arial" font-size="14.00" fill="#000000">id </text>
<text text-anchor="start" x="92.2798" y="-146.9" font-family="Arial" font-size="14.00" fill="#666666">[uuid]</text>
<polygon fill="none" stroke="#000000" points="70.5,-105.5 70.5,-135.5 288.5,-135.5 288.5,-105.5 70.5,-105.5"/>
<text text-anchor="start" x="77.5" y="-116.9" font-family="Arial" font-size="14.00" fill="#000000">name </text>
<text text-anchor="start" x="116.399" y="-116.9" font-family="Arial" font-size="14.00" fill="#666666">[text]</text>
<polygon fill="none" stroke="#000000" points="70.5,-75.5 70.5,-105.5 288.5,-105.5 288.5,-75.5 70.5,-75.5"/>
<text text-anchor="start" x="77.5" y="-86.9" font-family="Arial" font-size="14.00" fill="#000000">color </text>
<text text-anchor="start" x="111.723" y="-86.9" font-family="Arial" font-size="14.00" fill="#666666">[integer]</text>
<polygon fill="none" stroke="#000000" points="70.5,-45.5 70.5,-75.5 288.5,-75.5 288.5,-45.5 70.5,-45.5"/>
<text text-anchor="start" x="77.5" y="-56.9" font-family="Arial" font-size="14.00" fill="#000000">parent_id </text>
<text text-anchor="start" x="139.744" y="-56.9" font-family="Arial" font-size="14.00" fill="#666666">[uuid]</text>
<polygon fill="none" stroke="#000000" stroke-width="3" points="69,-44.5 69,-202.5 290,-202.5 290,-44.5 69,-44.5"/>
</g>
<!-- public.tag&#45;&gt;public.tag -->
<g id="edge1" class="edge">
<title>public.tag:parent_id&#45;&gt;public.tag:id</title>
<path fill="none" stroke="#000000" d="M181.6861,-85.7746C188.4289,-182.1678 187.7002,-372 179.5,-372 171.0273,-372 170.5309,-249.1073 178.0107,-165.5965"/>
<polygon fill="#000000" stroke="#000000" points="181.6726,-85.5951 185.4065,-75.2845 181.296,-80.6093 180.9193,-75.6235 180.9193,-75.6235 180.9193,-75.6235 181.296,-80.6093 176.4321,-75.9625 181.6726,-85.5951 181.6726,-85.5951"/>
<text text-anchor="start" x="187.7993" y="-85.6235" font-family="Arial" font-size="10.00" fill="#000000">FOREIGN KEY (parent_id) REFERENCES tag(id) ON DELETE CASCADE</text>
</g>
<!-- public.study_tag -->
<g id="node2" class="node">
<title>public.study_tag</title>
<polygon fill="#efefef" stroke="transparent" points="43.5,-385.5 43.5,-420.5 314.5,-420.5 314.5,-385.5 43.5,-385.5"/>
<polygon fill="none" stroke="#000000" points="43.5,-385.5 43.5,-420.5 314.5,-420.5 314.5,-385.5 43.5,-385.5"/>
<text text-anchor="start" x="50.1937" y="-398.3" font-family="Arial Bold" font-size="18.00" fill="#000000">public.study_tag</text>
<text text-anchor="start" x="180.2383" y="-398.3" font-family="Arial" font-size="14.00" fill="#000000">    </text>
<text text-anchor="start" x="214.4431" y="-398.3" font-family="Arial" font-size="14.00" fill="#666666">[BASE TABLE]</text>
<polygon fill="none" stroke="#000000" points="43.5,-355.5 43.5,-385.5 314.5,-385.5 314.5,-355.5 43.5,-355.5"/>
<text text-anchor="start" x="50.5" y="-366.9" font-family="Arial" font-size="14.00" fill="#000000">study_id    </text>
<text text-anchor="start" x="136.8324" y="-366.9" font-family="Arial" font-size="14.00" fill="#666666">[uuid]</text>
<polygon fill="none" stroke="#000000" points="43.5,-325.5 43.5,-355.5 314.5,-355.5 314.5,-325.5 43.5,-325.5"/>
<text text-anchor="start" x="50.5" y="-336.9" font-family="Arial" font-size="14.00" fill="#000000">tag_id    </text>
<text text-anchor="start" x="122.8324" y="-336.9" font-family="Arial" font-size="14.00" fill="#666666">[uuid]</text>
</g>
<!-- public.study_tag&#45;&gt;public.tag -->
<g id="edge2" class="edge">
<title>public.study_tag:tag_id&#45;&gt;public.tag:id</title>
<path fill="none" stroke="#000000" d="M178.5749,-315.3639C169.4899,-269.7503 96.0133,-296.8154 70.5,-247 50.9491,-208.8264 27.6111,-150.5 70.5,-150.5"/>
<polygon fill="#000000" stroke="#000000" points="178.591,-315.5414 175.0186,-325.9091 179.0455,-320.5207 179.5,-325.5 179.5,-325.5 179.5,-325.5 179.0455,-320.5207 183.9814,-325.0909 178.591,-315.5414 178.591,-315.5414"/>
<text text-anchor="start" x="186.6035" y="-335.5" font-family="Arial" font-size="10.00" fill="#000000">FOREIGN KEY (tag_id) REFERENCES tag(id) ON DELETE CASCADE</text>
</g>
</g>
</svg>
