<?xml version="1.0" encoding="UTF-8" standalone="no"?>
<!DOCTYPE svg PUBLIC "-//W3C//DTD SVG 1.1//EN"
 "http://www.w3.org/Graphics/SVG/1.1/DTD/svg11.dtd">
<!-- Generated by graphviz version 2.40.1 (20161225.0304)
 -->
<!-- Title: public.study Pages: 1 -->
<svg width="1143pt" height="1439pt"
 viewBox="0.00 0.00 1142.50 1439.00" xmlns="http://www.w3.org/2000/svg" xmlns:xlink="http://www.w3.org/1999/xlink">
<g id="graph0" class="graph" transform="scale(1 1) rotate(0) translate(4 1435)">
<title>public.study</title>
<polygon fill="#ffffff" stroke="transparent" points="-4,4 -4,-1435 1138.5,-1435 1138.5,4 -4,4"/>
<!-- public.study -->
<g id="node1" class="node">
<title>public.study</title>
<polygon fill="#efefef" stroke="transparent" points="438.5,-982.5 438.5,-1017.5 691.5,-1017.5 691.5,-982.5 438.5,-982.5"/>
<polygon fill="none" stroke="#000000" points="438.5,-982.5 438.5,-1017.5 691.5,-1017.5 691.5,-982.5 438.5,-982.5"/>
<text text-anchor="start" x="453.7041" y="-995.3" font-family="Arial Bold" font-size="18.00" fill="#000000">public.study</text>
<text text-anchor="start" x="548.7279" y="-995.3" font-family="Arial" font-size="14.00" fill="#000000">    </text>
<text text-anchor="start" x="582.9327" y="-995.3" font-family="Arial" font-size="14.00" fill="#666666">[BASE TABLE]</text>
<polygon fill="none" stroke="#000000" points="438.5,-952.5 438.5,-982.5 691.5,-982.5 691.5,-952.5 438.5,-952.5"/>
<text text-anchor="start" x="445.5" y="-963.9" font-family="Arial" font-size="14.00" fill="#000000">id </text>
<text text-anchor="start" x="460.2798" y="-963.9" font-family="Arial" font-size="14.00" fill="#666666">[uuid]</text>
<polygon fill="none" stroke="#000000" points="438.5,-922.5 438.5,-952.5 691.5,-952.5 691.5,-922.5 438.5,-922.5"/>
<text text-anchor="start" x="445.5" y="-933.9" font-family="Arial" font-size="14.00" fill="#000000">parent_template_id </text>
<text text-anchor="start" x="569.2054" y="-933.9" font-family="Arial" font-size="14.00" fill="#666666">[uuid]</text>
<polygon fill="none" stroke="#000000" points="438.5,-892.5 438.5,-922.5 691.5,-922.5 691.5,-892.5 438.5,-892.5"/>
<text text-anchor="start" x="445.5" y="-903.9" font-family="Arial" font-size="14.00" fill="#000000">template_configuration </text>
<text text-anchor="start" x="590.9852" y="-903.9" font-family="Arial" font-size="14.00" fill="#666666">[jsonb]</text>
<polygon fill="none" stroke="#000000" points="438.5,-862.5 438.5,-892.5 691.5,-892.5 691.5,-862.5 438.5,-862.5"/>
<text text-anchor="start" x="445.5" y="-873.9" font-family="Arial" font-size="14.00" fill="#000000">contact </text>
<text text-anchor="start" x="494.5196" y="-873.9" font-family="Arial" font-size="14.00" fill="#666666">[jsonb]</text>
<polygon fill="none" stroke="#000000" points="438.5,-832.5 438.5,-862.5 691.5,-862.5 691.5,-832.5 438.5,-832.5"/>
<text text-anchor="start" x="445.5" y="-843.9" font-family="Arial" font-size="14.00" fill="#000000">title </text>
<text text-anchor="start" x="471.1676" y="-843.9" font-family="Arial" font-size="14.00" fill="#666666">[text]</text>
<polygon fill="none" stroke="#000000" points="438.5,-802.5 438.5,-832.5 691.5,-832.5 691.5,-802.5 438.5,-802.5"/>
<text text-anchor="start" x="445.5" y="-813.9" font-family="Arial" font-size="14.00" fill="#000000">description </text>
<text text-anchor="start" x="517.068" y="-813.9" font-family="Arial" font-size="14.00" fill="#666666">[text]</text>
<polygon fill="none" stroke="#000000" points="438.5,-772.5 438.5,-802.5 691.5,-802.5 691.5,-772.5 438.5,-772.5"/>
<text text-anchor="start" x="445.5" y="-783.9" font-family="Arial" font-size="14.00" fill="#000000">icon_name </text>
<text text-anchor="start" x="517.8534" y="-783.9" font-family="Arial" font-size="14.00" fill="#666666">[text]</text>
<polygon fill="none" stroke="#000000" points="438.5,-742.5 438.5,-772.5 691.5,-772.5 691.5,-742.5 438.5,-742.5"/>
<text text-anchor="start" x="445.5" y="-753.9" font-family="Arial" font-size="14.00" fill="#000000">published </text>
<text text-anchor="start" x="509.2994" y="-753.9" font-family="Arial" font-size="14.00" fill="#666666">[boolean]</text>
<polygon fill="none" stroke="#000000" points="438.5,-712.5 438.5,-742.5 691.5,-742.5 691.5,-712.5 438.5,-712.5"/>
<text text-anchor="start" x="445.5" y="-723.9" font-family="Arial" font-size="14.00" fill="#000000">registry_published </text>
<text text-anchor="start" x="562.9656" y="-723.9" font-family="Arial" font-size="14.00" fill="#666666">[boolean]</text>
<polygon fill="none" stroke="#000000" points="438.5,-682.5 438.5,-712.5 691.5,-712.5 691.5,-682.5 438.5,-682.5"/>
<text text-anchor="start" x="445.5" y="-693.9" font-family="Arial" font-size="14.00" fill="#000000">questionnaire </text>
<text text-anchor="start" x="533.4158" y="-693.9" font-family="Arial" font-size="14.00" fill="#666666">[jsonb]</text>
<polygon fill="none" stroke="#000000" points="438.5,-652.5 438.5,-682.5 691.5,-682.5 691.5,-652.5 438.5,-652.5"/>
<text text-anchor="start" x="445.5" y="-663.9" font-family="Arial" font-size="14.00" fill="#000000">eligibility_criteria </text>
<text text-anchor="start" x="552.0414" y="-663.9" font-family="Arial" font-size="14.00" fill="#666666">[jsonb]</text>
<polygon fill="none" stroke="#000000" points="438.5,-622.5 438.5,-652.5 691.5,-652.5 691.5,-622.5 438.5,-622.5"/>
<text text-anchor="start" x="445.5" y="-633.9" font-family="Arial" font-size="14.00" fill="#000000">observations </text>
<text text-anchor="start" x="528.744" y="-633.9" font-family="Arial" font-size="14.00" fill="#666666">[jsonb]</text>
<polygon fill="none" stroke="#000000" points="438.5,-592.5 438.5,-622.5 691.5,-622.5 691.5,-592.5 438.5,-592.5"/>
<text text-anchor="start" x="445.5" y="-603.9" font-family="Arial" font-size="14.00" fill="#000000">interventions </text>
<text text-anchor="start" x="528.7412" y="-603.9" font-family="Arial" font-size="14.00" fill="#666666">[jsonb]</text>
<polygon fill="none" stroke="#000000" points="438.5,-562.5 438.5,-592.5 691.5,-592.5 691.5,-562.5 438.5,-562.5"/>
<text text-anchor="start" x="445.5" y="-573.9" font-family="Arial" font-size="14.00" fill="#000000">consent </text>
<text text-anchor="start" x="498.4116" y="-573.9" font-family="Arial" font-size="14.00" fill="#666666">[jsonb]</text>
<polygon fill="none" stroke="#000000" points="438.5,-532.5 438.5,-562.5 691.5,-562.5 691.5,-532.5 438.5,-532.5"/>
<text text-anchor="start" x="445.5" y="-543.9" font-family="Arial" font-size="14.00" fill="#000000">schedule </text>
<text text-anchor="start" x="505.4102" y="-543.9" font-family="Arial" font-size="14.00" fill="#666666">[jsonb]</text>
<polygon fill="none" stroke="#000000" points="438.5,-502.5 438.5,-532.5 691.5,-532.5 691.5,-502.5 438.5,-502.5"/>
<text text-anchor="start" x="445.5" y="-513.9" font-family="Arial" font-size="14.00" fill="#000000">report_specification </text>
<text text-anchor="start" x="570.7468" y="-513.9" font-family="Arial" font-size="14.00" fill="#666666">[jsonb]</text>
<polygon fill="none" stroke="#000000" points="438.5,-472.5 438.5,-502.5 691.5,-502.5 691.5,-472.5 438.5,-472.5"/>
<text text-anchor="start" x="445.5" y="-483.9" font-family="Arial" font-size="14.00" fill="#000000">results </text>
<text text-anchor="start" x="490.6136" y="-483.9" font-family="Arial" font-size="14.00" fill="#666666">[jsonb]</text>
<polygon fill="none" stroke="#000000" points="438.5,-442.5 438.5,-472.5 691.5,-472.5 691.5,-442.5 438.5,-442.5"/>
<text text-anchor="start" x="445.5" y="-453.9" font-family="Arial" font-size="14.00" fill="#000000">created_at </text>
<text text-anchor="start" x="515.528" y="-453.9" font-family="Arial" font-size="14.00" fill="#666666">[timestamp with time zone]</text>
<polygon fill="none" stroke="#000000" points="438.5,-412.5 438.5,-442.5 691.5,-442.5 691.5,-412.5 438.5,-412.5"/>
<text text-anchor="start" x="445.1915" y="-423.9" font-family="Arial" font-size="14.00" fill="#000000">updated_at </text>
<text text-anchor="start" x="519.1241" y="-423.9" font-family="Arial" font-size="14.00" fill="#666666">[timestamp with time zone]</text>
<polygon fill="none" stroke="#000000" points="438.5,-382.5 438.5,-412.5 691.5,-412.5 691.5,-382.5 438.5,-382.5"/>
<text text-anchor="start" x="445.5" y="-393.9" font-family="Arial" font-size="14.00" fill="#000000">user_id </text>
<text text-anchor="start" x="495.2882" y="-393.9" font-family="Arial" font-size="14.00" fill="#666666">[uuid]</text>
<polygon fill="none" stroke="#000000" points="438.5,-352.5 438.5,-382.5 691.5,-382.5 691.5,-352.5 438.5,-352.5"/>
<text text-anchor="start" x="445.5" y="-363.9" font-family="Arial" font-size="14.00" fill="#000000">participation </text>
<text text-anchor="start" x="524.8478" y="-363.9" font-family="Arial" font-size="14.00" fill="#666666">[participation]</text>
<polygon fill="none" stroke="#000000" points="438.5,-322.5 438.5,-352.5 691.5,-352.5 691.5,-322.5 438.5,-322.5"/>
<text text-anchor="start" x="445.5" y="-333.9" font-family="Arial" font-size="14.00" fill="#000000">result_sharing </text>
<text text-anchor="start" x="537.2938" y="-333.9" font-family="Arial" font-size="14.00" fill="#666666">[result_sharing]</text>
<polygon fill="none" stroke="#000000" points="438.5,-292.5 438.5,-322.5 691.5,-322.5 691.5,-292.5 438.5,-292.5"/>
<text text-anchor="start" x="445.5" y="-303.9" font-family="Arial" font-size="14.00" fill="#000000">collaborator_emails </text>
<text text-anchor="start" x="570.7328" y="-303.9" font-family="Arial" font-size="14.00" fill="#666666">[text[]]</text>
<polygon fill="none" stroke="#000000" stroke-width="3" points="436.5,-291.5 436.5,-1019.5 692.5,-1019.5 692.5,-291.5 436.5,-291.5"/>
</g>
<!-- public.study&#45;&gt;public.study -->
<g id="edge1" class="edge">
<title>public.study:parent_template_id&#45;&gt;public.study:id</title>
<path fill="none" stroke="#000000" d="M566.5162,-962.9695C574.4862,-1169.7488 574.1474,-1339 565.5,-1339 556.7417,-1339 556.5065,-1165.3814 564.7944,-982.646"/>
<polygon fill="#000000" stroke="#000000" points="566.5087,-962.7729 570.6145,-952.6047 566.3133,-957.7767 566.118,-952.7805 566.118,-952.7805 566.118,-952.7805 566.3133,-957.7767 561.6214,-952.9563 566.5087,-962.7729 566.5087,-962.7729"/>
<text text-anchor="start" x="573.3285" y="-962.7805" font-family="Arial" font-size="10.00" fill="#000000">FOREIGN KEY (parent_template_id) REFERENCES study(id)</text>
</g>
<!-- public.user -->
<g id="node5" class="node">
<title>public.user</title>
<polygon fill="#efefef" stroke="transparent" points="451.5,-132.5 451.5,-167.5 679.5,-167.5 679.5,-132.5 451.5,-132.5"/>
<polygon fill="none" stroke="#000000" points="451.5,-132.5 451.5,-167.5 679.5,-167.5 679.5,-132.5 451.5,-132.5"/>
<text text-anchor="start" x="458.2091" y="-145.3" font-family="Arial Bold" font-size="18.00" fill="#000000">public.user</text>
<text text-anchor="start" x="545.2229" y="-145.3" font-family="Arial" font-size="14.00" fill="#000000">    </text>
<text text-anchor="start" x="579.4277" y="-145.3" font-family="Arial" font-size="14.00" fill="#666666">[BASE TABLE]</text>
<polygon fill="none" stroke="#000000" points="451.5,-102.5 451.5,-132.5 679.5,-132.5 679.5,-102.5 451.5,-102.5"/>
<text text-anchor="start" x="458.5" y="-113.9" font-family="Arial" font-size="14.00" fill="#000000">id    </text>
<text text-anchor="start" x="503.594" y="-113.9" font-family="Arial" font-size="14.00" fill="#666666">[uuid]</text>
<polygon fill="none" stroke="#000000" points="451.5,-72.5 451.5,-102.5 679.5,-102.5 679.5,-72.5 451.5,-72.5"/>
<text text-anchor="start" x="458.5" y="-83.9" font-family="Arial" font-size="14.00" fill="#000000">email    </text>
<text text-anchor="start" x="526.1438" y="-83.9" font-family="Arial" font-size="14.00" fill="#666666">[text]</text>
<polygon fill="none" stroke="#000000" points="451.5,-42.5 451.5,-72.5 679.5,-72.5 679.5,-42.5 451.5,-42.5"/>
<text text-anchor="start" x="458.5" y="-53.9" font-family="Arial" font-size="14.00" fill="#000000">preferences    </text>
<text text-anchor="start" x="566.6122" y="-53.9" font-family="Arial" font-size="14.00" fill="#666666">[jsonb]</text>
</g>
<!-- public.study&#45;&gt;public.user -->
<g id="edge5" class="edge">
<title>public.study:user_id&#45;&gt;public.user:id</title>
<path fill="none" stroke="#000000" d="M701.6767,-396.6288C755.786,-386.7296 732.7617,-294.9126 691.5,-247 621.1153,-165.2701 521.8847,-292.7299 451.5,-211 424.3827,-179.5117 409.9444,-117.5 451.5,-117.5"/>
<polygon fill="#000000" stroke="#000000" points="701.4636,-396.647 691.1161,-393.0164 696.4818,-397.0735 691.5,-397.5 691.5,-397.5 691.5,-397.5 696.4818,-397.0735 691.8839,-401.9836 701.4636,-396.647 701.4636,-396.647"/>
<text text-anchor="start" x="698.7855" y="-407.5" font-family="Arial" font-size="10.00" fill="#000000">FOREIGN KEY (user_id) REFERENCES &quot;user&quot;(id)</text>
</g>
<!-- public.study_subject -->
<g id="node2" class="node">
<title>public.study_subject</title>
<polygon fill="#efefef" stroke="transparent" points="43.5,-1352.5 43.5,-1387.5 346.5,-1387.5 346.5,-1352.5 43.5,-1352.5"/>
<polygon fill="none" stroke="#000000" points="43.5,-1352.5 43.5,-1387.5 346.5,-1387.5 346.5,-1352.5 43.5,-1352.5"/>
<text text-anchor="start" x="50.1935" y="-1365.3" font-family="Arial Bold" font-size="18.00" fill="#000000">public.study_subject</text>
<text text-anchor="start" x="212.2385" y="-1365.3" font-family="Arial" font-size="14.00" fill="#000000">    </text>
<text text-anchor="start" x="246.4433" y="-1365.3" font-family="Arial" font-size="14.00" fill="#666666">[BASE TABLE]</text>
<polygon fill="none" stroke="#000000" points="43.5,-1322.5 43.5,-1352.5 346.5,-1352.5 346.5,-1322.5 43.5,-1322.5"/>
<text text-anchor="start" x="50.5" y="-1333.9" font-family="Arial" font-size="14.00" fill="#000000">id    </text>
<text text-anchor="start" x="95.594" y="-1333.9" font-family="Arial" font-size="14.00" fill="#666666">[uuid]</text>
<polygon fill="none" stroke="#000000" points="43.5,-1292.5 43.5,-1322.5 346.5,-1322.5 346.5,-1292.5 43.5,-1292.5"/>
<text text-anchor="start" x="50.5" y="-1303.9" font-family="Arial" font-size="14.00" fill="#000000">study_id    </text>
<text text-anchor="start" x="136.8324" y="-1303.9" font-family="Arial" font-size="14.00" fill="#666666">[uuid]</text>
<polygon fill="none" stroke="#000000" points="43.5,-1262.5 43.5,-1292.5 346.5,-1292.5 346.5,-1262.5 43.5,-1262.5"/>
<text text-anchor="start" x="50.5" y="-1273.9" font-family="Arial" font-size="14.00" fill="#000000">user_id    </text>
<text text-anchor="start" x="130.6024" y="-1273.9" font-family="Arial" font-size="14.00" fill="#666666">[uuid]</text>
<polygon fill="none" stroke="#000000" points="43.5,-1232.5 43.5,-1262.5 346.5,-1262.5 346.5,-1232.5 43.5,-1232.5"/>
<text text-anchor="start" x="50.5" y="-1243.9" font-family="Arial" font-size="14.00" fill="#000000">started_at    </text>
<text text-anchor="start" x="146.9502" y="-1243.9" font-family="Arial" font-size="14.00" fill="#666666">[timestamp with time zone]</text>
<polygon fill="none" stroke="#000000" points="43.5,-1202.5 43.5,-1232.5 346.5,-1232.5 346.5,-1202.5 43.5,-1202.5"/>
<text text-anchor="start" x="50.5" y="-1213.9" font-family="Arial" font-size="14.00" fill="#000000">selected_intervention_ids    </text>
<text text-anchor="start" x="242.6374" y="-1213.9" font-family="Arial" font-size="14.00" fill="#666666">[text[]]</text>
<polygon fill="none" stroke="#000000" points="43.5,-1172.5 43.5,-1202.5 346.5,-1202.5 346.5,-1172.5 43.5,-1172.5"/>
<text text-anchor="start" x="50.5" y="-1183.9" font-family="Arial" font-size="14.00" fill="#000000">invite_code    </text>
<text text-anchor="start" x="155.5042" y="-1183.9" font-family="Arial" font-size="14.00" fill="#666666">[text]</text>
<polygon fill="none" stroke="#000000" points="43.5,-1142.5 43.5,-1172.5 346.5,-1172.5 346.5,-1142.5 43.5,-1142.5"/>
<text text-anchor="start" x="50.5" y="-1153.9" font-family="Arial" font-size="14.00" fill="#000000">is_deleted    </text>
<text text-anchor="start" x="148.5042" y="-1153.9" font-family="Arial" font-size="14.00" fill="#666666">[boolean]</text>
</g>
<!-- public.study_subject&#45;&gt;public.study -->
<g id="edge2" class="edge">
<title>public.study_subject:study_id&#45;&gt;public.study:id</title>
<path fill="none" stroke="#000000" d="M356.5951,-1305.3288C419.0354,-1276.3721 363.8963,-967.5 438.5,-967.5"/>
<polygon fill="#000000" stroke="#000000" points="356.2764,-1305.3973 345.5538,-1303.1006 351.3882,-1306.4486 346.5,-1307.5 346.5,-1307.5 346.5,-1307.5 351.3882,-1306.4486 347.4462,-1311.8994 356.2764,-1305.3973 356.2764,-1305.3973"/>
<text text-anchor="start" x="353.6035" y="-1317.5" font-family="Arial" font-size="10.00" fill="#000000">FOREIGN KEY (study_id) REFERENCES study(id) ON DELETE CASCADE</text>
</g>
<!-- public.repo -->
<g id="node3" class="node">
<title>public.repo</title>
<polygon fill="#efefef" stroke="transparent" points="450.5,-1307.5 450.5,-1342.5 679.5,-1342.5 679.5,-1307.5 450.5,-1307.5"/>
<polygon fill="none" stroke="#000000" points="450.5,-1307.5 450.5,-1342.5 679.5,-1342.5 679.5,-1307.5 450.5,-1307.5"/>
<text text-anchor="start" x="457.206" y="-1320.3" font-family="Arial Bold" font-size="18.00" fill="#000000">public.repo</text>
<text text-anchor="start" x="545.226" y="-1320.3" font-family="Arial" font-size="14.00" fill="#000000">    </text>
<text text-anchor="start" x="579.4308" y="-1320.3" font-family="Arial" font-size="14.00" fill="#666666">[BASE TABLE]</text>
<polygon fill="none" stroke="#000000" points="450.5,-1277.5 450.5,-1307.5 679.5,-1307.5 679.5,-1277.5 450.5,-1277.5"/>
<text text-anchor="start" x="457.5" y="-1288.9" font-family="Arial" font-size="14.00" fill="#000000">project_id    </text>
<text text-anchor="start" x="552.3822" y="-1288.9" font-family="Arial" font-size="14.00" fill="#666666">[text]</text>
<polygon fill="none" stroke="#000000" points="450.5,-1247.5 450.5,-1277.5 679.5,-1277.5 679.5,-1247.5 450.5,-1247.5"/>
<text text-anchor="start" x="457.5" y="-1258.9" font-family="Arial" font-size="14.00" fill="#000000">user_id    </text>
<text text-anchor="start" x="537.6024" y="-1258.9" font-family="Arial" font-size="14.00" fill="#666666">[uuid]</text>
<polygon fill="none" stroke="#000000" points="450.5,-1217.5 450.5,-1247.5 679.5,-1247.5 679.5,-1217.5 450.5,-1217.5"/>
<text text-anchor="start" x="457.5" y="-1228.9" font-family="Arial" font-size="14.00" fill="#000000">study_id    </text>
<text text-anchor="start" x="543.8324" y="-1228.9" font-family="Arial" font-size="14.00" fill="#666666">[uuid]</text>
<polygon fill="none" stroke="#000000" points="450.5,-1187.5 450.5,-1217.5 679.5,-1217.5 679.5,-1187.5 450.5,-1187.5"/>
<text text-anchor="start" x="457.5" y="-1198.9" font-family="Arial" font-size="14.00" fill="#000000">provider    </text>
<text text-anchor="start" x="542.263" y="-1198.9" font-family="Arial" font-size="14.00" fill="#666666">[git_provider]</text>
</g>
<!-- public.repo&#45;&gt;public.study -->
<g id="edge3" class="edge">
<title>public.repo:study_id&#45;&gt;public.study:id</title>
<path fill="none" stroke="#000000" d="M440.6262,-1229.8772C390.3881,-1202.3551 383.0048,-967.5 438.5,-967.5"/>
<polygon fill="#000000" stroke="#000000" points="440.8352,-1229.9326 449.3447,-1236.8492 445.6676,-1231.2163 450.5,-1232.5 450.5,-1232.5 450.5,-1232.5 445.6676,-1231.2163 451.6553,-1228.1508 440.8352,-1229.9326 440.8352,-1229.9326"/>
<text text-anchor="start" x="397.6345" y="-1216.5" font-family="Arial" font-size="10.00" fill="#000000">FOREIGN KEY (study_id) REFERENCES study(id)</text>
</g>
<!-- public.study_invite -->
<g id="node4" class="node">
<title>public.study_invite</title>
<polygon fill="#efefef" stroke="transparent" points="783.5,-1292.5 783.5,-1327.5 1071.5,-1327.5 1071.5,-1292.5 783.5,-1292.5"/>
<polygon fill="none" stroke="#000000" points="783.5,-1292.5 783.5,-1327.5 1071.5,-1327.5 1071.5,-1292.5 783.5,-1292.5"/>
<text text-anchor="start" x="790.1995" y="-1305.3" font-family="Arial Bold" font-size="18.00" fill="#000000">public.study_invite</text>
<text text-anchor="start" x="937.2325" y="-1305.3" font-family="Arial" font-size="14.00" fill="#000000">    </text>
<text text-anchor="start" x="971.4373" y="-1305.3" font-family="Arial" font-size="14.00" fill="#666666">[BASE TABLE]</text>
<polygon fill="none" stroke="#000000" points="783.5,-1262.5 783.5,-1292.5 1071.5,-1292.5 1071.5,-1262.5 783.5,-1262.5"/>
<text text-anchor="start" x="790.5" y="-1273.9" font-family="Arial" font-size="14.00" fill="#000000">code    </text>
<text text-anchor="start" x="855.0526" y="-1273.9" font-family="Arial" font-size="14.00" fill="#666666">[text]</text>
<polygon fill="none" stroke="#000000" points="783.5,-1232.5 783.5,-1262.5 1071.5,-1262.5 1071.5,-1232.5 783.5,-1232.5"/>
<text text-anchor="start" x="790.5" y="-1243.9" font-family="Arial" font-size="14.00" fill="#000000">study_id    </text>
<text text-anchor="start" x="876.8324" y="-1243.9" font-family="Arial" font-size="14.00" fill="#666666">[uuid]</text>
<polygon fill="none" stroke="#000000" points="783.5,-1202.5 783.5,-1232.5 1071.5,-1232.5 1071.5,-1202.5 783.5,-1202.5"/>
<text text-anchor="start" x="790.5" y="-1213.9" font-family="Arial" font-size="14.00" fill="#000000">preselected_intervention_ids    </text>
<text text-anchor="start" x="1002.8632" y="-1213.9" font-family="Arial" font-size="14.00" fill="#666666">[text[]]</text>
</g>
<!-- public.study_invite&#45;&gt;public.study -->
<g id="edge4" class="edge">
<title>public.study_invite:study_id&#45;&gt;public.study:id</title>
<path fill="none" stroke="#000000" d="M773.658,-1245.0794C721.9571,-1217.7124 753.4131,-967.5 691.5,-967.5"/>
<polygon fill="#000000" stroke="#000000" points="773.7894,-1245.1116 782.4252,-1251.8698 778.6447,-1246.3058 783.5,-1247.5 783.5,-1247.5 783.5,-1247.5 778.6447,-1246.3058 784.5748,-1243.1302 773.7894,-1245.1116 773.7894,-1245.1116"/>
<text text-anchor="start" x="790.6035" y="-1257.5" font-family="Arial" font-size="10.00" fill="#000000">FOREIGN KEY (study_id) REFERENCES study(id) ON DELETE CASCADE</text>
</g>
</g>
</svg>
