<?xml version="1.0" encoding="UTF-8" standalone="no"?>
<!DOCTYPE svg PUBLIC "-//W3C//DTD SVG 1.1//EN"
 "http://www.w3.org/Graphics/SVG/1.1/DTD/svg11.dtd">
<!-- Generated by graphviz version 2.40.1 (20161225.0304)
 -->
<!-- Title: public.user Pages: 1 -->
<svg width="1117pt" height="982pt"
 viewBox="0.00 0.00 1117.00 982.00" xmlns="http://www.w3.org/2000/svg" xmlns:xlink="http://www.w3.org/1999/xlink">
<g id="graph0" class="graph" transform="scale(1 1) rotate(0) translate(4 978)">
<title>public.user</title>
<polygon fill="#ffffff" stroke="transparent" points="-4,4 -4,-978 1113,-978 1113,4 -4,4"/>
<!-- public.user -->
<g id="node1" class="node">
<title>public.user</title>
<polygon fill="#efefef" stroke="transparent" points="468.5,-105.5 468.5,-140.5 696.5,-140.5 696.5,-105.5 468.5,-105.5"/>
<polygon fill="none" stroke="#000000" points="468.5,-105.5 468.5,-140.5 696.5,-140.5 696.5,-105.5 468.5,-105.5"/>
<text text-anchor="start" x="475.2091" y="-118.3" font-family="Arial Bold" font-size="18.00" fill="#000000">public.user</text>
<text text-anchor="start" x="562.2229" y="-118.3" font-family="Arial" font-size="14.00" fill="#000000">    </text>
<text text-anchor="start" x="596.4277" y="-118.3" font-family="Arial" font-size="14.00" fill="#666666">[BASE TABLE]</text>
<polygon fill="none" stroke="#000000" points="468.5,-75.5 468.5,-105.5 696.5,-105.5 696.5,-75.5 468.5,-75.5"/>
<text text-anchor="start" x="475.5" y="-86.9" font-family="Arial" font-size="14.00" fill="#000000">id </text>
<text text-anchor="start" x="490.2798" y="-86.9" font-family="Arial" font-size="14.00" fill="#666666">[uuid]</text>
<polygon fill="none" stroke="#000000" points="468.5,-45.5 468.5,-75.5 696.5,-75.5 696.5,-45.5 468.5,-45.5"/>
<text text-anchor="start" x="475.5" y="-56.9" font-family="Arial" font-size="14.00" fill="#000000">email </text>
<text text-anchor="start" x="512.8296" y="-56.9" font-family="Arial" font-size="14.00" fill="#666666">[text]</text>
<polygon fill="none" stroke="#000000" stroke-width="3" points="467,-44.5 467,-142.5 698,-142.5 698,-44.5 467,-44.5"/>
</g>
<!-- public.study -->
<g id="node2" class="node">
<title>public.study</title>
<polygon fill="#efefef" stroke="transparent" points="43.5,-895.5 43.5,-930.5 326.5,-930.5 326.5,-895.5 43.5,-895.5"/>
<polygon fill="none" stroke="#000000" points="43.5,-895.5 43.5,-930.5 326.5,-930.5 326.5,-895.5 43.5,-895.5"/>
<text text-anchor="start" x="73.7041" y="-908.3" font-family="Arial Bold" font-size="18.00" fill="#000000">public.study</text>
<text text-anchor="start" x="168.7279" y="-908.3" font-family="Arial" font-size="14.00" fill="#000000">    </text>
<text text-anchor="start" x="202.9327" y="-908.3" font-family="Arial" font-size="14.00" fill="#666666">[BASE TABLE]</text>
<polygon fill="none" stroke="#000000" points="43.5,-865.5 43.5,-895.5 326.5,-895.5 326.5,-865.5 43.5,-865.5"/>
<text text-anchor="start" x="50.5" y="-876.9" font-family="Arial" font-size="14.00" fill="#000000">id    </text>
<text text-anchor="start" x="95.594" y="-876.9" font-family="Arial" font-size="14.00" fill="#666666">[uuid]</text>
<polygon fill="none" stroke="#000000" points="43.5,-835.5 43.5,-865.5 326.5,-865.5 326.5,-835.5 43.5,-835.5"/>
<text text-anchor="start" x="50.5" y="-846.9" font-family="Arial" font-size="14.00" fill="#000000">contact    </text>
<text text-anchor="start" x="129.8338" y="-846.9" font-family="Arial" font-size="14.00" fill="#666666">[jsonb]</text>
<polygon fill="none" stroke="#000000" points="43.5,-805.5 43.5,-835.5 326.5,-835.5 326.5,-805.5 43.5,-805.5"/>
<text text-anchor="start" x="50.5" y="-816.9" font-family="Arial" font-size="14.00" fill="#000000">title    </text>
<text text-anchor="start" x="106.4818" y="-816.9" font-family="Arial" font-size="14.00" fill="#666666">[text]</text>
<polygon fill="none" stroke="#000000" points="43.5,-775.5 43.5,-805.5 326.5,-805.5 326.5,-775.5 43.5,-775.5"/>
<text text-anchor="start" x="50.5" y="-786.9" font-family="Arial" font-size="14.00" fill="#000000">description    </text>
<text text-anchor="start" x="152.3822" y="-786.9" font-family="Arial" font-size="14.00" fill="#666666">[text]</text>
<polygon fill="none" stroke="#000000" points="43.5,-745.5 43.5,-775.5 326.5,-775.5 326.5,-745.5 43.5,-745.5"/>
<text text-anchor="start" x="50.5" y="-756.9" font-family="Arial" font-size="14.00" fill="#000000">icon_name    </text>
<text text-anchor="start" x="153.1676" y="-756.9" font-family="Arial" font-size="14.00" fill="#666666">[text]</text>
<polygon fill="none" stroke="#000000" points="43.5,-715.5 43.5,-745.5 326.5,-745.5 326.5,-715.5 43.5,-715.5"/>
<text text-anchor="start" x="50.5" y="-726.9" font-family="Arial" font-size="14.00" fill="#000000">published    </text>
<text text-anchor="start" x="144.6136" y="-726.9" font-family="Arial" font-size="14.00" fill="#666666">[boolean]</text>
<polygon fill="none" stroke="#000000" points="43.5,-685.5 43.5,-715.5 326.5,-715.5 326.5,-685.5 43.5,-685.5"/>
<text text-anchor="start" x="50.5" y="-696.9" font-family="Arial" font-size="14.00" fill="#000000">registry_published    </text>
<text text-anchor="start" x="198.2798" y="-696.9" font-family="Arial" font-size="14.00" fill="#666666">[boolean]</text>
<polygon fill="none" stroke="#000000" points="43.5,-655.5 43.5,-685.5 326.5,-685.5 326.5,-655.5 43.5,-655.5"/>
<text text-anchor="start" x="50.5" y="-666.9" font-family="Arial" font-size="14.00" fill="#000000">questionnaire    </text>
<text text-anchor="start" x="168.73" y="-666.9" font-family="Arial" font-size="14.00" fill="#666666">[jsonb]</text>
<polygon fill="none" stroke="#000000" points="43.5,-625.5 43.5,-655.5 326.5,-655.5 326.5,-625.5 43.5,-625.5"/>
<text text-anchor="start" x="50.5" y="-636.9" font-family="Arial" font-size="14.00" fill="#000000">eligibility_criteria    </text>
<text text-anchor="start" x="187.3556" y="-636.9" font-family="Arial" font-size="14.00" fill="#666666">[jsonb]</text>
<polygon fill="none" stroke="#000000" points="43.5,-595.5 43.5,-625.5 326.5,-625.5 326.5,-595.5 43.5,-595.5"/>
<text text-anchor="start" x="50.5" y="-606.9" font-family="Arial" font-size="14.00" fill="#000000">observations    </text>
<text text-anchor="start" x="164.0582" y="-606.9" font-family="Arial" font-size="14.00" fill="#666666">[jsonb]</text>
<polygon fill="none" stroke="#000000" points="43.5,-565.5 43.5,-595.5 326.5,-595.5 326.5,-565.5 43.5,-565.5"/>
<text text-anchor="start" x="50.5" y="-576.9" font-family="Arial" font-size="14.00" fill="#000000">interventions    </text>
<text text-anchor="start" x="164.0554" y="-576.9" font-family="Arial" font-size="14.00" fill="#666666">[jsonb]</text>
<polygon fill="none" stroke="#000000" points="43.5,-535.5 43.5,-565.5 326.5,-565.5 326.5,-535.5 43.5,-535.5"/>
<text text-anchor="start" x="50.5" y="-546.9" font-family="Arial" font-size="14.00" fill="#000000">consent    </text>
<text text-anchor="start" x="133.7258" y="-546.9" font-family="Arial" font-size="14.00" fill="#666666">[jsonb]</text>
<polygon fill="none" stroke="#000000" points="43.5,-505.5 43.5,-535.5 326.5,-535.5 326.5,-505.5 43.5,-505.5"/>
<text text-anchor="start" x="50.5" y="-516.9" font-family="Arial" font-size="14.00" fill="#000000">schedule    </text>
<text text-anchor="start" x="140.7244" y="-516.9" font-family="Arial" font-size="14.00" fill="#666666">[jsonb]</text>
<polygon fill="none" stroke="#000000" points="43.5,-475.5 43.5,-505.5 326.5,-505.5 326.5,-475.5 43.5,-475.5"/>
<text text-anchor="start" x="50.5" y="-486.9" font-family="Arial" font-size="14.00" fill="#000000">report_specification    </text>
<text text-anchor="start" x="206.061" y="-486.9" font-family="Arial" font-size="14.00" fill="#666666">[jsonb]</text>
<polygon fill="none" stroke="#000000" points="43.5,-445.5 43.5,-475.5 326.5,-475.5 326.5,-445.5 43.5,-445.5"/>
<text text-anchor="start" x="50.5" y="-456.9" font-family="Arial" font-size="14.00" fill="#000000">results    </text>
<text text-anchor="start" x="125.9278" y="-456.9" font-family="Arial" font-size="14.00" fill="#666666">[jsonb]</text>
<polygon fill="none" stroke="#000000" points="43.5,-415.5 43.5,-445.5 326.5,-445.5 326.5,-415.5 43.5,-415.5"/>
<text text-anchor="start" x="50.5" y="-426.9" font-family="Arial" font-size="14.00" fill="#000000">created_at    </text>
<text text-anchor="start" x="150.8422" y="-426.9" font-family="Arial" font-size="14.00" fill="#666666">[timestamp with time zone]</text>
<polygon fill="none" stroke="#000000" points="43.5,-385.5 43.5,-415.5 326.5,-415.5 326.5,-385.5 43.5,-385.5"/>
<text text-anchor="start" x="50.0344" y="-396.9" font-family="Arial" font-size="14.00" fill="#000000">updated_at    </text>
<text text-anchor="start" x="154.2812" y="-396.9" font-family="Arial" font-size="14.00" fill="#666666">[timestamp with time zone]</text>
<polygon fill="none" stroke="#000000" points="43.5,-355.5 43.5,-385.5 326.5,-385.5 326.5,-355.5 43.5,-355.5"/>
<text text-anchor="start" x="50.5" y="-366.9" font-family="Arial" font-size="14.00" fill="#000000">user_id    </text>
<text text-anchor="start" x="130.6024" y="-366.9" font-family="Arial" font-size="14.00" fill="#666666">[uuid]</text>
<polygon fill="none" stroke="#000000" points="43.5,-325.5 43.5,-355.5 326.5,-355.5 326.5,-325.5 43.5,-325.5"/>
<text text-anchor="start" x="50.5" y="-336.9" font-family="Arial" font-size="14.00" fill="#000000">participation    </text>
<text text-anchor="start" x="160.162" y="-336.9" font-family="Arial" font-size="14.00" fill="#666666">[participation]</text>
<polygon fill="none" stroke="#000000" points="43.5,-295.5 43.5,-325.5 326.5,-325.5 326.5,-295.5 43.5,-295.5"/>
<text text-anchor="start" x="50.5" y="-306.9" font-family="Arial" font-size="14.00" fill="#000000">result_sharing    </text>
<text text-anchor="start" x="172.608" y="-306.9" font-family="Arial" font-size="14.00" fill="#666666">[result_sharing]</text>
<polygon fill="none" stroke="#000000" points="43.5,-265.5 43.5,-295.5 326.5,-295.5 326.5,-265.5 43.5,-265.5"/>
<text text-anchor="start" x="50.5" y="-276.9" font-family="Arial" font-size="14.00" fill="#000000">collaborator_emails    </text>
<text text-anchor="start" x="206.047" y="-276.9" font-family="Arial" font-size="14.00" fill="#666666">[text[]]</text>
</g>
<!-- public.study&#45;&gt;public.user -->
<g id="edge1" class="edge">
<title>public.study:user_id&#45;&gt;public.user:id</title>
<path fill="none" stroke="#000000" d="M336.5102,-369.8021C390.8558,-361.5403 347.8981,-281.6598 377.5,-223 409.6853,-159.221 397.0601,-90.5 468.5,-90.5"/>
<polygon fill="#000000" stroke="#000000" points="336.4758,-369.8044 326.187,-366.0109 331.4879,-370.1522 326.5,-370.5 326.5,-370.5 326.5,-370.5 331.4879,-370.1522 326.813,-374.9891 336.4758,-369.8044 336.4758,-369.8044"/>
<text text-anchor="start" x="333.7855" y="-380.5" font-family="Arial" font-size="10.00" fill="#000000">FOREIGN KEY (user_id) REFERENCES &quot;user&quot;(id)</text>
</g>
<!-- public.study_subject -->
<g id="node3" class="node">
<title>public.study_subject</title>
<polygon fill="#efefef" stroke="transparent" points="430.5,-685.5 430.5,-720.5 733.5,-720.5 733.5,-685.5 430.5,-685.5"/>
<polygon fill="none" stroke="#000000" points="430.5,-685.5 430.5,-720.5 733.5,-720.5 733.5,-685.5 430.5,-685.5"/>
<text text-anchor="start" x="437.1935" y="-698.3" font-family="Arial Bold" font-size="18.00" fill="#000000">public.study_subject</text>
<text text-anchor="start" x="599.2385" y="-698.3" font-family="Arial" font-size="14.00" fill="#000000">    </text>
<text text-anchor="start" x="633.4433" y="-698.3" font-family="Arial" font-size="14.00" fill="#666666">[BASE TABLE]</text>
<polygon fill="none" stroke="#000000" points="430.5,-655.5 430.5,-685.5 733.5,-685.5 733.5,-655.5 430.5,-655.5"/>
<text text-anchor="start" x="437.5" y="-666.9" font-family="Arial" font-size="14.00" fill="#000000">id    </text>
<text text-anchor="start" x="482.594" y="-666.9" font-family="Arial" font-size="14.00" fill="#666666">[uuid]</text>
<polygon fill="none" stroke="#000000" points="430.5,-625.5 430.5,-655.5 733.5,-655.5 733.5,-625.5 430.5,-625.5"/>
<text text-anchor="start" x="437.5" y="-636.9" font-family="Arial" font-size="14.00" fill="#000000">study_id    </text>
<text text-anchor="start" x="523.8324" y="-636.9" font-family="Arial" font-size="14.00" fill="#666666">[uuid]</text>
<polygon fill="none" stroke="#000000" points="430.5,-595.5 430.5,-625.5 733.5,-625.5 733.5,-595.5 430.5,-595.5"/>
<text text-anchor="start" x="437.5" y="-606.9" font-family="Arial" font-size="14.00" fill="#000000">user_id    </text>
<text text-anchor="start" x="517.6024" y="-606.9" font-family="Arial" font-size="14.00" fill="#666666">[uuid]</text>
<polygon fill="none" stroke="#000000" points="430.5,-565.5 430.5,-595.5 733.5,-595.5 733.5,-565.5 430.5,-565.5"/>
<text text-anchor="start" x="437.5" y="-576.9" font-family="Arial" font-size="14.00" fill="#000000">started_at    </text>
<text text-anchor="start" x="533.9502" y="-576.9" font-family="Arial" font-size="14.00" fill="#666666">[timestamp with time zone]</text>
<polygon fill="none" stroke="#000000" points="430.5,-535.5 430.5,-565.5 733.5,-565.5 733.5,-535.5 430.5,-535.5"/>
<text text-anchor="start" x="437.5" y="-546.9" font-family="Arial" font-size="14.00" fill="#000000">selected_intervention_ids    </text>
<text text-anchor="start" x="629.6374" y="-546.9" font-family="Arial" font-size="14.00" fill="#666666">[text[]]</text>
<polygon fill="none" stroke="#000000" points="430.5,-505.5 430.5,-535.5 733.5,-535.5 733.5,-505.5 430.5,-505.5"/>
<text text-anchor="start" x="437.5" y="-516.9" font-family="Arial" font-size="14.00" fill="#000000">invite_code    </text>
<text text-anchor="start" x="542.5042" y="-516.9" font-family="Arial" font-size="14.00" fill="#666666">[text]</text>
<polygon fill="none" stroke="#000000" points="430.5,-475.5 430.5,-505.5 733.5,-505.5 733.5,-475.5 430.5,-475.5"/>
<text text-anchor="start" x="437.5" y="-486.9" font-family="Arial" font-size="14.00" fill="#000000">is_deleted    </text>
<text text-anchor="start" x="535.5042" y="-486.9" font-family="Arial" font-size="14.00" fill="#666666">[boolean]</text>
</g>
<!-- public.study_subject&#45;&gt;public.user -->
<g id="edge2" class="edge">
<title>public.study_subject:user_id&#45;&gt;public.user:id</title>
<path fill="none" stroke="#000000" d="M743.7762,-609.8208C807.9845,-600.7107 763.5602,-501.9207 733.5,-433 669.2536,-285.6983 532.7464,-334.3017 468.5,-187 451.3537,-147.6876 425.6111,-90.5 468.5,-90.5"/>
<polygon fill="#000000" stroke="#000000" points="743.4782,-609.8404 733.2032,-606.0098 738.4891,-610.1702 733.5,-610.5 733.5,-610.5 733.5,-610.5 738.4891,-610.1702 733.7968,-614.9902 743.4782,-609.8404 743.4782,-609.8404"/>
<text text-anchor="start" x="621.2855" y="-594.5" font-family="Arial" font-size="10.00" fill="#000000">FOREIGN KEY (user_id) REFERENCES &quot;user&quot;(id)</text>
</g>
<!-- public.repo -->
<g id="node4" class="node">
<title>public.repo</title>
<polygon fill="#efefef" stroke="transparent" points="837.5,-640.5 837.5,-675.5 1066.5,-675.5 1066.5,-640.5 837.5,-640.5"/>
<polygon fill="none" stroke="#000000" points="837.5,-640.5 837.5,-675.5 1066.5,-675.5 1066.5,-640.5 837.5,-640.5"/>
<text text-anchor="start" x="844.206" y="-653.3" font-family="Arial Bold" font-size="18.00" fill="#000000">public.repo</text>
<text text-anchor="start" x="932.226" y="-653.3" font-family="Arial" font-size="14.00" fill="#000000">    </text>
<text text-anchor="start" x="966.4308" y="-653.3" font-family="Arial" font-size="14.00" fill="#666666">[BASE TABLE]</text>
<polygon fill="none" stroke="#000000" points="837.5,-610.5 837.5,-640.5 1066.5,-640.5 1066.5,-610.5 837.5,-610.5"/>
<text text-anchor="start" x="844.5" y="-621.9" font-family="Arial" font-size="14.00" fill="#000000">project_id    </text>
<text text-anchor="start" x="939.3822" y="-621.9" font-family="Arial" font-size="14.00" fill="#666666">[text]</text>
<polygon fill="none" stroke="#000000" points="837.5,-580.5 837.5,-610.5 1066.5,-610.5 1066.5,-580.5 837.5,-580.5"/>
<text text-anchor="start" x="844.5" y="-591.9" font-family="Arial" font-size="14.00" fill="#000000">user_id    </text>
<text text-anchor="start" x="924.6024" y="-591.9" font-family="Arial" font-size="14.00" fill="#666666">[uuid]</text>
<polygon fill="none" stroke="#000000" points="837.5,-550.5 837.5,-580.5 1066.5,-580.5 1066.5,-550.5 837.5,-550.5"/>
<text text-anchor="start" x="844.5" y="-561.9" font-family="Arial" font-size="14.00" fill="#000000">study_id    </text>
<text text-anchor="start" x="930.8324" y="-561.9" font-family="Arial" font-size="14.00" fill="#666666">[uuid]</text>
<polygon fill="none" stroke="#000000" points="837.5,-520.5 837.5,-550.5 1066.5,-550.5 1066.5,-520.5 837.5,-520.5"/>
<text text-anchor="start" x="844.5" y="-531.9" font-family="Arial" font-size="14.00" fill="#000000">provider    </text>
<text text-anchor="start" x="929.263" y="-531.9" font-family="Arial" font-size="14.00" fill="#666666">[git_provider]</text>
</g>
<!-- public.repo&#45;&gt;public.user -->
<g id="edge3" class="edge">
<title>public.repo:user_id&#45;&gt;public.user:id</title>
<path fill="none" stroke="#000000" d="M827.5104,-593.9097C759.0295,-570.597 814.0587,-297.7172 785.5,-223 760.1719,-156.7351 767.4404,-90.5 696.5,-90.5"/>
<polygon fill="#000000" stroke="#000000" points="827.6244,-593.9278 836.7925,-599.944 832.5622,-594.7139 837.5,-595.5 837.5,-595.5 837.5,-595.5 832.5622,-594.7139 838.2075,-591.056 827.6244,-593.9278 827.6244,-593.9278"/>
<text text-anchor="start" x="495.5045" y="-605.5" font-family="Arial" font-size="10.00" fill="#000000">FOREIGN KEY (user_id) REFERENCES &quot;user&quot;(id) ON DELETE CASCADE</text>
</g>
</g>
</svg>
