<?xml version="1.0" encoding="UTF-8" standalone="no"?>
<!DOCTYPE svg PUBLIC "-//W3C//DTD SVG 1.1//EN"
 "http://www.w3.org/Graphics/SVG/1.1/DTD/svg11.dtd">
<!-- Generated by graphviz version 2.40.1 (20161225.0304)
 -->
<!-- Title: public.study_subject Pages: 1 -->
<svg width="1127pt" height="1529pt"
 viewBox="0.00 0.00 1127.00 1529.00" xmlns="http://www.w3.org/2000/svg" xmlns:xlink="http://www.w3.org/1999/xlink">
<g id="graph0" class="graph" transform="scale(1 1) rotate(0) translate(4 1525)">
<title>public.study_subject</title>
<polygon fill="#ffffff" stroke="transparent" points="-4,4 -4,-1525 1123,-1525 1123,4 -4,4"/>
<!-- public.study_subject -->
<g id="node1" class="node">
<title>public.study_subject</title>
<polygon fill="#efefef" stroke="transparent" points="409,-1102.5 409,-1137.5 712,-1137.5 712,-1102.5 409,-1102.5"/>
<polygon fill="none" stroke="#000000" points="409,-1102.5 409,-1137.5 712,-1137.5 712,-1102.5 409,-1102.5"/>
<text text-anchor="start" x="415.6935" y="-1115.3" font-family="Arial Bold" font-size="18.00" fill="#000000">public.study_subject</text>
<text text-anchor="start" x="577.7385" y="-1115.3" font-family="Arial" font-size="14.00" fill="#000000">    </text>
<text text-anchor="start" x="611.9433" y="-1115.3" font-family="Arial" font-size="14.00" fill="#666666">[BASE TABLE]</text>
<polygon fill="none" stroke="#000000" points="409,-1072.5 409,-1102.5 712,-1102.5 712,-1072.5 409,-1072.5"/>
<text text-anchor="start" x="416" y="-1083.9" font-family="Arial" font-size="14.00" fill="#000000">id </text>
<text text-anchor="start" x="430.7798" y="-1083.9" font-family="Arial" font-size="14.00" fill="#666666">[uuid]</text>
<polygon fill="none" stroke="#000000" points="409,-1042.5 409,-1072.5 712,-1072.5 712,-1042.5 409,-1042.5"/>
<text text-anchor="start" x="416" y="-1053.9" font-family="Arial" font-size="14.00" fill="#000000">study_id </text>
<text text-anchor="start" x="472.0182" y="-1053.9" font-family="Arial" font-size="14.00" fill="#666666">[uuid]</text>
<polygon fill="none" stroke="#000000" points="409,-1012.5 409,-1042.5 712,-1042.5 712,-1012.5 409,-1012.5"/>
<text text-anchor="start" x="416" y="-1023.9" font-family="Arial" font-size="14.00" fill="#000000">user_id </text>
<text text-anchor="start" x="465.7882" y="-1023.9" font-family="Arial" font-size="14.00" fill="#666666">[uuid]</text>
<polygon fill="none" stroke="#000000" points="409,-982.5 409,-1012.5 712,-1012.5 712,-982.5 409,-982.5"/>
<text text-anchor="start" x="416" y="-993.9" font-family="Arial" font-size="14.00" fill="#000000">started_at </text>
<text text-anchor="start" x="482.136" y="-993.9" font-family="Arial" font-size="14.00" fill="#666666">[timestamp with time zone]</text>
<polygon fill="none" stroke="#000000" points="409,-952.5 409,-982.5 712,-982.5 712,-952.5 409,-952.5"/>
<text text-anchor="start" x="416" y="-963.9" font-family="Arial" font-size="14.00" fill="#000000">selected_intervention_ids </text>
<text text-anchor="start" x="577.8232" y="-963.9" font-family="Arial" font-size="14.00" fill="#666666">[text[]]</text>
<polygon fill="none" stroke="#000000" points="409,-922.5 409,-952.5 712,-952.5 712,-922.5 409,-922.5"/>
<text text-anchor="start" x="416" y="-933.9" font-family="Arial" font-size="14.00" fill="#000000">invite_code </text>
<text text-anchor="start" x="490.69" y="-933.9" font-family="Arial" font-size="14.00" fill="#666666">[text]</text>
<polygon fill="none" stroke="#000000" points="409,-892.5 409,-922.5 712,-922.5 712,-892.5 409,-892.5"/>
<text text-anchor="start" x="416" y="-903.9" font-family="Arial" font-size="14.00" fill="#000000">is_deleted </text>
<text text-anchor="start" x="483.69" y="-903.9" font-family="Arial" font-size="14.00" fill="#666666">[boolean]</text>
<polygon fill="none" stroke="#000000" stroke-width="3" points="407,-891.5 407,-1139.5 713,-1139.5 713,-891.5 407,-891.5"/>
</g>
<!-- public.study -->
<g id="node3" class="node">
<title>public.study</title>
<polygon fill="#efefef" stroke="transparent" points="60,-732.5 60,-767.5 343,-767.5 343,-732.5 60,-732.5"/>
<polygon fill="none" stroke="#000000" points="60,-732.5 60,-767.5 343,-767.5 343,-732.5 60,-732.5"/>
<text text-anchor="start" x="90.2041" y="-745.3" font-family="Arial Bold" font-size="18.00" fill="#000000">public.study</text>
<text text-anchor="start" x="185.2279" y="-745.3" font-family="Arial" font-size="14.00" fill="#000000">    </text>
<text text-anchor="start" x="219.4327" y="-745.3" font-family="Arial" font-size="14.00" fill="#666666">[BASE TABLE]</text>
<polygon fill="none" stroke="#000000" points="60,-702.5 60,-732.5 343,-732.5 343,-702.5 60,-702.5"/>
<text text-anchor="start" x="67" y="-713.9" font-family="Arial" font-size="14.00" fill="#000000">id    </text>
<text text-anchor="start" x="112.094" y="-713.9" font-family="Arial" font-size="14.00" fill="#666666">[uuid]</text>
<polygon fill="none" stroke="#000000" points="60,-672.5 60,-702.5 343,-702.5 343,-672.5 60,-672.5"/>
<text text-anchor="start" x="67" y="-683.9" font-family="Arial" font-size="14.00" fill="#000000">parent_template_id    </text>
<text text-anchor="start" x="221.0196" y="-683.9" font-family="Arial" font-size="14.00" fill="#666666">[uuid]</text>
<polygon fill="none" stroke="#000000" points="60,-642.5 60,-672.5 343,-672.5 343,-642.5 60,-642.5"/>
<text text-anchor="start" x="67" y="-653.9" font-family="Arial" font-size="14.00" fill="#000000">template_configuration    </text>
<text text-anchor="start" x="242.7994" y="-653.9" font-family="Arial" font-size="14.00" fill="#666666">[jsonb]</text>
<polygon fill="none" stroke="#000000" points="60,-612.5 60,-642.5 343,-642.5 343,-612.5 60,-612.5"/>
<text text-anchor="start" x="67" y="-623.9" font-family="Arial" font-size="14.00" fill="#000000">contact    </text>
<text text-anchor="start" x="146.3338" y="-623.9" font-family="Arial" font-size="14.00" fill="#666666">[jsonb]</text>
<polygon fill="none" stroke="#000000" points="60,-582.5 60,-612.5 343,-612.5 343,-582.5 60,-582.5"/>
<text text-anchor="start" x="67" y="-593.9" font-family="Arial" font-size="14.00" fill="#000000">title    </text>
<text text-anchor="start" x="122.9818" y="-593.9" font-family="Arial" font-size="14.00" fill="#666666">[text]</text>
<polygon fill="none" stroke="#000000" points="60,-552.5 60,-582.5 343,-582.5 343,-552.5 60,-552.5"/>
<text text-anchor="start" x="67" y="-563.9" font-family="Arial" font-size="14.00" fill="#000000">description    </text>
<text text-anchor="start" x="168.8822" y="-563.9" font-family="Arial" font-size="14.00" fill="#666666">[text]</text>
<polygon fill="none" stroke="#000000" points="60,-522.5 60,-552.5 343,-552.5 343,-522.5 60,-522.5"/>
<text text-anchor="start" x="67" y="-533.9" font-family="Arial" font-size="14.00" fill="#000000">icon_name    </text>
<text text-anchor="start" x="169.6676" y="-533.9" font-family="Arial" font-size="14.00" fill="#666666">[text]</text>
<polygon fill="none" stroke="#000000" points="60,-492.5 60,-522.5 343,-522.5 343,-492.5 60,-492.5"/>
<text text-anchor="start" x="67" y="-503.9" font-family="Arial" font-size="14.00" fill="#000000">published    </text>
<text text-anchor="start" x="161.1136" y="-503.9" font-family="Arial" font-size="14.00" fill="#666666">[boolean]</text>
<polygon fill="none" stroke="#000000" points="60,-462.5 60,-492.5 343,-492.5 343,-462.5 60,-462.5"/>
<text text-anchor="start" x="67" y="-473.9" font-family="Arial" font-size="14.00" fill="#000000">registry_published    </text>
<text text-anchor="start" x="214.7798" y="-473.9" font-family="Arial" font-size="14.00" fill="#666666">[boolean]</text>
<polygon fill="none" stroke="#000000" points="60,-432.5 60,-462.5 343,-462.5 343,-432.5 60,-432.5"/>
<text text-anchor="start" x="67" y="-443.9" font-family="Arial" font-size="14.00" fill="#000000">questionnaire    </text>
<text text-anchor="start" x="185.23" y="-443.9" font-family="Arial" font-size="14.00" fill="#666666">[jsonb]</text>
<polygon fill="none" stroke="#000000" points="60,-402.5 60,-432.5 343,-432.5 343,-402.5 60,-402.5"/>
<text text-anchor="start" x="67" y="-413.9" font-family="Arial" font-size="14.00" fill="#000000">eligibility_criteria    </text>
<text text-anchor="start" x="203.8556" y="-413.9" font-family="Arial" font-size="14.00" fill="#666666">[jsonb]</text>
<polygon fill="none" stroke="#000000" points="60,-372.5 60,-402.5 343,-402.5 343,-372.5 60,-372.5"/>
<text text-anchor="start" x="67" y="-383.9" font-family="Arial" font-size="14.00" fill="#000000">observations    </text>
<text text-anchor="start" x="180.5582" y="-383.9" font-family="Arial" font-size="14.00" fill="#666666">[jsonb]</text>
<polygon fill="none" stroke="#000000" points="60,-342.5 60,-372.5 343,-372.5 343,-342.5 60,-342.5"/>
<text text-anchor="start" x="67" y="-353.9" font-family="Arial" font-size="14.00" fill="#000000">interventions    </text>
<text text-anchor="start" x="180.5554" y="-353.9" font-family="Arial" font-size="14.00" fill="#666666">[jsonb]</text>
<polygon fill="none" stroke="#000000" points="60,-312.5 60,-342.5 343,-342.5 343,-312.5 60,-312.5"/>
<text text-anchor="start" x="67" y="-323.9" font-family="Arial" font-size="14.00" fill="#000000">consent    </text>
<text text-anchor="start" x="150.2258" y="-323.9" font-family="Arial" font-size="14.00" fill="#666666">[jsonb]</text>
<polygon fill="none" stroke="#000000" points="60,-282.5 60,-312.5 343,-312.5 343,-282.5 60,-282.5"/>
<text text-anchor="start" x="67" y="-293.9" font-family="Arial" font-size="14.00" fill="#000000">schedule    </text>
<text text-anchor="start" x="157.2244" y="-293.9" font-family="Arial" font-size="14.00" fill="#666666">[jsonb]</text>
<polygon fill="none" stroke="#000000" points="60,-252.5 60,-282.5 343,-282.5 343,-252.5 60,-252.5"/>
<text text-anchor="start" x="67" y="-263.9" font-family="Arial" font-size="14.00" fill="#000000">report_specification    </text>
<text text-anchor="start" x="222.561" y="-263.9" font-family="Arial" font-size="14.00" fill="#666666">[jsonb]</text>
<polygon fill="none" stroke="#000000" points="60,-222.5 60,-252.5 343,-252.5 343,-222.5 60,-222.5"/>
<text text-anchor="start" x="67" y="-233.9" font-family="Arial" font-size="14.00" fill="#000000">results    </text>
<text text-anchor="start" x="142.4278" y="-233.9" font-family="Arial" font-size="14.00" fill="#666666">[jsonb]</text>
<polygon fill="none" stroke="#000000" points="60,-192.5 60,-222.5 343,-222.5 343,-192.5 60,-192.5"/>
<text text-anchor="start" x="67" y="-203.9" font-family="Arial" font-size="14.00" fill="#000000">created_at    </text>
<text text-anchor="start" x="167.3422" y="-203.9" font-family="Arial" font-size="14.00" fill="#666666">[timestamp with time zone]</text>
<polygon fill="none" stroke="#000000" points="60,-162.5 60,-192.5 343,-192.5 343,-162.5 60,-162.5"/>
<text text-anchor="start" x="66.5344" y="-173.9" font-family="Arial" font-size="14.00" fill="#000000">updated_at    </text>
<text text-anchor="start" x="170.7812" y="-173.9" font-family="Arial" font-size="14.00" fill="#666666">[timestamp with time zone]</text>
<polygon fill="none" stroke="#000000" points="60,-132.5 60,-162.5 343,-162.5 343,-132.5 60,-132.5"/>
<text text-anchor="start" x="67" y="-143.9" font-family="Arial" font-size="14.00" fill="#000000">user_id    </text>
<text text-anchor="start" x="147.1024" y="-143.9" font-family="Arial" font-size="14.00" fill="#666666">[uuid]</text>
<polygon fill="none" stroke="#000000" points="60,-102.5 60,-132.5 343,-132.5 343,-102.5 60,-102.5"/>
<text text-anchor="start" x="67" y="-113.9" font-family="Arial" font-size="14.00" fill="#000000">participation    </text>
<text text-anchor="start" x="176.662" y="-113.9" font-family="Arial" font-size="14.00" fill="#666666">[participation]</text>
<polygon fill="none" stroke="#000000" points="60,-72.5 60,-102.5 343,-102.5 343,-72.5 60,-72.5"/>
<text text-anchor="start" x="67" y="-83.9" font-family="Arial" font-size="14.00" fill="#000000">result_sharing    </text>
<text text-anchor="start" x="189.108" y="-83.9" font-family="Arial" font-size="14.00" fill="#666666">[result_sharing]</text>
<polygon fill="none" stroke="#000000" points="60,-42.5 60,-72.5 343,-72.5 343,-42.5 60,-42.5"/>
<text text-anchor="start" x="67" y="-53.9" font-family="Arial" font-size="14.00" fill="#000000">collaborator_emails    </text>
<text text-anchor="start" x="222.547" y="-53.9" font-family="Arial" font-size="14.00" fill="#666666">[text[]]</text>
</g>
<!-- public.study_subject&#45;&gt;public.study -->
<g id="edge2" class="edge">
<title>public.study_subject:study_id&#45;&gt;public.study:id</title>
<path fill="none" stroke="#000000" d="M399.2297,-1055.3288C339.9154,-1026.3721 416.3581,-717.5 343,-717.5"/>
<polygon fill="#000000" stroke="#000000" points="399.2381,-1055.3306 408.0238,-1061.8928 404.1191,-1056.4153 409,-1057.5 409,-1057.5 409,-1057.5 404.1191,-1056.4153 409.9762,-1053.1072 399.2381,-1055.3306 399.2381,-1055.3306"/>
<text text-anchor="start" x="65.1035" y="-1067.5" font-family="Arial" font-size="10.00" fill="#000000">FOREIGN KEY (study_id) REFERENCES study(id) ON DELETE CASCADE</text>
</g>
<!-- public.user -->
<g id="node4" class="node">
<title>public.user</title>
<polygon fill="#efefef" stroke="transparent" points="447,-432.5 447,-467.5 675,-467.5 675,-432.5 447,-432.5"/>
<polygon fill="none" stroke="#000000" points="447,-432.5 447,-467.5 675,-467.5 675,-432.5 447,-432.5"/>
<text text-anchor="start" x="453.7091" y="-445.3" font-family="Arial Bold" font-size="18.00" fill="#000000">public.user</text>
<text text-anchor="start" x="540.7229" y="-445.3" font-family="Arial" font-size="14.00" fill="#000000">    </text>
<text text-anchor="start" x="574.9277" y="-445.3" font-family="Arial" font-size="14.00" fill="#666666">[BASE TABLE]</text>
<polygon fill="none" stroke="#000000" points="447,-402.5 447,-432.5 675,-432.5 675,-402.5 447,-402.5"/>
<text text-anchor="start" x="454" y="-413.9" font-family="Arial" font-size="14.00" fill="#000000">id    </text>
<text text-anchor="start" x="499.094" y="-413.9" font-family="Arial" font-size="14.00" fill="#666666">[uuid]</text>
<polygon fill="none" stroke="#000000" points="447,-372.5 447,-402.5 675,-402.5 675,-372.5 447,-372.5"/>
<text text-anchor="start" x="454" y="-383.9" font-family="Arial" font-size="14.00" fill="#000000">email    </text>
<text text-anchor="start" x="521.6438" y="-383.9" font-family="Arial" font-size="14.00" fill="#666666">[text]</text>
<polygon fill="none" stroke="#000000" points="447,-342.5 447,-372.5 675,-372.5 675,-342.5 447,-342.5"/>
<text text-anchor="start" x="454" y="-353.9" font-family="Arial" font-size="14.00" fill="#000000">preferences    </text>
<text text-anchor="start" x="562.1122" y="-353.9" font-family="Arial" font-size="14.00" fill="#666666">[jsonb]</text>
</g>
<!-- public.study_subject&#45;&gt;public.user -->
<g id="edge3" class="edge">
<title>public.study_subject:user_id&#45;&gt;public.user:id</title>
<path fill="none" stroke="#000000" d="M722.0137,-1026.8782C787.4327,-1018.151 737.1104,-919.3869 712,-847 649.6686,-667.3146 509.3314,-690.6854 447,-511 433.3809,-471.7395 405.4444,-417.5 447,-417.5"/>
<polygon fill="#000000" stroke="#000000" points="721.9808,-1026.8802 711.7211,-1023.0086 716.9904,-1027.1901 712,-1027.5 712,-1027.5 712,-1027.5 716.9904,-1027.1901 712.2789,-1031.9914 721.9808,-1026.8802 721.9808,-1026.8802"/>
<text text-anchor="start" x="719.2855" y="-1037.5" font-family="Arial" font-size="10.00" fill="#000000">FOREIGN KEY (user_id) REFERENCES &quot;user&quot;(id)</text>
</g>
<!-- public.study_invite -->
<g id="node5" class="node">
<title>public.study_invite</title>
<polygon fill="#efefef" stroke="transparent" points="779,-432.5 779,-467.5 1067,-467.5 1067,-432.5 779,-432.5"/>
<polygon fill="none" stroke="#000000" points="779,-432.5 779,-467.5 1067,-467.5 1067,-432.5 779,-432.5"/>
<text text-anchor="start" x="785.6995" y="-445.3" font-family="Arial Bold" font-size="18.00" fill="#000000">public.study_invite</text>
<text text-anchor="start" x="932.7325" y="-445.3" font-family="Arial" font-size="14.00" fill="#000000">    </text>
<text text-anchor="start" x="966.9373" y="-445.3" font-family="Arial" font-size="14.00" fill="#666666">[BASE TABLE]</text>
<polygon fill="none" stroke="#000000" points="779,-402.5 779,-432.5 1067,-432.5 1067,-402.5 779,-402.5"/>
<text text-anchor="start" x="786" y="-413.9" font-family="Arial" font-size="14.00" fill="#000000">code    </text>
<text text-anchor="start" x="850.5526" y="-413.9" font-family="Arial" font-size="14.00" fill="#666666">[text]</text>
<polygon fill="none" stroke="#000000" points="779,-372.5 779,-402.5 1067,-402.5 1067,-372.5 779,-372.5"/>
<text text-anchor="start" x="786" y="-383.9" font-family="Arial" font-size="14.00" fill="#000000">study_id    </text>
<text text-anchor="start" x="872.3324" y="-383.9" font-family="Arial" font-size="14.00" fill="#666666">[uuid]</text>
<polygon fill="none" stroke="#000000" points="779,-342.5 779,-372.5 1067,-372.5 1067,-342.5 779,-342.5"/>
<text text-anchor="start" x="786" y="-353.9" font-family="Arial" font-size="14.00" fill="#000000">preselected_intervention_ids    </text>
<text text-anchor="start" x="998.3632" y="-353.9" font-family="Arial" font-size="14.00" fill="#666666">[text[]]</text>
</g>
<!-- public.study_subject&#45;&gt;public.study_invite -->
<g id="edge4" class="edge">
<title>public.study_subject:invite_code&#45;&gt;public.study_invite:code</title>
<path fill="none" stroke="#000000" d="M722.1124,-936.0083C818.4104,-905.5078 666.1302,-417.5 779,-417.5"/>
<polygon fill="#000000" stroke="#000000" points="721.8929,-936.0406 711.3433,-933.0482 716.9465,-936.7703 712,-937.5 712,-937.5 712,-937.5 716.9465,-936.7703 712.6567,-941.9518 721.8929,-936.0406 721.8929,-936.0406"/>
<text text-anchor="start" x="719.0385" y="-947.5" font-family="Arial" font-size="10.00" fill="#000000">FOREIGN KEY (invite_code) REFERENCES study_invite(code) ON DELETE CASCADE</text>
</g>
<!-- public.subject_progress -->
<g id="node2" class="node">
<title>public.subject_progress</title>
<polygon fill="#efefef" stroke="transparent" points="396,-1442.5 396,-1477.5 726,-1477.5 726,-1442.5 396,-1442.5"/>
<polygon fill="none" stroke="#000000" points="396,-1442.5 396,-1477.5 726,-1477.5 726,-1442.5 396,-1442.5"/>
<text text-anchor="start" x="402.6962" y="-1455.3" font-family="Arial Bold" font-size="18.00" fill="#000000">public.subject_progress</text>
<text text-anchor="start" x="591.7358" y="-1455.3" font-family="Arial" font-size="14.00" fill="#000000">    </text>
<text text-anchor="start" x="625.9406" y="-1455.3" font-family="Arial" font-size="14.00" fill="#666666">[BASE TABLE]</text>
<polygon fill="none" stroke="#000000" points="396,-1412.5 396,-1442.5 726,-1442.5 726,-1412.5 396,-1412.5"/>
<text text-anchor="start" x="403" y="-1423.9" font-family="Arial" font-size="14.00" fill="#000000">completed_at    </text>
<text text-anchor="start" x="521.2314" y="-1423.9" font-family="Arial" font-size="14.00" fill="#666666">[timestamp with time zone]</text>
<polygon fill="none" stroke="#000000" points="396,-1382.5 396,-1412.5 726,-1412.5 726,-1382.5 396,-1382.5"/>
<text text-anchor="start" x="403" y="-1393.9" font-family="Arial" font-size="14.00" fill="#000000">subject_id    </text>
<text text-anchor="start" x="500.2216" y="-1393.9" font-family="Arial" font-size="14.00" fill="#666666">[uuid]</text>
<polygon fill="none" stroke="#000000" points="396,-1352.5 396,-1382.5 726,-1382.5 726,-1352.5 396,-1352.5"/>
<text text-anchor="start" x="403" y="-1363.9" font-family="Arial" font-size="14.00" fill="#000000">intervention_id    </text>
<text text-anchor="start" x="528.2272" y="-1363.9" font-family="Arial" font-size="14.00" fill="#666666">[text]</text>
<polygon fill="none" stroke="#000000" points="396,-1322.5 396,-1352.5 726,-1352.5 726,-1322.5 396,-1322.5"/>
<text text-anchor="start" x="403" y="-1333.9" font-family="Arial" font-size="14.00" fill="#000000">task_id    </text>
<text text-anchor="start" x="481.5498" y="-1333.9" font-family="Arial" font-size="14.00" fill="#666666">[text]</text>
<polygon fill="none" stroke="#000000" points="396,-1292.5 396,-1322.5 726,-1322.5 726,-1292.5 396,-1292.5"/>
<text text-anchor="start" x="403" y="-1303.9" font-family="Arial" font-size="14.00" fill="#000000">result_type    </text>
<text text-anchor="start" x="505.6662" y="-1303.9" font-family="Arial" font-size="14.00" fill="#666666">[text]</text>
<polygon fill="none" stroke="#000000" points="396,-1262.5 396,-1292.5 726,-1292.5 726,-1262.5 396,-1262.5"/>
<text text-anchor="start" x="403" y="-1273.9" font-family="Arial" font-size="14.00" fill="#000000">result    </text>
<text text-anchor="start" x="471.4278" y="-1273.9" font-family="Arial" font-size="14.00" fill="#666666">[jsonb]</text>
</g>
<!-- public.subject_progress&#45;&gt;public.study_subject -->
<g id="edge1" class="edge">
<title>public.subject_progress:subject_id&#45;&gt;public.study_subject:id</title>
<path fill="none" stroke="#000000" d="M385.9985,-1396.7979C319.532,-1386.9612 345.8288,-1276.2114 396,-1220 490.1249,-1114.5432 617.8751,-1289.4568 712,-1184 740.5591,-1152.0026 754.8889,-1087.5 712,-1087.5"/>
<polygon fill="#000000" stroke="#000000" points="386.0245,-1396.7996 395.6848,-1401.989 391.0123,-1397.1498 396,-1397.5 396,-1397.5 396,-1397.5 391.0123,-1397.1498 396.3152,-1393.011 386.0245,-1396.7996 386.0245,-1396.7996"/>
<text text-anchor="start" x="6.5975" y="-1407.5" font-family="Arial" font-size="10.00" fill="#000000">FOREIGN KEY (subject_id) REFERENCES study_subject(id) ON DELETE CASCADE</text>
</g>
</g>
</svg>
