<?xml version="1.0" encoding="UTF-8" standalone="no"?>
<!DOCTYPE svg PUBLIC "-//W3C//DTD SVG 1.1//EN"
 "http://www.w3.org/Graphics/SVG/1.1/DTD/svg11.dtd">
<!-- Generated by graphviz version 2.40.1 (20161225.0304)
 -->
<!-- Title: public.repo Pages: 1 -->
<svg width="837pt" height="1102pt"
 viewBox="0.00 0.00 836.50 1102.00" xmlns="http://www.w3.org/2000/svg" xmlns:xlink="http://www.w3.org/1999/xlink">
<g id="graph0" class="graph" transform="scale(1 1) rotate(0) translate(4 1098)">
<title>public.repo</title>
<polygon fill="#ffffff" stroke="transparent" points="-4,4 -4,-1098 832.5,-1098 832.5,4 -4,4"/>
<!-- public.repo -->
<g id="node1" class="node">
<title>public.repo</title>
<polygon fill="#efefef" stroke="transparent" points="349,-1012.5 349,-1047.5 578,-1047.5 578,-1012.5 349,-1012.5"/>
<polygon fill="none" stroke="#000000" points="349,-1012.5 349,-1047.5 578,-1047.5 578,-1012.5 349,-1012.5"/>
<text text-anchor="start" x="355.706" y="-1025.3" font-family="Arial Bold" font-size="18.00" fill="#000000">public.repo</text>
<text text-anchor="start" x="443.726" y="-1025.3" font-family="Arial" font-size="14.00" fill="#000000">    </text>
<text text-anchor="start" x="477.9308" y="-1025.3" font-family="Arial" font-size="14.00" fill="#666666">[BASE TABLE]</text>
<polygon fill="none" stroke="#000000" points="349,-982.5 349,-1012.5 578,-1012.5 578,-982.5 349,-982.5"/>
<text text-anchor="start" x="356" y="-993.9" font-family="Arial" font-size="14.00" fill="#000000">project_id </text>
<text text-anchor="start" x="420.568" y="-993.9" font-family="Arial" font-size="14.00" fill="#666666">[text]</text>
<polygon fill="none" stroke="#000000" points="349,-952.5 349,-982.5 578,-982.5 578,-952.5 349,-952.5"/>
<text text-anchor="start" x="356" y="-963.9" font-family="Arial" font-size="14.00" fill="#000000">user_id </text>
<text text-anchor="start" x="405.7882" y="-963.9" font-family="Arial" font-size="14.00" fill="#666666">[uuid]</text>
<polygon fill="none" stroke="#000000" points="349,-922.5 349,-952.5 578,-952.5 578,-922.5 349,-922.5"/>
<text text-anchor="start" x="356" y="-933.9" font-family="Arial" font-size="14.00" fill="#000000">study_id </text>
<text text-anchor="start" x="412.0182" y="-933.9" font-family="Arial" font-size="14.00" fill="#666666">[uuid]</text>
<polygon fill="none" stroke="#000000" points="349,-892.5 349,-922.5 578,-922.5 578,-892.5 349,-892.5"/>
<text text-anchor="start" x="356" y="-903.9" font-family="Arial" font-size="14.00" fill="#000000">provider </text>
<text text-anchor="start" x="410.4488" y="-903.9" font-family="Arial" font-size="14.00" fill="#666666">[git_provider]</text>
<polygon fill="none" stroke="#000000" stroke-width="3" points="347,-891.5 347,-1049.5 579,-1049.5 579,-891.5 347,-891.5"/>
</g>
<!-- public.user -->
<g id="node2" class="node">
<title>public.user</title>
<polygon fill="#efefef" stroke="transparent" points="170,-432.5 170,-467.5 398,-467.5 398,-432.5 170,-432.5"/>
<polygon fill="none" stroke="#000000" points="170,-432.5 170,-467.5 398,-467.5 398,-432.5 170,-432.5"/>
<text text-anchor="start" x="176.7091" y="-445.3" font-family="Arial Bold" font-size="18.00" fill="#000000">public.user</text>
<text text-anchor="start" x="263.7229" y="-445.3" font-family="Arial" font-size="14.00" fill="#000000">    </text>
<text text-anchor="start" x="297.9277" y="-445.3" font-family="Arial" font-size="14.00" fill="#666666">[BASE TABLE]</text>
<polygon fill="none" stroke="#000000" points="170,-402.5 170,-432.5 398,-432.5 398,-402.5 170,-402.5"/>
<text text-anchor="start" x="177" y="-413.9" font-family="Arial" font-size="14.00" fill="#000000">id    </text>
<text text-anchor="start" x="222.094" y="-413.9" font-family="Arial" font-size="14.00" fill="#666666">[uuid]</text>
<polygon fill="none" stroke="#000000" points="170,-372.5 170,-402.5 398,-402.5 398,-372.5 170,-372.5"/>
<text text-anchor="start" x="177" y="-383.9" font-family="Arial" font-size="14.00" fill="#000000">email    </text>
<text text-anchor="start" x="244.6438" y="-383.9" font-family="Arial" font-size="14.00" fill="#666666">[text]</text>
<polygon fill="none" stroke="#000000" points="170,-342.5 170,-372.5 398,-372.5 398,-342.5 170,-342.5"/>
<text text-anchor="start" x="177" y="-353.9" font-family="Arial" font-size="14.00" fill="#000000">preferences    </text>
<text text-anchor="start" x="285.1122" y="-353.9" font-family="Arial" font-size="14.00" fill="#666666">[jsonb]</text>
</g>
<!-- public.repo&#45;&gt;public.user -->
<g id="edge1" class="edge">
<title>public.repo:user_id&#45;&gt;public.user:id</title>
<path fill="none" stroke="#000000" d="M338.9795,-966.0183C243.7372,-934.7033 516.9916,-417.5 398,-417.5"/>
<polygon fill="#000000" stroke="#000000" points="339.1076,-966.0372 348.3417,-971.9516 344.0538,-966.7686 349,-967.5 349,-967.5 349,-967.5 344.0538,-966.7686 349.6583,-963.0484 339.1076,-966.0372 339.1076,-966.0372"/>
<text text-anchor="start" x="7.0045" y="-977.5" font-family="Arial" font-size="10.00" fill="#000000">FOREIGN KEY (user_id) REFERENCES &quot;user&quot;(id) ON DELETE CASCADE</text>
</g>
<!-- public.study -->
<g id="node3" class="node">
<title>public.study</title>
<polygon fill="#efefef" stroke="transparent" points="503,-732.5 503,-767.5 786,-767.5 786,-732.5 503,-732.5"/>
<polygon fill="none" stroke="#000000" points="503,-732.5 503,-767.5 786,-767.5 786,-732.5 503,-732.5"/>
<text text-anchor="start" x="533.2041" y="-745.3" font-family="Arial Bold" font-size="18.00" fill="#000000">public.study</text>
<text text-anchor="start" x="628.2279" y="-745.3" font-family="Arial" font-size="14.00" fill="#000000">    </text>
<text text-anchor="start" x="662.4327" y="-745.3" font-family="Arial" font-size="14.00" fill="#666666">[BASE TABLE]</text>
<polygon fill="none" stroke="#000000" points="503,-702.5 503,-732.5 786,-732.5 786,-702.5 503,-702.5"/>
<text text-anchor="start" x="510" y="-713.9" font-family="Arial" font-size="14.00" fill="#000000">id    </text>
<text text-anchor="start" x="555.094" y="-713.9" font-family="Arial" font-size="14.00" fill="#666666">[uuid]</text>
<polygon fill="none" stroke="#000000" points="503,-672.5 503,-702.5 786,-702.5 786,-672.5 503,-672.5"/>
<text text-anchor="start" x="510" y="-683.9" font-family="Arial" font-size="14.00" fill="#000000">parent_template_id    </text>
<text text-anchor="start" x="664.0196" y="-683.9" font-family="Arial" font-size="14.00" fill="#666666">[uuid]</text>
<polygon fill="none" stroke="#000000" points="503,-642.5 503,-672.5 786,-672.5 786,-642.5 503,-642.5"/>
<text text-anchor="start" x="510" y="-653.9" font-family="Arial" font-size="14.00" fill="#000000">template_configuration    </text>
<text text-anchor="start" x="685.7994" y="-653.9" font-family="Arial" font-size="14.00" fill="#666666">[jsonb]</text>
<polygon fill="none" stroke="#000000" points="503,-612.5 503,-642.5 786,-642.5 786,-612.5 503,-612.5"/>
<text text-anchor="start" x="510" y="-623.9" font-family="Arial" font-size="14.00" fill="#000000">contact    </text>
<text text-anchor="start" x="589.3338" y="-623.9" font-family="Arial" font-size="14.00" fill="#666666">[jsonb]</text>
<polygon fill="none" stroke="#000000" points="503,-582.5 503,-612.5 786,-612.5 786,-582.5 503,-582.5"/>
<text text-anchor="start" x="510" y="-593.9" font-family="Arial" font-size="14.00" fill="#000000">title    </text>
<text text-anchor="start" x="565.9818" y="-593.9" font-family="Arial" font-size="14.00" fill="#666666">[text]</text>
<polygon fill="none" stroke="#000000" points="503,-552.5 503,-582.5 786,-582.5 786,-552.5 503,-552.5"/>
<text text-anchor="start" x="510" y="-563.9" font-family="Arial" font-size="14.00" fill="#000000">description    </text>
<text text-anchor="start" x="611.8822" y="-563.9" font-family="Arial" font-size="14.00" fill="#666666">[text]</text>
<polygon fill="none" stroke="#000000" points="503,-522.5 503,-552.5 786,-552.5 786,-522.5 503,-522.5"/>
<text text-anchor="start" x="510" y="-533.9" font-family="Arial" font-size="14.00" fill="#000000">icon_name    </text>
<text text-anchor="start" x="612.6676" y="-533.9" font-family="Arial" font-size="14.00" fill="#666666">[text]</text>
<polygon fill="none" stroke="#000000" points="503,-492.5 503,-522.5 786,-522.5 786,-492.5 503,-492.5"/>
<text text-anchor="start" x="510" y="-503.9" font-family="Arial" font-size="14.00" fill="#000000">published    </text>
<text text-anchor="start" x="604.1136" y="-503.9" font-family="Arial" font-size="14.00" fill="#666666">[boolean]</text>
<polygon fill="none" stroke="#000000" points="503,-462.5 503,-492.5 786,-492.5 786,-462.5 503,-462.5"/>
<text text-anchor="start" x="510" y="-473.9" font-family="Arial" font-size="14.00" fill="#000000">registry_published    </text>
<text text-anchor="start" x="657.7798" y="-473.9" font-family="Arial" font-size="14.00" fill="#666666">[boolean]</text>
<polygon fill="none" stroke="#000000" points="503,-432.5 503,-462.5 786,-462.5 786,-432.5 503,-432.5"/>
<text text-anchor="start" x="510" y="-443.9" font-family="Arial" font-size="14.00" fill="#000000">questionnaire    </text>
<text text-anchor="start" x="628.23" y="-443.9" font-family="Arial" font-size="14.00" fill="#666666">[jsonb]</text>
<polygon fill="none" stroke="#000000" points="503,-402.5 503,-432.5 786,-432.5 786,-402.5 503,-402.5"/>
<text text-anchor="start" x="510" y="-413.9" font-family="Arial" font-size="14.00" fill="#000000">eligibility_criteria    </text>
<text text-anchor="start" x="646.8556" y="-413.9" font-family="Arial" font-size="14.00" fill="#666666">[jsonb]</text>
<polygon fill="none" stroke="#000000" points="503,-372.5 503,-402.5 786,-402.5 786,-372.5 503,-372.5"/>
<text text-anchor="start" x="510" y="-383.9" font-family="Arial" font-size="14.00" fill="#000000">observations    </text>
<text text-anchor="start" x="623.5582" y="-383.9" font-family="Arial" font-size="14.00" fill="#666666">[jsonb]</text>
<polygon fill="none" stroke="#000000" points="503,-342.5 503,-372.5 786,-372.5 786,-342.5 503,-342.5"/>
<text text-anchor="start" x="510" y="-353.9" font-family="Arial" font-size="14.00" fill="#000000">interventions    </text>
<text text-anchor="start" x="623.5554" y="-353.9" font-family="Arial" font-size="14.00" fill="#666666">[jsonb]</text>
<polygon fill="none" stroke="#000000" points="503,-312.5 503,-342.5 786,-342.5 786,-312.5 503,-312.5"/>
<text text-anchor="start" x="510" y="-323.9" font-family="Arial" font-size="14.00" fill="#000000">consent    </text>
<text text-anchor="start" x="593.2258" y="-323.9" font-family="Arial" font-size="14.00" fill="#666666">[jsonb]</text>
<polygon fill="none" stroke="#000000" points="503,-282.5 503,-312.5 786,-312.5 786,-282.5 503,-282.5"/>
<text text-anchor="start" x="510" y="-293.9" font-family="Arial" font-size="14.00" fill="#000000">schedule    </text>
<text text-anchor="start" x="600.2244" y="-293.9" font-family="Arial" font-size="14.00" fill="#666666">[jsonb]</text>
<polygon fill="none" stroke="#000000" points="503,-252.5 503,-282.5 786,-282.5 786,-252.5 503,-252.5"/>
<text text-anchor="start" x="510" y="-263.9" font-family="Arial" font-size="14.00" fill="#000000">report_specification    </text>
<text text-anchor="start" x="665.561" y="-263.9" font-family="Arial" font-size="14.00" fill="#666666">[jsonb]</text>
<polygon fill="none" stroke="#000000" points="503,-222.5 503,-252.5 786,-252.5 786,-222.5 503,-222.5"/>
<text text-anchor="start" x="510" y="-233.9" font-family="Arial" font-size="14.00" fill="#000000">results    </text>
<text text-anchor="start" x="585.4278" y="-233.9" font-family="Arial" font-size="14.00" fill="#666666">[jsonb]</text>
<polygon fill="none" stroke="#000000" points="503,-192.5 503,-222.5 786,-222.5 786,-192.5 503,-192.5"/>
<text text-anchor="start" x="510" y="-203.9" font-family="Arial" font-size="14.00" fill="#000000">created_at    </text>
<text text-anchor="start" x="610.3422" y="-203.9" font-family="Arial" font-size="14.00" fill="#666666">[timestamp with time zone]</text>
<polygon fill="none" stroke="#000000" points="503,-162.5 503,-192.5 786,-192.5 786,-162.5 503,-162.5"/>
<text text-anchor="start" x="509.5344" y="-173.9" font-family="Arial" font-size="14.00" fill="#000000">updated_at    </text>
<text text-anchor="start" x="613.7812" y="-173.9" font-family="Arial" font-size="14.00" fill="#666666">[timestamp with time zone]</text>
<polygon fill="none" stroke="#000000" points="503,-132.5 503,-162.5 786,-162.5 786,-132.5 503,-132.5"/>
<text text-anchor="start" x="510" y="-143.9" font-family="Arial" font-size="14.00" fill="#000000">user_id    </text>
<text text-anchor="start" x="590.1024" y="-143.9" font-family="Arial" font-size="14.00" fill="#666666">[uuid]</text>
<polygon fill="none" stroke="#000000" points="503,-102.5 503,-132.5 786,-132.5 786,-102.5 503,-102.5"/>
<text text-anchor="start" x="510" y="-113.9" font-family="Arial" font-size="14.00" fill="#000000">participation    </text>
<text text-anchor="start" x="619.662" y="-113.9" font-family="Arial" font-size="14.00" fill="#666666">[participation]</text>
<polygon fill="none" stroke="#000000" points="503,-72.5 503,-102.5 786,-102.5 786,-72.5 503,-72.5"/>
<text text-anchor="start" x="510" y="-83.9" font-family="Arial" font-size="14.00" fill="#000000">result_sharing    </text>
<text text-anchor="start" x="632.108" y="-83.9" font-family="Arial" font-size="14.00" fill="#666666">[result_sharing]</text>
<polygon fill="none" stroke="#000000" points="503,-42.5 503,-72.5 786,-72.5 786,-42.5 503,-42.5"/>
<text text-anchor="start" x="510" y="-53.9" font-family="Arial" font-size="14.00" fill="#000000">collaborator_emails    </text>
<text text-anchor="start" x="665.547" y="-53.9" font-family="Arial" font-size="14.00" fill="#666666">[text[]]</text>
</g>
<!-- public.repo&#45;&gt;public.study -->
<g id="edge2" class="edge">
<title>public.repo:study_id&#45;&gt;public.study:id</title>
<path fill="none" stroke="#000000" d="M588.1477,-935.9582C614.5252,-926.6871 597.3294,-877.7189 578,-847 558.3084,-815.7054 522.6916,-842.2946 503,-811 480.8686,-775.8281 461.4444,-717.5 503,-717.5"/>
<polygon fill="#000000" stroke="#000000" points="587.8865,-935.9978 577.324,-933.0511 582.9433,-936.7489 578,-937.5 578,-937.5 578,-937.5 582.9433,-936.7489 578.676,-941.9489 587.8865,-935.9978 587.8865,-935.9978"/>
<text text-anchor="start" x="585.3845" y="-947.5" font-family="Arial" font-size="10.00" fill="#000000">FOREIGN KEY (study_id) REFERENCES study(id)</text>
</g>
</g>
</svg>
