<?xml version="1.0" encoding="UTF-8" standalone="no"?>
<!DOCTYPE svg PUBLIC "-//W3C//DTD SVG 1.1//EN"
 "http://www.w3.org/Graphics/SVG/1.1/DTD/svg11.dtd">
<!-- Generated by graphviz version 2.40.1 (20161225.0304)
 -->
<!-- Title: public.tag Pages: 1 -->
<svg width="519pt" height="412pt"
 viewBox="0.00 0.00 518.50 412.00" xmlns="http://www.w3.org/2000/svg" xmlns:xlink="http://www.w3.org/1999/xlink">
<g id="graph0" class="graph" transform="scale(1 1) rotate(0) translate(4 408)">
<title>public.tag</title>
<polygon fill="#ffffff" stroke="transparent" points="-4,4 -4,-408 514.5,-408 514.5,4 -4,4"/>
<!-- public.tag -->
<g id="node1" class="node">
<title>public.tag</title>
<polygon fill="#efefef" stroke="transparent" points="70.5,-105.5 70.5,-140.5 288.5,-140.5 288.5,-105.5 70.5,-105.5"/>
<polygon fill="none" stroke="#000000" points="70.5,-105.5 70.5,-140.5 288.5,-140.5 288.5,-105.5 70.5,-105.5"/>
<text text-anchor="start" x="77.2041" y="-118.3" font-family="Arial Bold" font-size="18.00" fill="#000000">public.tag</text>
<text text-anchor="start" x="154.2279" y="-118.3" font-family="Arial" font-size="14.00" fill="#000000">    </text>
<text text-anchor="start" x="188.4327" y="-118.3" font-family="Arial" font-size="14.00" fill="#666666">[BASE TABLE]</text>
<polygon fill="none" stroke="#000000" points="70.5,-75.5 70.5,-105.5 288.5,-105.5 288.5,-75.5 70.5,-75.5"/>
<text text-anchor="start" x="77.5" y="-86.9" font-family="Arial" font-size="14.00" fill="#000000">id </text>
<text text-anchor="start" x="92.2798" y="-86.9" font-family="Arial" font-size="14.00" fill="#666666">[uuid]</text>
<polygon fill="none" stroke="#000000" points="70.5,-45.5 70.5,-75.5 288.5,-75.5 288.5,-45.5 70.5,-45.5"/>
<text text-anchor="start" x="77.5" y="-56.9" font-family="Arial" font-size="14.00" fill="#000000">name </text>
<text text-anchor="start" x="116.399" y="-56.9" font-family="Arial" font-size="14.00" fill="#666666">[text]</text>
<polygon fill="none" stroke="#000000" stroke-width="3" points="69,-44.5 69,-142.5 290,-142.5 290,-44.5 69,-44.5"/>
</g>
<!-- public.study_tag -->
<g id="node2" class="node">
<title>public.study_tag</title>
<polygon fill="#efefef" stroke="transparent" points="43.5,-325.5 43.5,-360.5 314.5,-360.5 314.5,-325.5 43.5,-325.5"/>
<polygon fill="none" stroke="#000000" points="43.5,-325.5 43.5,-360.5 314.5,-360.5 314.5,-325.5 43.5,-325.5"/>
<text text-anchor="start" x="50.1937" y="-338.3" font-family="Arial Bold" font-size="18.00" fill="#000000">public.study_tag</text>
<text text-anchor="start" x="180.2383" y="-338.3" font-family="Arial" font-size="14.00" fill="#000000">    </text>
<text text-anchor="start" x="214.4431" y="-338.3" font-family="Arial" font-size="14.00" fill="#666666">[BASE TABLE]</text>
<polygon fill="none" stroke="#000000" points="43.5,-295.5 43.5,-325.5 314.5,-325.5 314.5,-295.5 43.5,-295.5"/>
<text text-anchor="start" x="50.5" y="-306.9" font-family="Arial" font-size="14.00" fill="#000000">study_id    </text>
<text text-anchor="start" x="136.8324" y="-306.9" font-family="Arial" font-size="14.00" fill="#666666">[uuid]</text>
<polygon fill="none" stroke="#000000" points="43.5,-265.5 43.5,-295.5 314.5,-295.5 314.5,-265.5 43.5,-265.5"/>
<text text-anchor="start" x="50.5" y="-276.9" font-family="Arial" font-size="14.00" fill="#000000">tag_id    </text>
<text text-anchor="start" x="122.8324" y="-276.9" font-family="Arial" font-size="14.00" fill="#666666">[uuid]</text>
</g>
<!-- public.study_tag&#45;&gt;public.tag -->
<g id="edge1" class="edge">
<title>public.study_tag:tag_id&#45;&gt;public.tag:id</title>
<path fill="none" stroke="#000000" d="M178.5749,-255.3639C169.4899,-209.7503 96.0133,-236.8154 70.5,-187 50.9491,-148.8264 27.6111,-90.5 70.5,-90.5"/>
<polygon fill="#000000" stroke="#000000" points="178.591,-255.5414 175.0186,-265.9091 179.0455,-260.5207 179.5,-265.5 179.5,-265.5 179.5,-265.5 179.0455,-260.5207 183.9814,-265.0909 178.591,-255.5414 178.591,-255.5414"/>
<text text-anchor="start" x="186.6035" y="-275.5" font-family="Arial" font-size="10.00" fill="#000000">FOREIGN KEY (tag_id) REFERENCES tag(id) ON DELETE CASCADE</text>
</g>
</g>
</svg>
