<?xml version="1.0" encoding="UTF-8" standalone="no"?>
<!DOCTYPE svg PUBLIC "-//W3C//DTD SVG 1.1//EN"
 "http://www.w3.org/Graphics/SVG/1.1/DTD/svg11.dtd">
<!-- Generated by graphviz version 2.40.1 (20161225.0304)
 -->
<!-- Title: public.user Pages: 1 -->
<svg width="1195pt" height="1072pt"
 viewBox="0.00 0.00 1194.50 1072.00" xmlns="http://www.w3.org/2000/svg" xmlns:xlink="http://www.w3.org/1999/xlink">
<g id="graph0" class="graph" transform="scale(1 1) rotate(0) translate(4 1068)">
<title>public.user</title>
<polygon fill="#ffffff" stroke="transparent" points="-4,4 -4,-1068 1190.5,-1068 1190.5,4 -4,4"/>
<!-- public.user -->
<g id="node1" class="node">
<title>public.user</title>
<polygon fill="#efefef" stroke="transparent" points="468.5,-135.5 468.5,-170.5 696.5,-170.5 696.5,-135.5 468.5,-135.5"/>
<polygon fill="none" stroke="#000000" points="468.5,-135.5 468.5,-170.5 696.5,-170.5 696.5,-135.5 468.5,-135.5"/>
<text text-anchor="start" x="475.2091" y="-148.3" font-family="Arial Bold" font-size="18.00" fill="#000000">public.user</text>
<text text-anchor="start" x="562.2229" y="-148.3" font-family="Arial" font-size="14.00" fill="#000000">    </text>
<text text-anchor="start" x="596.4277" y="-148.3" font-family="Arial" font-size="14.00" fill="#666666">[BASE TABLE]</text>
<polygon fill="none" stroke="#000000" points="468.5,-105.5 468.5,-135.5 696.5,-135.5 696.5,-105.5 468.5,-105.5"/>
<text text-anchor="start" x="475.5" y="-116.9" font-family="Arial" font-size="14.00" fill="#000000">id </text>
<text text-anchor="start" x="490.2798" y="-116.9" font-family="Arial" font-size="14.00" fill="#666666">[uuid]</text>
<polygon fill="none" stroke="#000000" points="468.5,-75.5 468.5,-105.5 696.5,-105.5 696.5,-75.5 468.5,-75.5"/>
<text text-anchor="start" x="475.5" y="-86.9" font-family="Arial" font-size="14.00" fill="#000000">email </text>
<text text-anchor="start" x="512.8296" y="-86.9" font-family="Arial" font-size="14.00" fill="#666666">[text]</text>
<polygon fill="none" stroke="#000000" points="468.5,-45.5 468.5,-75.5 696.5,-75.5 696.5,-45.5 468.5,-45.5"/>
<text text-anchor="start" x="475.5" y="-56.9" font-family="Arial" font-size="14.00" fill="#000000">preferences </text>
<text text-anchor="start" x="553.298" y="-56.9" font-family="Arial" font-size="14.00" fill="#666666">[jsonb]</text>
<polygon fill="none" stroke="#000000" stroke-width="3" points="467,-44.5 467,-172.5 698,-172.5 698,-44.5 467,-44.5"/>
</g>
<!-- public.study -->
<g id="node2" class="node">
<title>public.study</title>
<polygon fill="#efefef" stroke="transparent" points="43.5,-985.5 43.5,-1020.5 326.5,-1020.5 326.5,-985.5 43.5,-985.5"/>
<polygon fill="none" stroke="#000000" points="43.5,-985.5 43.5,-1020.5 326.5,-1020.5 326.5,-985.5 43.5,-985.5"/>
<text text-anchor="start" x="73.7041" y="-998.3" font-family="Arial Bold" font-size="18.00" fill="#000000">public.study</text>
<text text-anchor="start" x="168.7279" y="-998.3" font-family="Arial" font-size="14.00" fill="#000000">    </text>
<text text-anchor="start" x="202.9327" y="-998.3" font-family="Arial" font-size="14.00" fill="#666666">[BASE TABLE]</text>
<polygon fill="none" stroke="#000000" points="43.5,-955.5 43.5,-985.5 326.5,-985.5 326.5,-955.5 43.5,-955.5"/>
<text text-anchor="start" x="50.5" y="-966.9" font-family="Arial" font-size="14.00" fill="#000000">id    </text>
<text text-anchor="start" x="95.594" y="-966.9" font-family="Arial" font-size="14.00" fill="#666666">[uuid]</text>
<polygon fill="none" stroke="#000000" points="43.5,-925.5 43.5,-955.5 326.5,-955.5 326.5,-925.5 43.5,-925.5"/>
<text text-anchor="start" x="50.5" y="-936.9" font-family="Arial" font-size="14.00" fill="#000000">parent_template_id    </text>
<text text-anchor="start" x="204.5196" y="-936.9" font-family="Arial" font-size="14.00" fill="#666666">[uuid]</text>
<polygon fill="none" stroke="#000000" points="43.5,-895.5 43.5,-925.5 326.5,-925.5 326.5,-895.5 43.5,-895.5"/>
<text text-anchor="start" x="50.5" y="-906.9" font-family="Arial" font-size="14.00" fill="#000000">template_configuration    </text>
<text text-anchor="start" x="226.2994" y="-906.9" font-family="Arial" font-size="14.00" fill="#666666">[jsonb]</text>
<polygon fill="none" stroke="#000000" points="43.5,-865.5 43.5,-895.5 326.5,-895.5 326.5,-865.5 43.5,-865.5"/>
<text text-anchor="start" x="50.5" y="-876.9" font-family="Arial" font-size="14.00" fill="#000000">contact    </text>
<text text-anchor="start" x="129.8338" y="-876.9" font-family="Arial" font-size="14.00" fill="#666666">[jsonb]</text>
<polygon fill="none" stroke="#000000" points="43.5,-835.5 43.5,-865.5 326.5,-865.5 326.5,-835.5 43.5,-835.5"/>
<text text-anchor="start" x="50.5" y="-846.9" font-family="Arial" font-size="14.00" fill="#000000">title    </text>
<text text-anchor="start" x="106.4818" y="-846.9" font-family="Arial" font-size="14.00" fill="#666666">[text]</text>
<polygon fill="none" stroke="#000000" points="43.5,-805.5 43.5,-835.5 326.5,-835.5 326.5,-805.5 43.5,-805.5"/>
<text text-anchor="start" x="50.5" y="-816.9" font-family="Arial" font-size="14.00" fill="#000000">description    </text>
<text text-anchor="start" x="152.3822" y="-816.9" font-family="Arial" font-size="14.00" fill="#666666">[text]</text>
<polygon fill="none" stroke="#000000" points="43.5,-775.5 43.5,-805.5 326.5,-805.5 326.5,-775.5 43.5,-775.5"/>
<text text-anchor="start" x="50.5" y="-786.9" font-family="Arial" font-size="14.00" fill="#000000">icon_name    </text>
<text text-anchor="start" x="153.1676" y="-786.9" font-family="Arial" font-size="14.00" fill="#666666">[text]</text>
<polygon fill="none" stroke="#000000" points="43.5,-745.5 43.5,-775.5 326.5,-775.5 326.5,-745.5 43.5,-745.5"/>
<text text-anchor="start" x="50.5" y="-756.9" font-family="Arial" font-size="14.00" fill="#000000">published    </text>
<text text-anchor="start" x="144.6136" y="-756.9" font-family="Arial" font-size="14.00" fill="#666666">[boolean]</text>
<polygon fill="none" stroke="#000000" points="43.5,-715.5 43.5,-745.5 326.5,-745.5 326.5,-715.5 43.5,-715.5"/>
<text text-anchor="start" x="50.5" y="-726.9" font-family="Arial" font-size="14.00" fill="#000000">registry_published    </text>
<text text-anchor="start" x="198.2798" y="-726.9" font-family="Arial" font-size="14.00" fill="#666666">[boolean]</text>
<polygon fill="none" stroke="#000000" points="43.5,-685.5 43.5,-715.5 326.5,-715.5 326.5,-685.5 43.5,-685.5"/>
<text text-anchor="start" x="50.5" y="-696.9" font-family="Arial" font-size="14.00" fill="#000000">questionnaire    </text>
<text text-anchor="start" x="168.73" y="-696.9" font-family="Arial" font-size="14.00" fill="#666666">[jsonb]</text>
<polygon fill="none" stroke="#000000" points="43.5,-655.5 43.5,-685.5 326.5,-685.5 326.5,-655.5 43.5,-655.5"/>
<text text-anchor="start" x="50.5" y="-666.9" font-family="Arial" font-size="14.00" fill="#000000">eligibility_criteria    </text>
<text text-anchor="start" x="187.3556" y="-666.9" font-family="Arial" font-size="14.00" fill="#666666">[jsonb]</text>
<polygon fill="none" stroke="#000000" points="43.5,-625.5 43.5,-655.5 326.5,-655.5 326.5,-625.5 43.5,-625.5"/>
<text text-anchor="start" x="50.5" y="-636.9" font-family="Arial" font-size="14.00" fill="#000000">observations    </text>
<text text-anchor="start" x="164.0582" y="-636.9" font-family="Arial" font-size="14.00" fill="#666666">[jsonb]</text>
<polygon fill="none" stroke="#000000" points="43.5,-595.5 43.5,-625.5 326.5,-625.5 326.5,-595.5 43.5,-595.5"/>
<text text-anchor="start" x="50.5" y="-606.9" font-family="Arial" font-size="14.00" fill="#000000">interventions    </text>
<text text-anchor="start" x="164.0554" y="-606.9" font-family="Arial" font-size="14.00" fill="#666666">[jsonb]</text>
<polygon fill="none" stroke="#000000" points="43.5,-565.5 43.5,-595.5 326.5,-595.5 326.5,-565.5 43.5,-565.5"/>
<text text-anchor="start" x="50.5" y="-576.9" font-family="Arial" font-size="14.00" fill="#000000">consent    </text>
<text text-anchor="start" x="133.7258" y="-576.9" font-family="Arial" font-size="14.00" fill="#666666">[jsonb]</text>
<polygon fill="none" stroke="#000000" points="43.5,-535.5 43.5,-565.5 326.5,-565.5 326.5,-535.5 43.5,-535.5"/>
<text text-anchor="start" x="50.5" y="-546.9" font-family="Arial" font-size="14.00" fill="#000000">schedule    </text>
<text text-anchor="start" x="140.7244" y="-546.9" font-family="Arial" font-size="14.00" fill="#666666">[jsonb]</text>
<polygon fill="none" stroke="#000000" points="43.5,-505.5 43.5,-535.5 326.5,-535.5 326.5,-505.5 43.5,-505.5"/>
<text text-anchor="start" x="50.5" y="-516.9" font-family="Arial" font-size="14.00" fill="#000000">report_specification    </text>
<text text-anchor="start" x="206.061" y="-516.9" font-family="Arial" font-size="14.00" fill="#666666">[jsonb]</text>
<polygon fill="none" stroke="#000000" points="43.5,-475.5 43.5,-505.5 326.5,-505.5 326.5,-475.5 43.5,-475.5"/>
<text text-anchor="start" x="50.5" y="-486.9" font-family="Arial" font-size="14.00" fill="#000000">results    </text>
<text text-anchor="start" x="125.9278" y="-486.9" font-family="Arial" font-size="14.00" fill="#666666">[jsonb]</text>
<polygon fill="none" stroke="#000000" points="43.5,-445.5 43.5,-475.5 326.5,-475.5 326.5,-445.5 43.5,-445.5"/>
<text text-anchor="start" x="50.5" y="-456.9" font-family="Arial" font-size="14.00" fill="#000000">created_at    </text>
<text text-anchor="start" x="150.8422" y="-456.9" font-family="Arial" font-size="14.00" fill="#666666">[timestamp with time zone]</text>
<polygon fill="none" stroke="#000000" points="43.5,-415.5 43.5,-445.5 326.5,-445.5 326.5,-415.5 43.5,-415.5"/>
<text text-anchor="start" x="50.0344" y="-426.9" font-family="Arial" font-size="14.00" fill="#000000">updated_at    </text>
<text text-anchor="start" x="154.2812" y="-426.9" font-family="Arial" font-size="14.00" fill="#666666">[timestamp with time zone]</text>
<polygon fill="none" stroke="#000000" points="43.5,-385.5 43.5,-415.5 326.5,-415.5 326.5,-385.5 43.5,-385.5"/>
<text text-anchor="start" x="50.5" y="-396.9" font-family="Arial" font-size="14.00" fill="#000000">user_id    </text>
<text text-anchor="start" x="130.6024" y="-396.9" font-family="Arial" font-size="14.00" fill="#666666">[uuid]</text>
<polygon fill="none" stroke="#000000" points="43.5,-355.5 43.5,-385.5 326.5,-385.5 326.5,-355.5 43.5,-355.5"/>
<text text-anchor="start" x="50.5" y="-366.9" font-family="Arial" font-size="14.00" fill="#000000">participation    </text>
<text text-anchor="start" x="160.162" y="-366.9" font-family="Arial" font-size="14.00" fill="#666666">[participation]</text>
<polygon fill="none" stroke="#000000" points="43.5,-325.5 43.5,-355.5 326.5,-355.5 326.5,-325.5 43.5,-325.5"/>
<text text-anchor="start" x="50.5" y="-336.9" font-family="Arial" font-size="14.00" fill="#000000">result_sharing    </text>
<text text-anchor="start" x="172.608" y="-336.9" font-family="Arial" font-size="14.00" fill="#666666">[result_sharing]</text>
<polygon fill="none" stroke="#000000" points="43.5,-295.5 43.5,-325.5 326.5,-325.5 326.5,-295.5 43.5,-295.5"/>
<text text-anchor="start" x="50.5" y="-306.9" font-family="Arial" font-size="14.00" fill="#000000">collaborator_emails    </text>
<text text-anchor="start" x="206.047" y="-306.9" font-family="Arial" font-size="14.00" fill="#666666">[text[]]</text>
</g>
<!-- public.study&#45;&gt;public.user -->
<g id="edge1" class="edge">
<title>public.study:user_id&#45;&gt;public.user:id</title>
<path fill="none" stroke="#000000" d="M336.5102,-399.8021C390.8558,-391.5403 347.8981,-311.6598 377.5,-253 409.6853,-189.221 397.0601,-120.5 468.5,-120.5"/>
<polygon fill="#000000" stroke="#000000" points="336.4758,-399.8044 326.187,-396.0109 331.4879,-400.1522 326.5,-400.5 326.5,-400.5 326.5,-400.5 331.4879,-400.1522 326.813,-404.9891 336.4758,-399.8044 336.4758,-399.8044"/>
<text text-anchor="start" x="333.7855" y="-410.5" font-family="Arial" font-size="10.00" fill="#000000">FOREIGN KEY (user_id) REFERENCES &quot;user&quot;(id)</text>
</g>
<!-- public.study_subject -->
<g id="node3" class="node">
<title>public.study_subject</title>
<polygon fill="#efefef" stroke="transparent" points="430.5,-745.5 430.5,-780.5 733.5,-780.5 733.5,-745.5 430.5,-745.5"/>
<polygon fill="none" stroke="#000000" points="430.5,-745.5 430.5,-780.5 733.5,-780.5 733.5,-745.5 430.5,-745.5"/>
<text text-anchor="start" x="437.1935" y="-758.3" font-family="Arial Bold" font-size="18.00" fill="#000000">public.study_subject</text>
<text text-anchor="start" x="599.2385" y="-758.3" font-family="Arial" font-size="14.00" fill="#000000">    </text>
<text text-anchor="start" x="633.4433" y="-758.3" font-family="Arial" font-size="14.00" fill="#666666">[BASE TABLE]</text>
<polygon fill="none" stroke="#000000" points="430.5,-715.5 430.5,-745.5 733.5,-745.5 733.5,-715.5 430.5,-715.5"/>
<text text-anchor="start" x="437.5" y="-726.9" font-family="Arial" font-size="14.00" fill="#000000">id    </text>
<text text-anchor="start" x="482.594" y="-726.9" font-family="Arial" font-size="14.00" fill="#666666">[uuid]</text>
<polygon fill="none" stroke="#000000" points="430.5,-685.5 430.5,-715.5 733.5,-715.5 733.5,-685.5 430.5,-685.5"/>
<text text-anchor="start" x="437.5" y="-696.9" font-family="Arial" font-size="14.00" fill="#000000">study_id    </text>
<text text-anchor="start" x="523.8324" y="-696.9" font-family="Arial" font-size="14.00" fill="#666666">[uuid]</text>
<polygon fill="none" stroke="#000000" points="430.5,-655.5 430.5,-685.5 733.5,-685.5 733.5,-655.5 430.5,-655.5"/>
<text text-anchor="start" x="437.5" y="-666.9" font-family="Arial" font-size="14.00" fill="#000000">user_id    </text>
<text text-anchor="start" x="517.6024" y="-666.9" font-family="Arial" font-size="14.00" fill="#666666">[uuid]</text>
<polygon fill="none" stroke="#000000" points="430.5,-625.5 430.5,-655.5 733.5,-655.5 733.5,-625.5 430.5,-625.5"/>
<text text-anchor="start" x="437.5" y="-636.9" font-family="Arial" font-size="14.00" fill="#000000">started_at    </text>
<text text-anchor="start" x="533.9502" y="-636.9" font-family="Arial" font-size="14.00" fill="#666666">[timestamp with time zone]</text>
<polygon fill="none" stroke="#000000" points="430.5,-595.5 430.5,-625.5 733.5,-625.5 733.5,-595.5 430.5,-595.5"/>
<text text-anchor="start" x="437.5" y="-606.9" font-family="Arial" font-size="14.00" fill="#000000">selected_intervention_ids    </text>
<text text-anchor="start" x="629.6374" y="-606.9" font-family="Arial" font-size="14.00" fill="#666666">[text[]]</text>
<polygon fill="none" stroke="#000000" points="430.5,-565.5 430.5,-595.5 733.5,-595.5 733.5,-565.5 430.5,-565.5"/>
<text text-anchor="start" x="437.5" y="-576.9" font-family="Arial" font-size="14.00" fill="#000000">invite_code    </text>
<text text-anchor="start" x="542.5042" y="-576.9" font-family="Arial" font-size="14.00" fill="#666666">[text]</text>
<polygon fill="none" stroke="#000000" points="430.5,-535.5 430.5,-565.5 733.5,-565.5 733.5,-535.5 430.5,-535.5"/>
<text text-anchor="start" x="437.5" y="-546.9" font-family="Arial" font-size="14.00" fill="#000000">is_deleted    </text>
<text text-anchor="start" x="535.5042" y="-546.9" font-family="Arial" font-size="14.00" fill="#666666">[boolean]</text>
</g>
<!-- public.study_subject&#45;&gt;public.user -->
<g id="edge2" class="edge">
<title>public.study_subject:user_id&#45;&gt;public.user:id</title>
<path fill="none" stroke="#000000" d="M743.7631,-669.8263C807.7977,-660.789 761.5667,-562.7563 733.5,-493 670.0231,-335.2363 531.9769,-374.7637 468.5,-217 452.4908,-177.211 425.6111,-120.5 468.5,-120.5"/>
<polygon fill="#000000" stroke="#000000" points="743.4785,-669.8449 733.2052,-666.0097 738.4893,-670.1725 733.5,-670.5 733.5,-670.5 733.5,-670.5 738.4893,-670.1725 733.7948,-674.9903 743.4785,-669.8449 743.4785,-669.8449"/>
<text text-anchor="start" x="740.7855" y="-680.5" font-family="Arial" font-size="10.00" fill="#000000">FOREIGN KEY (user_id) REFERENCES &quot;user&quot;(id)</text>
</g>
<!-- public.repo -->
<g id="node4" class="node">
<title>public.repo</title>
<polygon fill="#efefef" stroke="transparent" points="837.5,-700.5 837.5,-735.5 1066.5,-735.5 1066.5,-700.5 837.5,-700.5"/>
<polygon fill="none" stroke="#000000" points="837.5,-700.5 837.5,-735.5 1066.5,-735.5 1066.5,-700.5 837.5,-700.5"/>
<text text-anchor="start" x="844.206" y="-713.3" font-family="Arial Bold" font-size="18.00" fill="#000000">public.repo</text>
<text text-anchor="start" x="932.226" y="-713.3" font-family="Arial" font-size="14.00" fill="#000000">    </text>
<text text-anchor="start" x="966.4308" y="-713.3" font-family="Arial" font-size="14.00" fill="#666666">[BASE TABLE]</text>
<polygon fill="none" stroke="#000000" points="837.5,-670.5 837.5,-700.5 1066.5,-700.5 1066.5,-670.5 837.5,-670.5"/>
<text text-anchor="start" x="844.5" y="-681.9" font-family="Arial" font-size="14.00" fill="#000000">project_id    </text>
<text text-anchor="start" x="939.3822" y="-681.9" font-family="Arial" font-size="14.00" fill="#666666">[text]</text>
<polygon fill="none" stroke="#000000" points="837.5,-640.5 837.5,-670.5 1066.5,-670.5 1066.5,-640.5 837.5,-640.5"/>
<text text-anchor="start" x="844.5" y="-651.9" font-family="Arial" font-size="14.00" fill="#000000">user_id    </text>
<text text-anchor="start" x="924.6024" y="-651.9" font-family="Arial" font-size="14.00" fill="#666666">[uuid]</text>
<polygon fill="none" stroke="#000000" points="837.5,-610.5 837.5,-640.5 1066.5,-640.5 1066.5,-610.5 837.5,-610.5"/>
<text text-anchor="start" x="844.5" y="-621.9" font-family="Arial" font-size="14.00" fill="#000000">study_id    </text>
<text text-anchor="start" x="930.8324" y="-621.9" font-family="Arial" font-size="14.00" fill="#666666">[uuid]</text>
<polygon fill="none" stroke="#000000" points="837.5,-580.5 837.5,-610.5 1066.5,-610.5 1066.5,-580.5 837.5,-580.5"/>
<text text-anchor="start" x="844.5" y="-591.9" font-family="Arial" font-size="14.00" fill="#000000">provider    </text>
<text text-anchor="start" x="929.263" y="-591.9" font-family="Arial" font-size="14.00" fill="#666666">[git_provider]</text>
</g>
<!-- public.repo&#45;&gt;public.user -->
<g id="edge3" class="edge">
<title>public.repo:user_id&#45;&gt;public.user:id</title>
<path fill="none" stroke="#000000" d="M827.1928,-653.9327C752.8797,-629.7996 815.9661,-333.9451 785.5,-253 760.5109,-186.6066 767.4404,-120.5 696.5,-120.5"/>
<polygon fill="#000000" stroke="#000000" points="827.6136,-653.9966 836.8235,-659.9489 832.5568,-654.7483 837.5,-655.5 837.5,-655.5 837.5,-655.5 832.5568,-654.7483 838.1765,-651.0511 827.6136,-653.9966 827.6136,-653.9966"/>
<text text-anchor="start" x="844.5045" y="-639.5" font-family="Arial" font-size="10.00" fill="#000000">FOREIGN KEY (user_id) REFERENCES &quot;user&quot;(id) ON DELETE CASCADE</text>
</g>
</g>
</svg>
