<?xml version="1.0" encoding="UTF-8" standalone="no"?>
<!DOCTYPE svg PUBLIC "-//W3C//DTD SVG 1.1//EN"
 "http://www.w3.org/Graphics/SVG/1.1/DTD/svg11.dtd">
<!-- Generated by graphviz version 2.40.1 (20161225.0304)
 -->
<!-- Title: storage.buckets Pages: 1 -->
<svg width="682pt" height="1469pt"
 viewBox="0.00 0.00 682.00 1469.00" xmlns="http://www.w3.org/2000/svg" xmlns:xlink="http://www.w3.org/1999/xlink">
<g id="graph0" class="graph" transform="scale(1 1) rotate(0) translate(4 1465)">
<title>storage.buckets</title>
<polygon fill="#ffffff" stroke="transparent" points="-4,4 -4,-1465 678,-1465 678,4 -4,4"/>
<!-- storage.buckets -->
<g id="node1" class="node">
<title>storage.buckets</title>
<polygon fill="#efefef" stroke="transparent" points="86,-982.5 86,-1017.5 354,-1017.5 354,-982.5 86,-982.5"/>
<polygon fill="none" stroke="#000000" points="86,-982.5 86,-1017.5 354,-1017.5 354,-982.5 86,-982.5"/>
<text text-anchor="start" x="92.6949" y="-995.3" font-family="Arial Bold" font-size="18.00" fill="#000000">storage.buckets</text>
<text text-anchor="start" x="219.7371" y="-995.3" font-family="Arial" font-size="14.00" fill="#000000">    </text>
<text text-anchor="start" x="253.9419" y="-995.3" font-family="Arial" font-size="14.00" fill="#666666">[BASE TABLE]</text>
<polygon fill="none" stroke="#000000" points="86,-952.5 86,-982.5 354,-982.5 354,-952.5 86,-952.5"/>
<text text-anchor="start" x="93" y="-963.9" font-family="Arial" font-size="14.00" fill="#000000">id </text>
<text text-anchor="start" x="107.7798" y="-963.9" font-family="Arial" font-size="14.00" fill="#666666">[text]</text>
<polygon fill="none" stroke="#000000" points="86,-922.5 86,-952.5 354,-952.5 354,-922.5 86,-922.5"/>
<text text-anchor="start" x="93" y="-933.9" font-family="Arial" font-size="14.00" fill="#000000">name </text>
<text text-anchor="start" x="131.899" y="-933.9" font-family="Arial" font-size="14.00" fill="#666666">[text]</text>
<polygon fill="none" stroke="#000000" points="86,-892.5 86,-922.5 354,-922.5 354,-892.5 86,-892.5"/>
<text text-anchor="start" x="93" y="-903.9" font-family="Arial" font-size="14.00" fill="#000000">owner </text>
<text text-anchor="start" x="135.0056" y="-903.9" font-family="Arial" font-size="14.00" fill="#666666">[uuid]</text>
<polygon fill="none" stroke="#000000" points="86,-862.5 86,-892.5 354,-892.5 354,-862.5 86,-862.5"/>
<text text-anchor="start" x="93" y="-873.9" font-family="Arial" font-size="14.00" fill="#000000">created_at </text>
<text text-anchor="start" x="163.028" y="-873.9" font-family="Arial" font-size="14.00" fill="#666666">[timestamp with time zone]</text>
<polygon fill="none" stroke="#000000" points="86,-832.5 86,-862.5 354,-862.5 354,-832.5 86,-832.5"/>
<text text-anchor="start" x="93" y="-843.9" font-family="Arial" font-size="14.00" fill="#000000">updated_at </text>
<text text-anchor="start" x="166.9326" y="-843.9" font-family="Arial" font-size="14.00" fill="#666666">[timestamp with time zone]</text>
<polygon fill="none" stroke="#000000" stroke-width="3" points="84.5,-831.5 84.5,-1019.5 355.5,-1019.5 355.5,-831.5 84.5,-831.5"/>
</g>
<!-- auth.users -->
<g id="node3" class="node">
<title>auth.users</title>
<polygon fill="#efefef" stroke="transparent" points="43,-672.5 43,-707.5 397,-707.5 397,-672.5 43,-672.5"/>
<polygon fill="none" stroke="#000000" points="43,-672.5 43,-707.5 397,-707.5 397,-672.5 43,-672.5"/>
<text text-anchor="start" x="114.2022" y="-685.3" font-family="Arial Bold" font-size="18.00" fill="#000000">auth.users</text>
<text text-anchor="start" x="198.2298" y="-685.3" font-family="Arial" font-size="14.00" fill="#000000">    </text>
<text text-anchor="start" x="232.4346" y="-685.3" font-family="Arial" font-size="14.00" fill="#666666">[BASE TABLE]</text>
<polygon fill="none" stroke="#000000" points="43,-642.5 43,-672.5 397,-672.5 397,-642.5 43,-642.5"/>
<text text-anchor="start" x="50" y="-653.9" font-family="Arial" font-size="14.00" fill="#000000">instance_id    </text>
<text text-anchor="start" x="155.0042" y="-653.9" font-family="Arial" font-size="14.00" fill="#666666">[uuid]</text>
<polygon fill="none" stroke="#000000" points="43,-612.5 43,-642.5 397,-642.5 397,-612.5 43,-612.5"/>
<text text-anchor="start" x="50" y="-623.9" font-family="Arial" font-size="14.00" fill="#000000">id    </text>
<text text-anchor="start" x="95.094" y="-623.9" font-family="Arial" font-size="14.00" fill="#666666">[uuid]</text>
<polygon fill="none" stroke="#000000" points="43,-582.5 43,-612.5 397,-612.5 397,-582.5 43,-582.5"/>
<text text-anchor="start" x="50" y="-593.9" font-family="Arial" font-size="14.00" fill="#000000">aud    </text>
<text text-anchor="start" x="107.5526" y="-593.9" font-family="Arial" font-size="14.00" fill="#666666">[varchar(255)]</text>
<polygon fill="none" stroke="#000000" points="43,-552.5 43,-582.5 397,-582.5 397,-552.5 43,-552.5"/>
<text text-anchor="start" x="50" y="-563.9" font-family="Arial" font-size="14.00" fill="#000000">role    </text>
<text text-anchor="start" x="107.5372" y="-563.9" font-family="Arial" font-size="14.00" fill="#666666">[varchar(255)]</text>
<polygon fill="none" stroke="#000000" points="43,-522.5 43,-552.5 397,-552.5 397,-522.5 43,-522.5"/>
<text text-anchor="start" x="50" y="-533.9" font-family="Arial" font-size="14.00" fill="#000000">email    </text>
<text text-anchor="start" x="117.6438" y="-533.9" font-family="Arial" font-size="14.00" fill="#666666">[varchar(255)]</text>
<polygon fill="none" stroke="#000000" points="43,-492.5 43,-522.5 397,-522.5 397,-492.5 43,-492.5"/>
<text text-anchor="start" x="50" y="-503.9" font-family="Arial" font-size="14.00" fill="#000000">encrypted_password    </text>
<text text-anchor="start" x="213.3492" y="-503.9" font-family="Arial" font-size="14.00" fill="#666666">[varchar(255)]</text>
<polygon fill="none" stroke="#000000" points="43,-462.5 43,-492.5 397,-492.5 397,-462.5 43,-462.5"/>
<text text-anchor="start" x="50" y="-473.9" font-family="Arial" font-size="14.00" fill="#000000">confirmed_at    </text>
<text text-anchor="start" x="165.1094" y="-473.9" font-family="Arial" font-size="14.00" fill="#666666">[timestamp with time zone]</text>
<polygon fill="none" stroke="#000000" points="43,-432.5 43,-462.5 397,-462.5 397,-432.5 43,-432.5"/>
<text text-anchor="start" x="50" y="-443.9" font-family="Arial" font-size="14.00" fill="#000000">invited_at    </text>
<text text-anchor="start" x="144.1122" y="-443.9" font-family="Arial" font-size="14.00" fill="#666666">[timestamp with time zone]</text>
<polygon fill="none" stroke="#000000" points="43,-402.5 43,-432.5 397,-432.5 397,-402.5 43,-402.5"/>
<text text-anchor="start" x="50" y="-413.9" font-family="Arial" font-size="14.00" fill="#000000">confirmation_token    </text>
<text text-anchor="start" x="202.4544" y="-413.9" font-family="Arial" font-size="14.00" fill="#666666">[varchar(255)]</text>
<polygon fill="none" stroke="#000000" points="43,-372.5 43,-402.5 397,-402.5 397,-372.5 43,-372.5"/>
<text text-anchor="start" x="50" y="-383.9" font-family="Arial" font-size="14.00" fill="#000000">confirmation_sent_at    </text>
<text text-anchor="start" x="214.1276" y="-383.9" font-family="Arial" font-size="14.00" fill="#666666">[timestamp with time zone]</text>
<polygon fill="none" stroke="#000000" points="43,-342.5 43,-372.5 397,-372.5 397,-342.5 43,-342.5"/>
<text text-anchor="start" x="50" y="-353.9" font-family="Arial" font-size="14.00" fill="#000000">recovery_token    </text>
<text text-anchor="start" x="179.8948" y="-353.9" font-family="Arial" font-size="14.00" fill="#666666">[varchar(255)]</text>
<polygon fill="none" stroke="#000000" points="43,-312.5 43,-342.5 397,-342.5 397,-312.5 43,-312.5"/>
<text text-anchor="start" x="50" y="-323.9" font-family="Arial" font-size="14.00" fill="#000000">recovery_sent_at    </text>
<text text-anchor="start" x="191.568" y="-323.9" font-family="Arial" font-size="14.00" fill="#666666">[timestamp with time zone]</text>
<polygon fill="none" stroke="#000000" points="43,-282.5 43,-312.5 397,-312.5 397,-282.5 43,-282.5"/>
<text text-anchor="start" x="50" y="-293.9" font-family="Arial" font-size="14.00" fill="#000000">email_change_token    </text>
<text text-anchor="start" x="213.3604" y="-293.9" font-family="Arial" font-size="14.00" fill="#666666">[varchar(255)]</text>
<polygon fill="none" stroke="#000000" points="43,-252.5 43,-282.5 397,-282.5 397,-252.5 43,-252.5"/>
<text text-anchor="start" x="50" y="-263.9" font-family="Arial" font-size="14.00" fill="#000000">email_change    </text>
<text text-anchor="start" x="171.3394" y="-263.9" font-family="Arial" font-size="14.00" fill="#666666">[varchar(255)]</text>
<polygon fill="none" stroke="#000000" points="43,-222.5 43,-252.5 397,-252.5 397,-222.5 43,-222.5"/>
<text text-anchor="start" x="49.641" y="-233.9" font-family="Arial" font-size="14.00" fill="#000000">email_change_sent_at    </text>
<text text-anchor="start" x="224.6746" y="-233.9" font-family="Arial" font-size="14.00" fill="#666666">[timestamp with time zone]</text>
<polygon fill="none" stroke="#000000" points="43,-192.5 43,-222.5 397,-222.5 397,-192.5 43,-192.5"/>
<text text-anchor="start" x="50" y="-203.9" font-family="Arial" font-size="14.00" fill="#000000">last_sign_in_at    </text>
<text text-anchor="start" x="177.5666" y="-203.9" font-family="Arial" font-size="14.00" fill="#666666">[timestamp with time zone]</text>
<polygon fill="none" stroke="#000000" points="43,-162.5 43,-192.5 397,-192.5 397,-162.5 43,-162.5"/>
<text text-anchor="start" x="50" y="-173.9" font-family="Arial" font-size="14.00" fill="#000000">raw_app_meta_data    </text>
<text text-anchor="start" x="211.805" y="-173.9" font-family="Arial" font-size="14.00" fill="#666666">[jsonb]</text>
<polygon fill="none" stroke="#000000" points="43,-132.5 43,-162.5 397,-162.5 397,-132.5 43,-132.5"/>
<text text-anchor="start" x="50" y="-143.9" font-family="Arial" font-size="14.00" fill="#000000">raw_user_meta_data    </text>
<text text-anchor="start" x="215.683" y="-143.9" font-family="Arial" font-size="14.00" fill="#666666">[jsonb]</text>
<polygon fill="none" stroke="#000000" points="43,-102.5 43,-132.5 397,-132.5 397,-102.5 43,-102.5"/>
<text text-anchor="start" x="50" y="-113.9" font-family="Arial" font-size="14.00" fill="#000000">is_super_admin    </text>
<text text-anchor="start" x="183" y="-113.9" font-family="Arial" font-size="14.00" fill="#666666">[boolean]</text>
<polygon fill="none" stroke="#000000" points="43,-72.5 43,-102.5 397,-102.5 397,-72.5 43,-72.5"/>
<text text-anchor="start" x="50" y="-83.9" font-family="Arial" font-size="14.00" fill="#000000">created_at    </text>
<text text-anchor="start" x="150.3422" y="-83.9" font-family="Arial" font-size="14.00" fill="#666666">[timestamp with time zone]</text>
<polygon fill="none" stroke="#000000" points="43,-42.5 43,-72.5 397,-72.5 397,-42.5 43,-42.5"/>
<text text-anchor="start" x="50" y="-53.9" font-family="Arial" font-size="14.00" fill="#000000">updated_at    </text>
<text text-anchor="start" x="154.2468" y="-53.9" font-family="Arial" font-size="14.00" fill="#666666">[timestamp with time zone]</text>
</g>
<!-- storage.buckets&#45;&gt;auth.users -->
<g id="edge2" class="edge">
<title>storage.buckets:owner&#45;&gt;auth.users:id</title>
<path fill="none" stroke="#000000" d="M363.7801,-905.2462C421.1922,-878.7474 456.632,-627.5 397,-627.5"/>
<polygon fill="#000000" stroke="#000000" points="363.7446,-905.2543 352.9894,-903.1149 358.8723,-906.3771 354,-907.5 354,-907.5 354,-907.5 358.8723,-906.3771 355.0106,-911.8851 363.7446,-905.2543 363.7446,-905.2543"/>
<text text-anchor="start" x="360.9965" y="-917.5" font-family="Arial" font-size="10.00" fill="#000000">FOREIGN KEY (owner) REFERENCES auth.users(id)</text>
</g>
<!-- storage.objects -->
<g id="node2" class="node">
<title>storage.objects</title>
<polygon fill="#efefef" stroke="transparent" points="59,-1382.5 59,-1417.5 381,-1417.5 381,-1382.5 59,-1382.5"/>
<polygon fill="none" stroke="#000000" points="59,-1382.5 59,-1417.5 381,-1417.5 381,-1382.5 59,-1382.5"/>
<text text-anchor="start" x="95.1978" y="-1395.3" font-family="Arial Bold" font-size="18.00" fill="#000000">storage.objects</text>
<text text-anchor="start" x="217.2342" y="-1395.3" font-family="Arial" font-size="14.00" fill="#000000">    </text>
<text text-anchor="start" x="251.439" y="-1395.3" font-family="Arial" font-size="14.00" fill="#666666">[BASE TABLE]</text>
<polygon fill="none" stroke="#000000" points="59,-1352.5 59,-1382.5 381,-1382.5 381,-1352.5 59,-1352.5"/>
<text text-anchor="start" x="66" y="-1363.9" font-family="Arial" font-size="14.00" fill="#000000">id    </text>
<text text-anchor="start" x="111.094" y="-1363.9" font-family="Arial" font-size="14.00" fill="#666666">[uuid]</text>
<polygon fill="none" stroke="#000000" points="59,-1322.5 59,-1352.5 381,-1352.5 381,-1322.5 59,-1322.5"/>
<text text-anchor="start" x="66" y="-1333.9" font-family="Arial" font-size="14.00" fill="#000000">bucket_id    </text>
<text text-anchor="start" x="160.115" y="-1333.9" font-family="Arial" font-size="14.00" fill="#666666">[text]</text>
<polygon fill="none" stroke="#000000" points="59,-1292.5 59,-1322.5 381,-1322.5 381,-1292.5 59,-1292.5"/>
<text text-anchor="start" x="66" y="-1303.9" font-family="Arial" font-size="14.00" fill="#000000">name    </text>
<text text-anchor="start" x="135.2132" y="-1303.9" font-family="Arial" font-size="14.00" fill="#666666">[text]</text>
<polygon fill="none" stroke="#000000" points="59,-1262.5 59,-1292.5 381,-1292.5 381,-1262.5 59,-1262.5"/>
<text text-anchor="start" x="66" y="-1273.9" font-family="Arial" font-size="14.00" fill="#000000">owner    </text>
<text text-anchor="start" x="138.3198" y="-1273.9" font-family="Arial" font-size="14.00" fill="#666666">[uuid]</text>
<polygon fill="none" stroke="#000000" points="59,-1232.5 59,-1262.5 381,-1262.5 381,-1232.5 59,-1232.5"/>
<text text-anchor="start" x="66" y="-1243.9" font-family="Arial" font-size="14.00" fill="#000000">created_at    </text>
<text text-anchor="start" x="166.3422" y="-1243.9" font-family="Arial" font-size="14.00" fill="#666666">[timestamp with time zone]</text>
<polygon fill="none" stroke="#000000" points="59,-1202.5 59,-1232.5 381,-1232.5 381,-1202.5 59,-1202.5"/>
<text text-anchor="start" x="66" y="-1213.9" font-family="Arial" font-size="14.00" fill="#000000">updated_at    </text>
<text text-anchor="start" x="170.2468" y="-1213.9" font-family="Arial" font-size="14.00" fill="#666666">[timestamp with time zone]</text>
<polygon fill="none" stroke="#000000" points="59,-1172.5 59,-1202.5 381,-1202.5 381,-1172.5 59,-1172.5"/>
<text text-anchor="start" x="65.9811" y="-1183.9" font-family="Arial" font-size="14.00" fill="#000000">last_accessed_at    </text>
<text text-anchor="start" x="208.3345" y="-1183.9" font-family="Arial" font-size="14.00" fill="#666666">[timestamp with time zone]</text>
<polygon fill="none" stroke="#000000" points="59,-1142.5 59,-1172.5 381,-1172.5 381,-1142.5 59,-1142.5"/>
<text text-anchor="start" x="66" y="-1153.9" font-family="Arial" font-size="14.00" fill="#000000">metadata    </text>
<text text-anchor="start" x="158.5596" y="-1153.9" font-family="Arial" font-size="14.00" fill="#666666">[jsonb]</text>
</g>
<!-- storage.objects&#45;&gt;storage.buckets -->
<g id="edge1" class="edge">
<title>storage.objects:bucket_id&#45;&gt;storage.buckets:id</title>
<path fill="none" stroke="#000000" d="M391.0252,-1335.5093C461.0182,-1306.3863 432.8985,-967.5 354,-967.5"/>
<polygon fill="#000000" stroke="#000000" points="390.8085,-1335.5523 380.1235,-1333.0862 385.9042,-1336.5261 381,-1337.5 381,-1337.5 381,-1337.5 385.9042,-1336.5261 381.8765,-1341.9138 390.8085,-1335.5523 390.8085,-1335.5523"/>
<text text-anchor="start" x="388.264" y="-1347.5" font-family="Arial" font-size="10.00" fill="#000000">FOREIGN KEY (bucket_id) REFERENCES storage.buckets(id)</text>
</g>
</g>
</svg>
