<?xml version="1.0" encoding="UTF-8" standalone="no"?>
<!DOCTYPE svg PUBLIC "-//W3C//DTD SVG 1.1//EN"
 "http://www.w3.org/Graphics/SVG/1.1/DTD/svg11.dtd">
<!-- Generated by graphviz version 2.40.1 (20161225.0304)
 -->
<!-- Title: storage.objects Pages: 1 -->
<svg width="878pt" height="1162pt"
 viewBox="0.00 0.00 878.00 1162.00" xmlns="http://www.w3.org/2000/svg" xmlns:xlink="http://www.w3.org/1999/xlink">
<g id="graph0" class="graph" transform="scale(1 1) rotate(0) translate(4 1158)">
<title>storage.objects</title>
<polygon fill="#ffffff" stroke="transparent" points="-4,4 -4,-1158 874,-1158 874,4 -4,4"/>
<!-- storage.objects -->
<g id="node1" class="node">
<title>storage.objects</title>
<polygon fill="#efefef" stroke="transparent" points="293,-1072.5 293,-1107.5 584,-1107.5 584,-1072.5 293,-1072.5"/>
<polygon fill="none" stroke="#000000" points="293,-1072.5 293,-1107.5 584,-1107.5 584,-1072.5 293,-1072.5"/>
<text text-anchor="start" x="313.6978" y="-1085.3" font-family="Arial Bold" font-size="18.00" fill="#000000">storage.objects</text>
<text text-anchor="start" x="435.7342" y="-1085.3" font-family="Arial" font-size="14.00" fill="#000000">    </text>
<text text-anchor="start" x="469.939" y="-1085.3" font-family="Arial" font-size="14.00" fill="#666666">[BASE TABLE]</text>
<polygon fill="none" stroke="#000000" points="293,-1042.5 293,-1072.5 584,-1072.5 584,-1042.5 293,-1042.5"/>
<text text-anchor="start" x="300" y="-1053.9" font-family="Arial" font-size="14.00" fill="#000000">id </text>
<text text-anchor="start" x="314.7798" y="-1053.9" font-family="Arial" font-size="14.00" fill="#666666">[uuid]</text>
<polygon fill="none" stroke="#000000" points="293,-1012.5 293,-1042.5 584,-1042.5 584,-1012.5 293,-1012.5"/>
<text text-anchor="start" x="300" y="-1023.9" font-family="Arial" font-size="14.00" fill="#000000">bucket_id </text>
<text text-anchor="start" x="363.8008" y="-1023.9" font-family="Arial" font-size="14.00" fill="#666666">[text]</text>
<polygon fill="none" stroke="#000000" points="293,-982.5 293,-1012.5 584,-1012.5 584,-982.5 293,-982.5"/>
<text text-anchor="start" x="300" y="-993.9" font-family="Arial" font-size="14.00" fill="#000000">name </text>
<text text-anchor="start" x="338.899" y="-993.9" font-family="Arial" font-size="14.00" fill="#666666">[text]</text>
<polygon fill="none" stroke="#000000" points="293,-952.5 293,-982.5 584,-982.5 584,-952.5 293,-952.5"/>
<text text-anchor="start" x="300" y="-963.9" font-family="Arial" font-size="14.00" fill="#000000">owner </text>
<text text-anchor="start" x="342.0056" y="-963.9" font-family="Arial" font-size="14.00" fill="#666666">[uuid]</text>
<polygon fill="none" stroke="#000000" points="293,-922.5 293,-952.5 584,-952.5 584,-922.5 293,-922.5"/>
<text text-anchor="start" x="300" y="-933.9" font-family="Arial" font-size="14.00" fill="#000000">created_at </text>
<text text-anchor="start" x="370.028" y="-933.9" font-family="Arial" font-size="14.00" fill="#666666">[timestamp with time zone]</text>
<polygon fill="none" stroke="#000000" points="293,-892.5 293,-922.5 584,-922.5 584,-892.5 293,-892.5"/>
<text text-anchor="start" x="300" y="-903.9" font-family="Arial" font-size="14.00" fill="#000000">updated_at </text>
<text text-anchor="start" x="373.9326" y="-903.9" font-family="Arial" font-size="14.00" fill="#666666">[timestamp with time zone]</text>
<polygon fill="none" stroke="#000000" points="293,-862.5 293,-892.5 584,-892.5 584,-862.5 293,-862.5"/>
<text text-anchor="start" x="299.6382" y="-873.9" font-family="Arial" font-size="14.00" fill="#000000">last_accessed_at </text>
<text text-anchor="start" x="411.6774" y="-873.9" font-family="Arial" font-size="14.00" fill="#666666">[timestamp with time zone]</text>
<polygon fill="none" stroke="#000000" points="293,-832.5 293,-862.5 584,-862.5 584,-832.5 293,-832.5"/>
<text text-anchor="start" x="300" y="-843.9" font-family="Arial" font-size="14.00" fill="#000000">metadata </text>
<text text-anchor="start" x="362.2454" y="-843.9" font-family="Arial" font-size="14.00" fill="#666666">[jsonb]</text>
<polygon fill="none" stroke="#000000" stroke-width="3" points="291,-831.5 291,-1109.5 585,-1109.5 585,-831.5 291,-831.5"/>
</g>
<!-- storage.buckets -->
<g id="node2" class="node">
<title>storage.buckets</title>
<polygon fill="#efefef" stroke="transparent" points="86,-432.5 86,-467.5 369,-467.5 369,-432.5 86,-432.5"/>
<polygon fill="none" stroke="#000000" points="86,-432.5 86,-467.5 369,-467.5 369,-432.5 86,-432.5"/>
<text text-anchor="start" x="100.1949" y="-445.3" font-family="Arial Bold" font-size="18.00" fill="#000000">storage.buckets</text>
<text text-anchor="start" x="227.2371" y="-445.3" font-family="Arial" font-size="14.00" fill="#000000">    </text>
<text text-anchor="start" x="261.4419" y="-445.3" font-family="Arial" font-size="14.00" fill="#666666">[BASE TABLE]</text>
<polygon fill="none" stroke="#000000" points="86,-402.5 86,-432.5 369,-432.5 369,-402.5 86,-402.5"/>
<text text-anchor="start" x="93" y="-413.9" font-family="Arial" font-size="14.00" fill="#000000">id    </text>
<text text-anchor="start" x="138.094" y="-413.9" font-family="Arial" font-size="14.00" fill="#666666">[text]</text>
<polygon fill="none" stroke="#000000" points="86,-372.5 86,-402.5 369,-402.5 369,-372.5 86,-372.5"/>
<text text-anchor="start" x="93" y="-383.9" font-family="Arial" font-size="14.00" fill="#000000">name    </text>
<text text-anchor="start" x="162.2132" y="-383.9" font-family="Arial" font-size="14.00" fill="#666666">[text]</text>
<polygon fill="none" stroke="#000000" points="86,-342.5 86,-372.5 369,-372.5 369,-342.5 86,-342.5"/>
<text text-anchor="start" x="93" y="-353.9" font-family="Arial" font-size="14.00" fill="#000000">owner    </text>
<text text-anchor="start" x="165.3198" y="-353.9" font-family="Arial" font-size="14.00" fill="#666666">[uuid]</text>
<polygon fill="none" stroke="#000000" points="86,-312.5 86,-342.5 369,-342.5 369,-312.5 86,-312.5"/>
<text text-anchor="start" x="93" y="-323.9" font-family="Arial" font-size="14.00" fill="#000000">created_at    </text>
<text text-anchor="start" x="193.3422" y="-323.9" font-family="Arial" font-size="14.00" fill="#666666">[timestamp with time zone]</text>
<polygon fill="none" stroke="#000000" points="86,-282.5 86,-312.5 369,-312.5 369,-282.5 86,-282.5"/>
<text text-anchor="start" x="92.5344" y="-293.9" font-family="Arial" font-size="14.00" fill="#000000">updated_at    </text>
<text text-anchor="start" x="196.7812" y="-293.9" font-family="Arial" font-size="14.00" fill="#666666">[timestamp with time zone]</text>
</g>
<!-- storage.objects&#45;&gt;storage.buckets -->
<g id="edge1" class="edge">
<title>storage.objects:bucket_id&#45;&gt;storage.buckets:id</title>
<path fill="none" stroke="#000000" d="M282.9864,-1026.1946C188.2843,-999.4826 360.8697,-571.1506 369,-511 374.5663,-469.8189 410.5556,-417.5 369,-417.5"/>
<polygon fill="#000000" stroke="#000000" points="283.0839,-1026.2072 292.4182,-1031.9622 288.042,-1026.8536 293,-1027.5 293,-1027.5 293,-1027.5 288.042,-1026.8536 293.5818,-1023.0378 283.0839,-1026.2072 283.0839,-1026.2072"/>
<text text-anchor="start" x="7.264" y="-1037.5" font-family="Arial" font-size="10.00" fill="#000000">FOREIGN KEY (bucket_id) REFERENCES storage.buckets(id)</text>
</g>
<!-- auth.users -->
<g id="node3" class="node">
<title>auth.users</title>
<polygon fill="#efefef" stroke="transparent" points="473,-672.5 473,-707.5 827,-707.5 827,-672.5 473,-672.5"/>
<polygon fill="none" stroke="#000000" points="473,-672.5 473,-707.5 827,-707.5 827,-672.5 473,-672.5"/>
<text text-anchor="start" x="544.2022" y="-685.3" font-family="Arial Bold" font-size="18.00" fill="#000000">auth.users</text>
<text text-anchor="start" x="628.2298" y="-685.3" font-family="Arial" font-size="14.00" fill="#000000">    </text>
<text text-anchor="start" x="662.4346" y="-685.3" font-family="Arial" font-size="14.00" fill="#666666">[BASE TABLE]</text>
<polygon fill="none" stroke="#000000" points="473,-642.5 473,-672.5 827,-672.5 827,-642.5 473,-642.5"/>
<text text-anchor="start" x="480" y="-653.9" font-family="Arial" font-size="14.00" fill="#000000">instance_id    </text>
<text text-anchor="start" x="585.0042" y="-653.9" font-family="Arial" font-size="14.00" fill="#666666">[uuid]</text>
<polygon fill="none" stroke="#000000" points="473,-612.5 473,-642.5 827,-642.5 827,-612.5 473,-612.5"/>
<text text-anchor="start" x="480" y="-623.9" font-family="Arial" font-size="14.00" fill="#000000">id    </text>
<text text-anchor="start" x="525.094" y="-623.9" font-family="Arial" font-size="14.00" fill="#666666">[uuid]</text>
<polygon fill="none" stroke="#000000" points="473,-582.5 473,-612.5 827,-612.5 827,-582.5 473,-582.5"/>
<text text-anchor="start" x="480" y="-593.9" font-family="Arial" font-size="14.00" fill="#000000">aud    </text>
<text text-anchor="start" x="537.5526" y="-593.9" font-family="Arial" font-size="14.00" fill="#666666">[varchar(255)]</text>
<polygon fill="none" stroke="#000000" points="473,-552.5 473,-582.5 827,-582.5 827,-552.5 473,-552.5"/>
<text text-anchor="start" x="480" y="-563.9" font-family="Arial" font-size="14.00" fill="#000000">role    </text>
<text text-anchor="start" x="537.5372" y="-563.9" font-family="Arial" font-size="14.00" fill="#666666">[varchar(255)]</text>
<polygon fill="none" stroke="#000000" points="473,-522.5 473,-552.5 827,-552.5 827,-522.5 473,-522.5"/>
<text text-anchor="start" x="480" y="-533.9" font-family="Arial" font-size="14.00" fill="#000000">email    </text>
<text text-anchor="start" x="547.6438" y="-533.9" font-family="Arial" font-size="14.00" fill="#666666">[varchar(255)]</text>
<polygon fill="none" stroke="#000000" points="473,-492.5 473,-522.5 827,-522.5 827,-492.5 473,-492.5"/>
<text text-anchor="start" x="480" y="-503.9" font-family="Arial" font-size="14.00" fill="#000000">encrypted_password    </text>
<text text-anchor="start" x="643.3492" y="-503.9" font-family="Arial" font-size="14.00" fill="#666666">[varchar(255)]</text>
<polygon fill="none" stroke="#000000" points="473,-462.5 473,-492.5 827,-492.5 827,-462.5 473,-462.5"/>
<text text-anchor="start" x="480" y="-473.9" font-family="Arial" font-size="14.00" fill="#000000">confirmed_at    </text>
<text text-anchor="start" x="595.1094" y="-473.9" font-family="Arial" font-size="14.00" fill="#666666">[timestamp with time zone]</text>
<polygon fill="none" stroke="#000000" points="473,-432.5 473,-462.5 827,-462.5 827,-432.5 473,-432.5"/>
<text text-anchor="start" x="480" y="-443.9" font-family="Arial" font-size="14.00" fill="#000000">invited_at    </text>
<text text-anchor="start" x="574.1122" y="-443.9" font-family="Arial" font-size="14.00" fill="#666666">[timestamp with time zone]</text>
<polygon fill="none" stroke="#000000" points="473,-402.5 473,-432.5 827,-432.5 827,-402.5 473,-402.5"/>
<text text-anchor="start" x="480" y="-413.9" font-family="Arial" font-size="14.00" fill="#000000">confirmation_token    </text>
<text text-anchor="start" x="632.4544" y="-413.9" font-family="Arial" font-size="14.00" fill="#666666">[varchar(255)]</text>
<polygon fill="none" stroke="#000000" points="473,-372.5 473,-402.5 827,-402.5 827,-372.5 473,-372.5"/>
<text text-anchor="start" x="480" y="-383.9" font-family="Arial" font-size="14.00" fill="#000000">confirmation_sent_at    </text>
<text text-anchor="start" x="644.1276" y="-383.9" font-family="Arial" font-size="14.00" fill="#666666">[timestamp with time zone]</text>
<polygon fill="none" stroke="#000000" points="473,-342.5 473,-372.5 827,-372.5 827,-342.5 473,-342.5"/>
<text text-anchor="start" x="480" y="-353.9" font-family="Arial" font-size="14.00" fill="#000000">recovery_token    </text>
<text text-anchor="start" x="609.8948" y="-353.9" font-family="Arial" font-size="14.00" fill="#666666">[varchar(255)]</text>
<polygon fill="none" stroke="#000000" points="473,-312.5 473,-342.5 827,-342.5 827,-312.5 473,-312.5"/>
<text text-anchor="start" x="480" y="-323.9" font-family="Arial" font-size="14.00" fill="#000000">recovery_sent_at    </text>
<text text-anchor="start" x="621.568" y="-323.9" font-family="Arial" font-size="14.00" fill="#666666">[timestamp with time zone]</text>
<polygon fill="none" stroke="#000000" points="473,-282.5 473,-312.5 827,-312.5 827,-282.5 473,-282.5"/>
<text text-anchor="start" x="480" y="-293.9" font-family="Arial" font-size="14.00" fill="#000000">email_change_token    </text>
<text text-anchor="start" x="643.3604" y="-293.9" font-family="Arial" font-size="14.00" fill="#666666">[varchar(255)]</text>
<polygon fill="none" stroke="#000000" points="473,-252.5 473,-282.5 827,-282.5 827,-252.5 473,-252.5"/>
<text text-anchor="start" x="480" y="-263.9" font-family="Arial" font-size="14.00" fill="#000000">email_change    </text>
<text text-anchor="start" x="601.3394" y="-263.9" font-family="Arial" font-size="14.00" fill="#666666">[varchar(255)]</text>
<polygon fill="none" stroke="#000000" points="473,-222.5 473,-252.5 827,-252.5 827,-222.5 473,-222.5"/>
<text text-anchor="start" x="479.641" y="-233.9" font-family="Arial" font-size="14.00" fill="#000000">email_change_sent_at    </text>
<text text-anchor="start" x="654.6746" y="-233.9" font-family="Arial" font-size="14.00" fill="#666666">[timestamp with time zone]</text>
<polygon fill="none" stroke="#000000" points="473,-192.5 473,-222.5 827,-222.5 827,-192.5 473,-192.5"/>
<text text-anchor="start" x="480" y="-203.9" font-family="Arial" font-size="14.00" fill="#000000">last_sign_in_at    </text>
<text text-anchor="start" x="607.5666" y="-203.9" font-family="Arial" font-size="14.00" fill="#666666">[timestamp with time zone]</text>
<polygon fill="none" stroke="#000000" points="473,-162.5 473,-192.5 827,-192.5 827,-162.5 473,-162.5"/>
<text text-anchor="start" x="480" y="-173.9" font-family="Arial" font-size="14.00" fill="#000000">raw_app_meta_data    </text>
<text text-anchor="start" x="641.805" y="-173.9" font-family="Arial" font-size="14.00" fill="#666666">[jsonb]</text>
<polygon fill="none" stroke="#000000" points="473,-132.5 473,-162.5 827,-162.5 827,-132.5 473,-132.5"/>
<text text-anchor="start" x="480" y="-143.9" font-family="Arial" font-size="14.00" fill="#000000">raw_user_meta_data    </text>
<text text-anchor="start" x="645.683" y="-143.9" font-family="Arial" font-size="14.00" fill="#666666">[jsonb]</text>
<polygon fill="none" stroke="#000000" points="473,-102.5 473,-132.5 827,-132.5 827,-102.5 473,-102.5"/>
<text text-anchor="start" x="480" y="-113.9" font-family="Arial" font-size="14.00" fill="#000000">is_super_admin    </text>
<text text-anchor="start" x="613" y="-113.9" font-family="Arial" font-size="14.00" fill="#666666">[boolean]</text>
<polygon fill="none" stroke="#000000" points="473,-72.5 473,-102.5 827,-102.5 827,-72.5 473,-72.5"/>
<text text-anchor="start" x="480" y="-83.9" font-family="Arial" font-size="14.00" fill="#000000">created_at    </text>
<text text-anchor="start" x="580.3422" y="-83.9" font-family="Arial" font-size="14.00" fill="#666666">[timestamp with time zone]</text>
<polygon fill="none" stroke="#000000" points="473,-42.5 473,-72.5 827,-72.5 827,-42.5 473,-42.5"/>
<text text-anchor="start" x="480" y="-53.9" font-family="Arial" font-size="14.00" fill="#000000">updated_at    </text>
<text text-anchor="start" x="584.2468" y="-53.9" font-family="Arial" font-size="14.00" fill="#666666">[timestamp with time zone]</text>
</g>
<!-- storage.objects&#45;&gt;auth.users -->
<g id="edge2" class="edge">
<title>storage.objects:owner&#45;&gt;auth.users:id</title>
<path fill="none" stroke="#000000" d="M594.1344,-966.8152C661.2243,-957.2154 629.0519,-848.9735 584,-787 553.5044,-745.0501 503.4956,-792.9499 473,-751 440.7252,-706.6026 418.1111,-627.5 473,-627.5"/>
<polygon fill="#000000" stroke="#000000" points="593.9772,-966.8257 583.6966,-963.0102 588.9886,-967.1629 584,-967.5 584,-967.5 584,-967.5 588.9886,-967.1629 584.3034,-971.9898 593.9772,-966.8257 593.9772,-966.8257"/>
<text text-anchor="start" x="590.9965" y="-977.5" font-family="Arial" font-size="10.00" fill="#000000">FOREIGN KEY (owner) REFERENCES auth.users(id)</text>
</g>
</g>
</svg>
