<?xml version="1.0" encoding="UTF-8" standalone="no"?>
<!DOCTYPE svg PUBLIC "-//W3C//DTD SVG 1.1//EN"
 "http://www.w3.org/Graphics/SVG/1.1/DTD/svg11.dtd">
<!-- Generated by graphviz version 2.40.1 (20161225.0304)
 -->
<!-- Title: vault.decrypted_secrets Pages: 1 -->
<svg width="381pt" height="405pt"
 viewBox="0.00 0.00 381.00 405.00" xmlns="http://www.w3.org/2000/svg" xmlns:xlink="http://www.w3.org/1999/xlink">
<g id="graph0" class="graph" transform="scale(1 1) rotate(0) translate(4 401)">
<title>vault.decrypted_secrets</title>
<polygon fill="#ffffff" stroke="transparent" points="-4,4 -4,-401 377,-401 377,4 -4,4"/>
<!-- vault.decrypted_secrets -->
<g id="node1" class="node">
<title>vault.decrypted_secrets</title>
<polygon fill="#efefef" stroke="transparent" points="46.5,-315.5 46.5,-350.5 327.5,-350.5 327.5,-315.5 46.5,-315.5"/>
<polygon fill="none" stroke="#000000" points="46.5,-315.5 46.5,-350.5 327.5,-350.5 327.5,-315.5 46.5,-315.5"/>
<text text-anchor="start" x="53.0931" y="-328.3" font-family="Arial Bold" font-size="18.00" fill="#000000">vault.decrypted_secrets</text>
<text text-anchor="start" x="243.1425" y="-328.3" font-family="Arial" font-size="14.00" fill="#000000">    </text>
<text text-anchor="start" x="277.3473" y="-328.3" font-family="Arial" font-size="14.00" fill="#666666">[VIEW]</text>
<polygon fill="none" stroke="#000000" points="46.5,-285.5 46.5,-315.5 327.5,-315.5 327.5,-285.5 46.5,-285.5"/>
<text text-anchor="start" x="53.5" y="-296.9" font-family="Arial" font-size="14.00" fill="#000000">id </text>
<text text-anchor="start" x="68.2798" y="-296.9" font-family="Arial" font-size="14.00" fill="#666666">[uuid]</text>
<polygon fill="none" stroke="#000000" points="46.5,-255.5 46.5,-285.5 327.5,-285.5 327.5,-255.5 46.5,-255.5"/>
<text text-anchor="start" x="53.5" y="-266.9" font-family="Arial" font-size="14.00" fill="#000000">name </text>
<text text-anchor="start" x="92.399" y="-266.9" font-family="Arial" font-size="14.00" fill="#666666">[text]</text>
<polygon fill="none" stroke="#000000" points="46.5,-225.5 46.5,-255.5 327.5,-255.5 327.5,-225.5 46.5,-225.5"/>
<text text-anchor="start" x="53.5" y="-236.9" font-family="Arial" font-size="14.00" fill="#000000">description </text>
<text text-anchor="start" x="125.068" y="-236.9" font-family="Arial" font-size="14.00" fill="#666666">[text]</text>
<polygon fill="none" stroke="#000000" points="46.5,-195.5 46.5,-225.5 327.5,-225.5 327.5,-195.5 46.5,-195.5"/>
<text text-anchor="start" x="53.5" y="-206.9" font-family="Arial" font-size="14.00" fill="#000000">secret </text>
<text text-anchor="start" x="95.507" y="-206.9" font-family="Arial" font-size="14.00" fill="#666666">[text]</text>
<polygon fill="none" stroke="#000000" points="46.5,-165.5 46.5,-195.5 327.5,-195.5 327.5,-165.5 46.5,-165.5"/>
<text text-anchor="start" x="53.5" y="-176.9" font-family="Arial" font-size="14.00" fill="#000000">decrypted_secret </text>
<text text-anchor="start" x="164.7538" y="-176.9" font-family="Arial" font-size="14.00" fill="#666666">[text]</text>
<polygon fill="none" stroke="#000000" points="46.5,-135.5 46.5,-165.5 327.5,-165.5 327.5,-135.5 46.5,-135.5"/>
<text text-anchor="start" x="53.5" y="-146.9" font-family="Arial" font-size="14.00" fill="#000000">key_id </text>
<text text-anchor="start" x="97.845" y="-146.9" font-family="Arial" font-size="14.00" fill="#666666">[uuid]</text>
<polygon fill="none" stroke="#000000" points="46.5,-105.5 46.5,-135.5 327.5,-135.5 327.5,-105.5 46.5,-105.5"/>
<text text-anchor="start" x="53.5" y="-116.9" font-family="Arial" font-size="14.00" fill="#000000">nonce </text>
<text text-anchor="start" x="95.521" y="-116.9" font-family="Arial" font-size="14.00" fill="#666666">[bytea]</text>
<polygon fill="none" stroke="#000000" points="46.5,-75.5 46.5,-105.5 327.5,-105.5 327.5,-75.5 46.5,-75.5"/>
<text text-anchor="start" x="53.5" y="-86.9" font-family="Arial" font-size="14.00" fill="#000000">created_at </text>
<text text-anchor="start" x="123.528" y="-86.9" font-family="Arial" font-size="14.00" fill="#666666">[timestamp with time zone]</text>
<polygon fill="none" stroke="#000000" points="46.5,-45.5 46.5,-75.5 327.5,-75.5 327.5,-45.5 46.5,-45.5"/>
<text text-anchor="start" x="53.5" y="-56.9" font-family="Arial" font-size="14.00" fill="#000000">updated_at </text>
<text text-anchor="start" x="127.4326" y="-56.9" font-family="Arial" font-size="14.00" fill="#666666">[timestamp with time zone]</text>
<polygon fill="none" stroke="#000000" stroke-width="3" points="44.5,-44.5 44.5,-352.5 328.5,-352.5 328.5,-44.5 44.5,-44.5"/>
</g>
</g>
</svg>
