<?xml version="1.0" encoding="UTF-8" standalone="no"?>
<!DOCTYPE svg PUBLIC "-//W3C//DTD SVG 1.1//EN"
 "http://www.w3.org/Graphics/SVG/1.1/DTD/svg11.dtd">
<!-- Generated by graphviz version 2.40.1 (20161225.0304)
 -->
<!-- Title: vault.secrets Pages: 1 -->
<svg width="578pt" height="952pt"
 viewBox="0.00 0.00 577.50 952.00" xmlns="http://www.w3.org/2000/svg" xmlns:xlink="http://www.w3.org/1999/xlink">
<g id="graph0" class="graph" transform="scale(1 1) rotate(0) translate(4 948)">
<title>vault.secrets</title>
<polygon fill="#ffffff" stroke="transparent" points="-4,4 -4,-948 573.5,-948 573.5,4 -4,4"/>
<!-- vault.secrets -->
<g id="node1" class="node">
<title>vault.secrets</title>
<polygon fill="#efefef" stroke="transparent" points="46.5,-862.5 46.5,-897.5 299.5,-897.5 299.5,-862.5 46.5,-862.5"/>
<polygon fill="none" stroke="#000000" points="46.5,-862.5 46.5,-897.5 299.5,-897.5 299.5,-862.5 46.5,-862.5"/>
<text text-anchor="start" x="58.7071" y="-875.3" font-family="Arial Bold" font-size="18.00" fill="#000000">vault.secrets</text>
<text text-anchor="start" x="159.7249" y="-875.3" font-family="Arial" font-size="14.00" fill="#000000">    </text>
<text text-anchor="start" x="193.9297" y="-875.3" font-family="Arial" font-size="14.00" fill="#666666">[BASE TABLE]</text>
<polygon fill="none" stroke="#000000" points="46.5,-832.5 46.5,-862.5 299.5,-862.5 299.5,-832.5 46.5,-832.5"/>
<text text-anchor="start" x="53.5" y="-843.9" font-family="Arial" font-size="14.00" fill="#000000">id </text>
<text text-anchor="start" x="68.2798" y="-843.9" font-family="Arial" font-size="14.00" fill="#666666">[uuid]</text>
<polygon fill="none" stroke="#000000" points="46.5,-802.5 46.5,-832.5 299.5,-832.5 299.5,-802.5 46.5,-802.5"/>
<text text-anchor="start" x="53.5" y="-813.9" font-family="Arial" font-size="14.00" fill="#000000">name </text>
<text text-anchor="start" x="92.399" y="-813.9" font-family="Arial" font-size="14.00" fill="#666666">[text]</text>
<polygon fill="none" stroke="#000000" points="46.5,-772.5 46.5,-802.5 299.5,-802.5 299.5,-772.5 46.5,-772.5"/>
<text text-anchor="start" x="53.5" y="-783.9" font-family="Arial" font-size="14.00" fill="#000000">description </text>
<text text-anchor="start" x="125.068" y="-783.9" font-family="Arial" font-size="14.00" fill="#666666">[text]</text>
<polygon fill="none" stroke="#000000" points="46.5,-742.5 46.5,-772.5 299.5,-772.5 299.5,-742.5 46.5,-742.5"/>
<text text-anchor="start" x="53.5" y="-753.9" font-family="Arial" font-size="14.00" fill="#000000">secret </text>
<text text-anchor="start" x="95.507" y="-753.9" font-family="Arial" font-size="14.00" fill="#666666">[text]</text>
<polygon fill="none" stroke="#000000" points="46.5,-712.5 46.5,-742.5 299.5,-742.5 299.5,-712.5 46.5,-712.5"/>
<text text-anchor="start" x="53.5" y="-723.9" font-family="Arial" font-size="14.00" fill="#000000">key_id </text>
<text text-anchor="start" x="97.845" y="-723.9" font-family="Arial" font-size="14.00" fill="#666666">[uuid]</text>
<polygon fill="none" stroke="#000000" points="46.5,-682.5 46.5,-712.5 299.5,-712.5 299.5,-682.5 46.5,-682.5"/>
<text text-anchor="start" x="53.5" y="-693.9" font-family="Arial" font-size="14.00" fill="#000000">nonce </text>
<text text-anchor="start" x="95.521" y="-693.9" font-family="Arial" font-size="14.00" fill="#666666">[bytea]</text>
<polygon fill="none" stroke="#000000" points="46.5,-652.5 46.5,-682.5 299.5,-682.5 299.5,-652.5 46.5,-652.5"/>
<text text-anchor="start" x="53.5" y="-663.9" font-family="Arial" font-size="14.00" fill="#000000">created_at </text>
<text text-anchor="start" x="123.528" y="-663.9" font-family="Arial" font-size="14.00" fill="#666666">[timestamp with time zone]</text>
<polygon fill="none" stroke="#000000" points="46.5,-622.5 46.5,-652.5 299.5,-652.5 299.5,-622.5 46.5,-622.5"/>
<text text-anchor="start" x="53.1915" y="-633.9" font-family="Arial" font-size="14.00" fill="#000000">updated_at </text>
<text text-anchor="start" x="127.1241" y="-633.9" font-family="Arial" font-size="14.00" fill="#666666">[timestamp with time zone]</text>
<polygon fill="none" stroke="#000000" stroke-width="3" points="44.5,-621.5 44.5,-899.5 300.5,-899.5 300.5,-621.5 44.5,-621.5"/>
</g>
<!-- pgsodium.key -->
<g id="node2" class="node">
<title>pgsodium.key</title>
<polygon fill="#efefef" stroke="transparent" points="43.5,-462.5 43.5,-497.5 303.5,-497.5 303.5,-462.5 43.5,-462.5"/>
<polygon fill="none" stroke="#000000" points="43.5,-462.5 43.5,-497.5 303.5,-497.5 303.5,-462.5 43.5,-462.5"/>
<text text-anchor="start" x="54.2031" y="-475.3" font-family="Arial Bold" font-size="18.00" fill="#000000">pgsodium.key</text>
<text text-anchor="start" x="165.2289" y="-475.3" font-family="Arial" font-size="14.00" fill="#000000">    </text>
<text text-anchor="start" x="199.4337" y="-475.3" font-family="Arial" font-size="14.00" fill="#666666">[BASE TABLE]</text>
<polygon fill="none" stroke="#000000" points="43.5,-432.5 43.5,-462.5 303.5,-462.5 303.5,-432.5 43.5,-432.5"/>
<text text-anchor="start" x="50.5" y="-443.9" font-family="Arial" font-size="14.00" fill="#000000">id    </text>
<text text-anchor="start" x="95.594" y="-443.9" font-family="Arial" font-size="14.00" fill="#666666">[uuid]</text>
<polygon fill="none" stroke="#000000" points="43.5,-402.5 43.5,-432.5 303.5,-432.5 303.5,-402.5 43.5,-402.5"/>
<text text-anchor="start" x="50.5" y="-413.9" font-family="Arial" font-size="14.00" fill="#000000">status    </text>
<text text-anchor="start" x="122.0512" y="-413.9" font-family="Arial" font-size="14.00" fill="#666666">[pgsodium.key_status]</text>
<polygon fill="none" stroke="#000000" points="43.5,-372.5 43.5,-402.5 303.5,-402.5 303.5,-372.5 43.5,-372.5"/>
<text text-anchor="start" x="50.2146" y="-383.9" font-family="Arial" font-size="14.00" fill="#000000">created    </text>
<text text-anchor="start" x="131.101" y="-383.9" font-family="Arial" font-size="14.00" fill="#666666">[timestamp with time zone]</text>
<polygon fill="none" stroke="#000000" points="43.5,-342.5 43.5,-372.5 303.5,-372.5 303.5,-342.5 43.5,-342.5"/>
<text text-anchor="start" x="50.5" y="-353.9" font-family="Arial" font-size="14.00" fill="#000000">expires    </text>
<text text-anchor="start" x="129.8198" y="-353.9" font-family="Arial" font-size="14.00" fill="#666666">[timestamp with time zone]</text>
<polygon fill="none" stroke="#000000" points="43.5,-312.5 43.5,-342.5 303.5,-342.5 303.5,-312.5 43.5,-312.5"/>
<text text-anchor="start" x="50.5" y="-323.9" font-family="Arial" font-size="14.00" fill="#000000">key_type    </text>
<text text-anchor="start" x="140.7258" y="-323.9" font-family="Arial" font-size="14.00" fill="#666666">[pgsodium.key_type]</text>
<polygon fill="none" stroke="#000000" points="43.5,-282.5 43.5,-312.5 303.5,-312.5 303.5,-282.5 43.5,-282.5"/>
<text text-anchor="start" x="50.5" y="-293.9" font-family="Arial" font-size="14.00" fill="#000000">key_id    </text>
<text text-anchor="start" x="125.1592" y="-293.9" font-family="Arial" font-size="14.00" fill="#666666">[bigint]</text>
<polygon fill="none" stroke="#000000" points="43.5,-252.5 43.5,-282.5 303.5,-282.5 303.5,-252.5 43.5,-252.5"/>
<text text-anchor="start" x="50.5" y="-263.9" font-family="Arial" font-size="14.00" fill="#000000">key_context    </text>
<text text-anchor="start" x="159.399" y="-263.9" font-family="Arial" font-size="14.00" fill="#666666">[bytea]</text>
<polygon fill="none" stroke="#000000" points="43.5,-222.5 43.5,-252.5 303.5,-252.5 303.5,-222.5 43.5,-222.5"/>
<text text-anchor="start" x="50.5" y="-233.9" font-family="Arial" font-size="14.00" fill="#000000">name    </text>
<text text-anchor="start" x="119.7132" y="-233.9" font-family="Arial" font-size="14.00" fill="#666666">[text]</text>
<polygon fill="none" stroke="#000000" points="43.5,-192.5 43.5,-222.5 303.5,-222.5 303.5,-192.5 43.5,-192.5"/>
<text text-anchor="start" x="50.5" y="-203.9" font-family="Arial" font-size="14.00" fill="#000000">associated_data    </text>
<text text-anchor="start" x="186.636" y="-203.9" font-family="Arial" font-size="14.00" fill="#666666">[text]</text>
<polygon fill="none" stroke="#000000" points="43.5,-162.5 43.5,-192.5 303.5,-192.5 303.5,-162.5 43.5,-162.5"/>
<text text-anchor="start" x="50.5" y="-173.9" font-family="Arial" font-size="14.00" fill="#000000">raw_key    </text>
<text text-anchor="start" x="136.8198" y="-173.9" font-family="Arial" font-size="14.00" fill="#666666">[bytea]</text>
<polygon fill="none" stroke="#000000" points="43.5,-132.5 43.5,-162.5 303.5,-162.5 303.5,-132.5 43.5,-132.5"/>
<text text-anchor="start" x="50.5" y="-143.9" font-family="Arial" font-size="14.00" fill="#000000">raw_key_nonce    </text>
<text text-anchor="start" x="182.7328" y="-143.9" font-family="Arial" font-size="14.00" fill="#666666">[bytea]</text>
<polygon fill="none" stroke="#000000" points="43.5,-102.5 43.5,-132.5 303.5,-132.5 303.5,-102.5 43.5,-102.5"/>
<text text-anchor="start" x="50.5" y="-113.9" font-family="Arial" font-size="14.00" fill="#000000">parent_key    </text>
<text text-anchor="start" x="153.9516" y="-113.9" font-family="Arial" font-size="14.00" fill="#666666">[uuid]</text>
<polygon fill="none" stroke="#000000" points="43.5,-72.5 43.5,-102.5 303.5,-102.5 303.5,-72.5 43.5,-72.5"/>
<text text-anchor="start" x="50.5" y="-83.9" font-family="Arial" font-size="14.00" fill="#000000">comment    </text>
<text text-anchor="start" x="142.2644" y="-83.9" font-family="Arial" font-size="14.00" fill="#666666">[text]</text>
<polygon fill="none" stroke="#000000" points="43.5,-42.5 43.5,-72.5 303.5,-72.5 303.5,-42.5 43.5,-42.5"/>
<text text-anchor="start" x="50.5" y="-53.9" font-family="Arial" font-size="14.00" fill="#000000">user_data    </text>
<text text-anchor="start" x="146.9516" y="-53.9" font-family="Arial" font-size="14.00" fill="#666666">[text]</text>
</g>
<!-- vault.secrets&#45;&gt;pgsodium.key -->
<g id="edge1" class="edge">
<title>vault.secrets:key_id&#45;&gt;pgsodium.key:id</title>
<path fill="none" stroke="#000000" d="M309.6787,-726.6271C363.81,-716.7088 340.9812,-624.7227 299.5,-577 224.1242,-490.2828 118.8758,-627.7172 43.5,-541 16.2384,-509.6365 1.9444,-447.5 43.5,-447.5"/>
<polygon fill="#000000" stroke="#000000" points="309.4634,-726.6455 299.1155,-723.0165 304.4817,-727.0727 299.5,-727.5 299.5,-727.5 299.5,-727.5 304.4817,-727.0727 299.8845,-731.9835 309.4634,-726.6455 309.4634,-726.6455"/>
<text text-anchor="start" x="306.1615" y="-737.5" font-family="Arial" font-size="10.00" fill="#000000">FOREIGN KEY (key_id) REFERENCES pgsodium.key(id)</text>
</g>
</g>
</svg>
