<svg artist="Katerina Limpitsouni" height="660.547" role="img" source="https://undraw.co/" viewBox="0 0 745.614 660.547"
    width="745.614" xmlns="http://www.w3.org/2000/svg">
    <g transform="translate(-675.156 -207.368)">
        <path
            d="M1058.03,762.724l-738.28.355c-2.025,0-3.667-.616-3.667-1.377s1.642-1.377,3.667-1.377l738.28-.355c2.025,0,3.667.616,3.667,1.377S1060.055,762.724,1058.03,762.724Z"
            fill="#e6e6e6" transform="translate(359.073 65.449)" />
        <path
            d="M874.663,427.746c-1.894-4.871.812-7.306,1.894-11.636s-2.436-17.86-2.436-17.86-11.365-46.815-14.883-56.015c-1.489-3.893-4.722-6.572-7.956-8.37-.219-1.194-.536-1.965-.974-2.183-3.134-1.568-10.943-4.973-16.147-5.915a26.4,26.4,0,0,0-3.441-4.653,11,11,0,0,0,1.226-5.7c-.332-5.105-4.2-9.68-3.7-14.772.381-3.861,3.2-7.033,4.294-10.757a12.65,12.65,0,0,0-1.438-9.976l2.4,2.555a8.973,8.973,0,0,0-.669-10.842c-2.535-2.8-6.773-3.85-8.74-7.075-2.021-3.313-.936-7.816-2.847-11.194-4.681-8.275-16.665-2.409-23.842-5.3-2.95-1.187-5.192-2.493-8.511-2.4a33.254,33.254,0,0,0-8.3,1.55,17.539,17.539,0,0,0-9.514,6.82,5.9,5.9,0,0,1,.743-.71c1.739-1.363,4.79-1.25,5.708.76a3.368,3.368,0,0,1,.268,1.605c-.151,2.423-2.267,4.232-4.371,5.445s-4.469,2.227-5.842,4.229c-2.265,3.3-.933,7.739-.932,11.745a17.027,17.027,0,0,1-6.453,13.221l7.636-3.122a57.709,57.709,0,0,0-7.052,20.68l10.324-8.529a45.4,45.4,0,0,0-6.781,20.152l8.287-8.491a4.191,4.191,0,0,1,.547,2.18l-.864,3.333a21.634,21.634,0,0,1-1.014,1.935c-1.333,2.29-2.712,5.108-1.465,7.446l.006,0c-1.313,4.417-3.293,8.837-7.7,10.985,4.887.511,9.987-1.932,12.194-5.821a10.894,10.894,0,0,0,1.3,1.964l.422.53-1.218.812-3.263,2.176s-21.378,4.33-20.025,12.448c.056.334.122.733.2,1.18l-6.151,10.456-8.93,30.308s-4.6,9.742-3.789,13.8,0,5.683,0,12.989-3.518,10.283,0,16.236,14.071,23.272,14.071,23.272l2.318,1.739a10.833,10.833,0,0,0,.117,3.132c2.165,10.824,22.46,114.466,22.46,114.466s-10.283,81.993,10.554,87.135c2.613.645,5.18,1.23,7.673,1.751l3.151,20.709-1.894,26.249s-14.342,32.473,11.907,34.367,14.342-28.143,14.342-28.143a14.266,14.266,0,0,0,1.624-8.389c-.268-2.409-2.521-14.944-4.73-27,9.961-1.194,8.1-11.767,6.77-16.415a2.692,2.692,0,0,0,1.207-1.5c.3-1.079-.4-5.326-1.665-11.277-1.032-5.916-2.795-15.492-4-21.979l6.475,1.054,27.331-160.2s.18-2.55.1-6.28a101.452,101.452,0,0,1,11.538-5.085c8.93-3.518,12.448-16.507,15.425-21.919S876.557,432.617,874.663,427.746Zm-97.04-102a5.789,5.789,0,0,1,2.994-1.015c-.231,1.259-2.4,1.626-4.211,2.286a5.358,5.358,0,0,1,1.218-1.27Zm-13.637,80.621c2.192,3.6-1.777,13.362-5.354,21.108-2.05-1.766-4.189-1.209-1.682-6.224a25.456,25.456,0,0,0,2.977-10.283c0-.619.317-5.165,2.984-7.054A14.23,14.23,0,0,0,763.985,406.368Zm-8.213,31.087c1.241-.5,3.119-1.281,5.657-2.143-1.216,1.6-2.6,3.5-4,5.571a4.191,4.191,0,0,1-1.657-3.428Zm87.771,3.551c-1.645-1.748-2.975-3.312-4.069-4.711q3.062.806,6.234,1.734a7.417,7.417,0,0,0,3.153-.21c.094,1.871.094,4.54.094,4.54l-2.964,2.052a17.379,17.379,0,0,0-2.448-3.4Zm8.4-9.385-.1.088a17.952,17.952,0,0,0-.723-3.151c-1.773-5.593-2.721-15.517-3.225-23.986l5.12,17.22s.271,8.659-1.073,9.828Z"
            fill="#d0d0d0" transform="translate(542.074 95.012)" />
        <path
            d="M754.972,362.292s-27.762-47.716-28.63-52.922-14.749-14.749-14.749-14.749c-4.743-4.743-12.524-6.243-20.713-6.165,3.084-2.551-7.927-4.266-8.784-5.981-.868-1.735-3.47-1.735-6.941-4.338s-12.132-.434-12.133-.434a31.974,31.974,0,0,1-2.691-8.646,24.189,24.189,0,0,0,5.715-15.646c0-.062,0-.124,0-.186.221.344.442.689.663,1.046,1.625-9.735,4.494-17.827-.974-26.708A29.943,29.943,0,0,0,648.7,214.543l-5.208,4.166,2.025-4.859a27.563,27.563,0,0,0-5.147-.3l-4.686,6.024,1.939-5.818a29.658,29.658,0,0,0-20.459,12.17c-5.964,8.6-5.565,20.552.3,29.219.02-.061.035-.12.055-.181a24.285,24.285,0,0,0,12.412,19.664l1.473,11.787h0a8.08,8.08,0,0,1-4.831,2.131c-2.6,0-5.205,6.941-5.205,6.941s-1.475.744-3.065,4.259c-4.1,2.788-16.588,11.546-21.223,17.667-2.742,1.349-5.687,4.351-5.209,11.043.868,12.146,0,68.538,0,68.538s-7.808,47.716-5.205,51.187-.868,14.749-.868,14.749l2.6.578V466.4s-7.828,36.29,4.338,34.7c19.954-2.6,5.205-32.1,5.205-32.1V465.63l3.47.771s1.735-12.146,5.205-13.014c1.207-.3,2.624-3.545,3.959-7.643.778,6.394,1.247,10.246,1.247,10.246l5.429-1.206,1.512,5.544a7.491,7.491,0,0,0,1.166.528l-1.166,6.412s-.868,6.941,0,11.278c.438,2.188,16.542,48.949,32.4,94.768l-.3,11.076s-7.808,8.676-6.073,14.749-4.338,56.392-4.338,56.392l-5.205,25.16,1.31.4-1.2,4.409a8.75,8.75,0,0,0-2.71,2.129C625.7,695.44,617.028,718,617.028,718s-15.616,23.424,8.676,22.557,26.027-9.543,26.027-9.543,3.47-22.557,3.47-23.424-1.735-9.786-1.735-9.786l-.674-.743.471-10.822,4.541,1.4s4.338-22.557,7.808-25.16c1.213-.91,4.44-11.042,8.124-24.057,3.766,10.843,7.412,48.335,8.6,51.738a12.318,12.318,0,0,0-1.1,1.817,210.807,210.807,0,0,1-13.014,21.689s-27.762,16.484,0,20.822c0,0,15.616.868,23.424-4.338s28.63-13.014,28.63-14.749-5.205-27.242-10.411-24.466h0l-3.487-8.02,3.487-1.35-21.965-98.591a49.783,49.783,0,0,0,1.143-6.386c0-4.543,11.234-93.008,14.092-115.446,12.581,3.564,24.081-22.5,24.081-22.5l2.852-5.134,4.089,2.531s3.47-8.676,8.676-9.543,14.749-46.849,14.749-52.922a28.239,28.239,0,0,0-2.6-11.278ZM714.55,430.266a23.376,23.376,0,0,0-2.957-3.773,107.44,107.44,0,0,0,5.205-18.219c1.735-9.543-2.6-40.776-2.6-40.776l-.076-2.121c4.258,5.59,9.619,13.042,9.619,15.135a6.507,6.507,0,0,0,2.6,5.205l-5.205,18.219s-3.47,8.676-4.338,13.014a44.29,44.29,0,0,0-.868,7.808l1.23.761Z"
            fill="#d0d0d0" transform="translate(533.928 93.214)" />
        <path
            d="M377.785,377.209l4.629-1.042-19.087-53.789L322.118,307.2s-.158.175-.449.477c-3.515-3.4-5.007-8.338-5.63-12.224a24.285,24.285,0,0,0,11.322-35.665c3.4-.815,4.608-3.9,5.748-7.569a15.2,15.2,0,0,0-2.154-.469l1.6-3.592-2.816-.253.72-3.358-3.591,2.479a7.335,7.335,0,0,0-1.223-7,14.01,14.01,0,0,0-6.005-4.234,26.793,26.793,0,0,0-27.494,4.805l-.259-1.011a34.894,34.894,0,0,0-13.327,23.095c-1.149,9.053,3.2,18.272,8.853,25.436-.048-.313-.1-.625-.151-.936q.366.505.757.991l.695,26.407-1.74,1.492s-29.2,13.211-30.339,28.989l0,.012c-1.753,7.681-2.62,47.589-2.62,47.589h2.4l-2.4,15.616L238.4,469s-19.954,26.027-2.6,31.233c10.782,3.235,13.859-9.275,14.643-19.212.625,2.463,2.493,4.128,6.179,4.463.29.026.6.048.9.073-8.2,21.2-2.634,90.155-2.634,90.155-4.338,8.676,46.849,68.538,46.849,68.538l3.082-1.644.667,1.334c-1.715.164-2.882.31-2.882.31v26.895s-7.808,26.895,2.6,32.1c2.694,1.347,5.5.367,8.189-1.821-.513,8.3-1.249,20.686-1.249,23.51,0,4.338,11.278,12.146,11.278,12.146s2.6,9.543,23.424,9.543,5.205-25.16,5.205-25.16L340.771,696.3s-.844.413-3.4-1.666l.915-10.061,5.086.449,6.941-101.506s6.073-90.227,6.941-104.109a96.606,96.606,0,0,0-.314-13.345l25.473-52.59ZM358.99,410.87l-2.6,9.07V399.881Zm-108.31,64.338c.022-3.179-.136-5.343-.136-5.343L267.5,435.943l-.477,10.5S253.443,463.623,250.679,475.208Zm39.772,97.9,16.484-58.127,9.543,70.273-.684,25.548a40.734,40.734,0,0,1-2.786-7.329C310.406,593.06,290.452,573.106,290.452,573.106Z"
            fill="#d0d0d0" transform="translate(446.452 81.908)" />
        <path
            d="M522.146,712.025c-8.129-3.347-23.908-10.52-25.821-14.345s-11.476-33.472-11.476-33.472l-2.463.179c-.317-13.468-1.673-65.664-3.753-71.9,0,0,10.041-82.723-10.042-115.716l-3.618-14.619c1.188-5.86,1.035-19.431.271-21.722-.956-2.869,11-11.954,7.651-17.692s-12.432-25.343-12.432-25.343.956-12.432-11.954-23.908c0,0-3.773-21.359-20.774-21.677-2.3-4.011-5.515-10.389-4.569-13.229,1.014-3.04,4.889-12.519,7.078-17.825a22.908,22.908,0,0,0,3.338-1.858c13.521-6.058,23.053-20.621,23.053-37.634,0-18.212-10.919-33.625-25.966-38.793a12.9,12.9,0,1,0-24.97-4.631,12.9,12.9,0,0,1,14.393-17.659,12.9,12.9,0,0,0-13.82,21.539,12.8,12.8,0,0,0,.527,1.387c-14.159,5.714-24.259,20.64-24.259,38.156,0,16.248,8.693,30.263,21.252,36.768-.067,5.285-1.378,14.2-8.666,19.626-3.765-1.72-8.99-3.609-12.343-2.752-1.734-1.351-4.35-1.8-7.91,1.762-7.172,7.172-13.389,25.821-13.389,37.3s1.435,77.941,1.435,77.941-7.651,2.869-2.391,7.172a6.2,6.2,0,0,0,3.863,1.436l5.222,38.73s-3.347,37.3,9.563,37.775a5.108,5.108,0,0,0,2.89-.709l-9.584,43.266s-22,14.345-39.21,42.557c-8.866,14.531-13.287,23.47-15.495,28.733l-3.154-1.955-11,21.039S279.238,684.77,284.5,695.768s10.042,13.867,10.042,13.867l3.347-1.435,6.216,11.476s16.258,23.43,42.557,11.476a9.611,9.611,0,0,0,0-11.476c-4.3-6.216-15.3-19.6-15.3-19.6l7.172-36.341-1.484-.92,45.476-55.025s13.389-8.129,18.17-15.3S435.12,511.2,435.12,511.2l16.736,77.463s-.956,28.212,3.347,46.382a196.877,196.877,0,0,1,4.575,30.992l-1.227.089,2.869,21.518s-12.432,30.6-3.825,32.993a126.094,126.094,0,0,0,18.649,3.347l.956-3.347s36.819,20.083,50.207,5.26C527.406,725.892,530.275,715.372,522.146,712.025ZM391.128,477.246c1.435,1.435.956,8.129.956,8.129l-2.869,18.649-2.865,12.935a138.934,138.934,0,0,0-2.395-18.195l-1.324-35.737a2.762,2.762,0,0,0,.846.353c.956,0,.478-8.129.478-8.129s.558-1.452,1.254-3.743c1.859,5.565,4.128,9.2,6.874,9.959l.478,6.216s-6.216,2.869-.478,2.869a4.516,4.516,0,0,0,.986-.146l-.507,2.537S389.694,475.811,391.128,477.246Z"
            fill="#d0d0d0" transform="translate(458.773 99.243)" />
        <path d="M465.909,553.623l4.224,29.568,21.12-2.112-2.112-30.624Z"
            fill="#ed9da0" transform="translate(641.143 227.261)" />
        <path d="M372.253,553.623l-4.224,29.568-21.12-2.112,2.112-30.624Z"
            fill="#ed9da0" transform="translate(634.481 227.261)" />
        <path
            d="M463.084,370.514S444.076,392.69,448.3,427.537s11.616,114.046,11.616,114.046l5.28,140.446,33.792-2.112,5.28-119.326,16.9-96.094L566.57,576.431S588.746,680.973,589.8,680.973s31.68-3.168,31.68-3.168L606.7,554.255S583.466,374.738,569.738,371.57,463.084,370.514,463.084,370.514Z"
            fill="#090814" transform="translate(513.026 104.135)" />
        <path
            d="M613.857,682.746s-19.008-12.672-26.4,2.112S586.4,710.2,586.4,710.2s6.336,4.224,3.168,8.448-4.224,31.68,23.232,27.456,13.728-32.735,13.728-32.735Z"
            fill="#090814" transform="translate(520.65 121.371)" />
        <path
            d="M466.122,682.746s19.008-12.672,26.4,2.112,1.056,25.344,1.056,25.344-6.336,4.224-3.168,8.448,4.224,31.68-23.232,27.456-13.728-32.735-13.728-32.735Z"
            fill="#090814" transform="translate(513.157 121.371)" />
        <path
            d="M486.851,176.258s7.392,28.314,0,43.1,13.728,29.765,13.728,29.765,44.791-23.627,38.455-36.3-12.056-31.284-9.944-41.844Z"
            fill="#ed9da0" transform="translate(515.131 104.322)" />
        <circle cx="33.791" cy="33.791" fill="#ed9da0" r="33.791"
            transform="translate(986.67 227.412)" />
        <path
            d="M489.729,212.207s22.744,31.869,48.031-8.11l30.354,13.073L581.841,377.68s-87.025,45.961-123.984,7.945l15.218-150.5Z"
            fill="#2196F3" transform="translate(513.595 94.857)" />
        <path d="M370.151,97.887l-44.242,23.9L342.8,197.5Z" fill="#2196F3"
            transform="translate(633.305 209.131)" />
        <path
            d="M456.94,384.478l13.728,9.5s-17.424,18.48-20.592,15.312a8.659,8.659,0,0,1-2.64-6.864l-3.168-7.392Z"
            fill="#ed9da0" transform="translate(512.835 104.956)" />
        <path
            d="M543.52,382.532l-4.667,7.334s-13.728,6.336-10.56,10.56,29.568,13.728,34.847,4.224l5.28-9.5Z"
            fill="#ed9da0" transform="translate(517.512 104.847)" />
        <path
            d="M454.187,232.2s-7.7-4.087-12.779,14.6-7.536,60.159-7.536,60.159-4.752,14.256.528,48.047,10.508,55.8,10.508,55.8l23.283-16.724-10.56-27.456,13.728-100.318Z"
            fill="#2196F3" transform="translate(512.143 96.409)" />
        <path
            d="M559.655,214.848l21.651,8.737s17.136,10.079,20.3,31.2,11.31,38.391,2.324,77.941-38.267,80.258-38.267,80.258l-26.4-19.008L576.227,328.5,558.276,250.36Z"
            fill="#2196F3" transform="translate(518.153 95.459)" />
        <path
            d="M556.129,340.926c.246-3.743,2.722-7.574,10.587-9.576,0,0,13.5-17.26,31.84-8.209,0,0,8.892-1.53,15.486,7.7,0,0,6.537-3.856,9.3,2.978,0,0,7.667,13.94,4.844,28.158s-4.268,15.993-4.268,15.993,3.6-29.411-17.125-27.372-37.408-5.248-42.1,10.708c-3.9,13.249-3.406,20.13-3.406,20.13s-13.031-13.217-8.6-23.625C554.947,352.487,555.748,346.7,556.129,340.926Z"
            fill="#090814" transform="translate(428.616 -113.148)" />
    </g>
</svg>