<svg xmlns="http://www.w3.org/2000/svg" width="755.231" height="763.679" viewBox="0 0 755.231 763.679" xmlns:xlink="http://www.w3.org/1999/xlink" role="img" artist="Katerina Limpitsouni" source="https://undraw.co/">
  <g id="Group_35" data-name="Group 35" transform="translate(-600.974 -158.161)">
    <circle id="Ellipse_81" data-name="Ellipse 81" cx="49.432" cy="49.432" r="49.432" transform="translate(694.54 158.161)" fill="#ff6584"/>
    <path id="Path_527-651" data-name="Path 527" d="M439.607,433.148a81.057,81.057,0,0,1-52.681-19.453c-4.9-4.192-10.116-11.48-15.509-21.66a49.536,49.536,0,0,1-1.571-42.765,56.843,56.843,0,0,1-9.387,7.7l-1.716,1.142-.1-2.058c-.065-1.338-.1-2.672-.1-3.965,0-7.616,5.76-15.344,3.1-22.383-11.2-29.669-46.709-59.154,4.759-105.072,4.761-4.248-1.6-12.74-1.6-19.167,0-62.982,68.432-157.46,114.243-114.221,26.74,25.239,82.452,43.168,108.464,78.274l.344,1.04-1.015.411A61.223,61.223,0,0,1,570.58,175.3a77.569,77.569,0,0,0,18.138,1.52l.943-.033.23.917a114.742,114.742,0,0,1,3.406,27.766l0,1.012A50.592,50.592,0,0,0,610.005,244.2a81.244,81.244,0,0,1,26.506,59.951c0,13.352-9.075,30.879-16.687,43.231a24.445,24.445,0,0,1-17.946,11.494,23.873,23.873,0,0,1-19.267-6.224,78.948,78.948,0,0,0,13.923,19.712l1.039,1.07-1.29.751a81,81,0,0,1-40.832,11.027l-.84,0c-21.782,0-42.457,8.438-56.724,23.152a81.673,81.673,0,0,1-58.28,24.785Z" transform="translate(359.99 89.634)" fill="#e6e6e6"/>
    <path id="Path_528-652" data-name="Path 528" d="M411.022,560.126a1.458,1.458,0,0,1-1.441-1.252c-.062-.435-6.128-44.187-.68-102.335,5.032-53.7,21.19-131.05,69.594-194.575a1.458,1.458,0,0,1,2.319,1.767C432.828,326.707,416.8,403.489,411.8,456.811c-5.417,57.81.6,101.221.664,101.652a1.459,1.459,0,0,1-1.445,1.663Z" transform="translate(359.99 89.634)" fill="#ccc"/>
    <path id="Path_529-653" data-name="Path 529" d="M455.219,349.962a1.458,1.458,0,0,1-.858-2.637,200.92,200.92,0,0,1,44.356-22.58c24.472-8.959,61.686-17.082,100-4.889a1.458,1.458,0,1,1-.884,2.778c-37.526-11.942-74.065-3.954-98.11,4.849a197.621,197.621,0,0,0-43.645,22.2A1.452,1.452,0,0,1,455.219,349.962Z" transform="translate(359.99 89.634)" fill="#ccc"/>
    <path id="Path_530-654" data-name="Path 530" d="M387.5,177.786a1.458,1.458,0,0,1,2.568-1.046,200.922,200.922,0,0,1,25.715,42.615c10.7,23.763,21.48,60.3,12.077,99.384a1.458,1.458,0,1,1-2.834-.682c9.209-38.288-1.39-74.157-11.9-97.506a197.619,197.619,0,0,0-25.286-41.933A1.452,1.452,0,0,1,387.5,177.786Z" transform="translate(359.99 89.634)" fill="#ccc"/>
    <path id="Path_531-655" data-name="Path 531" d="M743.154,648.7c-100.268,0-177.229-5.277-230.647-26.438-130.109-51.54-174.218-72.943-174.649-73.153l.878-1.8c.43.21,44.5,21.589,174.507,73.091,77.116,30.55,204,27.825,379.615,24.053,32.955-.707,67.032-1.439,103.324-2.022l.031,2c-36.285.583-70.36,1.314-103.312,2.022C838.271,647.632,788.343,648.7,743.154,648.7Z" transform="translate(359.99 89.634)" fill="#cacaca"/>
    <path id="Path_532-656" data-name="Path 532" d="M320,779.921l-1.414-1.414c48.58-48.58,67.3-67.153,71.267-71.083l-143.146-103.4,1.171-1.621,145.06,104.782-.84.83C391.941,708.175,375.359,724.565,320,779.921Z" transform="translate(359.99 89.634)" fill="#cacaca"/>
    <path id="Path_533-657" data-name="Path 533" d="M392.082,832.205l-1.364-1.463c4.481-4.183,109.889-102.336,130.429-102.336h.065l472.1,4.808-.02,2-472.1-4.808h-.058C501.395,730.406,393.174,831.186,392.082,832.205Z" transform="translate(359.99 89.634)" fill="#cacaca"/>
    <rect id="Rectangle_191" data-name="Rectangle 191" width="121.252" height="2" transform="translate(1222.035 768.848)" fill="#cacaca"/>
    <rect id="Rectangle_192" data-name="Rectangle 192" width="121.252" height="2" transform="translate(995.035 768.848)" fill="#cacaca"/>
    <path id="Path_534-658" data-name="Path 534" d="M629.3,518.056h-70V500.372h26a6,6,0,0,0,6-6V475.214a6,6,0,0,0-6-6h-26v-6a8,8,0,0,0-16,0v6H447.206a6,6,0,0,0-3.468,1.1L430.212,479.9a6,6,0,0,0,0,9.793l13.527,9.579a6,6,0,0,0,3.467,1.1H543.3v17.684h-70a6,6,0,0,0-6,6v19.158a6,6,0,0,0,6,6h70v66a8,8,0,0,0,16,0v-66h70a6,6,0,0,0,6-6V524.056a6,6,0,0,0-6-6Z" transform="translate(359.99 89.634)" fill="#3f3d56"/>
    <path id="Path_535-659" data-name="Path 535" d="M511.3,485.714h-50a3.5,3.5,0,0,1,0-7h50a3.5,3.5,0,0,1,0,7Z" transform="translate(359.99 89.634)" fill="#2196F3"/>
    <path id="Path_536-660" data-name="Path 536" d="M573.3,536.714h-50a3.5,3.5,0,0,1,0-7h50a3.5,3.5,0,1,1,0,7Z" transform="translate(359.99 89.634)" fill="#fff"/>
    <path id="Path_538-661" data-name="Path 538" d="M291.541,600.681l-45.625,20.453a3.5,3.5,0,1,1-2.863-6.388l45.625-20.453a3.5,3.5,0,1,1,2.863,6.388Z" transform="translate(359.99 89.634)" fill="#fff"/>
    <g id="Group_34" data-name="Group 34" transform="translate(367.969 239.936)">
      <path id="Path_560-662" data-name="Path 560" d="M883.913,798.893s-8.446,7.112-12.891,6.668-12.891-.445-9.335,4.445,18.226,7.557,24.449,8,20,.889,19.115-1.778-1.778-15.114-5.334-16S883.913,798.893,883.913,798.893Z" transform="translate(-112.517 -249.801)" fill="#090814"/>
      <path id="Path_561-663" data-name="Path 561" d="M967.356,785.146s-6.224,9.121-10.625,9.887-12.537,3.036-7.8,6.791,19.586,2.381,25.7,1.136,19.507-4.52,17.934-6.85-5.775-14.08-9.439-13.981S967.356,785.146,967.356,785.146Z" transform="translate(-147.484 -243.036)" fill="#090814"/>
      <path id="Path_562-664" data-name="Path 562" d="M888.125,562.856s-5.721,39.181-4.388,46.294,2.223,18.226,2.223,18.226-.889,9.335,0,13.78,5.334,61.79,5.779,61.79,17.781,1.778,18.67,0-.889-26.672-.889-26.672-.889-21.782-1.334-35.118,4-27.116,4-27.116a50.86,50.86,0,0,0,11.558,29.784c11.558,13.78,17.337,39.563,17.337,39.563s1.754,5.965.421,9.521,17.36.7,18.694-.63-3.556-12.447-3.556-14.225-8-40.452-20.448-51.565l-.889-40.452s11.113-28.45-.445-31.117S888.125,562.856,888.125,562.856Z" transform="translate(-121.676 -151.186)" fill="#090814"/>
      <path id="Path_563-665" data-name="Path 563" d="M904.74,386.087s7.557,18.67,5.779,21.337,21.782-8.891,21.782-8.891-7.557-18.67-7.557-20.893S904.74,386.087,904.74,386.087Z" transform="translate(-130.232 -79.708)" fill="#a0616a"/>
      <circle id="Ellipse_89" data-name="Ellipse 89" cx="16.448" cy="16.448" r="16.448" transform="translate(763.617 278.151)" fill="#9f616a"/>
      <path id="Path_564-666" data-name="Path 564" d="M922.962,400.367a15.6,15.6,0,0,0-14.1,5.609c-5.779,7.112-6.668,8.891-6.668,8.891s-13.78,22.227-11.113,33.34a32.172,32.172,0,0,1,1.778,3.112c.889,1.778.889,26.672,0,30.673s-1.778,5.334-.889,11.113S884.861,508.218,894.2,510s20-10.224,29.784-10.224a23.524,23.524,0,0,0,16-6.668s-3.112-16.448-4-18.67,6.432-37.815,0-52.009-8.891-16.894-8.891-16.894S925.629,399.034,922.962,400.367Z" transform="translate(-124.133 -88.928)" fill="#2196F3"/>
      <path id="Path_565-667" data-name="Path 565" d="M896.038,471v19.559l-14.225,47.12s-9.335,24.449,0,24.449,8.835-23.336,8.835-23.336l20.059-35.342s8-28.005,7.112-30.228S896.038,471,896.038,471Z" transform="translate(-119.307 -117.5)" fill="#a0616a"/>
      <path id="Path_566-668" data-name="Path 566" d="M914.112,422.557s-13.336,5.334-9.78,19.559,0,13.78,0,13.78,18.226-1.778,24,2.223l1.334-5.334S935,422.112,914.112,422.557Z" transform="translate(-129.824 -97.952)" fill="#2196F3"/>
      <path id="Path_567-669" data-name="Path 567" d="M899.219,344.869a6.562,6.562,0,0,1-6.164-.959,4.966,4.966,0,0,1-1.4-5.862c.851-1.67,2.672.4,4.418-.288a41.056,41.056,0,0,1,12.032-2.717,10.947,10.947,0,0,1,5.787.781c.868.444,1.622,1.086,2.482,1.546,1.581.847,3.421,1.035,5.13,1.58,3.537,1.154,6.4.8,7.847,4.231a15.471,15.471,0,0,1,.967,3.581,19.945,19.945,0,0,1-1.037,9.984c-1.895,5.045-5.869,9.456-6.094,14.841-2.432-1.765-3.335-4.95-5.284-7.237a9.845,9.845,0,0,0-5.619-3.259c-.606-.037-2.227-1.512-3.951-9.9-.339-1.6-.767-3.343-2.081-4.315a6.3,6.3,0,0,0-2.713-.956,42.553,42.553,0,0,0-6.949-.634" transform="translate(-125.713 -62.021)" fill="#090814"/>
    </g>
  </g>
</svg>